<?xml version="1.0" encoding="UTF-8"?>
<svg width="377px" height="123px" viewBox="0 0 377 123" version="1.1" xmlns="http://www.w3.org/2000/svg" xmlns:xlink="http://www.w3.org/1999/xlink">
    <!-- Generator: sketchtool 57.1 (101010) - https://sketch.com -->
    <title>4B61B9FB-BFFB-4E14-B5E2-0286F8DC00A2</title>
    <desc>Created with sketchtool.</desc>
    <g id="Asset-Artboard-Page" stroke="none" stroke-width="1" fill="none" fill-rule="evenodd">
        <g id="Atos-logo" fill="#A9BAB8">
            <path d="M369.44554,37.1831649 C368.469091,37.4328346 351.780065,37.1383352 350.874365,36.8614655 C350.874365,36.5682254 350.872433,36.2408173 350.874617,35.9134093 C350.904614,31.4395039 350.935115,26.9655985 350.965448,22.4916932 C350.967548,22.1840975 350.973262,21.8764178 350.969229,21.5689061 C350.957549,20.6887661 350.938896,20.6629092 350.046808,20.5002126 C345.262538,19.6280479 340.443314,19.3848424 335.588296,19.6290553 C332.277815,19.7956136 329.01901,20.2383701 325.833726,21.1639275 C323.400545,21.8708771 321.089368,22.8497433 319.0306,24.3522105 C317.209537,25.6810675 315.746167,27.3056832 314.965748,29.4611196 C313.785876,32.7199213 314.269857,35.7253595 316.382904,38.4682836 C317.592521,40.0384991 319.113364,41.2667831 320.742767,42.3693088 C323.46558,44.2116088 326.415175,45.6245005 329.43115,46.9062612 C333.732867,48.7343735 338.179191,50.1601097 342.611986,51.6248831 C347.819151,53.3455384 352.962457,55.2327521 357.896627,57.6463372 C361.476658,59.3974667 364.888976,61.4096831 367.92957,64.0140884 C372.520583,67.9465112 375.371618,72.8661113 376.491412,78.8080641 C377.029001,81.6602081 377.012868,84.5312411 376.992702,87.4111729 C376.967663,90.9999851 376.26942,94.4609402 375.052577,97.8203149 C373.112452,103.176963 369.867847,107.630804 365.535544,111.302895 C360.473826,115.5932 354.607153,118.337468 348.274312,120.158276 C344.368266,121.281286 340.383321,121.988571 336.33729,122.384231 C331.643935,122.843274 326.94747,122.820356 322.247645,122.565229 C312.491647,122.0355 303.0073,120.177753 293.849892,116.734008 C290.468159,115.462237 287.189103,113.965395 284.003735,112.262789 C283.836106,112.173129 283.685703,112.051149 283.44909,111.891474 C287.292874,106.053369 290.890466,100.110157 294.02878,93.7888302 C294.323202,93.8930131 294.604348,93.981917 294.877679,94.0906333 C300.865432,96.4713937 307.003672,98.3605382 313.302903,99.7242348 C317.106271,100.547708 320.945602,101.143171 324.82518,101.447828 C328.545112,101.739977 332.264623,101.737711 335.95834,101.131418 C339.682809,100.520172 343.269478,99.4898442 346.493413,97.4428722 C347.801506,96.612347 348.980285,95.6310463 349.93808,94.4035179 C351.282136,92.6807638 351.871736,90.7507352 351.773931,88.5461035 C351.660498,85.9892144 350.947634,83.6992888 349.17455,81.8234084 C348.448746,81.0555945 347.635389,80.3544376 346.789263,79.7192659 C344.627985,78.0965811 342.198922,76.9441047 339.726921,75.8840581 C335.841041,74.2178869 331.813412,72.9531682 327.787799,71.6798027 C322.266635,69.9333745 316.803363,68.025257 311.541834,65.5882496 C307.72435,63.8200781 304.06626,61.7829283 300.757292,59.1568638 C295.256882,54.7915907 291.739197,49.2176782 290.453034,42.2948444 C289.78025,38.673879 289.671775,35.0230272 290.026694,31.3554692 C290.37758,27.7284593 291.355457,24.283203 292.967803,21.0181889 C295.178487,16.5417651 298.380156,12.8916688 302.347539,9.89588493 C307.544033,5.97202513 313.427091,3.53426217 319.708257,1.98486644 C323.297951,1.09943748 326.942765,0.565594424 330.629759,0.255312314 C335.304125,-0.138165027 339.971181,-0.0464068159 344.634455,0.323228501 C349.207656,0.68564405 353.760858,1.25147236 358.2702,2.10122223 C362.197252,2.84133237 366.107331,3.67160566 370.0243,4.4654443 C370.239571,4.50909871 370.44854,4.58457047 370.765228,4.67515337 C370.325276,15.5139556 369.885828,26.336975 369.44554,37.1831649" id="Fill-1"></path>
            <path d="M263.68783,79.0922874 C263.608488,79.3831415 263.501718,79.666699 263.375511,80.0516529 C263.006735,79.9526887 262.688693,79.8840847 262.381674,79.7825206 C258.445117,78.4799675 254.918815,76.4573242 251.837435,73.6955527 C245.94627,68.4153106 242.463047,61.8258898 241.185077,54.0535115 C240.398557,49.2702708 240.672678,44.5402863 241.882664,39.8554227 C241.952415,39.5853679 242.028812,39.3168228 242.11337,39.0511291 C242.146689,38.9462103 242.210381,38.8509363 242.322116,38.6280992 C242.729259,38.7403984 243.106197,38.8226728 243.468242,38.9474683 C250.05733,41.2184446 255.239549,45.3122908 259.135636,51.0394652 C262.061109,55.3397942 263.843233,60.0829461 264.551758,65.2329413 C265.195665,69.9131921 264.932987,74.5319678 263.68783,79.0922874 M286.713789,64.6513756 C286.339888,61.0795576 285.642886,57.5806424 284.554266,54.163365 C281.653322,45.0569803 276.650287,37.2879592 269.560528,30.8870417 C263.485583,25.4023647 256.502629,21.5239014 248.622497,19.2713892 C243.914688,17.9256267 239.117286,17.2422888 234.222652,17.2784043 C232.685821,17.2897428 231.150082,17.4120314 229.613167,17.4413437 C228.964109,17.4536902 228.543271,17.6924721 228.164584,18.2344558 C222.519461,26.312726 219.337315,35.2688536 218.660213,45.0904081 C218.375064,49.2277269 218.569949,53.3596703 219.273417,57.4632252 C220.119711,62.4003752 221.580637,67.1408219 223.796753,71.6284605 C229.499813,83.1766695 238.228673,91.6182779 249.959825,96.9475744 C250.228096,97.0693591 250.485872,97.2143248 250.877322,97.4143036 C250.523069,97.6763506 250.293422,97.8669226 250.044295,98.0275104 C243.999997,101.92336 237.39657,103.463641 230.275659,102.516073 C223.802631,101.654677 218.181606,98.8764754 213.576739,94.268228 C205.319096,86.0045092 202.3294,75.9471964 203.98202,64.4839847 C204.739814,59.227423 206.790601,54.4396062 209.925223,50.1352325 C210.181739,49.7830649 210.288124,49.417375 210.318352,48.9767665 C210.469155,46.77406 210.585448,44.5648024 210.855903,42.3753662 C211.339295,38.4617113 212.106073,34.5961823 213.169756,30.7957452 C214.158036,27.2641581 215.293089,23.7866603 217.144961,20.5898551 C217.232874,20.4379182 217.294337,20.2706953 217.413653,20.0118399 C216.844027,20.2007321 216.389686,20.3329314 215.948697,20.5002383 C203.043531,25.3955616 193.413547,33.9895268 187.072177,46.2315724 C183.77844,52.5901592 181.961247,59.3805357 181.470213,66.5343343 C181.185148,70.6872751 181.38482,74.8096437 182.070822,78.9045478 C183.006204,84.4879963 184.814246,89.7855448 187.464131,94.79249 C187.868596,95.5567937 187.864565,95.5616651 187.278482,96.1469033 C185.284288,98.1381244 183.049531,99.8099338 180.5418,101.094216 C176.345932,103.243253 171.930492,104.384081 167.186073,103.744418 C163.755388,103.281804 160.869894,101.733543 158.595085,99.1136615 C155.756612,95.8444574 154.43062,91.9549075 154.412903,87.6978199 C154.347493,71.9461085 154.379736,56.1940611 154.378309,40.4421818 C154.378309,40.1729957 154.417521,39.9037256 154.446909,39.5255213 L181.527058,39.5255213 C181.565431,39.2006502 181.612871,38.9854693 181.613039,38.7702044 C181.61707,33.090588 181.617406,27.4109716 181.612536,21.7312712 C181.612284,21.4946731 181.555523,21.2581589 181.519921,20.9809098 L176.066829,20.9809098 L170.611301,20.9809098 L165.23974,20.9809098 C163.421203,20.9809098 161.602581,20.9911565 159.784212,20.9779702 C158.00791,20.9650358 156.228669,21.0369307 154.375454,20.9269046 L154.375454,15.8842639 L154.375454,10.8480905 C154.375454,9.19736244 154.38595,7.54655043 154.372515,5.8959064 C154.358913,4.22745661 154.43381,2.55631917 154.323815,0.911974345 C153.40615,0.691166166 130.869405,0.724006028 130.148556,0.950105541 C130.131679,1.3068086 130.098008,1.69122816 130.097756,2.07564773 C130.09381,7.97909593 130.095993,13.8826281 130.089612,19.7860763 C130.089192,20.1622649 130.031339,20.5383695 129.99473,20.9809098 L124.029948,20.9809098 C122.043647,20.9809098 120.057178,20.9701591 118.070876,20.9839334 C116.123871,20.9973717 114.174431,20.9230411 112.171252,21.0312194 C112.146734,21.3827152 112.111217,21.6561847 112.111049,21.9296542 C112.108564,27.4694283 112.108564,33.0091183 112.112392,38.5488923 C112.112644,38.8440311 112.167558,39.139002 112.20551,39.5180462 L113.271208,39.5180462 C118.419,39.5180462 123.566791,39.5180462 128.714499,39.5182982 C128.966314,39.5182982 129.218632,39.5314005 129.469774,39.519642 C129.902955,39.4992326 130.076849,39.7256681 130.080963,40.1279774 C130.086253,40.6595464 130.093894,41.1910314 130.093978,41.7225165 C130.094314,57.3345534 130.09784,72.9465904 130.090703,88.5586274 C130.089024,92.1482511 130.34025,95.7088985 131.163286,99.2136089 C132.080195,103.118361 133.581425,106.769213 135.922399,110.045892 C139.312445,114.791042 143.839643,118.046472 149.254363,120.101021 C155.759719,122.569386 162.508323,123.199223 169.388923,122.56821 C173.528786,122.188578 177.53212,121.175918 181.392964,119.613715 C187.373448,117.193812 192.595885,113.691453 196.875552,108.831069 C197.070521,108.609589 197.294123,108.41339 197.547364,108.162933 C197.982561,108.556844 198.353942,108.891374 198.723477,109.227835 C203.342367,113.43117 208.552629,116.703649 214.33193,119.055185 C219.815166,121.286364 225.522676,122.543853 231.439429,122.839412 C231.740447,122.854446 232.037687,122.944735 232.336606,123 L235.86209,123 C236.133132,122.947171 236.402075,122.869564 236.675637,122.845879 C237.594478,122.766341 238.515921,122.715948 239.434762,122.63641 C242.958062,122.331276 246.401007,121.600988 249.766787,120.541714 C257.575631,118.084015 264.469246,114.042613 270.42202,108.417589 C276.568001,102.609973 281.096291,95.7271242 283.943077,87.7662712 C286.619999,80.2800425 287.543038,72.5715777 286.713789,64.6513756" id="Fill-4"></path>
            <path d="M77.421236,70.899806 C66.9590072,70.9038298 56.4968625,70.9037459 46.0346337,70.9005605 C45.7363441,70.9004766 45.4379705,70.8611613 44.9959541,70.8298935 C46.0585741,67.5775373 47.220232,64.4834483 48.3133445,61.3667257 C49.402257,58.2620743 50.5145219,55.165638 51.6140186,52.0646751 C52.7230075,48.9372225 53.8274603,45.8081772 54.9361971,42.6807246 C56.0354418,39.579594 57.1310744,36.4772898 58.2403993,33.3797638 C59.3548482,30.2678194 60.4128481,27.1348342 61.6390192,23.8884298 C62.2303903,24.9366981 78.2415114,70.0938843 78.2980445,70.8224328 C78.007483,70.849174 77.7143175,70.8997222 77.421236,70.899806 L77.421236,70.899806 Z M126.253354,105.955711 C123.732291,105.955711 121.211144,105.961006 118.690081,105.953189 C117.577044,105.949659 117.664052,106.110537 117.23481,104.895714 C116.759668,103.550776 116.279565,102.207435 115.802405,100.863169 C109.141751,82.0964051 102.48135,63.3295568 95.8205281,44.5627925 C90.7501559,30.2767453 85.6792792,15.9908663 80.6085707,1.70490315 C80.2755001,0.766531315 80.2749957,0.762396694 79.3280734,0.762396694 C63.0248518,0.762396694 46.7216303,0.762396694 30.4184928,0.764261874 C30.118124,0.764345927 29.8177553,0.79309218 29.4523193,0.811836082 C29.4228961,1.14174556 29.3779206,1.41273363 29.3776684,1.68363765 C29.3732129,5.96792203 29.3726245,10.2522905 29.378425,14.5364908 C29.3788454,14.8301733 29.4359263,15.1237717 29.4738402,15.4862098 C31.6308123,15.4862098 33.6997669,15.4746945 35.7685535,15.4894039 C37.8523879,15.5041973 39.9392487,15.4241784 42.1331258,15.5458037 C41.9966022,16.0145693 41.9142173,16.360533 41.7962723,16.6938887 C35.1516753,35.4668729 28.5037156,54.2387644 21.8570169,73.0109922 C18.0949678,83.6362629 14.3361133,94.2626263 10.5709537,104.886804 C10.1306987,106.129113 10.2444404,105.949239 9.03439064,105.953021 C6.34519512,105.961427 3.6559996,105.953946 0.966804076,105.958065 C0.671815578,105.958569 0.376827079,105.99261 0.101678217,106.009757 C-0.0742724601,107.40227 -0.00844858022,120.005232 0.196252758,120.703884 C3.68685191,120.703884 7.21023691,120.703884 10.73379,120.703884 L21.3224396,120.703884 C24.8799555,120.703884 28.4375555,120.71281 31.9951554,120.701278 C35.5103019,120.689174 39.0270457,120.755156 42.5161317,120.662277 C42.6977148,119.679525 42.6708136,106.710678 42.4839343,105.955627 L40.0964526,105.955627 L37.6593717,105.955627 C36.8190454,105.955627 35.9782988,105.969832 35.1383087,105.951508 C34.3427057,105.934193 33.5372669,106.03657 32.6507882,105.860058 C32.7574683,105.483331 32.823124,105.190321 32.9224903,104.909247 C34.6195359,100.110135 36.317338,95.3111921 38.0233786,90.5152748 C38.4737216,89.2491789 38.1984046,89.2757398 39.7800272,89.2757398 C54.4305061,89.2759919 69.0809851,89.2759079 83.731464,89.2759079 C83.8995125,89.2759079 84.067645,89.2735544 84.2356934,89.2773368 C85.0311283,89.294988 85.0468487,89.2936431 85.3156926,90.0502916 C87.1047067,95.0840799 88.8891811,100.119549 90.6693682,105.156532 C90.7469613,105.376163 90.768146,105.615715 90.8382573,105.955627 L87.712926,105.955627 C86.6764731,105.955627 85.6400203,105.954702 84.6035674,105.955879 C83.6060371,105.956972 82.6085069,105.960166 81.6387186,105.962351 C81.4509146,106.940817 81.4790768,119.915043 81.6670489,120.651014 C82.0519883,120.667825 82.4637448,120.701614 82.8755014,120.701698 C97.1897993,120.704388 111.504181,120.703884 125.818479,120.7038 C126.0426,120.7038 126.268234,120.717836 126.490337,120.696235 C126.700755,120.67581 126.907474,120.617141 127.107215,120.576963 L127.107215,105.955711 L126.253354,105.955711 Z" id="Fill-6"></path>
        </g>
    </g>
</svg>