<?xml version="1.0" encoding="UTF-8"?>
<svg width="99px" height="54px" viewBox="0 0 99 54" version="1.1" xmlns="http://www.w3.org/2000/svg" xmlns:xlink="http://www.w3.org/1999/xlink">
    <!-- Generator: sketchtool 63.1 (101010) - https://sketch.com -->
    <title>23771D3A-1535-438D-815D-7CA2424E8C10</title>
    <desc>Created with sketchtool.</desc>
    <defs>
        <polygon id="path-1" points="0 0.0353748335 31.6322594 0.0353748335 31.6322594 32.977243 0 32.977243"></polygon>
        <polygon id="path-3" points="0.031928822 0.00577023773 25.2932723 0.00577023773 25.2932723 17.2072314 0.031928822 17.2072314"></polygon>
        <polygon id="path-5" points="0.0140876582 0.0290506227 6.28439668 0.0290506227 6.28439668 6.27314745 0.0140876582 6.27314745"></polygon>
        <polygon id="path-7" points="0.0190209678 0.0351447622 1.51625073 0.0351447622 1.51625073 6.20561468 0.0190209678 6.20561468"></polygon>
    </defs>
    <g id="Desktop" stroke="none" stroke-width="1" fill="none" fill-rule="evenodd">
        <g id="Web_desktop" transform="translate(-779.000000, -10205.000000)">
            <g id="Sponzori-sekcija" transform="translate(220.000000, 5234.000000)">
                <g id="Srebrni-sekcija" transform="translate(0.000000, 4848.000000)">
                    <g id="Bdr-logo" transform="translate(559.000000, 123.000000)">
                        <g id="Group-3" transform="translate(0.000000, 0.701655)">
                            <mask id="mask-2" fill="white">
                                <use xlink:href="#path-1"></use>
                            </mask>
                            <g id="Clip-2"></g>
                            <path d="M5.25040661,0.0353748335 C6.10220274,0.385914754 6.42061026,1.04857588 6.41679501,1.92759936 C6.40700807,4.10372749 6.4130627,6.27993789 6.41405799,8.45606602 C6.41447269,9.24517161 6.5497482,9.37597623 7.36131831,9.37605849 C13.271473,9.37638756 19.1816276,9.37556489 25.0917822,9.3765521 C28.4691912,9.37712797 31.0191055,11.5126162 31.5894025,14.8213971 C31.6263109,15.0355383 31.6277209,15.2573302 31.6278868,15.475667 C31.6301262,19.2668619 31.6368443,23.0579746 31.6272232,26.8491696 C31.6193439,29.9798423 28.9548062,32.7306059 25.8010041,32.9262369 C24.8617061,32.984482 23.9246474,32.9718129 22.9868422,32.9730469 C18.1261303,32.9794637 13.2655013,32.9755149 8.40487224,32.977243 C8.12776894,32.977243 7.85298797,32.9676995 7.58127579,32.9110998 C6.86085699,32.7611269 6.32307256,32.1647731 6.31013388,31.4348997 C6.29064293,30.3266803 6.2870765,29.2174736 6.31079741,28.1093363 C6.32929308,27.2467663 7.00766119,26.623511 7.91494432,26.620714 C10.8561706,26.6116646 13.7973969,26.6155311 16.7387062,26.6149553 C19.2380269,26.6144617 21.7373477,26.616107 24.2367514,26.6139681 C25.0732866,26.6132277 25.2162755,26.4666278 25.2164414,25.6311236 C25.2167732,22.6338057 25.2171049,19.6364878 25.2161096,16.6390877 C25.2158608,15.8516274 25.1042233,15.7432817 24.3027719,15.7432817 C18.6411891,15.7428704 12.9796063,15.7428704 7.31810645,15.7432817 C6.52561259,15.743364 6.41438975,15.8540132 6.41405799,16.6491243 C6.4130627,19.3042935 6.41538503,21.9595449 6.41090626,24.6146318 C6.41049156,24.8732795 6.39473291,25.1357936 6.34762287,25.389423 C6.20679036,26.1461976 5.57835227,26.6659608 4.7994606,26.6716373 C3.73624984,26.6792881 2.67295614,26.6784654 1.60966244,26.6723777 C0.664890324,26.6669481 0.00402260097,26.0061791 0.00377378029,25.0605193 C0.00153439419,17.2455604 0.00418848143,9.43060155 -4.17640548e-05,1.61556042 C-0.000456171244,0.822917348 0.437965865,0.355640478 1.10687879,0.0353748335 L5.25040661,0.0353748335 Z" id="Fill-1" fill="#A9BAB8" mask="url(#mask-2)"></path>
                        </g>
                        <path d="M67.7924222,0.70165495 C68.6434051,1.08713554 68.9134437,1.7508082 68.910887,2.66086541 C68.8889401,10.3107351 68.8951698,17.9606049 68.9031439,25.610557 C68.9038915,26.3527596 68.6571936,26.9172192 67.9636155,27.2511156 C67.7459898,27.3558496 67.5163199,27.3855147 67.2785099,27.3852675 C66.2412991,27.3844434 65.2040053,27.3935902 64.1669607,27.382713 C63.1817475,27.3723302 62.5413299,26.7296703 62.5390872,25.7448737 C62.5329405,23.0030008 62.5370106,20.2610456 62.5351002,17.5191727 C62.5350171,17.3415946 62.5351832,17.1611323 62.5057788,16.9868503 C62.4453088,16.6292218 62.2347435,16.4278292 61.8522372,16.4320318 C61.6586999,16.4340919 61.4650794,16.4303837 61.271459,16.4303837 C55.7119529,16.4302189 50.1525299,16.4301365 44.5930238,16.4303837 C43.7757645,16.4304661 43.645106,16.5570369 43.6448568,17.3525542 C43.6441092,20.3823426 43.6439431,23.4122135 43.645106,26.4420019 C43.6453552,27.1628621 43.8148042,27.3308816 44.5551469,27.3311288 C49.9901412,27.3328593 55.4251355,27.3312112 60.8602129,27.3336833 C61.7321278,27.3340953 62.3374096,27.7681936 62.5300333,28.5245694 C62.5700698,28.6817117 62.5807019,28.8495663 62.5814494,29.0126416 C62.5858518,29.9996631 62.5884268,30.986767 62.582197,31.9738709 C62.5763826,32.9187021 62.0446948,33.5180181 61.102093,33.6477202 C60.8975083,33.675902 60.6890195,33.6866968 60.4824412,33.6867792 C55.0059153,33.6887568 49.5293894,33.6833182 44.0528635,33.6907439 C41.7366449,33.6938658 39.8026833,32.9137579 38.4155271,31.0193985 C37.6491025,29.9727174 37.2343678,28.7914723 37.2330387,27.487447 C37.2292178,23.7447914 37.2225728,20.0020534 37.2345339,16.2593978 C37.2442523,13.2149416 39.6378858,10.5446769 42.6813232,10.1417269 C43.0940644,10.0870938 43.5060581,10.0671523 43.9213744,10.0672347 C49.7850581,10.0685531 55.6488248,10.0682235 61.5125085,10.0680587 C62.3915669,10.0679763 62.5351002,9.92476014 62.5357647,9.03480922 C62.5372598,6.90980421 62.5636739,4.78430477 62.5234713,2.66012378 C62.5061941,1.74899533 62.7901043,1.08581709 63.6427485,0.70165495 L67.7924222,0.70165495 Z" id="Fill-4" fill="#A9BAB8"></path>
                        <g id="Group-8" transform="translate(73.663362, 10.127109)">
                            <mask id="mask-4" fill="white">
                                <use xlink:href="#path-3"></use>
                            </mask>
                            <g id="Clip-7"></g>
                            <path d="M25.2932971,5.17169076 C24.9071353,6.02479858 24.2303994,6.33059723 23.3016063,6.3274852 C17.9916733,6.30971382 12.6816574,6.31962321 7.3717244,6.32068785 C6.53023607,6.32085164 6.42462551,6.42657903 6.42429419,7.26805765 C6.42330021,9.91156991 6.42296888,12.5550003 6.42313454,15.1985125 C6.42321737,15.4441997 6.416508,15.6876757 6.36018237,15.9294319 C6.18010602,16.7018724 5.60517044,17.1863676 4.80029377,17.197014 C3.76597298,17.2107725 2.73132088,17.2101173 1.69708292,17.1981606 C0.732009534,17.1870227 0.0495582705,16.5216199 0.0470733163,15.5690088 C0.0387073037,12.3804805 0.0138577614,9.19154266 0.0547766744,6.00350569 C0.091968156,3.10628046 2.46385697,0.529103741 5.39949906,0.096121018 C5.78226485,0.0396948602 6.16511346,0.0125873737 6.55251783,0.0128330608 C12.1521965,0.0155356199 17.7517924,0.0236432972 23.3513882,0.00577023773 C24.271981,0.00284178182 24.9207197,0.329032473 25.2932971,1.16518787 L25.2932971,5.17169076 Z" id="Fill-6" fill="#A9BAB8" mask="url(#mask-4)"></path>
                        </g>
                        <g id="Group-11" transform="translate(92.673262, 27.407108)">
                            <mask id="mask-6" fill="white">
                                <use xlink:href="#path-5"></use>
                            </mask>
                            <g id="Clip-10"></g>
                            <path d="M6.28442105,5.14103734 C5.93761224,5.96580485 5.28339547,6.28337014 4.4160891,6.27289742 C3.56511174,6.26258581 2.7137282,6.2812756 1.86291332,6.2671777 C0.764969744,6.24897126 0.113027665,5.70801465 0.0564041601,4.67008688 C0.000268088331,3.64263184 -0.00119421166,2.60720141 0.0590850434,1.58014916 C0.118470671,0.567597617 0.742872766,0.0508088361 1.7676201,0.0435584869 C2.64573125,0.0373554104 3.52538593,0.0741710725 4.4014661,0.0326829631 C5.288676,-0.00920794351 5.92022712,0.30867959 6.28442105,1.11942975 L6.28442105,5.14103734 Z" id="Fill-9" fill="#A9BAB8" mask="url(#mask-6)"></path>
                        </g>
                        <g id="Group-14" transform="translate(97.425737, 47.043470)">
                            <mask id="mask-8" fill="white">
                                <use xlink:href="#path-7"></use>
                            </mask>
                            <g id="Clip-13"></g>
                            <path d="M1.51628242,6.15899729 C0.0192528041,6.26900069 0.0192528041,6.26900069 0.0192528041,5.17684112 C0.0192528041,3.65604213 0.0185135302,2.13524314 0.0196752464,0.614364612 C0.0202032991,0.0395312289 0.0254838269,0.036111022 0.778592693,0.0351447622 C1.02445406,0.0348383869 1.27042105,0.0410424832 1.51628242,0.0441445313 L1.51628242,6.15899729 Z" id="Fill-12" fill="#A9BAB8" mask="url(#mask-8)"></path>
                        </g>
                        <path d="M2.05861085,48.1311583 C1.11450796,48.1232038 1.11450796,48.1232038 1.11622258,49.0643558 C1.11646752,49.1719044 1.11834544,49.279453 1.11965182,49.3870017 C1.12136644,49.5306704 1.18937973,49.6224723 1.3384701,49.6195502 C1.81048072,49.6104593 2.28641048,49.6804268 2.75393043,49.57231 C3.20348768,49.468414 3.37715428,49.2354596 3.34808737,48.8005572 C3.32171487,48.4054276 3.06207229,48.1599732 2.62680354,48.1331063 C2.43803195,48.121418 2.24803563,48.1311583 2.05861085,48.1311583 M2.03134022,52.300068 C2.23464526,52.300068 2.43819525,52.3074544 2.64125534,52.2987693 C3.2436588,52.2730388 3.52142737,52.0098085 3.52053141,51.4749874 C3.51971275,50.9479585 3.23590218,50.6795333 2.6348051,50.6520983 C2.37769362,50.6403288 2.11976566,50.6464976 1.86224594,50.6482834 C1.02738889,50.6540463 1.12022336,50.564436 1.11695742,51.3773413 C1.11328323,52.3020161 1.11605928,52.3020161 2.03134022,52.300068 M3.6991764,50.0910597 C4.51892846,50.4467413 4.8431551,51.0558318 4.7309699,51.8659774 C4.60637412,52.7658145 4.01744269,53.2866746 3.09865086,53.313785 C2.18884039,53.3406518 1.27756023,53.3171129 0.36693327,53.3255544 C0.111699711,53.3279083 -0.000812075639,53.2389473 -7.92036055e-14,52.9736066 C0.00580146189,51.1238512 0.00433178688,49.2740147 0.000739247979,47.4242594 C0.000331004921,47.2032368 0.056423601,47.0514512 0.312718592,47.0550226 C1.19517679,47.0673603 2.079023,47.00137 2.95992987,47.0930096 C3.68643922,47.1685777 4.30900988,47.4412237 4.49525036,48.2040479 C4.68263393,48.971661 4.51125349,49.6584301 3.6991764,50.0910597" id="Fill-15" fill="#A9BAB8"></path>
                        <path d="M15.324006,49.4680128 C15.324006,50.5564296 15.328629,51.6449273 15.3196181,52.7332632 C15.3181293,52.9195739 15.4192084,53.1864601 15.1781074,53.2679255 C14.9213352,53.3546493 14.6344744,53.3398448 14.3679077,53.2637996 C14.2491986,53.2299838 14.2603251,53.0904328 14.2602468,52.985183 C14.2585229,51.1143908 14.2602468,49.2436795 14.2574249,47.3728873 C14.2570342,47.1472597 14.3657921,47.0721853 14.5681853,47.0534976 C15.0381638,47.0101357 15.3917055,47.0933809 15.6693203,47.5827397 C16.2748544,48.6502036 16.9555318,49.672364 17.6091765,50.7106233 C17.6692754,50.8060843 17.7006961,50.9343094 17.8342929,50.9764578 C17.9343533,50.8431361 17.8868697,50.6906412 17.8875749,50.5506858 C17.8925113,49.5547367 17.8873398,48.5587876 17.8918061,47.5628385 C17.8940784,47.0801943 17.9318459,47.0521223 18.4630203,47.0529313 C18.9740573,47.0537403 19.0000714,47.0733179 19.0006199,47.5463351 C19.0027355,49.2960213 18.9899635,51.0457884 19.0097876,52.795151 C19.0145673,53.2151792 18.8671799,53.3016604 18.4879375,53.3209144 C18.0105152,53.3451032 17.7356428,53.1789364 17.4852958,52.7564003 C16.8198978,51.6334396 16.100826,50.5442138 15.4031454,49.4415588 C15.3767395,49.4503768 15.3504119,49.4591948 15.324006,49.4680128" id="Fill-17" fill="#A9BAB8"></path>
                        <path d="M50.2633038,49.034559 C50.2633038,49.2090554 50.2749498,49.3846029 50.2607337,49.5578864 C50.2367187,49.8501962 50.350127,49.977551 50.6493096,49.9630771 C51.0221432,49.9450452 51.3963423,49.957902 51.7697382,49.9456113 C52.0527769,49.9363123 52.2869024,49.8217334 52.4342046,49.565649 C52.818363,48.8977435 52.4166151,48.1518887 51.6566512,48.1232641 C51.4966588,48.1171996 51.3363452,48.1173613 51.1762724,48.1194637 C50.1089336,48.1334525 50.2807327,47.9836994 50.2633038,49.034559 M49.1142822,50.1915881 C49.1144428,49.318055 49.1257676,48.4443601 49.1092222,47.5712313 C49.1021542,47.2010532 49.2126711,47.0251821 49.6095197,47.0453972 C50.4753419,47.0893043 51.3462242,46.9773937 52.2090747,47.1142093 C53.0083941,47.2409981 53.5769615,47.8144589 53.6998472,48.5928195 C53.8547796,49.5736542 53.5392926,50.3256544 52.7746703,50.7127323 C52.5419906,50.8305457 52.5244814,50.9226455 52.6572462,51.131184 C53.0389951,51.7306818 53.3999418,52.3435215 53.7750243,52.9473858 C53.9306796,53.1979716 53.8818466,53.2719587 53.5800939,53.3086693 C52.9235789,53.3887209 52.4637614,53.2206933 52.1902001,52.5554562 C52.0032211,52.1010217 51.6994604,51.6946181 51.4405972,51.2712339 C51.3067883,51.0524261 50.5438527,50.9197345 50.3497254,51.0753905 C50.2396905,51.1636898 50.2650708,51.2946834 50.2644283,51.4127394 C50.2613762,51.9233717 50.2552721,52.434085 50.2644283,52.9445556 C50.268926,53.2032275 50.1633086,53.319262 49.907899,53.2984809 C49.8813943,53.2963785 49.8544879,53.2985618 49.8277422,53.2992086 C49.1149247,53.3148147 49.1146034,53.3148147 49.1142822,52.6103603 C49.1138806,51.8041029 49.1141215,50.9978455 49.1142822,50.1915881" id="Fill-19" fill="#A9BAB8"></path>
                        <path d="M22.6715445,50.2092426 C22.6715445,50.7892924 22.6711884,51.3694234 22.6717225,51.9495544 C22.6719005,52.1161178 22.6671826,52.296318 22.9266679,52.2942888 C23.3989934,52.2904737 23.8726542,52.3396635 24.3431104,52.2529726 C24.9454011,52.1419303 25.3096596,51.8079917 25.4548468,51.2742907 C25.6357298,50.6094981 25.6291425,49.9296888 25.5065658,49.2657079 C25.3571058,48.455781 24.898578,48.142947 24.0022633,48.1253328 C23.7359237,48.1200567 23.4677147,48.1391319 23.2032445,48.1179462 C22.8095212,48.0863706 22.6384301,48.2019585 22.6624647,48.5907688 C22.6959352,49.1286096 22.6709214,49.6696161 22.6715445,50.2092426 M21.3921886,50.1855406 C21.3919215,49.3078357 21.4032267,48.4299686 21.3864025,47.5525072 C21.3796372,47.1968959 21.5008787,47.0261116 21.9185476,47.0448622 C22.7610068,47.0826068 23.6061366,47.0000556 24.4485958,47.1016009 C25.7986314,47.2643493 26.5601739,47.8979721 26.8179679,49.1109954 C26.9863885,49.9034705 26.968496,50.6948902 26.7480003,51.4786799 C26.4238885,52.6299319 25.5142213,53.2951304 24.2130562,53.3174525 C23.427924,53.3309269 22.6419908,53.3099036 21.8570367,53.3267872 C21.5062197,53.3343361 21.3846221,53.2084395 21.3884499,52.899664 C21.399666,51.9950103 21.3924556,51.0902755 21.3921886,50.1855406" id="Fill-21" fill="#A9BAB8"></path>
                        <path d="M43.2693265,50.2183727 C43.2693265,50.7701272 43.2693265,51.3218005 43.2694161,51.8734739 C43.2694161,51.9004085 43.2718349,51.9274243 43.2704015,51.9541967 C43.2576804,52.18306 43.3543433,52.3090524 43.6308046,52.3009396 C43.9873555,52.2905552 44.3460564,52.3142447 44.7009051,52.2897439 C45.399494,52.2415536 45.828878,51.9300204 46.0230101,51.3211515 C46.2673998,50.5549746 46.2633684,49.7797112 46.0244435,49.0129664 C45.8561121,48.4728133 45.4100651,48.1644441 44.781801,48.1349945 C44.4257876,48.1183631 44.0677138,48.1375094 43.7116108,48.1210404 C43.3842649,48.1058694 43.2583075,48.228211 43.2656535,48.5230318 C43.2797184,49.0878479 43.2697744,49.653232 43.2693265,50.2183727 M41.9875351,50.2014168 C41.9878038,49.2850712 41.9912977,48.3686444 41.9854746,47.4523798 C41.9839516,47.220028 42.0356426,47.0510374 42.3435484,47.0539581 C43.1770533,47.0619898 44.0174562,47.008445 44.8426296,47.0866528 C46.5168062,47.2454212 47.2511398,47.9075103 47.4664141,49.4118749 C47.5696167,50.1331067 47.5448911,50.8638305 47.319404,51.5762193 C46.9859662,52.6298343 46.0810616,53.2856765 44.8685199,53.3143149 C44.0648471,53.3333801 43.25992,53.306202 42.4563368,53.3266464 C42.0704018,53.3365441 41.9476695,53.186781 41.9872663,52.8695688 C41.9889684,52.8562637 41.9872663,52.8426342 41.9872663,52.8291668 C41.9872663,51.9532231 41.9872663,51.0772794 41.9875351,50.2014168" id="Fill-23" fill="#A9BAB8"></path>
                        <path d="M85.9615187,49.9440793 C86.2033522,49.9440793 86.4463207,49.9590369 86.6866138,49.9401985 C86.9742522,49.9176409 87.2223281,49.7784146 87.3092358,49.5000429 C87.5080208,48.8639841 87.3882796,48.1172396 86.4531306,48.1258907 C86.3052579,48.1272652 86.1573852,48.1238695 86.0095125,48.1237886 C85.0705532,48.1232226 85.0641486,48.1233035 85.0721746,49.0588362 C85.0810923,50.0778886 84.9206537,49.9537815 85.9615187,49.9440793 M83.964021,50.1817019 C83.9639399,49.2678374 83.9658856,48.3539728 83.9624807,47.4401892 C83.96167,47.2296518 83.9965303,47.0566296 84.2584693,47.0609956 C85.1873758,47.0765191 86.1196874,46.9813569 87.0445404,47.1201789 C87.8663527,47.2435583 88.4254153,47.8040209 88.5462915,48.5920805 C88.7005688,49.5974689 88.3980135,50.3356431 87.6233842,50.7096622 C87.3449068,50.8441182 87.3859285,50.9544805 87.5135336,51.1558008 C87.8876743,51.7465827 88.2448712,52.348037 88.6194172,52.9385764 C88.7988264,53.221395 88.7158912,53.2803357 88.4051477,53.3125146 C87.7625824,53.3789745 87.2971563,53.2329567 87.0364333,52.5716723 C86.8759136,52.1645041 86.5933016,51.8051192 86.3646826,51.4247129 C86.1556016,51.0766472 85.5863241,50.8945696 85.2161559,51.050613 C85.050853,51.120307 85.0729042,51.2614737 85.0720935,51.3922106 C85.0690939,51.8894473 85.0575819,52.3870883 85.0746067,52.8837591 C85.085308,53.193582 84.9800784,53.3403275 84.6575797,53.3049146 C84.551053,53.2931911 84.4413645,53.294889 84.3343514,53.3040252 C84.0503612,53.3283615 83.9576164,53.1951182 83.9604539,52.9232146 C83.9701013,52.0094309 83.9641021,51.0955664 83.964021,50.1817019" id="Fill-25" fill="#A9BAB8"></path>
                        <path d="M71.7050296,49.8765026 C72.3807281,49.0666112 73.0577545,48.2579255 73.7315001,47.4463459 C73.9884217,47.1367784 74.7612177,46.9373401 75.1171116,47.1035789 C75.3412248,47.2082418 75.1756982,47.3211041 75.1039882,47.409529 C74.5707723,48.0665258 74.0473989,48.7332494 73.48778,49.3658088 C73.2535118,49.6306815 73.2757747,49.8207146 73.4466912,50.0972433 C74.0185743,51.022489 74.5705379,51.9609181 75.124845,52.8974983 C75.3289606,53.2422749 75.2939649,53.2471785 74.9012787,53.3052978 C74.2320638,53.4042532 73.8086,53.1701685 73.5195729,52.5269981 C73.2756966,51.9842301 72.9081635,51.5016715 72.6264792,50.9749807 C72.4542347,50.6527927 72.3471385,50.7126 72.1298995,50.9382442 C71.7497117,51.3332623 71.539503,51.7634895 71.6179309,52.3307752 C71.6469118,52.5404226 71.618634,52.7581086 71.6210555,52.9720164 C71.6233209,53.1819049 71.5414559,53.3036097 71.3225765,53.2942045 C71.3096093,53.2936418 71.296564,53.2943652 71.2835188,53.2952495 C70.4974432,53.3487867 70.4954903,53.3470986 70.4954903,52.5495062 C70.4954122,50.8910575 70.4940842,49.2326088 70.4964277,47.57416 C70.4971307,47.0987557 70.5212684,47.0927268 71.0719822,47.079865 C71.4092846,47.0719871 71.6491771,47.098595 71.6307419,47.5604944 C71.600355,48.3198229 71.6224616,49.0814022 71.6224616,49.8420169 C71.6500364,49.8535122 71.677533,49.8650074 71.7050296,49.8765026" id="Fill-27" fill="#A9BAB8"></path>
                        <path d="M91.0940727,50.1879883 C91.0939816,49.2977776 91.1033599,48.4074046 91.0892469,47.5174373 C91.0837839,47.1700498 91.2338366,47.040895 91.6262682,47.0456004 C92.8379805,47.0602034 94.0504211,47.0667747 95.2617692,47.0437345 C95.7752081,47.0339992 95.7560873,47.2946615 95.7652835,47.6145467 C95.774935,47.952929 95.7020028,48.1464178 95.2489309,48.1326262 C94.4469501,48.1082068 93.6431481,48.1353034 92.8405299,48.122323 C92.5135643,48.1169686 92.3777156,48.2100217 92.3865475,48.5162776 C92.4224218,49.7572831 92.1931543,49.5332093 93.5176793,49.5558438 C93.9719348,49.5637132 94.4267366,49.562334 94.8810832,49.5571418 C95.1523254,49.554059 95.2926356,49.6320224 95.3071128,49.9032312 C95.344717,50.6087961 95.3319698,50.6322419 94.5367268,50.6328909 C93.9610086,50.6333777 93.3851084,50.6423828 92.8098456,50.6300514 C92.4957182,50.6233179 92.3937406,50.7339756 92.3854549,51.0115124 C92.346667,52.3011943 92.3387455,52.3008698 93.7793611,52.3010321 C94.3247591,52.3011132 94.8707944,52.315635 95.4153729,52.297787 C95.8638012,52.2831029 95.8448625,52.5398711 95.8400367,52.8066179 C95.8354842,53.0628993 95.8886582,53.3303763 95.4293948,53.3259954 C94.1267222,53.313664 92.8236854,53.3144753 91.5209217,53.3271064 C91.1573534,53.3306197 91.091068,53.1642274 91.0923427,52.8991031 C91.0969863,51.9954252 91.0941637,51.0917474 91.0940727,50.1879883" id="Fill-29" fill="#A9BAB8"></path>
                        <path d="M29.3115771,50.1907146 C29.3115005,49.2868316 29.3194673,48.3827865 29.3071341,47.4789846 C29.3029975,47.167203 29.4091703,47.0433823 29.7070058,47.0461393 C30.7527238,47.056032 31.7989781,47.0623568 32.844543,47.0436256 C33.25016,47.0364088 33.2522283,47.2817797 33.2549094,47.5915342 C33.2576671,47.9102893 33.2339966,48.1434971 32.8358102,48.1300366 C32.1604713,48.1073321 31.483677,48.135956 30.8080318,48.1195763 C30.5055235,48.1121973 30.4054023,48.2321258 30.4122967,48.5452859 C30.4386484,49.7432734 30.2692774,49.5329323 31.360728,49.5534475 C31.7432106,49.5605832 32.126306,49.5665837 32.5084823,49.5527988 C32.8807766,49.5394193 32.8734226,49.7971967 32.8661453,50.0662452 C32.8590977,50.3288067 32.929037,50.635723 32.5182875,50.630128 C31.9444487,50.6222625 31.3702268,50.6391287 30.7965412,50.6263169 C30.5198484,50.6201542 30.3974355,50.7221624 30.4133691,51.0245379 C30.4289197,51.3204263 30.4300687,51.6187474 30.4130627,51.9144737 C30.395214,52.225931 30.5308027,52.3066942 30.8015204,52.3012614 C31.4773189,52.2878819 32.1542664,52.3183708 32.8292222,52.2891793 C33.2124709,52.2725564 33.2735241,52.4588956 33.2668596,52.798247 C33.2607313,53.1130288 33.2550626,53.3369116 32.849369,53.3267756 C31.8039574,53.3008276 30.7576265,53.310477 29.7119084,53.3228834 C29.4168307,53.3263702 29.3025378,53.2205509 29.3070575,52.9024445 C29.3200035,51.9987237 29.3116537,51.0945975 29.3115771,50.1907146" id="Fill-31" fill="#A9BAB8"></path>
                        <path d="M77.6302833,50.1777139 C77.6300534,49.3010655 77.6423891,48.4240927 77.6241538,47.5478497 C77.6165685,47.1882552 77.7161733,47.0386606 78.0765127,47.0451471 C79.0966188,47.0634714 80.1174911,47.0679309 81.1372908,47.0437687 C81.5622201,47.0337147 81.5707248,47.2789038 81.5739428,47.6079307 C81.5772374,47.9399577 81.5267455,48.1469576 81.1394361,48.1327684 C80.4641924,48.1081198 79.7874929,48.1355252 79.1117128,48.1224712 C78.8324363,48.1171198 78.7247099,48.2234982 78.7300732,48.522444 C78.7517564,49.7519572 78.5966028,49.5342546 79.6558613,49.5551735 C80.0256249,49.5624708 80.396691,49.5760113 80.765152,49.5516059 C81.1609661,49.5253357 81.1929162,49.7639572 81.1883191,50.0854437 C81.1839518,50.3912003 81.1899281,50.6523624 80.7807057,50.6364705 C80.2203905,50.6145787 79.6584664,50.6391462 79.097385,50.6290111 C78.8406345,50.6243895 78.7196531,50.7202273 78.7311459,51.0044164 C78.7436348,51.314065 78.744401,51.6252541 78.7307628,51.9347405 C78.7180441,52.2239566 78.8444655,52.3061728 79.0994537,52.3021999 C79.800748,52.2912539 80.5028084,52.3154972 81.2036429,52.2930377 C81.6018321,52.2802269 81.5789997,52.5342539 81.5835202,52.8172268 C81.5882706,53.1143889 81.5760881,53.3347672 81.1903878,53.3269023 C80.1321254,53.3054158 79.0731734,53.3107672 78.0147577,53.3247942 C77.7029948,53.3289293 77.622698,53.1892267 77.6263757,52.8885781 C77.6375621,51.9851729 77.6304365,51.0813623 77.6302833,50.1777139" id="Fill-33" fill="#A9BAB8"></path>
                        <path d="M57.3816651,49.3041338 C57.3816651,49.901965 57.3744076,50.4999561 57.3839528,51.0977074 C57.3910526,51.5382483 57.482482,51.9629642 57.9061812,52.1864316 C58.3895974,52.441469 58.9010971,52.4417087 59.3748103,52.1626143 C59.7878598,51.9192458 59.8471035,51.4771065 59.8514423,51.0455171 C59.8628808,49.8764693 59.8736882,48.706862 59.8469457,47.5382938 C59.8368483,47.0975131 60.0358788,47.0335739 60.3931556,47.0446834 C60.9365255,47.0617871 60.9869339,47.077692 60.980623,47.5386934 C60.9628735,48.8396956 61.0381312,50.1417369 60.9318712,51.4419399 C60.854168,52.3936744 60.3375406,53.0118863 59.4187501,53.235034 C58.9385682,53.3516431 58.4486833,53.3494851 57.9716569,53.2733176 C56.8635389,53.0964458 56.3012362,52.4012672 56.2581642,51.0981869 C56.2177744,49.8771886 56.2505911,48.6538724 56.2438858,47.4315953 C56.2424658,47.162811 56.3487259,47.0348527 56.6175709,47.0497985 C56.7222532,47.0556329 56.8283555,47.0589897 56.9323279,47.0483599 C57.2752473,47.013513 57.3976791,47.1646492 57.385925,47.51072 C57.3654934,48.1079118 57.3802452,48.7063025 57.3802452,49.3041338 L57.3816651,49.3041338 Z" id="Fill-35" fill="#A9BAB8"></path>
                        <path d="M11.8770016,49.4202629 C11.8770016,50.0313432 11.887767,50.6425832 11.8747688,51.2533438 C11.8485331,52.4883717 11.043203,53.2935015 9.81563064,53.3193961 C9.51116974,53.3258697 9.20152551,53.3405753 8.90208845,53.2972578 C7.82004813,53.1406915 7.1625625,52.3998985 7.14087225,51.2754022 C7.11639098,50.0006533 7.137842,48.7251052 7.1297879,47.4498768 C7.1279538,47.1799816 7.22994581,47.0525867 7.50179159,47.0659336 C7.60761129,47.0710486 7.71486638,47.0743253 7.81988864,47.0638556 C8.16318465,47.0294893 8.28909973,47.1760655 8.28487332,47.5230849 C8.27075871,48.6785908 8.27833435,49.8344164 8.28200255,50.9900822 C8.2826405,51.2013948 8.26621333,51.416144 8.33670663,51.622022 C8.53853757,52.210884 8.96205561,52.4042143 9.63405456,52.3707271 C10.3392268,52.3354817 10.7052498,51.9791115 10.7171315,51.3419768 C10.7402572,50.1070289 10.727259,48.8714415 10.7371472,47.6361739 C10.7386623,47.4484382 10.6569252,47.1902116 10.8984684,47.1098904 C11.1739026,47.0184602 11.4780446,47.0220566 11.7589811,47.1167637 C11.9136836,47.1690324 11.8763636,47.3396649 11.8770813,47.4676193 C11.88059,48.1184206 11.8786762,48.7693817 11.8786762,49.4202629 L11.8770016,49.4202629 Z" id="Fill-37" fill="#A9BAB8"></path>
                        <path d="M37.849225,53.3220808 C37.1958337,53.35432 36.5994845,53.2248879 35.9973642,53.1211204 C35.4634936,53.0291555 35.6834654,52.7013771 35.7154993,52.423423 C35.7502933,52.1207547 35.9239287,52.0768713 36.2130703,52.136201 C36.8105904,52.2589793 37.4153872,52.3451617 38.0312244,52.3305075 C38.2860738,52.3244082 38.532141,52.2833765 38.7529492,52.1641627 C39.2766993,51.8812974 39.2762811,51.2754856 38.7544547,50.9911153 C38.4991871,50.8520194 38.2158167,50.7817585 37.9336172,50.7093589 C37.4493448,50.5851548 36.9745237,50.4399596 36.549719,50.1750754 C35.8710686,49.7518467 35.6085244,49.1473815 35.7328126,48.4059591 C35.8492387,47.7123807 36.3521627,47.3477688 37.0356642,47.1718394 C38.0400066,46.9133713 39.019759,47.0873204 39.9959149,47.3231339 C40.1295707,47.3553731 40.2056826,47.4118511 40.2028388,47.5675023 C40.1920493,48.1470158 39.9724122,48.3254007 39.3835905,48.2103852 C38.8359195,48.1033701 38.2826446,48.0658237 37.7248532,48.1017066 C37.3445446,48.1261039 37.0384243,48.2741507 36.9538648,48.649377 C36.8681344,49.0303065 37.1416353,49.2333263 37.4583779,49.376066 C37.8621891,49.5579363 38.3056454,49.627405 38.7310356,49.7484406 C39.4909836,49.9648473 40.1727286,50.2863679 40.3502115,51.1143688 C40.6038063,52.2972386 39.7825507,53.2384331 38.4393849,53.3203381 C38.2315409,53.3329328 38.0221914,53.3220808 37.849225,53.3220808" id="Fill-39" fill="#A9BAB8"></path>
                        <path d="M63.3720261,50.2892227 C63.3788528,49.8259312 63.3796375,49.5005523 63.4395875,49.1736717 C63.693041,47.7918584 64.4416311,47.1158099 65.8433151,47.0487899 C66.5124165,47.0167816 67.1678644,47.1333553 67.8171133,47.2873906 C68.0668788,47.3466654 68.1919577,47.4826022 68.0740194,47.738353 C67.9720888,47.9594874 68.0945782,48.3896641 67.5999124,48.2691388 C67.0788811,48.1421327 66.551023,48.0702127 66.0114732,48.0897338 C65.2722208,48.116526 64.8131013,48.4672746 64.6333298,49.188688 C64.4687027,49.849404 64.4719984,50.5170749 64.6369393,51.1766845 C64.8687355,52.1035838 65.5353259,52.4698228 66.6514628,52.2967405 C66.960472,52.2488465 67.2729338,52.2063267 67.573233,52.1227098 C67.9874686,52.0073215 67.980171,52.3167358 68.0520482,52.5587349 C68.1226699,52.7967033 68.1914869,53.0059037 67.8334348,53.0961595 C66.9621983,53.3157922 66.0863322,53.4103157 65.2005006,53.2384979 C64.4184044,53.0868336 63.9012965,52.5999902 63.624224,51.8558943 C63.4200488,51.3078793 63.3436989,50.7380513 63.3720261,50.2892227" id="Fill-41" fill="#A9BAB8"></path>
                    </g>
                </g>
            </g>
        </g>
    </g>
</svg>