<?xml version="1.0" encoding="UTF-8"?>
<svg width="160px" height="33px" viewBox="0 0 160 33" version="1.1" xmlns="http://www.w3.org/2000/svg" xmlns:xlink="http://www.w3.org/1999/xlink">
    <!-- Generator: sketchtool 63.1 (101010) - https://sketch.com -->
    <title>35D5AFA6-57FB-467A-99E2-12542FD9ED21</title>
    <desc>Created with sketchtool.</desc>
    <defs>
        <polygon id="path-1" points="0.0100298523 0.218525932 10.9715376 0.218525932 10.9715376 14.4000002 0.0100298523 14.4000002"></polygon>
        <polygon id="path-3" points="0 0.035891786 11.7420546 0.035891786 11.7420546 15.7809796 0 15.7809796"></polygon>
    </defs>
    <g id="Desktop" stroke="none" stroke-width="1" fill="none" fill-rule="evenodd">
        <g id="Web_desktop" transform="translate(-653.000000, -12608.000000)">
            <g id="Sponzori-sekcija" transform="translate(220.000000, 5234.000000)">
                <g id="Medijski-pokrovitelji-sekcija" transform="translate(168.000000, 7263.000000)">
                    <g id="Dalmacija-danas-logo" transform="translate(265.000000, 111.000000)">
                        <g id="Group-3" transform="translate(55.200001, 18.107155)">
                            <mask id="mask-2" fill="white">
                                <use xlink:href="#path-1"></use>
                            </mask>
                            <g id="Clip-2"></g>
                            <path d="M7.80497963,9.06012693 C7.82546743,7.5492137 6.88521376,6.41215708 5.56989667,6.35781745 C4.29910641,6.30510802 3.28017956,7.45982502 3.25777956,8.9780741 C3.23346737,10.6058175 4.06035518,11.5823005 5.48439423,11.6070251 C6.90897962,11.6320213 7.7828528,10.6726553 7.80497963,9.06012693 L7.80497963,9.06012693 Z M3.50636493,14.333244 C0.784491719,12.789727 -0.166142442,10.9489722 0.0362770737,8.39555333 C0.291964882,5.16560611 3.33590639,2.26088154 7.6689406,4.59177969 C7.92954548,3.60334194 7.83256987,2.62658721 7.77547719,1.68624003 C7.69816987,0.411432459 8.34148695,0.219070192 9.42597477,0.218525932 C10.4856041,0.217983399 10.9898772,0.473651328 10.9710285,1.64331172 C10.9139358,5.18000611 10.9535455,8.718059 10.951087,12.2558402 C10.9497211,14.0224213 9.76907722,14.9826025 8.36033573,14.0169874 C7.15947718,13.1931987 6.71666742,14.0150855 5.96107716,14.333244 L3.50636493,14.333244 Z" id="Fill-1" fill="#A9BAB8" mask="url(#mask-2)"></path>
                        </g>
                        <path d="M92.2318462,27.2626394 C91.4170146,27.3173052 90.441493,27.2258399 90.35478,28.3948892 C90.2929969,29.2319435 90.9092014,29.5116727 91.6687534,29.509288 C92.6190741,29.5063394 93.5336256,29.311409 93.6566497,28.2156919 C93.765583,27.2461063 92.9141694,27.3269051 92.2318462,27.2626394 L92.2318462,27.2626394 Z M89.4391445,31.7004402 C89.0329481,31.4268442 88.5888148,31.1943143 88.2273299,30.8727191 C86.494966,29.331142 87.0336707,26.5855827 89.2410594,25.6541299 C90.4000333,25.1650705 91.611577,25.2346695 92.8252885,25.3744007 C93.080821,25.4040003 93.391633,25.5602646 93.5512392,25.2594691 C93.7333366,24.9160075 93.4610034,24.657878 93.2198328,24.4794807 C92.2521695,23.7645579 91.1024089,23.9173557 90.1114415,24.208018 C88.8958332,24.5648127 88.6497849,24.0141542 88.3584833,23.1072344 C87.9967274,21.9805844 88.7755188,21.8296533 89.5239607,21.6453894 C90.1312229,21.4957916 90.7552858,21.3659269 91.3779938,21.3291274 C95.1627467,21.1035308 96.7845515,22.6048418 96.7975584,26.3093202 C96.8010811,27.4077039 96.8005392,28.5063542 96.7975584,29.6047379 C96.7924098,31.439644 95.9420801,32.1599 94.2346463,31.4201777 C93.2981455,31.0145837 92.7952099,31.2969795 92.1448622,31.7004402 L89.4391445,31.7004402 Z" id="Fill-4" fill="#A9BAB8"></path>
                        <path d="M71.0703718,29.5194329 C72.0524077,29.4607987 72.9586086,29.0586207 72.9796133,28.0570404 C73.0003451,27.0610571 71.9713898,27.3115854 71.3038782,27.2796031 C70.4282295,27.237493 69.575495,27.4523077 69.521483,28.447758 C69.4710173,29.3819089 70.2970186,29.4815872 71.0703718,29.5194329 L71.0703718,29.5194329 Z M68.8264199,31.6984964 C67.3566395,31.0497879 66.3320487,30.0745931 66.4035191,28.385659 C66.4725344,26.752694 67.6703454,25.6077262 69.6147764,25.3585305 C70.3687618,25.2617839 71.1486619,25.3633278 71.9168322,25.3577309 C72.2351755,25.3555988 72.6934589,25.7697701 72.842401,25.249524 C72.9796133,24.770322 72.584071,24.4142519 72.1361536,24.2530076 C71.1672115,23.9046666 70.1278902,23.9182591 69.1949561,24.2220913 C67.9575909,24.6245358 67.8716628,23.8609574 67.580871,23.0923152 C67.2319755,22.1696247 67.7729136,21.8868475 68.4960739,21.7112111 C69.4172781,21.4870682 70.3428469,21.2989054 71.30797,21.3074341 C74.4335719,21.3351521 75.9644567,22.7991437 75.9920083,25.843596 C76.0042838,27.162601 76.0001919,28.4818725 75.9944634,29.8011441 C75.9873709,31.4277126 75.1215426,32.1638394 73.6424875,31.4114549 C72.5753418,30.8685547 72.027584,31.3677457 71.2776905,31.6984964 L68.8264199,31.6984964 Z" id="Fill-6" fill="#A9BAB8"></path>
                        <path d="M100.317802,31.7071552 C99.7524191,31.4746016 99.1683479,31.2779686 98.6242851,31.002044 C97.3716511,30.3661135 97.3332218,30.0353764 98.1549751,28.9032073 C98.5474267,28.3625333 98.9085559,28.2888292 99.4713068,28.6190341 C100.153294,29.0194841 100.882922,29.3334581 101.705991,29.2805083 C102.086862,29.256295 102.578018,29.3504872 102.694096,28.8502574 C102.812279,28.3425773 102.351918,28.1964996 101.988156,28.0589363 C101.292483,27.7960496 100.570487,27.5991506 99.8892902,27.3051325 C98.4268748,26.6737254 97.8225361,25.7525574 97.8975521,24.3803844 C97.976253,22.9358377 98.83354,21.9042466 100.349125,21.4960804 C101.573858,21.1658754 102.795696,21.2717752 103.941729,21.7882359 C104.493161,22.0370204 105.514957,22.0617658 105.061966,23.1481693 C104.693467,24.0326182 104.256269,24.9149385 103.052593,24.1025972 C102.946517,24.0312878 102.812279,23.9849899 102.685146,23.9647679 C102.056592,23.8660523 101.140082,23.4671988 100.906874,24.1629973 C100.618392,25.0253616 101.702569,24.9593738 102.224259,25.2326377 C102.686462,25.4750363 103.204467,25.607544 103.6822,25.8228025 C104.795067,26.3246288 105.5955,27.1007833 105.600001,28.4080329 C105.60445,29.6945283 105.04512,30.6888682 103.882242,31.302448 C103.650877,31.4243125 103.432936,31.5714546 103.208678,31.7071552 L100.317802,31.7071552 Z" id="Fill-8" fill="#A9BAB8"></path>
                        <path d="M4.80000007,31.4364433 C15.7345337,30.4967561 20.2950618,23.8335197 20.5148366,17.057258 C20.7592992,9.51662969 16.5537919,2.82263987 5.05787989,1.55491643 C5.52077551,1.22872012 5.99386824,1.3330714 6.42831926,1.3330714 C11.3835833,1.33333425 16.3417991,1.24711959 21.293038,1.38774411 C26.0287955,1.52206023 30.4489791,2.63443958 34.0622483,5.93583009 C40.7499495,12.0457682 40.2505589,26.1547442 28.7117117,30.3603372 C26.3516149,31.2206438 23.9204066,31.6979786 21.3877638,31.6921959 C16.6114861,31.6814191 11.8346717,31.7048127 7.0578573,31.7006071 C6.400143,31.7000814 5.72659634,31.774205 4.80000007,31.4364433" id="Fill-10" fill="#A9BAB8"></path>
                        <g id="Group-14" transform="translate(0.000000, 8.507155)">
                            <mask id="mask-4" fill="white">
                                <use xlink:href="#path-3"></use>
                            </mask>
                            <g id="Clip-13"></g>
                            <path d="M0.0115826089,7.81109345 C0.0110608697,5.65456008 0.0348000005,3.49749339 0.000365217397,1.34149335 C-0.0150260872,0.374560006 0.370017397,-0.00970666681 1.31697393,0.0401600006 C3.08201744,0.133493335 4.86062616,-0.127040002 6.59984358,0.47509334 C9.94836537,1.63402669 11.8965393,4.45216007 11.7324523,8.02122679 C11.5534958,11.9145602 9.54062623,14.5361602 6.04732183,15.4257602 C4.38662615,15.8486936 2.694887,15.7854936 1.00471306,15.7657602 C0.179060872,15.7561602 0.00636521749,15.2478936 0.00897391318,14.5446936 C0.0173217394,12.3001602 0.012104348,10.0556268 0.0115826089,7.81109345" id="Fill-12" fill="#A9BAB8" mask="url(#mask-4)"></path>
                        </g>
                        <path d="M102.36129,6.15581622 C101.564095,7.42968123 100.741898,8.68800798 99.9782997,9.98313588 C99.400392,10.9628643 98.9563484,10.8660909 98.4167247,9.94824294 C97.6533864,8.65011642 96.8309291,7.38960887 96.0295672,6.10647542 C95.5279672,6.37335191 95.7074077,6.77843716 95.704022,7.09029284 C95.6826662,9.02412515 95.6657379,10.9590479 95.6995946,12.8926076 C95.7167834,13.8881469 95.2008594,14.1264002 94.3914239,14.0955963 C93.6515249,14.067791 92.8118788,14.1656548 92.8077118,13.0231835 C92.7939087,9.19995287 92.8017218,5.37672223 92.8074514,1.55376419 C92.8084931,1.04236449 93.0402813,0.741140261 93.5577679,0.625012186 C95.0836631,0.283170387 95.9621142,0.661268134 96.7994163,2.0708885 C97.3447696,2.98928166 97.8979359,3.9024954 98.4477166,4.81843514 C99.2347546,6.12964651 99.2420468,6.13455333 100.004864,4.87895259 C100.697624,3.73811692 101.355746,2.57438276 102.059705,1.44117993 C102.548283,0.654998308 104.508065,0.264088309 105.221139,0.77030858 C105.605283,1.0429097 105.57976,1.46598663 105.580541,1.86425686 C105.587052,5.50757076 105.559706,9.15142987 105.599814,12.7944712 C105.612314,13.9582053 105.00029,14.1005031 104.113505,14.107155 C103.170465,14.1138606 102.649333,13.8039131 102.667824,12.7159621 C102.703764,10.5629585 102.678502,8.40886444 102.678502,6.25504302 C102.572764,6.22205829 102.467027,6.18880095 102.36129,6.15581622" id="Fill-15" fill="#A9BAB8"></path>
                        <path d="M58.1873896,7.59339524 L58.1953477,7.59339524 C58.1953477,8.48690038 58.1887159,9.38040552 58.198531,10.2739107 C58.2030406,10.6610876 58.243627,11.0283629 58.6837114,11.2366838 C60.7106462,12.1963553 63.5768981,10.7342325 63.9403192,8.54582985 C64.3753634,5.92476083 62.9086807,4.13335669 60.1676367,3.93770052 C58.3391245,3.80743538 58.1950824,3.93330666 58.1879201,5.67870446 C58.1852674,6.31684856 58.1873896,6.95499267 58.1873896,7.59339524 M55.2139683,7.70427569 C55.2129072,6.00049037 55.2434133,4.29618812 55.20097,2.59317818 C55.1776262,1.6565098 55.5747367,1.27398518 56.5275897,1.30939455 C58.3701612,1.37788713 60.2236089,1.16181242 62.053978,1.554934 C65.1908061,2.22848748 67.3148301,4.85963654 67.1951929,7.95265823 C67.078739,10.961938 64.7753919,13.4232772 61.6563369,13.9091868 C59.9050185,14.1821233 58.1449462,14.0877845 56.3862003,14.1038092 C55.5606773,14.111563 55.1935424,13.7587616 55.2062754,12.9433122 C55.2338636,11.1973974 55.2147641,9.45070734 55.2139683,7.70427569" id="Fill-17" fill="#A9BAB8"></path>
                        <path d="M113.118474,8.34256995 C114.786425,8.35429055 114.837306,8.30631789 114.224578,6.85160152 C113.938241,6.17180713 113.816183,5.00301871 113.182886,4.99511413 C112.467045,4.98639183 112.431591,6.16008654 112.142006,6.8284329 C111.52576,8.2498955 111.602622,8.33193965 113.118474,8.34256995 M119.045209,13.9188464 C117.398909,14.2631048 116.78564,13.5565983 116.513106,12.4845729 C116.230287,11.3724795 115.57561,10.9377273 114.453539,11.0655635 C113.92065,11.126347 113.365839,11.1397031 112.837009,11.0639281 C111.139558,10.8205213 109.999894,11.2964319 109.549821,13.1272975 C109.341428,13.9755414 107.324081,14.4007536 106.635304,13.8793235 C106.230698,13.5729526 106.442338,13.2308749 106.576304,12.9133286 C108.200683,9.05970669 109.842653,5.21317167 111.457018,1.35518863 C111.786115,0.568546046 112.400467,0.492225907 113.108731,0.509125366 C113.826467,0.526024825 114.569102,0.42762636 114.934465,1.29576795 C116.572647,5.1924562 118.245199,9.07524329 119.857128,12.9825619 C120.409233,14.32089 119.19352,13.839528 119.045209,13.9188464" id="Fill-19" fill="#A9BAB8"></path>
                        <path d="M153.118342,4.33003675 C152.578559,5.63841334 152.202707,6.53264708 151.841144,7.43258003 C151.597136,8.0388678 151.775086,8.36942218 152.47098,8.34635394 C152.868942,8.33305577 153.268252,8.3352269 153.666483,8.34526837 C154.397158,8.36372297 154.64548,8.05569405 154.359681,7.36120417 C153.993534,6.47294103 153.630893,5.58277816 153.118342,4.33003675 M153.443506,0.536531676 C154.298746,0.366369443 154.744701,0.952574263 155.112465,1.85115026 C156.536877,5.32848468 158.04568,8.77135243 159.465239,12.2505866 C159.668533,12.7485893 160.528627,13.40617 159.517545,13.9296834 C158.662305,14.3723224 157.170757,13.9280551 156.770639,13.2457778 C156.353534,12.5350045 156.393168,11.3473969 155.462434,11.1905329 C153.885955,10.9245696 152.248003,10.9166992 150.659931,11.2165864 C150.021466,11.3373555 149.966464,12.0931797 149.738633,12.6131651 C149.167305,13.9169281 148.49352,14.2615948 147.102811,13.9950887 C146.460572,13.8721485 146.250536,13.5597774 146.505599,12.9613599 C148.171322,9.05169946 149.84082,5.14339594 151.509779,1.23509242 C151.855973,0.424718534 152.586648,0.579411472 153.443506,0.536531676" id="Fill-21" fill="#A9BAB8"></path>
                        <path d="M73.9629529,4.32474839 C73.4527006,5.58252278 73.0767679,6.48151682 72.7265099,7.39004565 C72.6189462,7.66846138 72.4370607,8.08336075 72.8329927,8.20758538 C73.6032359,8.44922409 74.4972585,8.55328946 75.1775048,8.1871537 C75.7750513,7.86569523 75.1596676,7.23449244 75.0083216,6.77655032 C74.7737352,6.06580019 74.4267204,5.3920995 73.9629529,4.32474839 M79.6746439,13.9619645 C78.3509067,14.1728195 77.6595796,13.7189637 77.4082371,12.685393 C77.0809513,11.3385365 76.2220626,10.8898567 74.9177842,11.0617553 C74.5648236,11.1086119 74.1948367,11.1077946 73.8413356,11.0623001 C72.1013968,10.8389137 70.782254,11.1952422 70.3071356,13.1817467 C70.1228178,13.95134 68.2118039,14.3621531 67.4848025,13.9347223 C67.0326562,13.6691104 67.2215685,13.3195924 67.3572394,12.9978615 C69.0001545,9.10440005 70.6592854,5.21802156 72.2919306,1.32074618 C72.6575934,0.448177116 73.3759466,0.519551795 74.0970023,0.508382475 C74.7969776,0.497485577 75.4299284,0.542707702 75.7604573,1.33355004 C77.3906702,5.23218753 79.0795297,9.10657943 80.6656901,13.0229244 C81.2059414,14.3572495 79.96085,13.8418262 79.6746439,13.9619645" id="Fill-23" fill="#A9BAB8"></path>
                        <path d="M120.008773,7.04524578 C119.8831,4.633714 121.111119,2.61952325 123.485632,1.38613829 C126.024008,0.0678947388 128.60301,0.268299781 131.056881,1.74665388 C131.663578,2.11223965 132.275691,2.55974864 131.56526,3.28985276 C130.970752,3.90040767 130.645465,5.14233186 129.269022,4.16005362 C127.714091,3.05048749 125.856353,3.12573944 124.637272,4.11388841 C123.167658,5.30511092 122.685551,7.26406353 123.429567,9.01940889 C124.369676,11.2372069 126.991472,11.9699795 129.205644,10.6333233 C130.307177,9.96833077 131.285476,10.2514596 131.887297,11.3767699 C132.229918,12.017479 131.716122,12.2632487 131.349125,12.5413073 C128.988425,14.3289417 126.383692,14.5498942 123.727227,13.3882922 C121.11464,12.2464371 119.964354,10.1134977 120.008773,7.04524578" id="Fill-25" fill="#A9BAB8"></path>
                        <path d="M80.8651869,22.4426838 C81.6854016,21.8042661 82.4094552,21.3273465 83.3854241,21.3084104 C85.629367,21.2645868 87.0157141,22.3682919 87.1430262,24.6000485 C87.2570653,26.6024075 87.1598205,28.6158578 87.1877208,30.6241682 C87.2042443,31.825259 86.3553166,31.6691713 85.600654,31.6818855 C84.8137571,31.6951408 84.0263184,31.7524902 84.0544896,30.5768279 C84.0907871,29.0603155 84.0666791,27.5419094 84.0488012,26.0245855 C84.0368826,25.04126 83.7375638,24.2432379 82.572523,24.1555908 C81.4137123,24.0682141 80.8955251,24.8088868 80.8180543,25.7738172 C80.6969724,27.2824846 80.6720518,28.8060305 80.7305611,30.3184851 C80.7771519,31.5247158 80.1665958,31.6951408 79.1564964,31.706773 C78.0989936,31.7192167 77.5759306,31.4316583 77.6008513,30.2795308 C77.6534014,27.8256807 77.6068106,25.3699369 77.6219797,22.9150046 C77.625772,22.3171644 77.4659547,21.505346 78.3679742,21.4488082 C79.2637636,21.3928114 80.4093013,20.9091289 80.8651869,22.4426838" id="Fill-27" fill="#A9BAB8"></path>
                        <path d="M81.6202924,7.24454938 C81.6189333,5.62000311 81.6599771,3.99381339 81.6050709,2.37118447 C81.5667452,1.22707222 81.7137961,0.497930056 83.1696273,0.50715475 C84.5735422,0.516281869 84.6768312,1.2407676 84.6613379,2.31229433 C84.6265458,4.70350811 84.7102643,7.09773488 84.6279049,9.4867574 C84.5819685,10.8160312 85.0970544,11.2512705 86.3658781,11.1704677 C87.5784366,11.0929519 88.7999649,11.1781371 90.0171441,11.1559506 C91.0100776,11.1378727 91.2112193,11.7026703 91.1995313,12.5482232 C91.1881152,13.3746026 91.1775145,14.1097707 90.0456845,14.1021013 C87.6561751,14.0859407 85.2661221,14.0859407 82.8766128,14.107155 C81.9546226,14.1152489 81.5920238,13.7131524 81.6107789,12.795014 C81.6477455,10.9455895 81.6216515,9.09479555 81.6202924,7.24454938" id="Fill-29" fill="#A9BAB8"></path>
                        <path d="M146.377397,5.81545346 C146.377397,7.16565831 146.426517,8.51776985 146.365855,9.86525087 C146.277547,11.8266842 145.219998,13.3207075 143.475848,13.8243446 C141.47429,14.4023423 139.576607,14.1266902 137.955659,12.6974942 C137.261542,12.0854485 137.719723,11.5360511 138.176563,11.1010547 C138.598509,10.699289 138.857796,9.76011085 139.752955,10.4279951 C139.967685,10.5881566 140.183758,10.7524038 140.417815,10.8801517 C141.930861,11.7046564 143.082354,11.1585276 143.292522,9.42453441 C143.421629,8.35897029 143.357746,7.26861927 143.364994,6.18943597 C143.374925,4.70412891 143.405524,3.21800471 143.361236,1.73433196 C143.324732,0.505610138 144.107157,0.523587447 144.96098,0.508061589 C145.84406,0.491718581 146.435643,0.688107062 146.398333,1.76565606 C146.351898,3.11422661 146.387328,4.46524861 146.387328,5.81545346 L146.377397,5.81545346 Z" id="Fill-31" fill="#A9BAB8"></path>
                        <path d="M135.978199,7.4001731 C135.978761,9.16077075 135.925711,10.923562 135.997286,12.6814177 C136.046687,13.8886925 135.419071,14.1192894 134.368178,14.1066765 C133.391387,14.0951603 132.785664,13.9089828 132.80026,12.7606597 C132.846573,9.10483524 132.844328,5.44736567 132.803348,1.79126706 C132.790155,0.598524522 133.495522,0.520379322 134.426561,0.507766412 C135.411211,0.494056728 136.028723,0.703814898 135.993356,1.84802515 C135.935816,3.69718737 135.977638,5.54936572 135.978199,7.4001731" id="Fill-33" fill="#A9BAB8"></path>
                    </g>
                </g>
            </g>
        </g>
    </g>
</svg>