<?xml version="1.0" encoding="UTF-8"?>
<svg width="121px" height="40px" viewBox="0 0 121 40" version="1.1" xmlns="http://www.w3.org/2000/svg" xmlns:xlink="http://www.w3.org/1999/xlink">
    <!-- Generator: sketchtool 63.1 (101010) - https://sketch.com -->
    <title>7AE500E7-0DBC-45E3-A48F-369C6D28E5BE</title>
    <desc>Created with sketchtool.</desc>
    <g id="Desktop" stroke="none" stroke-width="1" fill="none" fill-rule="evenodd">
        <g id="Web_desktop" transform="translate(-1013.000000, -10212.000000)" fill="#A9BAB8">
            <g id="Sponzori-sekcija" transform="translate(220.000000, 5234.000000)">
                <g id="Srebrni-sekcija" transform="translate(0.000000, 4848.000000)">
                    <g id="Emovis-logo" transform="translate(793.000000, 130.000000)">
                        <path d="M65.9433404,38.6483603 L62.8842663,38.6483603 C62.8842663,38.3861152 62.8843974,38.1365258 62.8842663,37.8869363 C62.8828248,34.4603977 62.8874115,31.0339896 62.8724719,27.6075815 C62.8706373,27.1574593 62.8117963,26.6976824 62.706302,26.2598244 C62.3999097,24.9896971 61.3333028,24.3291266 60.0146889,24.4126275 C58.2505089,24.5244404 56.907782,25.4505178 55.6330695,26.5181554 C55.4458007,26.675111 55.3624536,27.045255 55.361012,27.3174158 C55.3433204,30.8089285 55.3493487,34.3004413 55.3493487,37.7920845 L55.3493487,38.6719754 C54.4204742,38.6719754 53.5356321,38.6932421 52.6547215,38.6445767 C52.5469993,38.6387055 52.3788636,38.2589068 52.3765048,38.0506764 C52.3544885,36.1859964 52.3742769,34.3207946 52.3599926,32.4558537 C52.3467567,30.7447372 52.318319,29.0334902 52.275335,27.3228955 C52.218984,25.0773731 50.843626,24.0256529 48.6278514,24.5277022 C47.2050537,24.8498331 46.0307247,25.6304362 44.9879687,26.6040048 C44.8068591,26.7730941 44.755488,27.1484569 44.7544396,27.4289678 C44.7391069,30.8988225 44.7443488,34.3686772 44.7443488,37.8384014 L44.7443488,38.6778466 C43.8204542,38.6778466 42.9757131,38.6920678 42.1328067,38.6621902 C42.0067376,38.6577542 41.8479064,38.4651802 41.7783194,38.3237505 C41.7173817,38.2001952 41.7586621,38.0260175 41.7586621,37.8742807 C41.758269,32.9297215 41.7675734,27.9851622 41.7466056,23.0407334 C41.7439846,22.4233485 41.8526242,22.0999129 42.5636954,22.1948952 C43.0779312,22.263653 43.7409075,22.0486381 44.088056,22.3003151 C44.412533,22.5356833 44.4068979,23.2196081 44.5501344,23.7049572 C44.5801446,23.8069849 44.6260117,23.9045766 44.6995301,24.0942802 C44.9731602,23.9034023 45.2132417,23.7335301 45.4559443,23.5674416 C47.0867166,22.451791 48.8317635,21.701196 50.8702289,21.7814352 C52.5211827,21.8464093 53.7234252,22.5925683 54.5350109,24.001255 C54.6097088,24.1306814 54.6803441,24.2624563 54.7887216,24.4581616 C55.0192365,24.2783737 55.218824,24.1220704 55.4190667,23.9665499 C57.2550615,22.5411631 59.2380932,21.5899049 61.6682637,21.8064854 C63.8043605,21.996711 65.4790342,23.4545849 65.8015455,25.5778567 C65.8921003,26.1741055 65.9352154,26.7828794 65.9373122,27.3860431 C65.9497618,30.8557673 65.9433404,34.325622 65.9433404,37.7954767 L65.9433404,38.6483603 Z" id="Fill-1"></path>
                        <path d="M0,10.8656097 C0.565815252,6.92344113 2.48108785,3.87774807 5.90725021,1.89928779 C10.2771507,-0.624081316 14.7674573,-0.576039522 19.0935252,2.02317817 C22.4182578,4.02069851 24.2484042,7.03806258 24.8049985,10.819004 C24.3352676,10.9644348 24.1405598,10.9210928 24.0566364,10.4472023 C23.1822553,5.50307505 19.4288182,1.82826948 14.3283291,0.906598116 C12.6406388,0.601637165 10.9668466,0.738060193 9.31483715,1.16456166 C9.1821365,1.19889588 9.06440309,1.28858259 8.93985425,1.41939204 C12.9737936,0.665736406 16.5878483,1.41769492 19.6494514,4.15829648 C21.596663,5.90124753 22.7615689,8.14341548 23.1587354,10.8575157 C22.9544058,10.8713539 22.7554216,10.8848003 22.5625847,10.8978552 C21.0610495,2.87892262 12.9904981,0.503464804 8.50914509,2.48349166 C12.5734198,1.69458797 16.1463146,2.52578933 18.9994454,5.54994191 C20.3975463,7.03179626 21.2588309,8.79354628 21.5163477,10.821876 C20.9439843,11.0674375 20.8429554,10.7200483 20.7482074,10.3355834 C19.8374774,6.6401512 17.4983111,4.26142968 13.7736057,3.18283919 C12.0674736,2.68871367 10.3543924,2.76495391 8.65186845,3.22866166 C8.52451325,3.26338752 8.4033053,3.32252593 8.2841019,3.3799672 C8.25643923,3.39315258 8.24882197,3.44589412 8.19135845,3.56351818 C11.8378867,2.79484948 15.0169559,3.51704297 17.5972018,6.19002049 C18.8819793,7.52096094 19.858191,9.5682202 19.8182338,10.8205705 C19.3550511,11.0328422 19.2337095,10.7905444 19.1238606,10.3867584 C18.2544241,7.19015141 16.1905482,5.10620806 12.9302282,4.18871424 C11.446333,3.77109006 9.94827227,3.79719973 8.46638154,4.24263071 C8.2841019,4.29746102 8.10903861,4.3740929 7.93544531,4.5131269 C10.2660589,4.07500663 12.4877591,4.24380565 14.5298524,5.49485051 C16.5514993,6.73362382 17.7748042,8.50816758 18.2767414,10.7966802 C17.7842923,11.0049048 17.6135054,10.8640431 17.4794684,10.4246174 C16.6060228,7.5597338 14.6676312,5.7610386 11.6737816,5.10646916 C10.3392915,4.81456304 9.0114832,4.91769624 7.73539207,5.49445886 C9.70893001,5.16573811 11.6045581,5.30203059 13.3426292,6.33793177 C15.0744195,7.37004704 16.1631528,8.8627369 16.625801,10.8052964 C16.1711709,11.0290563 15.9680441,10.8733121 15.8221134,10.4610404 C14.8680853,7.76652239 12.9180673,6.28284036 10.0154912,6.02396298 C9.18627922,5.95007261 8.36134357,6.06143036 7.59119872,6.48284044 C9.81797707,6.14615624 11.801805,6.56665248 13.4252163,8.14746248 C14.1913521,8.89367686 14.733781,9.77030905 14.9558842,10.8295784 C14.4368416,11.0380641 14.2735383,10.7855836 14.1091659,10.3870195 C13.0820388,7.89537361 10.3302042,6.52461591 7.83521824,7.24054308 C7.67873036,7.28545171 7.53253247,7.36391127 7.38793821,7.49524291 C9.06734309,7.27252742 10.5897256,7.55829777 11.8767748,8.65738435 C12.5527062,9.23479971 13.0519707,9.9367582 13.2919811,10.8054269 C12.7952558,11.0586907 12.6096352,10.8049047 12.4119874,10.4321892 C11.5210355,8.75333738 9.84857973,7.91404203 7.94306257,8.16887241 C7.73606025,8.19654866 7.53761064,8.28662702 7.31363654,8.43023021 C9.26672815,8.38127458 10.7694661,9.02709728 11.6295481,10.814957 C11.1166527,11.0375419 10.8779786,10.8075157 10.6393045,10.4744869 C9.88760148,9.42644469 8.81690904,9.08297197 7.55244425,9.21338978 C7.46771896,9.22213652 7.38379549,9.26117048 7.30601928,9.29889895 C7.27261025,9.31521749 7.2557721,9.36417313 7.2039213,9.43649691 C7.7110703,9.56195388 8.2374629,9.61182335 8.68207021,9.82448662 C9.1340275,10.0406747 9.50526859,10.4170456 10.0312603,10.8132598 C8.84283444,11.156602 8.15006489,9.71939519 7.01990439,10.4461579 C7.30695473,10.5913276 7.52972611,10.7039909 7.84911639,10.8656097 L0,10.8656097 Z" id="Fill-3"></path>
                        <path d="M7.14102904,16.3436108 C7.72019282,16.7969057 8.36912904,16.7855012 8.99786797,16.6797149 C10.4174487,16.4410076 11.4989217,15.685953 12.1503498,14.3891205 C12.3357976,14.0201138 12.5211143,13.8120805 13.0105706,14.0423984 C12.6192154,15.2597928 11.8528988,16.1519632 10.75595,16.7772428 C9.67382134,17.3941329 8.49818183,17.4772413 7.27742631,17.3559869 C8.00938125,17.8413979 8.8289452,17.8558173 9.62241006,17.7272221 C11.5966293,17.4071104 13.0110952,16.3214572 13.801019,14.4644948 C13.8265935,14.4044575 13.8352495,14.3199071 13.8807589,14.2885776 C14.0532228,14.1696827 14.2377525,14.0679601 14.417692,13.9596832 C14.4454961,14.1451697 14.5441218,14.3549071 14.4899563,14.5122101 C14.0087625,15.9085368 13.1082783,16.975969 11.8142092,17.6825218 C10.659685,18.3129138 9.42778166,18.6129693 8.1006625,18.3604979 C7.87337744,18.3171085 7.63809215,18.31488 7.4064791,18.293513 C7.39336398,18.3534193 7.38011771,18.4131944 7.36713374,18.4729696 C7.87219708,18.5853102 8.37280127,18.7607031 8.88350411,18.7997667 C11.8952607,19.0296913 14.4550701,17.3385525 15.4560162,14.4802252 C15.5907085,14.0957503 15.7163514,13.7698708 16.2625962,14.040301 C15.825338,15.9950534 14.7358649,17.4798631 13.0382435,18.5057411 C11.3419337,19.5305704 9.49952137,19.7370306 7.56425402,19.2503088 C7.55494228,19.3288292 7.5457617,19.4073497 7.53658111,19.4858701 C8.16754962,19.6110571 8.79353437,19.8025736 9.43040468,19.8506821 C13.2396918,20.1389399 16.2601043,17.5971849 17.1049804,14.4353938 C17.2179016,14.0122486 17.3716109,13.8116872 17.8764119,14.0539339 C17.3992838,16.3476744 16.1937418,18.1296557 14.2022106,19.3562262 C12.2140893,20.5805682 10.0592748,20.8461481 7.78196504,20.2521981 C7.77527633,20.3322915 7.76845646,20.4122539 7.76176775,20.4923474 C8.40204799,20.6294632 9.03681988,20.8460171 9.68352653,20.8907173 C14.1033225,21.1969339 17.588535,18.6865085 18.7506659,14.4255623 C18.8014214,14.2392893 19.062937,14.1101697 19.2262202,13.9543086 C19.2841891,14.1551322 19.4247832,14.3726037 19.3877985,14.5540265 C18.6638438,18.0905921 15.4876236,21.06729 11.8999821,21.4604165 C10.7942462,21.5815399 9.65611593,21.4074578 8.5326746,21.3670834 C8.36926019,21.3611845 8.20623923,21.3474205 8.04295596,21.3373269 C8.03193926,21.3927762 8.02092256,21.4480945 8.0097747,21.5035438 C8.62762808,21.6469517 9.2383993,21.8548539 9.86451521,21.9235429 C15.2025009,22.5094967 19.3206491,18.9776502 20.310185,14.6004309 C20.3900561,14.2471545 20.3922857,13.8091966 21.0753212,14.0012374 C20.6300628,17.0053322 19.1287749,19.3305333 16.6092288,20.9987321 C14.0738135,22.6775488 11.2911781,23.0187653 8.34460376,22.3164072 C8.33450512,22.3895532 8.32440647,22.462568 8.31430783,22.5355828 C9.00468783,22.6876424 9.68785452,22.9116682 10.3863659,22.9803572 C15.7604182,23.508371 20.4427789,20.2617673 21.8100303,15.090561 C21.8710157,14.8597187 21.9504933,14.6288765 21.9721332,14.3934463 C22.0148885,13.9300578 22.2480754,13.8574362 22.6964814,14.0294209 C22.1877458,17.3521854 20.5758974,19.975738 17.7877537,21.8431873 C15.027414,23.6922845 11.9755252,24.0889503 8.73399172,23.3814799 C8.73176215,23.4489891 8.72953258,23.5163673 8.72730301,23.5837454 C9.15315101,23.6933332 9.57349066,23.8354303 10.0055028,23.9075275 C16.53303,24.9950159 22.3284711,20.9415787 23.5890966,14.4336897 C23.6246386,14.2505627 23.8647765,14.1068926 24.0095674,13.9447394 C24.0755365,14.150282 24.2318687,14.3743078 24.1942283,14.5586145 C23.0917712,19.9474234 19.8557461,23.3117422 14.4828742,24.5244176 C8.07416995,25.9708191 1.3058491,21.43669 0.127061965,14.980711 C0.095847975,14.809775 0.0443055468,14.6426405 0.0155834303,14.4715735 C-0.0401558369,14.1383532 0.0426005809,13.9253387 0.444579061,13.9265136 C2.77828381,13.9330727 5.11211972,13.9296645 7.63389531,13.9296645 C7.29237755,14.1217053 7.1091593,14.2247388 6.86770991,14.3605438 C7.3624123,14.8163293 7.80294923,14.5521913 8.21843629,14.3917422 C8.63418565,14.2310309 9.02855735,14.0152636 9.4919146,13.9404135 C9.01819641,15.0271154 8.05174309,15.2460288 7.01368121,15.3600735 C7.62786236,15.8380126 8.28270038,15.7526757 8.82186304,15.4853916 C9.42515863,15.1862536 9.96379668,14.7205055 10.4562695,14.2499073 C10.7306378,13.9877355 10.9289385,13.846425 11.3511143,14.0670425 C10.4646632,15.8171699 9.04075442,16.4720749 7.14102904,16.3436108" id="Fill-5"></path>
                        <path d="M72.0309131,30.2827462 C72.0207447,32.0927533 72.3273815,33.6350963 73.2657798,35.0199899 C74.8708028,37.389141 78.7878829,37.333306 80.3013902,35.1066532 C81.0809238,33.9599185 81.4427605,32.6983383 81.5530282,31.3477131 C81.6989514,29.5623157 81.4912254,27.8299749 80.5313018,26.2744008 C78.7902599,23.4526156 74.6242521,23.5310757 72.9793478,26.4039327 C72.2612209,27.6581036 72.0194242,29.0287076 72.0309131,30.2827462 M76.8270979,21.7784914 C81.1734959,21.6662921 84.0997509,24.7992715 84.5900792,28.824288 C84.8166894,30.6852346 84.7148733,32.4944478 84.0776974,34.2666141 C82.7567294,37.9404787 79.457809,39.6366988 75.69101,39.2244194 C72.0648518,38.8276203 69.5050555,36.0943508 69.0568534,32.0262011 C68.8533533,30.1784855 68.9891081,28.3892512 69.6598265,26.6600858 C70.8832042,23.5058044 73.4418121,21.7783591 76.8270979,21.7784914" id="Fill-7"></path>
                        <path d="M27.5412339,28.8371006 L28.302552,28.8371006 C30.2396775,28.8371006 32.1770737,28.8371006 34.1141992,28.8371006 C35.3514426,28.8371006 35.3821606,28.8307694 35.1305981,27.6593804 C34.8106984,26.170512 34.1013437,24.932778 32.505634,24.4313006 C29.9151769,23.6170922 27.287777,25.8924703 27.5412339,28.8371006 M37.1813936,35.5852831 C37.4811305,36.2879055 37.7548856,36.929459 38.0448793,37.6091311 C36.9230651,38.4193825 35.6643056,38.8472607 34.3335552,39.0865243 C31.8740891,39.5289113 29.5373596,39.2903072 27.4762797,37.7724212 C25.5835395,36.3785196 24.7203245,34.4079585 24.3613169,32.2092133 C24.0280203,30.1682185 24.1944656,28.1479318 25.0173549,26.2226118 C25.9203545,24.1092048 27.4171442,22.5649392 29.7588807,22.00081 C33.6860424,21.054967 37.1808523,23.1533376 38.1433933,27.068212 C38.4582861,28.3496043 38.5262175,29.6886362 38.7199977,31.0955957 C38.2761436,31.1152486 38.0161912,31.1364842 37.7562388,31.136748 C34.6035214,31.1389903 31.4509392,31.1371437 28.2982217,31.1389903 C27.4833164,31.1395179 27.4092956,31.2300001 27.5448876,32.0182245 C27.9900949,34.6079164 29.3891827,36.2032267 31.7272655,36.6706744 C33.4212185,37.0093893 35.0226117,36.6176513 36.5505254,35.888913 C36.7302321,35.8031791 36.9092623,35.7162581 37.1813936,35.5852831" id="Fill-9"></path>
                        <path d="M108.899994,37.852482 C109.237558,37.1238857 109.567535,36.412335 109.915614,35.6614077 C110.458166,35.9144476 110.961851,36.1723765 111.483504,36.388022 C112.870899,36.9617552 114.302618,37.1078973 115.755502,36.6863844 C116.649062,36.4271342 117.372908,35.9233007 117.55154,34.9421931 C117.732568,33.9478719 117.316337,33.1550577 116.483341,32.6372179 C115.719163,32.16219 114.890959,31.7879817 114.086982,31.3771718 C113.43954,31.046304 112.761616,30.7671012 112.139731,30.3950071 C110.357669,29.3288041 109.598682,27.7084239 109.909625,25.7048502 C110.220434,23.7018051 111.502672,22.4451945 113.491186,22.0253994 C115.963152,21.5034634 118.366832,21.8018258 120.654708,22.8970986 C120.752676,22.9440068 120.839064,23.0144351 120.999993,23.1186902 C120.715938,23.7493739 120.449987,24.3902321 120.127198,25.001624 C120.078347,25.094119 119.741847,25.1132787 119.57626,25.0569889 C118.319446,24.6295299 117.060102,24.2036565 115.709313,24.2678744 C115.186461,24.292716 114.645373,24.373583 114.154601,24.5462844 C112.71383,25.0534212 112.379327,26.7147634 113.555744,27.684111 C114.174168,28.1936262 114.930093,28.5495998 115.650745,28.9243367 C116.510762,29.3713518 117.422957,29.7220399 118.270595,30.1891397 C120.246996,31.2779379 120.962323,33.0023088 120.685723,35.1748841 C120.455977,36.9789329 119.076037,38.3868388 116.968656,38.9124746 C114.423082,39.5475188 111.933945,39.3970163 109.54078,38.2570815 C109.401681,38.1907494 109.263248,38.1215103 109.129074,38.0457965 C109.072902,38.0143482 109.028444,37.9624189 108.899994,37.852482" id="Fill-11"></path>
                        <path d="M101.034994,22.3913768 C100.266983,24.2751538 99.5513671,26.042165 98.8265358,27.8051956 C97.3476481,31.4013163 95.8541479,34.9914659 94.3930322,38.5948844 C94.191617,39.091537 93.9593971,39.2983982 93.3987257,39.2843333 C91.7754247,39.2438633 91.7796373,39.2705337 91.2033003,37.7743394 C89.3247417,32.8971124 87.4418388,28.0214777 85.5623588,23.1446488 C85.4773168,22.924386 85.408467,22.6977543 85.3049949,22.3949594 C86.2760004,22.3949594 87.1699942,22.3681563 88.0596437,22.4184452 C88.2302542,22.4279988 88.4607627,22.7124827 88.5346149,22.9173536 C89.926486,26.779249 91.2986105,30.6484424 92.6769222,34.51538 C92.7539339,34.7313967 92.8493757,34.9410443 93.0128774,35.3408344 C93.5817108,33.8943983 94.0787982,32.6386355 94.5695667,31.3802188 C95.6623428,28.5777074 96.7634124,25.7781152 97.8313078,22.9659175 C98.001655,22.5172981 98.2228168,22.3582047 98.6890995,22.3815578 C99.4294649,22.4184452 100.17299,22.3913768 101.034994,22.3913768" id="Fill-13"></path>
                        <path d="M103.454994,21.8205111 C103.628238,21.8026562 103.757802,21.7783573 103.8875,21.7778203 C104.732951,21.7743299 105.578536,21.7759409 106.479994,21.7759409 L106.479994,38.6812291 L103.454994,38.6812291 L103.454994,21.8205111 Z" id="Fill-15"></path>
                        <path d="M107.084994,16.6142194 C107.089532,17.8595248 106.211777,18.7553122 104.985158,18.756702 C103.765717,18.7583647 102.847789,17.8462045 102.849994,16.6355873 C102.852207,15.4629884 103.765441,14.542503 104.938495,14.5304315 C106.201699,14.5175275 107.08042,15.3705791 107.084994,16.6142194" id="Fill-17"></path>
                    </g>
                </g>
            </g>
        </g>
    </g>
</svg>