<?xml version="1.0" encoding="UTF-8"?>
<svg width="100px" height="41px" viewBox="0 0 100 41" version="1.1" xmlns="http://www.w3.org/2000/svg" xmlns:xlink="http://www.w3.org/1999/xlink">
    <!-- Generator: sketchtool 63.1 (101010) - https://sketch.com -->
    <title>1D285D8C-1B67-4078-8293-CCCA2659A5D2</title>
    <desc>Created with sketchtool.</desc>
    <g id="Desktop" stroke="none" stroke-width="1" fill="none" fill-rule="evenodd">
        <g id="Web_desktop" transform="translate(-880.000000, -12009.000000)" fill="#A9BAB8">
            <g id="Sponzori-sekcija" transform="translate(220.000000, 5234.000000)">
                <g id="Organizacijski-sekcija" transform="translate(465.000000, 6675.000000)">
                    <g id="Fesb-logo" transform="translate(195.000000, 100.000000)">
                        <path d="M97.47947,20.9179995 C97.20737,20.5555154 97.21417,20.3402905 97.47727,19.9806132 C99.41887,17.3256377 100.24817,14.3515839 99.83307,11.0799042 C99.26877,6.63235648 96.91967,3.4075912 92.98367,1.31699218 C91.61467,0.589918826 90.13187,0.229339364 88.61137,8.0195599e-05 L61.23877,8.0195599e-05 C61.15907,0.0213320293 61.08047,0.053009291 60.99927,0.0624322738 C58.55237,0.344620538 56.38817,1.27990171 54.48177,2.84201174 C49.66057,6.79264743 48.40977,13.6896694 51.67277,18.9932049 C54.11337,22.9600802 57.73587,25.0163956 62.41077,25.1202489 C64.91867,25.1760851 66.45577,27.7209922 65.25697,29.9259702 C64.62547,31.0876034 63.59087,31.5843149 62.28127,31.5834127 C54.70627,31.5775985 47.13127,31.5807061 39.55627,31.5804054 C38.80717,31.5804054 38.05687,31.6029604 37.30907,31.5701804 C36.28627,31.5253711 35.43727,31.0978284 34.85717,30.2406377 C34.12277,29.1551902 34.05147,27.9941584 34.64717,26.83042 C35.24387,25.6649775 36.25937,25.131376 37.54207,25.1295716 C43.58547,25.1209506 49.62877,25.1261633 55.67207,25.122755 C55.85797,25.1226548 56.06197,25.1791927 56.35807,24.9657721 C56.23867,24.9209628 56.17307,24.9027183 56.11317,24.8729457 C55.13937,24.3875619 54.24477,23.7826866 53.42737,23.0656377 C53.22017,22.8838944 52.98497,22.8644469 52.72997,22.8645472 C47.60227,22.8671535 42.47457,22.8535203 37.34697,22.872266 C34.00767,22.8843956 31.41617,26.1407379 32.10577,29.4106132 C32.66417,32.0586719 34.83967,33.8335007 37.57167,33.8356059 C45.82927,33.842222 54.08677,33.8384127 62.34427,33.836909 C62.62707,33.8368088 62.91267,33.8413198 63.19197,33.8055325 C65.80737,33.4698137 67.87987,31.1216866 67.94547,28.4301218 C68.00757,25.8809042 66.04677,23.4546866 63.53467,22.9691022 C62.68137,22.8040998 61.80977,22.8804861 60.95227,22.7588895 C55.12897,21.9328748 51.15717,16.3098601 52.32667,10.5385839 C53.31617,5.65497262 57.48347,2.23763765 62.49307,2.23192372 C70.75057,2.22250073 79.00807,2.22711198 87.26557,2.23432958 C87.79647,2.23483081 88.33487,2.26360098 88.85667,2.35402152 C93.03787,3.07798729 95.92997,5.42501174 97.18737,9.47869878 C98.44907,13.5462196 97.39507,17.1385814 94.36377,20.1285741 C94.08207,20.4063516 94.11007,20.5281487 94.37917,20.7868797 C97.06357,23.3677746 98.15047,26.5321927 97.50117,30.184601 C96.60227,35.2412342 92.39307,38.666288 87.25177,38.6705985 C82.29047,38.674909 77.32937,38.6764127 72.36827,38.6634812 C71.90927,38.6622782 71.53677,38.7574103 71.19187,39.0723785 C70.58697,39.6247257 69.88757,40.0485594 69.18227,40.461667 C69.01217,40.56131 68.67427,40.5832636 68.74017,40.8353785 C68.78917,41.0230362 69.09567,40.9218895 69.28477,40.9219897 C75.29467,40.9268015 81.30477,40.9260998 87.31487,40.925799 C90.38157,40.9256988 93.08577,39.9311731 95.44207,37.9687868 C100.52227,33.737667 101.43447,26.1862489 97.47947,20.9179995" id="Fill-1"></path>
                        <path d="M0.343,21.8022763 C0.7851,20.997313 1.288,20.2322469 1.882,19.5334425 C2.1355,19.2351149 2.2315,18.9282665 2.2361,18.5384156 C2.2641,16.1754523 2.1097,13.8085795 2.3212,11.4499267 C2.5427,8.97839853 3.5961,6.87266259 5.3547,5.15176528 C7.4184,3.13223961 9.9524,2.22933741 12.8222,2.22923716 C17.7792,2.22913692 22.7363,2.22572861 27.6933,2.23575306 C28.0858,2.23645477 28.3916,2.12879218 28.6839,1.86915892 C29.3712,1.25897066 30.1504,0.777696822 30.9514,0.331809291 C31.1089,0.244195599 31.2973,0.195877751 31.3686,3.84631202e-14 L11.3887,3.84631202e-14 C9.8662,0.203095355 8.3833,0.552447433 7.0141,1.27260391 C3.0117,3.37793888 0.6499,6.64520782 0.0613,11.1595183 C0.0506,11.2410171 0.0209,11.3199095 -1.70530257e-14,11.4000049 L-1.70530257e-14,22.2000465 C0.2202,22.1596479 0.2589,21.9553496 0.343,21.8022763" id="Fill-4"></path>
                        <path d="M24.95848,12.4114117 C24.89238,15.4585438 24.94458,18.5083824 24.94928,21.5570181 C24.94958,21.7403653 24.88208,21.9486733 25.03708,22.1114704 C25.22258,22.0384924 25.25178,21.8783017 25.32008,21.750891 C25.69908,21.0443677 26.10288,20.3410523 26.64588,19.759935 C27.09958,19.2741501 27.19908,18.7646073 27.20508,18.136776 C27.22748,15.8067932 27.01168,13.4655829 27.30558,11.1484313 C27.71628,7.91013301 29.39628,5.44121125 32.16018,3.72201809 C33.87618,2.65471491 35.77648,2.23248509 37.77838,2.23068068 C42.72128,2.22616968 47.66418,2.22506699 52.60688,2.23659511 C53.01758,2.23759756 53.33758,2.12813056 53.64488,1.85957555 C54.34928,1.24417457 55.13168,0.737137897 55.95928,0.301475306 C56.10638,0.223986308 56.26468,0.163338386 56.34368,4.00977995e-05 L36.26378,4.00977995e-05 C34.53688,0.241930073 32.87038,0.685812714 31.36288,1.58911589 C27.27898,4.03588362 25.06228,7.6215291 24.95848,12.4114117" id="Fill-7"></path>
                        <path d="M23.02088,15.7649511 C19.54188,15.7840978 16.06138,15.7133252 12.58398,15.7896112 C7.39388,15.903489 3.60628,18.3481516 1.20888,22.946467 C0.51558,24.2762103 0.20418,25.725445 8e-05,27.2000416 L8e-05,40.9000562 C0.51558,40.9086773 1.03118,40.9230122 1.54668,40.9246603 C2.22528,40.9263203 2.22748,40.92211 2.22768,40.2202983 C2.22848,36.3377286 2.22028,32.4552592 2.23158,28.5727897 C2.23698,26.7279902 2.60388,24.960379 3.53948,23.3494499 C5.33478,20.2580098 7.99888,18.48689 11.56828,18.1132787 C13.12918,17.9498802 14.69448,18.0529315 16.25758,18.0396993 C18.53798,18.0204523 20.81868,18.0250636 23.09908,18.0430073 C23.53858,18.0464156 23.70288,17.8947457 23.67748,17.466802 C23.65668,17.1181516 23.64908,16.7650905 23.67948,16.4177433 C23.72368,15.91211 23.52308,15.7622445 23.02088,15.7649511" id="Fill-9"></path>
                        <path d="M62.43221,35.0966215 C58.28661,35.1136631 54.14081,35.100932 49.99511,35.100932 C49.99511,35.0969222 49.99501,35.0929125 49.99501,35.0889027 C45.68291,35.0889027 41.37021,35.1285995 37.05871,35.0757707 C33.86511,35.0364748 30.67971,32.3228562 30.72121,28.2766875 C30.76061,24.437223 33.72711,21.613135 37.56571,21.6103281 C42.04441,21.60702 46.52311,21.6094259 51.00181,21.6093257 C51.13501,21.6093257 51.26871,21.6154406 51.40131,21.6066191 C51.52741,21.5982988 51.69091,21.6499247 51.75221,21.4911374 C51.80091,21.3653306 51.67581,21.2846337 51.61111,21.1919076 C51.28711,20.7278758 50.93211,20.2819883 50.64931,19.793998 C50.42851,19.4128685 50.16241,19.2796435 49.72551,19.2821496 C46.71191,19.2994919 43.69831,19.2805457 40.68481,19.2960836 C39.33781,19.3030005 37.99101,19.2424528 36.64321,19.3598391 C31.48121,19.8092352 27.65421,24.8071252 28.58921,29.9024528 C29.38881,34.25958 33.11661,37.3995384 37.54831,37.405954 C45.82311,37.4181839 54.09791,37.4093623 62.37271,37.4098636 C62.97431,37.4099638 63.56751,37.3331765 64.15751,37.2250127 C68.64321,36.4032083 71.93441,31.9874381 71.43201,27.4652083 C70.91371,22.7999296 67.05751,19.3426973 62.33971,19.2872621 C59.68951,19.2561863 57.69851,18.0395188 56.46531,15.7179565 C55.19911,13.3342425 55.36551,10.9274724 56.86371,8.70775844 C58.19201,6.73995892 60.12801,5.7928489 62.52411,5.79776088 C67.75201,5.8083868 72.98011,5.79956528 78.20801,5.80106895 C81.38801,5.80197115 84.56891,5.76167286 87.74781,5.82292225 C91.18941,5.88918386 94.25751,8.77201516 94.14711,12.7642523 C94.04311,16.5250249 91.08471,19.2871619 87.31481,19.2901692 C82.81941,19.293778 78.32411,19.2911716 73.82871,19.2913721 C73.67891,19.2913721 73.52901,19.2908709 73.37921,19.2948807 C73.07701,19.3031007 73.03221,19.417179 73.21081,19.6622768 C73.54411,20.1194919 73.89691,20.5678856 74.17611,21.0573795 C74.41221,21.470888 74.69791,21.6212548 75.17471,21.6192499 C79.23711,21.6020078 83.29961,21.608223 87.36211,21.6118318 C87.71081,21.6122328 88.06431,21.6138367 88.40751,21.6669663 C92.31091,22.2721423 94.56711,25.8516729 94.08541,29.330157 C93.65331,32.450668 90.95351,34.9821423 87.80211,35.0831888 C86.57131,35.1225848 85.33841,35.1004308 84.10631,35.1012328 C81.10941,35.1029369 78.11251,35.1007315 75.11561,35.1038391 C74.85611,35.1041399 74.56671,35.046399 74.39521,35.3297902 C74.02391,35.9431863 73.62761,36.5388391 73.18191,37.1012108 C73.05331,37.2635066 73.08661,37.3826973 73.30851,37.4006411 C73.45751,37.4124744 73.60791,37.4095628 73.75771,37.4095628 C78.21981,37.4099638 82.68191,37.411668 87.14391,37.406756 C87.54231,37.4062548 87.94241,37.3787878 88.33841,37.3353819 C92.17071,36.9165604 95.29901,34.1323697 96.17651,30.3669858 C97.03671,26.6764846 95.44721,22.8185751 92.21321,20.7469222 C91.75691,20.4546093 91.76261,20.4630298 92.20471,20.1696142 C94.86261,18.4052108 96.31831,15.9166411 96.40731,12.7367853 C96.54901,7.67594181 92.41481,3.50577066 87.31511,3.49664841 C79.04031,3.48171198 70.76551,3.49283912 62.49071,3.49223765 C61.88901,3.49223765 61.29581,3.56922543 60.70581,3.677289 C56.21551,4.49979511 52.91451,8.96528655 53.44481,13.498443 C53.98791,18.1415677 57.83861,21.5761447 62.53891,21.6098269 C67.12101,21.6425066 70.33191,26.1714528 68.85581,30.5194577 C67.90821,33.3105653 65.44591,35.0842914 62.43221,35.0966215" id="Fill-11"></path>
                        <path d="M74.95789,27.5439203 C74.66829,23.5918812 72.88279,20.4648543 69.71239,18.1350719 C67.53899,16.5379765 65.06909,15.7981721 62.37519,15.7707051 C60.47909,15.7514582 59.08009,14.2164142 59.20599,12.3852479 C59.33759,10.4728836 60.67879,9.3243824 62.60539,9.32187628 C65.55199,9.31796675 68.49879,9.32067335 71.44559,9.32067335 C76.73969,9.32077359 82.03389,9.31796675 87.32799,9.32307922 C88.83829,9.32458289 90.05599,10.2089399 90.46309,11.5701599 C91.10599,13.7207051 89.60489,15.7688005 87.36239,15.7722088 C81.38579,15.7813311 75.40929,15.7786244 69.43269,15.7808298 C69.28279,15.7808298 69.13279,15.7779227 68.98319,15.7844386 C68.88799,15.7886489 68.76009,15.7590768 68.71739,15.8678421 C68.65489,16.0266293 68.81649,16.0583066 68.90659,16.1079276 C69.50529,16.4375315 70.14209,16.7332528 70.62619,17.2101159 C71.35199,17.9250597 72.18459,18.0599888 73.16099,18.0520694 C77.95539,18.0134753 82.75029,18.0394386 87.54489,18.0313188 C90.25869,18.0267076 92.93649,15.6993311 92.86729,12.4662455 C92.79219,8.95407922 89.77819,7.0200621 87.22849,7.04005538 C79.00479,7.10506944 70.78029,7.06386895 62.55599,7.06637506 C62.22389,7.06647531 61.88589,7.06136284 61.56059,7.11699853 C58.94319,7.56448998 56.98189,9.82801076 56.93159,12.4408836 C56.88109,15.0628787 58.73789,17.4046905 61.35349,17.9234557 C62.17879,18.087155 63.04599,18.0270083 63.88239,18.1491061 C69.77879,19.0096049 73.66819,24.4881672 72.54159,30.3324215 C71.59119,35.2626465 67.38209,38.6658469 62.35489,38.6697565 C54.19729,38.6761721 46.03959,38.6701575 37.88189,38.6738665 C37.13039,38.6741672 36.38299,38.6287565 35.64769,38.4819985 C31.76689,37.7076098 29.06569,35.467045 27.77679,31.7380499 C26.46169,27.932468 27.22279,24.4138861 29.88419,21.4007369 C31.89899,19.1194729 34.53609,18.0646 37.56389,18.0411428 C41.04319,18.014177 44.52279,18.0348274 48.00219,18.0347271 C48.40179,18.0347271 48.80189,18.0210939 49.20079,18.0381355 C49.56759,18.0537736 49.68729,17.9406978 49.54279,17.5739032 C49.39029,17.1873604 49.24229,16.7933995 49.15209,16.3894142 C49.04699,15.9178641 48.81339,15.7608812 48.32199,15.7637883 C44.79269,15.7848396 41.26319,15.7787247 37.73379,15.7721086 C36.94899,15.7707051 36.17379,15.837067 35.39899,15.9598665 C28.69729,17.0225584 23.94499,23.6465144 25.08189,30.3487614 C26.12829,36.5165046 31.33029,40.9190425 37.58609,40.9250572 C41.69829,40.929067 45.81039,40.9258592 49.92249,40.9258592 C54.06789,40.9258592 58.21339,40.9219496 62.35869,40.9298996 C63.01019,40.9311721 63.65729,40.8909741 64.29789,40.7937369 C70.70799,39.8209643 75.43209,34.0150034 74.95789,27.5439203" id="Fill-13"></path>
                        <path d="M87.49109,31.5758242 C86.87549,31.5893572 86.25949,31.5804355 85.64359,31.5805357 C82.58089,31.5809367 79.51819,31.5862496 76.45569,31.57412 C76.06049,31.5726164 75.84499,31.6808804 75.75189,32.0914819 C75.65299,32.5276457 75.49969,32.956191 75.32579,33.3693988 C75.15889,33.7660663 75.27669,33.848367 75.67239,33.8455332 C77.70299,33.8306237 79.73379,33.838543 81.76439,33.838543 L81.76439,33.8334306 C83.71179,33.8334306 85.65959,33.8554844 87.60659,33.8283181 C90.48849,33.7879196 92.94949,31.1982032 92.88489,28.3118633 C92.81629,25.2516995 90.39239,22.874301 87.32259,22.8675846 C84.55969,22.8614697 81.79659,22.8660809 79.03359,22.8659807 C77.95159,22.8659807 76.86969,22.8641763 75.78789,22.8668829 C75.17749,22.8684868 75.16929,22.887834 75.36949,23.4434892 C75.49349,23.7879293 75.63869,24.1306653 75.70819,24.4871347 C75.80589,24.9876555 76.05739,25.1402276 76.56769,25.1372203 C80.19609,25.1154672 83.82469,25.1165699 87.45319,25.1303034 C89.22739,25.13712 90.58759,26.5472594 90.59449,28.3384281 C90.60149,30.1411249 89.26819,31.5366286 87.49109,31.5758242" id="Fill-15"></path>
                        <path d="M5.79857,34.0606949 L5.80107,34.0606949 C5.80107,32.1279809 5.78237,30.1949663 5.80507,28.2623526 C5.84937,24.4944626 8.76997,21.6167438 12.53827,21.6107291 C15.71757,21.6055164 18.89687,21.6094259 22.07617,21.6094259 C23.68887,21.6093257 23.68887,21.6093257 23.67377,19.9980958 C23.66747,19.3247535 23.63927,19.2922743 22.97027,19.2919736 C19.49137,19.2906704 16.01247,19.2866606 12.53357,19.2975873 C12.07027,19.2989907 11.60177,19.349113 11.14497,19.4296093 C6.60217,20.2302621 3.49737,23.9393086 3.49297,28.5635873 C3.48937,32.4125751 3.49217,36.2614626 3.49237,40.1104504 C3.49237,40.2437756 3.49707,40.3771007 3.49537,40.5103257 C3.49187,40.8002328 3.62647,40.9335579 3.92217,40.9265408 C4.33817,40.9168171 4.75637,40.899976 5.16997,40.9324553 C5.64777,40.9699467 5.81117,40.7900078 5.80687,40.3089345 C5.78757,38.226355 5.79857,36.1434748 5.79857,34.0606949" id="Fill-17"></path>
                        <path d="M25.71028,5.28969169 C25.96448,4.84290196 26.29438,4.43971858 26.57978,4.00976993 C26.66588,3.88005355 26.87848,3.77329315 26.78368,3.59335428 C26.69468,3.42424181 26.48238,3.49561589 26.32368,3.49531516 C23.99268,3.49130538 21.66168,3.49250831 19.33068,3.49240807 C19.14758,3.49230782 18.96438,3.48930049 18.78128,3.4927088 C16.35198,3.53811956 13.91758,3.36148875 11.49358,3.58192641 C7.98728,3.90080416 4.76588,6.67777726 3.85628,10.0913029 C3.21338,12.5044888 3.58628,14.9659924 3.50478,17.4055425 C3.49338,17.7466746 3.68128,17.6825181 3.88698,17.5343567 C4.35958,17.1937259 4.82258,16.8334472 5.32508,16.5429386 C5.69828,16.3273127 5.81138,16.0558506 5.80518,15.6483567 C5.78808,14.532034 5.78198,13.4147088 5.80798,12.2986868 C5.89058,8.75775037 8.71548,5.91160856 12.24878,5.8123665 C13.34678,5.78159144 14.44638,5.80133961 15.54518,5.80093863 C18.62548,5.79993619 21.70578,5.79332005 24.78588,5.80865746 C25.22258,5.81086284 25.49288,5.67172347 25.71028,5.28969169" id="Fill-19"></path>
                        <path d="M50.6326,5.32380489 C50.8917,4.86077555 51.2292,4.44195403 51.5274,4.00037702 C51.6152,3.8703599 51.8342,3.77272176 51.743,3.59087824 C51.6565,3.4184577 51.4421,3.49584645 51.2846,3.49554572 C48.9205,3.49103472 46.5565,3.49243814 44.1924,3.49283912 C41.945,3.4932401 39.6973,3.47810318 37.45,3.49644792 C33.3362,3.52992958 29.7146,6.37777555 28.7434,10.3708147 C28.1805,12.6855604 28.5457,15.0508293 28.4652,17.3922401 C28.4537,17.7250518 28.6312,17.6905677 28.8444,17.5359907 C29.3024,17.2039809 29.7479,16.8479125 30.2352,16.565223 C30.6063,16.3498978 30.7193,16.0868562 30.7088,15.6755531 C30.6834,14.6763159 30.6846,13.6756753 30.7044,12.6761374 C30.742,10.7865286 31.3322,9.10803472 32.6957,7.75844303 C34.039,6.42890024 35.6618,5.78954083 37.5587,5.7964577 C41.6207,5.81149438 45.6829,5.79625721 49.745,5.80738435 C50.1547,5.80848704 50.4227,5.69902005 50.6326,5.32380489" id="Fill-21"></path>
                        <path d="M23.10037,22.8579635 C19.50657,22.8732183 15.91257,22.8491597 12.31897,22.8742208 C9.50727,22.8938687 7.07967,25.3648956 7.06517,28.1795606 C7.05497,30.1613944 7.06317,32.1434286 7.06287,34.1252623 C7.06247,36.1904995 7.07187,38.2558369 7.05479106,40.3208736 C7.05127,40.7625509 7.16967,40.9763724 7.64417,40.9312623 C7.95737,40.9014897 8.27587,40.9265509 8.59197,40.9257489 C9.31127,40.9238443 9.31367,40.9234433 9.31377,40.2083993 C9.31467,36.3278345 9.31227,32.4472697 9.31507,28.5667049 C9.31667,26.4549543 10.63857,25.1281181 12.73887,25.1262134 C15.38427,25.1238076 18.02977,25.125612 20.67527,25.1255117 C21.50717,25.1254115 22.33937,25.1130814 23.17087,25.1303235 C23.53817,25.1379421 23.68637,24.9940912 23.67527,24.633612 C23.66287,24.2342379 23.65627,23.8332599 23.67777,23.434788 C23.70077,23.0078467 23.54027,22.8560765 23.10037,22.8579635" id="Fill-23"></path>
                        <path d="M24.18616,7.06433007 C22.17246,7.06332763 20.15886,7.0639291 18.14516,7.0639291 L18.14516,7.06783863 C16.21466,7.06783863 14.28406,7.05350367 12.35386,7.07144743 C9.92836,7.09380196 7.69246,8.92055746 7.18986,11.3054743 C6.91256,12.6212836 7.10646,13.9626553 7.06946,15.2919976 C7.06106,15.5941345 7.25436,15.5371956 7.44666,15.4728386 C7.93546,15.3094401 8.42326,15.1415306 8.91806,14.9985819 C9.20326,14.9162812 9.32496,14.7621051 9.31716,14.4622738 C9.30286,13.912934 9.31346,13.3628924 9.31436,12.8131516 C9.31776,10.6336357 10.61956,9.32293888 12.79046,9.32143521 C16.35186,9.3189291 19.91326,9.3151198 23.47456,9.32825183 C23.87296,9.3297555 24.08496,9.21587775 24.17926,8.81419804 C24.27776,8.39467482 24.43676,7.98898533 24.57686,7.57978729 C24.74796,7.08006846 24.74046,7.06463081 24.18616,7.06433007" id="Fill-25"></path>
                        <path d="M37.76575,9.32130489 C41.29535,9.31919976 44.82505,9.31448826 48.35455,9.32852249 C48.78855,9.33022665 49.03185,9.2217621 49.12215,8.76364474 C49.19895,8.37479633 49.36175,8.00218753 49.49555,7.62566919 C49.68445,7.09427311 49.67115,7.06590391 49.10375,7.06530244 C47.08915,7.06289658 45.07465,7.0643 43.06005,7.0643 L43.06005,7.06770831 C41.14545,7.06770831 39.23065,7.0523709 37.31615,7.07131711 C34.51435,7.0989846 32.12285,9.44340269 32.03285,12.2418281 C32.00125,13.2239235 32.01465,14.207322 31.99905,15.1900188 C31.99455,15.4781215 32.06855,15.5934027 32.38005,15.4809284 C32.88035,15.3001875 33.38855,15.1396961 33.89925,14.9907328 C34.16925,14.9120408 34.27345,14.7529528 34.27015,14.4820922 C34.26335,13.9322511 34.26895,13.3822095 34.27025,12.8322682 C34.27575,10.6021289 35.54715,9.32260807 37.76575,9.32130489" id="Fill-27"></path>
                    </g>
                </g>
            </g>
        </g>
    </g>
</svg>