<?xml version="1.0" encoding="UTF-8"?>
<svg width="578px" height="125px" viewBox="0 0 578 125" version="1.1" xmlns="http://www.w3.org/2000/svg" xmlns:xlink="http://www.w3.org/1999/xlink">
    <!-- Generator: sketchtool 57.1 (101010) - https://sketch.com -->
    <title>D6857FB6-32A2-40BF-8488-83C13BFA719A</title>
    <desc>Created with sketchtool.</desc>
    <defs>
        <polygon id="path-1" points="0 124.915559 577.805957 124.915559 577.805957 5.88197629e-14 0 5.88197629e-14"></polygon>
    </defs>
    <g id="Asset-Artboard-Page" stroke="none" stroke-width="1" fill="none" fill-rule="evenodd">
        <g id="Hr-prodigy-logo">
            <path d="M571.111715,69.3972281 L557.561608,104.579345 L542.211301,69.3972281 L535.273232,69.3972281 L554.458529,111.453931 C553.203645,114.445239 551.924763,116.514775 550.622711,117.66254 C549.287974,118.815686 547.57011,119.426613 545.807148,119.37653 C544.611842,119.3935 543.419019,119.269742 542.253089,119.007739 C541.188112,118.739941 540.159545,118.342176 539.191385,117.824378 L537.06888,122.791265 C538.422649,123.474212 539.847996,124.007324 541.317614,124.380672 C542.867498,124.752357 544.457516,124.931579 546.051256,124.914609 C549.203984,124.914609 551.883388,124.014775 554.089884,122.21552 C556.296793,120.416679 558.296416,117.341348 560.089168,112.989527 L577.806089,69.3806718 L571.111715,69.3972281 Z" id="Fill-1" fill="#A9BAB8"></path>
            <polygon id="Fill-4" fill="#A9BAB8" points="179.13073 77.0751232 155.94453 77.0751232 155.94453 54.4509509 143.374995 54.4509509 143.374995 111.615686 155.94453 111.615686 155.94453 88.6686663 179.13073 88.6686663 179.13073 111.615686 191.700265 111.615686 191.700265 54.4509509 179.13073 54.4509509"></polygon>
            <path d="M237.572028,74.1320805 C237.572028,76.5824116 236.744541,78.5430904 235.089566,80.013703 C233.434591,81.4847295 231.054323,82.2198288 227.948349,82.2198288 L215.229866,82.2198288 L215.229866,65.804266 L227.716652,65.804266 C230.819731,65.804266 233.241373,66.4843156 234.981993,67.8452428 C236.722613,69.2053421 237.593957,71.2471468 237.596853,73.9706567 L237.572028,74.1320805 Z M246.926775,84.7901937 C249.185816,81.8762864 250.315336,78.1060049 250.315336,73.4781075 L250.315336,73.3166837 C250.315336,67.3812532 248.423286,62.7537697 244.638772,59.4342333 C240.854672,56.1146968 235.562889,54.4590677 228.763424,54.4673149 L202.639644,54.4673149 L202.639644,111.615939 L215.229866,111.615939 L215.229866,93.3249619 L225.10593,93.3249619 L237.352745,111.615939 L252.044785,111.615939 L238.068521,91.2016175 C241.56838,89.9462367 244.640013,87.7231407 246.926775,84.7901937 L246.926775,84.7901937 Z" id="Fill-6" fill="#A9BAB8"></path>
            <path d="M319.820194,78.0932956 C319.075869,79.6545538 317.983586,81.024173 316.626093,82.095779 C315.139925,83.2625836 313.445231,84.1355141 311.632206,84.6661432 C309.546523,85.2882458 307.37892,85.5920538 305.202628,85.5684611 L291.048455,85.5684611 L291.048455,60.4111765 L305.529486,60.4111765 C310.168794,60.4111765 313.892488,61.4596037 316.700566,63.5568719 C319.508645,65.6537262 320.914133,68.7708619 320.916615,72.9070373 C320.944336,74.6959446 320.569898,76.4682956 319.820194,78.0932956 M321.537231,59.3101834 C319.53016,57.6901503 317.230572,56.4703655 314.764246,55.7174681 C311.92224,54.8437098 308.961904,54.4165575 305.988741,54.4509118 L284.59819,54.4509118 L284.59819,111.615648 L291.048455,111.615648 L291.048455,91.4459458 L304.92542,91.4459458 C307.850588,91.4633299 310.763344,91.0647372 313.576801,90.2617571 C316.166423,89.5440418 318.595927,88.3387438 320.734568,86.7104325 C322.770187,85.1355152 324.429713,83.1259953 325.591919,80.8288098 C326.833564,78.2894885 327.449215,75.4894057 327.387567,72.6628328 C327.428942,70.0390744 326.914244,67.4364253 325.877403,65.0262432 C324.896416,62.808114 323.410249,60.8507464 321.537231,59.3101834" id="Fill-8" fill="#A9BAB8"></path>
            <path d="M348.869091,71.8058804 C347.388303,72.8770725 346.068874,74.1556321 344.950938,75.6014103 C343.801972,77.0840262 342.841673,78.7036455 342.091969,80.4234303 L342.091969,69.3973539 L335.798927,69.3973539 L335.798927,111.615898 L342.083694,111.615898 L342.083694,94.7942915 C342.032804,91.9499206 342.475096,89.1183808 343.391124,86.425086 C344.159033,84.1726025 345.381232,82.1014104 346.982006,80.3406488 C348.468587,78.7305494 350.296507,77.4747547 352.332126,76.6651521 C354.394639,75.8389931 356.597824,75.4176355 358.819628,75.4234302 L359.307846,75.4234302 L359.307846,68.660185 C357.40297,68.5935459 355.500162,68.8427181 353.676794,69.3973539 C351.954378,69.9341917 350.330434,70.7475195 348.869091,71.8058804" id="Fill-10" fill="#A9BAB8"></path>
            <path d="M399.221776,97.0045103 C398.500207,98.9171758 397.418681,100.673384 396.035949,102.178351 C394.658597,103.656828 392.990382,104.834808 391.137224,105.638616 C389.156633,106.488782 387.019646,106.912209 384.864869,106.880338 C382.726228,106.901033 380.608687,106.456083 378.658713,105.57653 C376.791074,104.744576 375.104241,103.555007 373.693789,102.074874 C372.276303,100.565769 371.167056,98.7942454 370.429351,96.8596427 C369.629998,94.8087322 369.226598,92.6249573 369.241906,90.4237984 C369.224115,88.2404375 369.613034,86.0736329 370.387976,84.0326561 C371.108718,82.1175071 372.172867,80.350123 373.527877,78.8178383 C374.876682,77.314527 376.533312,76.1199906 378.385642,75.3161827 C380.369544,74.4552555 382.512322,74.0239641 384.674547,74.0492125 C386.813602,74.0301727 388.931142,74.4763648 390.880703,75.3571595 C392.749583,76.2044277 394.436416,77.4080701 395.845627,78.9006197 C397.277594,80.4213151 398.401736,82.2044276 399.155577,84.1526892 C399.951206,86.2048415 400.352124,88.3886163 400.338884,90.5889474 C400.364122,92.7710666 399.985547,94.9395269 399.221776,96.9838149 L399.221776,97.0045103 Z M400.60782,75.0094773 C398.60861,72.9954045 396.237858,71.3873748 393.627549,70.2743781 C382.603761,65.3588153 369.683371,70.3141132 364.769337,81.3422586 C364.655557,81.5980533 364.546329,81.8559175 364.442065,82.1162652 C363.35185,84.8290135 362.798261,87.7276061 362.811968,90.6510332 C362.795779,93.5616292 363.349782,96.4469768 364.442065,99.1444105 C365.492147,101.750785 367.045341,104.123301 369.014347,106.127026 C371.004455,108.133235 373.359484,109.740437 375.95283,110.862125 C378.71126,112.051281 381.687732,112.648963 384.691098,112.617506 C387.717633,112.643582 390.717689,112.046314 393.50384,110.862125 C396.142697,109.754096 398.533723,108.130337 400.537483,106.085635 C406.689026,99.668831 408.510326,90.2404372 405.192101,81.992093 C404.139537,79.3848911 402.581378,77.0115468 400.60782,75.0094773 L400.60782,75.0094773 Z" id="Fill-12" fill="#A9BAB8"></path>
            <path d="M449.458509,97.1827816 C448.676534,99.1182121 447.509776,100.874007 446.028574,102.344205 C444.613984,103.73452 442.954458,104.851656 441.133986,105.638908 C439.34413,106.416639 437.413188,106.816474 435.461559,106.81464 C433.5,106.82558 431.556232,106.439818 429.747758,105.679884 C427.957076,104.924504 426.343889,103.804056 425.010393,102.389735 C423.611525,100.894288 422.517173,99.1413909 421.787329,97.2278975 C420.970599,95.0739239 420.569681,92.7850166 420.604022,90.4816226 C420.567613,88.1384934 420.968944,85.809851 421.787329,83.6149006 C422.494003,81.7134105 423.575943,79.9737582 424.969018,78.4985926 C426.294653,77.1240065 427.8946,76.0437085 429.66501,75.3280628 C431.505342,74.5879965 433.473521,74.21548 435.457422,74.2316224 C437.409051,74.2303807 439.339993,74.6322846 441.129848,75.4108442 C442.951976,76.1951986 444.613157,77.3106787 446.028574,78.7018211 C447.504398,80.1600165 448.671155,81.9013244 449.458509,83.8218543 C450.320338,85.934851 450.74939,88.1993378 450.720428,90.4816226 C450.744425,92.7725994 450.315373,95.0457782 449.458509,97.1703644 L449.458509,97.1827816 Z M450.47632,77.4932124 C449.638489,76.2709442 448.697222,75.1227654 447.662863,74.061921 C446.595818,72.9716892 445.402581,72.01308 444.10839,71.2055469 C442.73352,70.3591065 441.25149,69.6997522 439.702433,69.2440402 C437.954366,68.7399012 436.142582,68.4936263 434.323765,68.5110104 C431.76476,68.5089409 429.23182,69.0230138 426.876377,70.0221859 C424.477905,71.0362588 422.295406,72.5002488 420.446799,74.3350998 C418.487723,76.311921 416.940321,78.6587753 415.895618,81.2386594 C413.609684,87.2370037 413.609684,93.8665567 415.895618,99.8644871 C416.940321,102.444785 418.487723,104.791639 420.446799,106.768875 C422.294579,108.607451 424.486593,110.062749 426.897064,111.052815 C429.258714,112.028394 431.78917,112.529222 434.344452,112.525911 C436.152926,112.545778 437.953952,112.297848 439.690021,111.78957 C441.23825,111.326408 442.709937,110.638908 444.059155,109.748593 C445.356242,108.883941 446.54741,107.869454 447.609076,106.727484 C448.656262,105.597931 449.623595,104.398014 450.505282,103.134769 L450.505282,111.624007 L456.793774,111.624007 L456.793774,52.0213582 L450.505282,52.0213582 L450.47632,77.4932124 Z" id="Fill-14" fill="#A9BAB8"></path>
            <mask id="mask-2" fill="white">
                <use xlink:href="#path-1"></use>
            </mask>
            <g id="Clip-17"></g>
            <polygon id="Fill-16" fill="#A9BAB8" mask="url(#mask-2)" points="469.218933 111.620035 475.5037 111.620035 475.5037 69.3973516 469.218933 69.3973516"></polygon>
            <polygon id="Fill-18" fill="#A9BAB8" mask="url(#mask-2)" points="468.80928 60.1668058 475.991872 60.1668058 475.991872 53.2255804 468.80928 53.2255804"></polygon>
            <path d="M520.452758,94.347268 C519.610789,96.0745031 518.429964,97.6142382 516.981448,98.8754137 C515.525897,100.135761 513.851476,101.117549 512.041347,101.772765 C510.186948,102.456126 508.224975,102.802152 506.248935,102.795323 C504.337025,102.805049 502.44001,102.458609 500.655119,101.772765 C498.921947,101.116308 497.338963,100.116308 496.000502,98.834023 C493.151876,96.0935428 491.570134,92.2909766 491.635505,88.3373342 C491.606957,86.307119 491.995876,84.2926322 492.777438,82.4188739 C493.499835,80.7061256 494.570604,79.1622514 495.921891,77.8861753 C497.26242,76.6278971 498.844577,75.655215 500.57237,75.0260759 C502.391188,74.3638243 504.313441,74.0314567 506.248935,74.0451156 C508.224975,74.0401488 510.186534,74.3861753 512.041347,75.0674666 C513.850649,75.7243375 515.524656,76.7065395 516.981448,77.9648176 C518.433274,79.2330296 519.614513,80.7818706 520.452758,82.5177978 C522.190068,86.2735925 522.190068,90.6038905 520.452758,94.3596852 L520.452758,94.347268 Z M521.511942,76.9921353 C520.621565,75.8269863 519.639338,74.734685 518.574361,73.7268208 C517.475871,72.6850161 516.255741,71.779387 514.941691,71.0277314 C513.526687,70.2330294 512.018591,69.6158936 510.452571,69.190397 C506.226593,68.0716056 501.756091,68.3145692 497.676164,69.8853473 C495.320721,70.7876652 493.159324,72.132036 491.308648,73.8468539 C489.41577,75.6196187 487.902709,77.7586916 486.860903,80.1336915 C485.718142,82.7748339 485.153796,85.6295524 485.205928,88.5074497 C485.151314,91.3700325 485.71566,94.2106781 486.860903,96.8352642 C488.937069,101.531456 492.813434,105.196191 497.61824,107.004552 C499.978648,107.901075 502.483039,108.357201 505.007704,108.349751 C508.869174,108.349751 512.134026,107.479304 514.801018,105.73841 C517.408845,104.052979 519.702227,101.925496 521.578141,99.4507443 L521.578141,104.417632 C521.578141,109.384519 520.190444,113.127896 517.415879,115.646936 C514.640899,118.16639 510.917206,119.432532 506.244797,119.447019 C503.329145,119.468542 500.43087,118.998757 497.672027,118.055877 C494.936353,117.09437 492.351696,115.746274 489.99708,114.053393 L487.142248,118.954055 C489.913504,120.889072 492.97107,122.377896 496.203237,123.366307 C499.484638,124.357201 502.895542,124.852234 506.323409,124.835678 C509.326775,124.874171 512.317314,124.432946 515.181662,123.527731 C517.690604,122.732201 520.001363,121.410181 521.958785,119.64942 C523.874832,117.874585 525.355207,115.680463 526.282407,113.23841 C527.344901,110.365479 527.857116,107.318708 527.792572,104.256208 L527.792572,69.3973506 L521.507804,69.3973506 L521.511942,76.9921353 Z" id="Fill-19" fill="#A9BAB8" mask="url(#mask-2)"></path>
            <path d="M58.7436255,5.87479287 C61.9886176,5.87479287 64.6187865,8.50600144 64.6187865,11.7522762 C64.6187865,14.9981371 61.9886176,17.6297596 58.7436255,17.6297596 C55.4990472,17.6297596 52.8684646,14.9981371 52.8684646,11.7522762 C52.8684646,8.50600144 55.4990472,5.87479287 58.7436255,5.87479287" id="Fill-20" fill="#A9BAB8" mask="url(#mask-2)"></path>
            <path d="M10.4006486,6.07909767 C13.5479972,5.23514074 16.7834731,7.10351818 17.6270965,10.2521108 C18.47072,13.4007034 16.6030808,16.6374583 13.4557323,17.4814153 C10.3083838,18.3253722 7.07290784,16.4569948 6.22928438,13.3084021 C5.38566092,10.1598095 7.2533001,6.9230546 10.4006486,6.07909767" id="Fill-21" fill="#A9BAB8" mask="url(#mask-2)"></path>
            <path d="M8.15393737,101.132656 C10.7212172,99.1471428 14.4109838,99.619411 16.3952987,102.187292 C18.3804411,104.755586 17.9083595,108.446811 15.3414934,110.432325 C12.7742136,112.417838 9.08444702,111.94557 7.09971835,109.377689 C5.11498968,106.809394 5.58707128,103.118169 8.15393737,101.132656" id="Fill-22" fill="#A9BAB8" mask="url(#mask-2)"></path>
            <path d="M58.7436255,99.9144055 C61.9886176,99.9144055 64.6187865,102.545614 64.6187865,105.791889 C64.6187865,109.038164 61.9886176,111.669372 58.7436255,111.669372 C55.4990472,111.669372 52.8684646,109.038164 52.8684646,105.791889 C52.8684646,102.545614 55.4990472,99.9144055 58.7436255,99.9144055" id="Fill-23" fill="#A9BAB8" mask="url(#mask-2)"></path>
            <path d="M58.7436255,52.8944944 C61.9886176,52.8944944 64.6187865,55.5261169 64.6187865,58.7719778 C64.6187865,62.0178386 61.9886176,64.6494611 58.7436255,64.6494611 C55.4990472,64.6494611 52.8684646,62.0178386 52.8684646,58.7719778 C52.8684646,55.5261169 55.4990472,52.8944944 58.7436255,52.8944944" id="Fill-24" fill="#A9BAB8" mask="url(#mask-2)"></path>
            <path d="M105.744956,111.681662 C102.500378,111.681662 99.8697954,109.050453 99.8697954,105.804592 C99.8697954,102.558317 102.500378,99.9271089 105.744956,99.9271089 C108.989948,99.9271089 111.620117,102.558317 111.620117,105.804592 C111.613497,109.045486 108.984984,111.669659 105.744956,111.669659 L105.744956,111.681662 Z M58.7436666,70.5396932 C52.2540961,70.5396932 46.9933446,65.2768622 46.9933446,58.7843127 C46.9933446,52.292591 52.2540961,47.0293461 58.7436666,47.0293461 C65.233237,47.0293461 70.4939885,52.292591 70.4939885,58.7843127 C70.4848862,65.2706536 65.2274446,70.5243787 58.7436666,70.5268621 L58.7436666,70.5396932 Z M11.7423783,64.661795 C8.49779999,64.661795 5.86721735,62.0305864 5.86721735,58.7843116 C5.86721735,55.5384507 8.49779999,52.9068283 11.7423783,52.9068283 C14.9873704,52.9068283 17.6175393,55.5384507 17.6175393,58.7843116 C17.6175393,62.0305864 14.9873704,64.661795 11.7423783,64.661795 L11.7423783,64.661795 Z M105.744958,5.88696174 C108.98995,5.88696174 111.620119,8.51858422 111.620119,11.764859 C111.620119,15.0107199 108.989536,17.6419285 105.744958,17.6419285 C102.50038,17.6419285 99.8697954,15.0107199 99.8697954,11.764859 C99.8673147,8.52106767 102.494174,5.88944519 105.736683,5.88696174 L105.744958,5.88696174 Z M106.02216,94.0492114 C104.575298,94.0127876 103.134642,94.2454034 101.773012,94.7367114 C100.695623,95.1340624 99.4854226,94.8712312 98.6699338,94.0620425 L74.9417313,70.3240464 C74.0360463,69.4349736 73.8146934,68.0587319 74.3955896,66.9304206 C77.089475,61.7433347 77.0460319,55.55956 74.2797414,50.4109674 C73.6496097,49.2673416 73.8486204,47.8447423 74.767959,46.91759 L98.3141142,23.3542627 C99.1511177,22.5264482 100.398555,22.2731369 101.491666,22.7085674 C107.538944,25.0570772 114.345028,22.0570773 116.69261,16.0074086 C119.04102,9.95732593 116.041791,3.14896516 109.994513,0.800041372 C103.946821,-1.54888241 97.1411507,1.45153142 94.7931551,7.50120016 C93.7314887,10.2371272 93.7314887,13.2714815 94.7931551,16.0074086 C95.229241,17.1009516 94.9760298,18.3492959 94.1477149,19.1858025 L70.6015597,42.7247093 C69.6747737,43.6435834 68.2543916,43.8439145 67.1095627,43.2172589 C58.5318278,38.5943286 47.8320014,41.8029378 43.2104841,50.3840634 C42.6436552,51.4366296 42.1852271,52.5442455 41.8422336,53.6895269 C41.4764841,54.9403547 40.332069,55.8025235 39.0287763,55.8083182 L25.1973237,55.8083182 C24.0347038,55.8074904 22.9825535,55.1187487 22.5162643,54.0537653 C19.9125751,48.1067456 12.9827815,45.3977225 7.03852545,48.0028548 C1.0942694,50.6075733 -1.61326952,57.5396924 0.990419721,63.4867121 C3.59410896,69.4333179 10.5234888,72.142341 16.4677449,69.5372086 C19.1723876,68.3517782 21.3317161,66.1920101 22.5162643,63.4867121 C22.9804848,62.4076558 24.0400825,61.7073247 25.2138734,61.7023578 L39.0411886,61.7023578 C40.3448951,61.7073247 41.4897239,62.5699075 41.8546459,63.8215631 C44.6420373,73.1663476 54.4742432,78.481331 63.8149214,75.6928376 C65.0573938,75.3219767 66.2551819,74.8153542 67.386771,74.1816622 C68.5357373,73.526447 69.9809441,73.7176721 70.9201424,74.6493774 L94.2925252,98.0314133 C95.1386311,98.8886153 95.3810849,100.173383 94.9048659,101.280171 C94.2693555,102.796314 93.961944,104.429592 94.0029046,106.073218 C94.1530936,112.563698 99.5342444,117.703598 106.02216,117.55335 C112.510075,117.402688 117.647531,112.018996 117.497342,105.52893 C117.352118,99.2503702 112.298652,94.1949068 106.02216,94.0492114 L106.02216,94.0492114 Z" id="Fill-25" fill="#A9BAB8" mask="url(#mask-2)"></path>
            <path d="M105.744954,52.8944944 C108.989947,52.8944944 111.620115,55.5261169 111.620115,58.7719778 C111.620115,62.0178386 108.989947,64.6494611 105.744954,64.6494611 C102.500376,64.6494611 99.8697934,62.0178386 99.8697934,58.7719778 C99.8697934,55.5261169 102.500376,52.8944944 105.744954,52.8944944" id="Fill-26" fill="#A9BAB8" mask="url(#mask-2)"></path>
        </g>
    </g>
</svg>