<?xml version="1.0" encoding="UTF-8"?>
<svg width="160px" height="39px" viewBox="0 0 160 39" version="1.1" xmlns="http://www.w3.org/2000/svg" xmlns:xlink="http://www.w3.org/1999/xlink">
    <!-- Generator: sketchtool 63.1 (101010) - https://sketch.com -->
    <title>BBB3D497-1A1F-4FE8-A028-A8CA2BB6B72E</title>
    <desc>Created with sketchtool.</desc>
    <defs>
        <polygon id="path-1" points="0 0.228279468 50.6389882 0.228279468 50.6389882 38.3999977 0 38.3999977"></polygon>
        <polygon id="path-3" points="0.114157973 0.01455113 12.8371293 0.01455113 12.8371293 17.4974294 0.114157973 17.4974294"></polygon>
    </defs>
    <g id="Desktop" stroke="none" stroke-width="1" fill="none" fill-rule="evenodd">
        <g id="Web_desktop" transform="translate(-1268.000000, -10213.000000)">
            <g id="Sponzori-sekcija" transform="translate(220.000000, 5234.000000)">
                <g id="Srebrni-sekcija" transform="translate(0.000000, 4848.000000)">
                    <g id="HRC-logo" transform="translate(1048.000000, 131.000000)">
                        <g id="Group-3">
                            <mask id="mask-2" fill="white">
                                <use xlink:href="#path-1"></use>
                            </mask>
                            <g id="Clip-2"></g>
                            <path d="M14.6507443,21.4455759 L14.6591972,21.4455759 C14.6591972,23.4111072 14.6482903,25.3766385 14.6643779,27.3418955 C14.6711947,28.1828555 15.0485727,28.7577583 15.9565702,28.7840897 C16.8730205,28.8109697 17.2473991,28.2250955 17.329746,27.4071755 C17.3799176,26.9085241 17.3575586,26.4027413 17.3679201,25.9002499 C17.4546298,21.7204101 16.6295245,22.2999758 21.2330446,22.2382615 C22.2547463,22.224273 22.5934049,22.6913815 22.5631383,23.6585129 C22.5244189,24.8914271 22.5503227,26.1265356 22.5732271,27.3602727 C22.5890421,28.2080897 22.9781449,28.7659869 23.8831431,28.7835411 C24.8036835,28.8010954 25.227961,28.1976669 25.2353231,27.3893469 C25.2713158,23.4591072 25.2879488,19.5280446 25.2375045,15.5983534 C25.2233256,14.5119077 24.2201656,13.9636106 23.3064419,14.4021934 C22.4797007,14.7993591 22.5688644,15.5794276 22.5568668,16.3062847 C22.4911529,20.2716331 22.4938796,20.2469474 18.6216656,20.0393131 C17.6697679,19.988296 17.3343814,19.5853703 17.36383,18.6843417 C17.3938239,17.7712447 17.3649207,16.8565019 17.363012,15.9423076 C17.3611033,15.011382 17.0813419,14.285622 15.9985617,14.2908334 C14.911146,14.2960449 14.651835,15.0385362 14.651017,15.9604105 C14.6499263,17.7887989 14.6507443,19.6171874 14.6507443,21.4455759 M27.1702031,21.3750844 C27.1702031,23.2454386 27.1674764,25.1155185 27.1712938,26.9858727 C27.1729298,27.8556326 27.2689104,28.7322497 28.3865926,28.7572097 C29.499094,28.7821697 29.6599705,27.9384669 29.6665146,27.0500555 C29.6722407,26.3201813 29.6340666,25.5878385 29.6826022,24.8609814 C29.7273204,24.1892557 29.3853898,23.2610729 30.4452656,23.0849815 C31.3936186,22.9269929 32.3605132,22.8905129 32.9077658,23.9934157 C33.5556343,25.2987413 34.2583098,26.5763641 34.9176305,27.8762041 C35.3004619,28.6313126 35.873891,29.039724 36.6785458,28.6793126 C37.4924715,28.3147869 37.3714052,27.5555641 37.0960066,26.9046841 C36.6706383,25.8988785 36.2133675,24.8971871 35.6633883,23.9566614 C35.1161357,23.0210729 35.1714881,22.3907644 36.0429476,21.6279759 C37.4684764,20.3799759 37.6372603,18.6835189 37.0122963,16.9796561 C36.3884229,15.2779877 35.0212459,14.3925934 33.2532411,14.283702 C31.7170075,14.1893477 30.1704123,14.274102 28.6289979,14.2532563 C27.5898452,14.2392677 27.1562969,14.7458734 27.1669311,15.7642962 C27.1868361,17.6341018 27.1726572,19.5047303 27.1702031,21.3750844 M24.9244772,38.3909463 C21.0162704,38.3912206 17.1080637,38.4008206 13.199857,38.3890263 C5.75318675,38.3665349 0.162866941,33.0426495 0.00335386468,25.5620556 C-0.0719035867,22.0311758 1.07877194,18.7948789 3.77222522,16.3260333 C4.61396345,15.5544676 5.06905289,14.7335306 5.26046858,13.5593135 C6.3966925,6.58175961 12.886557,2.25654844 19.7532541,3.85124548 C20.6541621,4.06025119 21.2529497,3.87291405 21.961624,3.2966398 C29.9127374,-3.17238838 41.4677555,1.11195422 43.3860025,11.2402279 C43.5861437,12.297325 43.9730652,13.0258278 44.8936056,13.6484563 C51.2067787,17.9177132 52.5254201,27.1375527 47.8095592,33.1647066 C45.0479379,36.6947635 41.4478505,38.3498034 37.0578325,38.3840891 C33.0135625,38.415632 28.9687471,38.390672 24.9244772,38.3909463" id="Fill-1" fill="#A9BAB8" mask="url(#mask-2)"></path>
                        </g>
                        <path d="M78.9721842,18.1798775 C78.9727456,20.645284 78.9727456,20.645284 81.0460927,20.644477 C83.4563826,20.6433309 84.416068,19.9608519 84.414702,18.2496321 C84.4136066,16.4862359 83.1790611,15.6190467 80.6785187,15.6257047 C78.9779419,15.6302075 78.9716516,15.6399731 78.9721842,18.1798775 M75.6911083,21.1517024 C75.6908348,18.8760284 75.7206455,16.5995173 75.6774337,14.3246804 C75.6577422,13.2772454 75.9965995,12.7588292 77.0872878,12.8207713 C79.3537207,12.9491197 81.6439474,12.5529136 83.8904153,13.0961624 C86.0769883,13.6249023 87.4644161,15.1246261 87.6933293,17.1321635 C87.9826845,19.6720679 87.1419683,21.4508101 84.9409002,22.4940599 C83.9431993,22.966996 84.0430241,23.3922201 84.5418746,24.1570095 C85.4495964,25.5479162 86.2670656,26.9996488 87.1608393,28.4003212 C87.6974317,29.2407246 87.4769967,29.4784482 86.5468485,29.5685712 C84.92914,29.7253795 83.7616003,29.3263832 83.0461438,27.6665028 C82.5010731,26.4017124 81.6614509,25.2700138 80.960763,24.07442 C80.6446056,23.5353565 80.3084832,23.0127551 79.580993,23.2052777 C78.8488534,23.3991955 78.992437,24.0562838 78.9814973,24.5875349 C78.9571565,25.7482514 78.9128507,26.9134322 78.9855997,28.0696844 C79.0701089,29.4114838 78.3428922,29.5719194 77.28557,29.5699663 C76.2624343,29.5680131 75.6418797,29.3640507 75.6741518,28.1182336 C75.7343201,25.7976376 75.6913818,23.4742515 75.6911083,21.1517024" id="Fill-4" fill="#A9BAB8"></path>
                        <g id="Group-8" transform="translate(146.515715, 12.799999)">
                            <mask id="mask-4" fill="white">
                                <use xlink:href="#path-3"></use>
                            </mask>
                            <g id="Clip-7"></g>
                            <path d="M9.66855196,10.9374093 C9.68379827,8.60925949 8.52954753,7.20868457 6.56645383,7.17293457 C4.59599983,7.13718457 3.36420321,8.53143449 3.3458025,10.8180594 C3.32766465,13.0774592 4.57391897,14.5517341 6.50231418,14.5517341 C8.28613233,14.5520091 9.65514572,12.9891842 9.66855196,10.9374093 M9.67722658,6.39138462 C9.67722658,4.51753473 9.70719347,2.96460982 9.66802622,1.41360992 C9.63332773,0.0457599973 10.4737148,0.0424599975 11.4163573,0.016059999 C12.4036872,-0.0119899993 12.8445158,0.346884979 12.8372461,1.44193491 C12.8042971,6.11335964 12.8261151,10.7850594 12.8232236,15.4567591 C12.8226978,16.366459 12.9938245,17.366909 11.5951071,17.341609 C10.4689832,17.320984 9.33024162,17.446934 9.67249497,15.7424841 C9.38623238,15.5134091 9.26242183,15.6632841 9.15070319,15.7897841 C7.64368441,17.499184 5.81517881,17.8674089 3.76218445,17.151859 C1.78778744,16.463259 0.659560582,14.9422341 0.322827448,12.8544342 C0.0465538157,11.1387093 -0.0446611705,9.38338444 0.619079003,7.71083454 C2.07457577,4.04425976 6.31436399,3.11255981 9.057911,5.84523465 C9.17698993,5.96375964 9.30921223,6.06798464 9.67722658,6.39138462" id="Fill-6" fill="#A9BAB8" mask="url(#mask-4)"></path>
                        </g>
                        <path d="M72.4322529,21.2692194 C72.4327763,23.5502956 72.3833075,25.8333298 72.4510981,28.1124479 C72.4919295,29.4704645 71.8051246,29.5968957 70.8071113,29.5999982 C69.8208763,29.6027697 69.2225394,29.3789976 69.2746256,28.1365034 C69.3366579,26.6495383 69.2636325,25.1569788 69.2924239,23.6677759 C69.3102222,22.7416394 68.9893294,22.2868228 68.0753345,22.3103188 C66.6820943,22.3461223 65.2872836,22.3382903 63.8937817,22.315074 C63.0554295,22.3008085 62.720141,22.7178636 62.7306106,23.5883368 C62.7489324,25.1242521 62.6869001,26.6626849 62.7416037,28.1966422 C62.7874081,29.4903242 62.0856841,29.5932594 61.1512735,29.5957768 C60.2040377,29.5982942 59.5617286,29.4564787 59.5724599,28.1790201 C59.6122443,23.5237227 59.612506,18.8675861 59.5724599,14.2122886 C59.5614668,12.9281169 60.2160777,12.801406 61.1565083,12.7999992 C62.093798,12.7988885 62.7955221,12.9110543 62.7416037,14.203058 C62.6855914,15.5504454 62.7494559,16.9028676 62.7313958,18.2527724 C62.7198793,19.1212876 63.0596174,19.5439371 63.8950904,19.532189 C65.2888541,19.512609 66.6836647,19.5047769 68.0769049,19.5369442 C68.9903763,19.5579228 69.3104839,19.0916378 69.2916387,18.1699768 C69.264156,16.8206314 69.3259266,15.4684889 69.2806456,14.1199827 C69.2345794,12.7563719 70.0739785,12.8271398 70.9390281,12.8064408 C71.8326073,12.7849028 72.467326,12.9390258 72.4448164,14.1462759 C72.4003206,16.519658 72.4317294,18.8947184 72.4322529,21.2692194" id="Fill-9" fill="#A9BAB8"></path>
                        <path d="M101.74061,13.5999992 C105.355549,13.6072612 107.94562,15.1389137 109.150979,17.9828544 C109.670246,19.2080093 109.521071,19.4012058 108.170237,19.4791525 C106.974557,19.5484693 106.067833,19.3519323 105.271852,18.2520489 C104.192608,16.76104 102.450901,16.418353 100.665637,16.7596481 C98.9421492,17.0889729 97.8338677,18.2050025 97.266489,19.8081989 C96.7534853,21.2566154 96.7509232,22.7314781 97.2838548,24.1734919 C97.8663218,25.749407 98.8832193,26.9405994 100.675601,27.1964316 C102.621997,27.4739775 104.356018,27.0948225 105.575611,25.3939144 C106.156655,24.5838256 108.340764,24.1108562 109.150125,24.5735255 C109.68078,24.8769608 109.459009,25.2870161 109.299016,25.663944 C108.744733,26.9689943 107.978928,28.1109133 106.767875,28.9482835 C104.221931,30.7082084 99.8807581,30.9036319 97.3074838,29.3388521 C94.4893797,27.6254168 92.8988406,23.9118137 93.5157546,20.4866134 C94.3154368,16.0481062 97.2496926,13.5911151 101.74061,13.5999992" id="Fill-11" fill="#A9BAB8"></path>
                        <path d="M126.981535,23.9413811 C126.968675,21.7466741 125.808389,20.4308028 123.892616,20.4373957 C121.949786,20.444303 120.77664,21.83694 120.801555,24.1068245 C120.824862,26.2475308 122.0757,27.6089321 123.975666,27.5607549 C125.853128,27.5133719 126.994662,26.1389999 126.981535,23.9413811 M124.040231,17.6002634 C127.65906,17.6283226 130.464002,20.4686563 130.41444,24.0546767 C130.364878,27.6563151 127.5736,30.4820897 123.919407,30.3981768 C119.978022,30.3076461 117.383116,27.7381103 117.541447,23.8087616 C117.69174,20.0803273 120.206543,17.5703512 124.040231,17.6002634" id="Fill-13" fill="#A9BAB8"></path>
                        <path d="M140.77193,28.3848609 C139.308544,30.0898847 137.659464,30.7210365 135.638734,30.2474039 C133.819607,29.8208119 132.765948,28.5966785 132.380476,26.8056374 C131.791574,24.0681374 132.104542,21.2771454 132.138186,18.5111521 C132.153313,17.2485797 133.258612,17.7079657 133.960703,17.6361951 C134.718868,17.5585107 135.217531,17.8356476 135.213358,18.7455492 C135.203708,20.714001 135.153894,22.6864848 135.251436,24.6506356 C135.371928,27.0816991 137.094035,28.2719632 139.177619,27.4722713 C140.542942,26.9481035 140.869211,25.744668 140.912766,24.4466134 C140.972491,22.6585291 140.987878,20.8650688 140.917982,19.0783286 C140.868429,17.8149497 141.478456,17.6085083 142.515162,17.6001753 C143.583948,17.5918424 144.10843,17.8756994 144.084175,19.1057466 C144.02445,22.1472639 144.089652,25.1914693 144.049227,28.2335243 C144.038534,29.0275713 144.465474,30.132087 143.030516,30.2506295 C141.338142,30.3906764 141.103155,30.2455223 140.77193,28.3848609" id="Fill-15" fill="#A9BAB8"></path>
                        <path d="M111.920843,21.0864046 C111.921108,18.7780332 111.96253,16.4688624 111.90438,14.16209 C111.873314,12.9476767 112.521193,12.7888463 113.49142,12.800572 C114.419959,12.8114982 115.12944,12.8642641 115.118553,14.117852 C115.077397,18.8228042 115.076866,23.5285559 115.11935,28.2332416 C115.130236,29.4439241 114.505988,29.5856989 113.534435,29.5992901 C112.482427,29.6142137 111.864021,29.401818 111.900928,28.1434332 C111.969434,25.7929558 111.920577,23.4390139 111.920843,21.0864046" id="Fill-17" fill="#A9BAB8"></path>
                        <path d="M32.1776689,19.9976741 C31.4283659,19.8435877 30.4368005,20.3071353 30.0620065,19.5498443 C29.6179539,18.6521235 29.796658,17.6229912 29.9984482,16.6513192 C30.0218194,16.5384599 30.1349702,16.423797 30.2387154,16.3441771 C31.3186353,15.5149963 34.7430843,16.2967658 35.2846118,17.491322 C35.7258142,18.4640247 35.0625855,19.5913292 33.8270477,19.8616245 C33.2838101,19.9804102 32.7026656,19.9585083 32.1776689,19.9976741" id="Fill-19" fill="#A9BAB8"></path>
                    </g>
                </g>
            </g>
        </g>
    </g>
</svg>