<?xml version="1.0" encoding="UTF-8"?>
<svg width="442px" height="67px" viewBox="0 0 442 67" version="1.1" xmlns="http://www.w3.org/2000/svg" xmlns:xlink="http://www.w3.org/1999/xlink">
    <!-- Generator: sketchtool 57.1 (101010) - https://sketch.com -->
    <title>F042C986-050F-4F91-B6CA-4A94E526EBC8</title>
    <desc>Created with sketchtool.</desc>
    <g id="Asset-Artboard-Page" stroke="none" stroke-width="1" fill="none" fill-rule="evenodd">
        <g id="Lilcodelab-logo" fill="#A9BAB8">
            <path d="M0.0138747646,62.7037277 L0.0138747646,2.26372768 C-0.115125235,1.16672768 0.669874765,0.172727679 1.76587476,0.0437276789 C1.92187476,0.0257276789 2.07887476,0.0257276789 2.23387476,0.0437276789 L8.43387476,0.0437276789 C9.53087476,-0.0852723211 10.5248748,0.699727679 10.6538748,1.79572768 C10.6718748,1.95172768 10.6718748,2.10872768 10.6538748,2.26372768 L10.6538748,62.7037277 C10.7828748,63.8007277 9.99787476,64.7947277 8.90187476,64.9237277 C8.74587476,64.9417277 8.58887476,64.9417277 8.43387476,64.9237277 L2.23387476,64.9237277 C1.13687476,65.0527277 0.142874765,64.2677277 0.0138747646,63.1717277 C-0.00412523541,63.0157277 -0.00412523541,62.8587277 0.0138747646,62.7037277" id="Fill-1"></path>
            <path d="M25.4240748,15.6935277 L33.2940748,15.6935277 C34.5200748,15.6935277 35.5140748,16.6875277 35.5140748,17.9135277 L35.5140748,25.7835277 C35.5140748,27.0095277 34.5200748,28.0035277 33.2940748,28.0035277 L25.4240748,28.0035277 C24.1980748,28.0035277 23.2040748,27.0095277 23.2040748,25.7835277 L23.2040748,17.9135277 C23.2040748,16.6875277 24.1980748,15.6935277 25.4240748,15.6935277" id="Fill-4"></path>
            <path d="M35.5138748,42.8033277 L35.5138748,52.8933277 C35.5138748,60.1833277 31.7238748,65.0033277 24.9738748,66.0933277 C24.2008748,66.2823277 23.4218748,65.8083277 23.2338748,65.0353277 C23.1918748,64.8653277 23.1818748,64.6883277 23.2038748,64.5133277 L23.2038748,62.6943277 C23.1758748,61.8033277 23.8058748,61.0273277 24.6838748,60.8733277 C27.5338748,60.0833277 29.0638748,58.0133277 29.0638748,52.8733277 L25.4138748,52.8733277 C24.3158748,52.9963277 23.3268748,52.2053277 23.2038748,51.1083277 C23.1868748,50.9603277 23.1868748,50.8113277 23.2038748,50.6633277 L23.2038748,42.7833277 C23.0808748,41.6863277 23.8708748,40.6973277 24.9688748,40.5743277 C25.1168748,40.5573277 25.2658748,40.5573277 25.4138748,40.5743277 L33.2938748,40.5743277 C34.3908748,40.4443277 35.3858748,41.2283277 35.5148748,42.3243277 C35.5338748,42.4843277 35.5338748,42.6443277 35.5138748,42.8033277" id="Fill-6"></path>
            <path d="M48.0641748,62.7037277 L48.0641748,2.26372768 C47.9361748,1.16672768 48.7211748,0.172727679 49.8181748,0.0447276789 C49.9691748,0.0267276789 50.1221748,0.0267276789 50.2741748,0.0437276789 L56.4741748,0.0437276789 C57.5711748,-0.0852723211 58.5641748,0.699727679 58.6941748,1.79572768 C58.7121748,1.95172768 58.7121748,2.10872768 58.6941748,2.26372768 L58.6941748,62.7037277 C58.8231748,63.8007277 58.0381748,64.7947277 56.9411748,64.9237277 C56.7861748,64.9417277 56.6291748,64.9417277 56.4741748,64.9237277 L50.2741748,64.9237277 C49.1761748,65.0477277 48.1861748,64.2577277 48.0631748,63.1597277 C48.0461748,63.0087277 48.0461748,62.8547277 48.0641748,62.7037277" id="Fill-8"></path>
            <path d="M117.843975,50.2037277 C114.593975,59.7037277 105.293975,66.2037277 94.3139748,66.2037277 C79.4039748,66.2037277 68.3139748,54.9237277 68.3139748,40.3037277 C68.3139748,25.6837277 79.3939748,14.4137277 94.3139748,14.4137277 C105.313975,14.4137277 114.543975,20.9137277 117.843975,30.4137277 C118.433975,31.9337277 117.553975,32.9237277 116.023975,32.9237277 L109.183975,32.9237277 C108.069975,32.9437277 107.038975,32.3317277 106.523975,31.3437277 C104.153975,27.3437277 99.6339748,24.8537277 94.3139748,24.8537277 C85.7789748,25.0707277 79.0349748,32.1657277 79.2519748,40.7017277 C79.4609748,48.9327277 86.0839748,55.5547277 94.3139748,55.7637277 C99.6839748,55.7637277 104.213975,53.2537277 106.523975,49.3137277 C107.012975,48.2957277 108.054975,47.6607277 109.183975,47.6937277 L116.023975,47.6937277 C117.523975,47.6937277 118.403975,48.6737277 117.843975,50.2037277" id="Fill-10"></path>
            <path d="M165.564175,40.3336277 C165.453175,31.8516277 158.487175,25.0646277 150.005175,25.1746277 C141.522175,25.2856277 134.736175,32.2506277 134.846175,40.7336277 C134.956175,49.1376277 141.799175,55.8936277 150.204175,55.8936277 C158.553175,56.0296277 165.432175,49.3716277 165.568175,41.0216277 C165.572175,40.7926277 165.570256,40.5626277 165.564175,40.3336277 M124.214175,40.3336277 C124.159175,25.9746277 135.754175,14.2896277 150.114175,14.2334328 C164.473175,14.1786277 176.158175,25.7746277 176.213377,40.1336277 C176.269175,54.4926277 164.673175,66.1786277 150.314175,66.2326277 C150.280175,66.2336277 150.247175,66.2336277 150.214175,66.2336277 C136.021175,66.3996277 124.381175,55.0286277 124.215175,40.8366277 C124.213085,40.6686277 124.212175,40.5016277 124.214175,40.3336277" id="Fill-12"></path>
            <path d="M224.843975,40.3336277 C224.843975,31.1836277 218.143975,24.5836277 209.283975,24.5836277 C200.423975,24.5836277 193.733975,31.1836277 193.733975,40.3336277 C193.733975,49.4836277 200.423975,56.0936277 209.283975,56.0936277 C218.143975,56.0936277 224.843975,49.4636277 224.843975,40.3336277 M235.463975,2.22362768 L235.463975,62.7036277 C235.591975,63.8006277 234.806975,64.7946277 233.709975,64.9226277 C233.558975,64.9396277 233.405975,64.9406277 233.253975,64.9236277 L227.053975,64.9236277 C225.956975,65.0526277 224.962975,64.2686277 224.833975,63.1716277 C224.815975,63.0156277 224.815975,62.8586277 224.833975,62.7036277 L224.833975,57.8536277 C221.103975,63.0236277 215.313975,66.2036277 207.553975,66.2036277 C194.163975,66.2036277 183.093975,54.9236277 183.093975,40.3036277 C183.093975,25.6836277 194.163975,14.4136277 207.553975,14.4136277 C215.313975,14.4136277 221.103975,17.5936277 224.833975,22.7536277 L224.833975,2.22362768 C224.709975,1.12562768 225.499975,0.135627679 226.597975,0.0126276789 C226.748975,-0.00437232106 226.902975,-0.00437232106 227.053975,0.0136276789 L233.253975,0.0136276789 C234.351975,-0.109372321 235.340975,0.681627679 235.463975,1.77862768 C235.480975,1.92662768 235.480975,2.07562768 235.463975,2.22362768" id="Fill-14"></path>
            <path d="M284.584175,36.1236277 C283.184175,27.7336277 277.193175,24.1236277 270.863175,24.1236277 C262.924175,24.1236277 257.534175,28.7636277 256.094175,36.1236277 L284.584175,36.1236277 Z M295.273175,40.4036277 C295.273175,41.2436277 295.224175,42.0336277 295.174175,42.8136277 C295.160175,43.9786277 294.204175,44.9116277 293.039175,44.8976277 C292.964175,44.8966277 292.889175,44.8926277 292.813175,44.8836277 L256.124175,44.8836277 C257.744175,52.9536277 263.744175,57.0936277 271.254175,57.0936277 C275.355175,57.2276277 279.291175,55.4736277 281.934175,52.3336277 C282.589175,51.5036277 283.587175,51.0186277 284.644175,51.0136277 L290.943175,50.9636277 C292.574175,50.9636277 293.454175,51.9636277 292.813175,53.3236277 C289.224175,61.3236277 281.153175,66.1736277 271.104175,66.1736277 C255.403175,66.1736277 245.104175,55.0436277 245.104175,40.2736277 C245.104175,25.7036277 255.483175,14.3836277 270.894175,14.3836277 C285.624175,14.4136277 295.273175,26.2236277 295.273175,40.4036277 L295.273175,40.4036277 Z" id="Fill-17"></path>
            <path d="M304.334175,62.7037277 L304.334175,2.26372768 C304.205175,1.16672768 304.990175,0.172727679 306.088175,0.0447276789 C306.239175,0.0267276789 306.393175,0.0267276789 306.544175,0.0437276789 L312.754175,0.0437276789 C313.852175,-0.0802723211 314.841175,0.709727679 314.965175,1.80772768 C314.981175,1.95872768 314.981175,2.11172768 314.964175,2.26372768 L314.964175,62.7037277 C315.092175,63.8007277 314.307175,64.7947277 313.210175,64.9227277 C313.059175,64.9397277 312.905175,64.9407277 312.754175,64.9237277 L306.544175,64.9237277 C305.446175,65.0477277 304.456175,64.2577277 304.333175,63.1597277 C304.315175,63.0087277 304.316175,62.8547277 304.334175,62.7037277" id="Fill-19"></path>
            <path d="M366.313675,40.3336277 C366.313675,31.1836277 359.613675,24.5836277 350.753675,24.5836277 C341.893675,24.5836277 335.193675,31.1836277 335.193675,40.3336277 C335.193675,49.4836277 341.893675,56.0936277 350.753675,56.0936277 C359.613675,56.0936277 366.313675,49.4636277 366.313675,40.3336277 M376.943675,17.9036277 L376.943675,62.7036277 C377.073675,63.8006277 376.288675,64.7946277 375.191675,64.9236277 C375.036675,64.9416277 374.878675,64.9416277 374.723675,64.9236277 L368.523675,64.9236277 C367.425675,65.0476277 366.436675,64.2576277 366.312675,63.1596277 C366.295675,63.0086277 366.295675,62.8546277 366.313675,62.7036277 L366.313675,57.8536277 C362.584675,63.0236277 356.793675,66.2036277 349.034675,66.2036277 C335.643675,66.2036277 324.563675,54.9236277 324.563675,40.3036277 C324.563675,25.6836277 335.643675,14.4136277 349.034675,14.4136277 C356.793675,14.4136277 362.584675,17.5936277 366.313675,22.7536277 L366.313675,17.9036277 C366.191675,16.8056277 366.981675,15.8166277 368.079675,15.6936277 C368.226675,15.6766277 368.376675,15.6766277 368.523675,15.6936277 L374.723675,15.6936277 C375.821675,15.5646277 376.814675,16.3506277 376.942675,17.4476277 C376.960675,17.5996277 376.960675,17.7516277 376.943675,17.9036277" id="Fill-21"></path>
            <path d="M431.044175,40.3336277 C431.044175,31.1836277 424.344175,24.5836277 415.483175,24.5836277 C406.624175,24.5836277 399.924175,31.1836277 399.924175,40.3336277 C399.924175,49.4836277 406.624175,56.0936277 415.483175,56.0936277 C424.344175,56.0936277 431.044175,49.4636277 431.044175,40.3336277 M441.674175,40.3336277 C441.674175,54.9536277 430.594175,66.2336277 417.204175,66.2336277 C409.443175,66.2336277 403.653175,63.0536277 399.924175,57.8836277 L399.924175,62.7336277 C400.052175,63.8306277 399.267175,64.8236277 398.170175,64.9526277 C398.019175,64.9706277 397.865175,64.9706277 397.714175,64.9536277 L391.514175,64.9536277 C390.417175,65.0826277 389.423175,64.2986277 389.294175,63.2006277 C389.275175,63.0456277 389.275175,62.8896277 389.294175,62.7336277 L389.294175,2.22362768 C389.170175,1.12562768 389.960175,0.135627679 391.058175,0.0126276789 C391.209175,-0.00437232106 391.362175,-0.00437232106 391.514175,0.0136276789 L397.714175,0.0136276789 C398.812175,-0.109372321 399.801175,0.681627679 399.924175,1.77862768 C399.940175,1.92662768 399.940175,2.07562768 399.924175,2.22362768 L399.924175,22.7536277 C403.653175,17.5936277 409.443175,14.4136277 417.204175,14.4136277 C430.594175,14.4136277 441.674175,25.6836277 441.674175,40.3336277" id="Fill-23"></path>
        </g>
    </g>
</svg>