<?xml version="1.0" encoding="UTF-8"?>
<svg width="552px" height="107px" viewBox="0 0 552 107" version="1.1" xmlns="http://www.w3.org/2000/svg" xmlns:xlink="http://www.w3.org/1999/xlink">
    <!-- Generator: sketchtool 57.1 (101010) - https://sketch.com -->
    <title>13E4DC0E-B22B-4425-AE27-600126CBECA1</title>
    <desc>Created with sketchtool.</desc>
    <g id="Asset-Artboard-Page" stroke="none" stroke-width="1" fill="none" fill-rule="evenodd">
        <g id="Netmedia-logo" fill="#A9BAB8">
            <path d="M2.12010589e-14,36.2723426 C3.42239994,35.2800521 7.83839986,34.3565046 13.2420322,33.4987113 C18.6456645,32.640918 24.3208212,32.2135158 30.2675022,32.2135158 C36.3007129,32.2135158 41.3254047,33.0055549 45.3326262,34.5806666 C49.3398478,36.1587672 52.5145937,38.3944097 54.8568639,41.2786276 C57.1991341,44.1688231 58.8640854,47.5940187 59.8576854,51.5661696 C60.8453178,55.5383204 61.3436097,59.9587953 61.3436097,64.8305831 L61.3436097,105.027614 L41.2120209,105.027614 L41.2120209,67.2634881 C41.2120209,60.7687674 40.355675,56.1659741 38.6459669,53.458097 C36.933275,50.7502198 33.7346589,49.3992701 29.0531022,49.3992701 C27.6119346,49.3992701 26.0812536,49.4680131 24.4580752,49.6025103 C22.8378807,49.7370075 21.3937293,49.8954154 20.1345726,50.074745 L20.1345726,105.024326 L2.12010589e-14,105.024326 L2.12010589e-14,36.2723426 Z" id="Fill-1"></path>
            <path d="M118.629306,62.2571729 C118.536809,60.544874 118.244398,58.8741197 117.74909,57.2508878 C117.253781,55.6279548 116.486949,54.1843514 115.451576,52.9200776 C114.416203,51.6587926 113.106322,50.6186809 111.530884,49.8057199 C109.955446,48.992759 107.9951,48.5892674 105.65283,48.5892674 C103.400073,48.5892674 101.463597,48.9748261 99.8434029,49.7399657 C98.2232082,50.5080943 96.8715542,51.5213066 95.7914244,52.7855804 C94.7112947,54.0498542 93.8758352,55.5143794 93.2910136,57.1851336 C92.7032082,58.8558879 92.2765271,60.5475639 92.0079865,62.2601617 L118.629306,62.2601617 L118.629306,62.2571729 Z M71.3393173,69.9716319 C71.3393173,63.6562411 72.3060632,58.1296016 74.2425389,53.3923112 C76.1790146,48.6550208 78.7211984,44.7097696 81.8780417,41.5505797 C85.0289174,38.3943787 88.6542148,36.0033173 92.7539337,34.3773956 C96.8536527,32.7544627 101.063772,31.9415018 105.387274,31.9415018 C115.475447,31.9415018 123.445134,35.0319486 129.302302,41.2128423 C135.156486,47.393736 138.083577,56.4857469 138.083577,68.4828973 C138.083577,69.6575062 138.038821,70.9430006 137.949307,72.3414726 C137.859794,73.7402435 137.767296,74.9806066 137.680767,76.0625619 L92.0109715,76.0625619 C92.4585391,80.2110534 94.3950148,83.5080282 97.8203986,85.9406342 C101.242799,88.3768269 105.837826,89.5959693 111.599512,89.5959693 C115.293437,89.5959693 118.918734,89.2582319 122.478388,88.5797682 C126.035058,87.9045923 128.941264,87.0707096 131.191037,86.0751314 L133.894345,102.450913 C132.814215,102.991891 131.373048,103.533167 129.570842,104.073846 C127.768637,104.614824 125.763534,105.090346 123.558518,105.496528 C121.350518,105.903008 118.984377,106.240745 116.466064,106.512729 C113.941783,106.781723 111.420485,106.919508 108.899188,106.919508 C102.501955,106.919508 96.9431662,105.971751 92.2138688,104.076835 C87.4845715,102.181919 83.5668633,99.5906059 80.4607444,96.2972177 C77.3516417,93.0032318 75.0571119,89.1028129 73.5711876,84.5896846 C72.0822794,80.0765562 71.3393173,75.2047686 71.3393173,69.9716319 L71.3393173,69.9716319 Z" id="Fill-3"></path>
            <path d="M148.082205,16.1067879 L168.213793,12.8579331 L168.213793,36.2275701 L192.39736,36.2275701 L192.39736,53.0098327 L168.213793,53.0098327 L168.213793,75.6561736 C168.213793,79.8973189 168.956756,83.2806709 170.44268,85.8062295 C171.928604,88.334777 174.921339,89.5957631 179.426852,89.5957631 C181.587112,89.5957631 183.818982,89.3928217 186.113512,88.9863413 C188.411025,88.5798608 190.505641,88.0179614 192.39736,87.2946653 L195.234938,102.991984 C192.803154,103.987263 190.099846,104.842068 187.127998,105.562375 C184.156149,106.282383 180.506982,106.644031 176.18348,106.644031 C170.68735,106.644031 166.140064,105.900112 162.535653,104.411677 C158.931242,102.923241 156.051891,100.848995 153.888648,98.1859503 C151.728389,95.5258944 150.218594,92.2976625 149.362248,88.508129 C148.505902,84.7182966 148.079221,80.5219837 148.079221,75.9218803 L148.079221,16.1067879 L148.082205,16.1067879 Z" id="Fill-6"></path>
            <path d="M244.401762,67.2634568 C244.401762,60.7690352 243.566302,56.1659431 241.901351,53.4580661 C240.233416,50.750189 237.374951,49.3992393 233.322972,49.3992393 C232.060832,49.3992393 230.756918,49.4679823 229.405264,49.6024795 C228.05361,49.7369768 226.746712,49.8953846 225.484572,50.0747142 L225.484572,105.024294 L205.352982,105.024294 L205.352982,36.2723122 C207.06269,35.8209994 209.067793,35.3487648 211.365306,34.8496307 C213.66282,34.3564743 216.094604,33.9021726 218.660658,33.4956922 C221.226712,33.0892117 223.861393,32.7753849 226.564702,32.5482341 C229.26801,32.3240721 231.923578,32.2104967 234.537372,32.2104967 C239.672464,32.2104967 243.837827,32.8650497 247.036443,34.1741558 C250.232076,35.483262 252.866757,37.0404407 254.940486,38.8427032 C257.822822,36.7684575 261.131838,35.1455245 264.870519,33.9709156 C268.606217,32.7992955 272.052487,32.2104967 275.206347,32.2104967 C280.881504,32.2104967 285.542174,33.0025357 289.191342,34.5776474 C292.840211,36.155748 295.743731,38.3913904 297.903991,41.2756082 C300.06425,44.1658037 301.553158,47.5909991 302.361764,51.5631499 C303.173353,55.5353007 303.579148,59.9557754 303.579148,64.8278619 L303.579148,105.024294 L283.447558,105.024294 L283.447558,67.2634568 C283.447558,60.7690352 282.612098,56.1659431 280.947147,53.4580661 C279.279212,50.750189 276.420747,49.3992393 272.368768,49.3992393 C271.288638,49.3992393 269.778844,49.6712226 267.842368,50.2122002 C265.902909,50.7531778 264.306584,51.4316415 263.044444,52.2416136 C263.674022,54.3188482 264.079817,56.5036805 264.258844,58.8050771 C264.440854,61.1064737 264.530368,63.5662782 264.530368,66.1815016 L264.530368,105.024294 L244.401762,105.024294 L244.401762,67.2634568 Z" id="Fill-8"></path>
            <path d="M359.393847,62.2571729 C359.304036,60.544874 359.011923,58.8741197 358.516615,57.2508878 C358.021009,55.6279548 357.254475,54.1843514 356.218803,52.9200776 C355.183729,51.6587926 353.876831,50.6186809 352.301095,49.8057199 C350.725956,48.992759 348.76561,48.5892674 346.423339,48.5892674 C344.170284,48.5892674 342.234107,48.9748261 340.613913,49.7399657 C338.993718,50.5080943 337.642064,51.5213066 336.55895,52.7855804 C335.478821,54.0498542 334.646345,55.5143794 334.061523,57.1851336 C333.473718,58.8558879 333.047037,60.5475639 332.775513,62.2601617 L359.393847,62.2601617 L359.393847,62.2571729 Z M312.106843,69.9716319 C312.106843,63.6562411 313.073589,58.1296016 315.013049,53.3923112 C316.949524,48.6550208 319.491708,44.7097696 322.645568,41.5505797 C325.796145,38.3943787 329.42174,36.0033173 333.524443,34.3773956 C337.62088,32.7544627 341.833982,31.9415018 346.157783,31.9415018 C356.242674,31.9415018 364.215643,35.0319486 370.07281,41.2128423 C375.923712,47.393736 378.854086,56.4857469 378.854086,68.4828973 C378.854086,69.6575062 378.809031,70.9430006 378.719815,72.3414726 C378.630302,73.7402435 378.537805,74.9806066 378.447993,76.0625619 L332.781481,76.0625619 C333.231734,80.2110534 335.168508,83.5080282 338.590609,85.9406342 C342.013308,88.3768269 346.608036,89.5959693 352.373005,89.5959693 C356.066929,89.5959693 359.692226,89.2582319 363.25188,88.5797682 C366.808551,87.9045923 369.714756,87.0707096 371.964529,86.0751314 L374.667539,102.450913 C373.587409,102.991891 372.143258,103.533167 370.344036,104.073846 C368.541831,104.614824 366.536728,105.090346 364.33201,105.496528 C362.123712,105.903008 359.75787,106.240745 357.236572,106.512729 C354.714977,106.781723 352.190696,106.919508 349.669398,106.919508 C343.272465,106.919508 337.713675,105.971751 332.98408,104.076835 C328.255081,102.181919 324.337373,99.5906059 321.231254,96.2972177 C318.122151,93.0032318 315.824339,89.1028129 314.341697,84.5896846 C312.849805,80.0765562 312.106843,75.2047686 312.106843,69.9716319 L312.106843,69.9716319 Z" id="Fill-10"></path>
            <path d="M406.683918,68.8894986 C406.683918,75.1152248 408.080329,80.1215096 410.872852,83.911342 C413.662988,87.7008754 417.807165,89.5957916 423.303295,89.5957916 C425.105501,89.5957916 426.770452,89.5273475 428.304415,89.3928503 C429.835096,89.2553642 431.094253,89.0999453 432.087853,88.9176268 L432.087853,52.2417334 C430.825712,51.4287725 429.181349,50.7532977 427.15536,50.21232 C425.129371,49.6713424 423.079511,49.3993591 421.00608,49.3993591 C411.457972,49.3993591 406.683918,55.8967697 406.683918,68.8894986 L406.683918,68.8894986 Z M452.219144,102.72601 C450.416939,103.266988 448.343209,103.787044 446.003923,104.283189 C443.661951,104.779334 441.205998,105.206736 438.640243,105.568384 C436.074189,105.930032 433.460096,106.222937 430.804826,106.450088 C428.146275,106.67425 425.603793,106.787826 423.169324,106.787826 C417.311858,106.787826 412.090236,105.930032 407.498193,104.217435 C402.903166,102.504837 399.030513,100.045032 395.879339,96.8436998 C392.725778,93.6426662 390.31488,89.760479 388.649929,85.2055068 C386.981994,80.6505346 386.149518,75.5276853 386.149518,69.8426377 C386.149518,64.068523 386.871594,58.8586989 388.312761,54.211372 C389.750945,49.566735 391.824376,45.6184947 394.527983,42.3696398 C397.230993,39.120785 400.540009,36.6400587 404.457717,34.9244721 C408.375724,33.2118743 412.857068,32.3540809 417.899961,32.3540809 C420.689501,32.3540809 423.189912,32.6260642 425.39821,33.1670419 C427.602928,33.7080195 429.835097,34.476148 432.087853,35.4684386 L432.087853,3.24888471 L452.219144,2.98882674e-05 L452.219144,102.72601 Z" id="Fill-13"></path>
            <path d="M484.927526,11.9104744 C484.927526,15.6106419 483.734013,18.5217591 481.346986,20.6408372 C478.959959,22.7629042 476.146251,23.8209488 472.902878,23.8209488 C469.659505,23.8209488 466.842813,22.7599153 464.458472,20.6408372 C462.071445,18.5217591 460.877931,15.6106419 460.877931,11.9104744 C460.877931,8.21030695 462.071445,5.30217857 464.458472,3.18011161 C466.842813,1.06103348 469.659505,-1.69895135e-13 472.902878,-1.69895135e-13 C476.146251,-1.69895135e-13 478.959959,1.06103348 481.346986,3.18011161 C483.734013,5.30217857 484.927526,8.21030695 484.927526,11.9104744" id="Fill-15"></path>
            <polygon id="Fill-17" points="483.035849 105.024237 462.90426 105.024237 462.90426 39.3208563 483.035849 36.1915546"></polygon>
            <path d="M522.561945,90.9499086 C524.540194,90.9499086 526.434897,90.905375 528.2374,90.8124225 C530.036324,90.7227577 531.480774,90.5882605 532.560605,90.4089309 L532.560605,75.1154028 C531.749016,74.9357743 530.534616,74.7537547 528.911437,74.5741262 C527.291243,74.3947966 525.802334,74.302143 524.45068,74.302143 C522.558961,74.302143 520.780626,74.4187072 519.112691,74.6401793 C517.445054,74.8643413 515.982701,75.2944335 514.720859,75.925076 C513.45842,76.5590061 512.467804,77.4135117 511.748712,78.495467 C511.026636,79.5774224 510.668881,80.9313609 510.668881,82.5572827 C510.668881,85.7164727 511.72514,87.9045929 513.843328,89.1207465 C515.961815,90.3401879 518.868021,90.9499086 522.561945,90.9499086 M520.939063,31.9415018 C526.882462,31.9415018 531.835543,32.6199655 535.800992,33.9709152 C539.763456,35.3248537 542.938202,37.2646022 545.325229,39.7901608 C547.709272,42.3157194 549.398094,45.3852445 550.391992,48.9927584 C551.38231,52.6032611 551.877618,56.6172554 551.877618,61.0377302 L551.877618,102.99488 C548.995283,103.625523 544.988062,104.372729 539.85297,105.227833 C534.720862,106.085626 528.502657,106.515718 521.207305,106.515718 C516.615262,106.515718 512.447215,106.109238 508.711219,105.299266 C504.972538,104.486305 501.753036,103.156277 499.049728,101.306193 C496.346718,99.4590981 494.27269,97.0444249 492.834506,94.0642658 C491.393339,91.0873943 490.674247,87.4320592 490.674247,83.1012493 C490.674247,78.9527577 491.506722,75.4349087 493.174657,72.5447132 C494.839609,69.6575065 497.068794,67.3564088 499.861317,65.6435122 C502.651453,63.9312134 505.849771,62.6905514 509.454181,61.9224229 C513.055907,61.1572833 516.794289,60.7717246 520.667241,60.7717246 C523.278051,60.7717246 525.599733,60.8853 527.625723,61.109462 C529.651413,61.3366129 531.295777,61.6295179 532.557619,61.988476 L532.557619,60.0932609 C532.557619,56.6650767 531.522246,53.9153561 529.448516,51.8381215 C527.374786,49.7638757 523.773658,48.723764 518.641251,48.723764 C515.215868,48.723764 511.838523,48.9748254 508.505637,49.4679818 C505.17275,49.9641271 502.290415,50.6665014 499.858333,51.5661382 L497.292577,35.3248537 C498.461922,34.9661945 499.927258,34.5806358 501.684409,34.1741554 C503.441857,33.7676749 505.351479,33.4090157 507.425507,33.0922001 C509.495954,32.7783733 511.680084,32.50639 513.980581,32.2792392 C516.278095,32.0550772 518.596495,31.9415018 520.939063,31.9415018" id="Fill-19"></path>
        </g>
    </g>
</svg>