<?xml version="1.0" encoding="UTF-8"?>
<svg width="160px" height="24px" viewBox="0 0 160 24" version="1.1" xmlns="http://www.w3.org/2000/svg" xmlns:xlink="http://www.w3.org/1999/xlink">
    <!-- Generator: sketchtool 63.1 (101010) - https://sketch.com -->
    <title>E78AD1D6-2DC5-402E-A921-BFB19DC55498</title>
    <desc>Created with sketchtool.</desc>
    <g id="Desktop" stroke="none" stroke-width="1" fill="none" fill-rule="evenodd">
        <g id="Web_desktop" transform="translate(-893.000000, -12613.000000)" fill="#A9BAB8">
            <g id="Sponzori-sekcija" transform="translate(220.000000, 5234.000000)">
                <g id="Medijski-pokrovitelji-sekcija" transform="translate(168.000000, 7263.000000)">
                    <g id="Netokracija-logo" transform="translate(505.000000, 116.000000)">
                        <polygon id="Fill-1" points="65.240186 18.2262429 66.4742946 7.87158704 62.2696434 7.87158704 62.5425116 5.60573009 73.2091783 5.60573009 72.9363101 7.87158704 68.7378605 7.87158704 67.5037519 18.2262429"></polygon>
                        <path d="M102.42493,11.6771093 L106.325705,11.6771093 C107.390512,11.6510364 108.285395,10.8676086 108.452837,9.81476113 C108.516093,9.323722 108.367256,8.82895816 108.043535,8.45524696 C107.716713,8.09519298 107.250977,7.89405938 106.766016,7.90212955 L102.877023,7.90212955 L102.42493,11.6771093 Z M107.441984,18.2263671 L107.578419,17.0959217 C107.74462,15.9164345 107.312372,14.7307395 106.42431,13.9367584 L102.152062,13.9367584 L101.642915,18.2201592 L99.3861705,18.2201592 L100.886946,5.59902564 L107.051287,5.59902564 C108.116093,5.58660999 109.132527,6.03978138 109.835163,6.84059109 C110.530357,7.64822942 110.846636,8.71535493 110.704,9.77130634 C110.540279,11.0476356 109.869271,12.2047746 108.843535,12.980753 L108.843535,13.0173792 C109.680124,14.195004 110.039194,15.6463941 109.848186,17.0772982 L109.711752,18.2201592 L107.441984,18.2263671 Z" id="Fill-2"></path>
                        <path d="M94.2757209,18.2262429 L94.4059535,17.0964184 C94.6217674,15.6090229 93.8757209,14.1483212 92.5454884,13.4524238 C91.6791318,13.7671606 90.7644031,13.9335304 89.8422326,13.9428421 L89.6183566,13.9428421 L89.5687442,13.9862969 L89.0602171,18.2324507 L86.8028527,18.2324507 L88.3036279,5.61193792 L90.567814,5.61193792 L89.8422326,11.6701565 L90.1392868,11.6701565 C92.9392868,11.6024912 95.276031,9.51231579 95.6586667,6.73555466 L95.7951008,5.59952227 L98.0592868,5.59952227 L97.9222326,6.723139 C97.6369612,8.82945479 96.5535504,10.7451903 94.895876,12.0742861 L94.8530853,12.1109123 L94.895876,12.14878 C96.2751008,13.391587 96.9467287,15.2390364 96.6887442,17.0771741 L96.5585116,18.2200351 L94.2757209,18.2262429 Z" id="Fill-4"></path>
                        <polygon id="Fill-6" points="137.686574 18.2262429 139.194171 5.60573009 141.450915 5.60573009 139.95014 18.2262429"></polygon>
                        <path d="M144.415628,5.60566802 L142.939659,18.0213225 C142.673612,19.9122267 141.082295,21.3350607 139.175318,21.3859649 L138.896248,23.6518219 C142.095008,23.5692578 144.764155,21.1817274 145.203225,18.0082861 L146.678574,5.59325236 L144.415628,5.60566802 Z" id="Fill-8"></path>
                        <path d="M119.038884,7.87146289 C117.354543,7.91305533 115.948031,9.16889879 115.714853,10.8388043 L115.479194,12.8377247 L121.426481,12.8377247 L121.661519,10.85122 C121.768186,10.0913819 121.54245,9.32161134 121.041364,8.7405587 C120.532837,8.17192173 119.801054,7.85470175 119.038884,7.87146289 L119.038884,7.87146289 Z M120.787101,18.2261188 L121.159814,15.1222051 L115.211907,15.1222051 L114.839814,18.2261188 L112.564465,18.2261188 L113.444465,10.85122 C113.851287,7.90188124 116.331907,5.68134143 119.30555,5.60560594 C120.638264,5.58077463 121.916403,6.13575439 122.808806,7.12652362 C123.701209,8.14833198 124.10431,9.50784615 123.912682,10.85122 L123.032062,18.2385344 L120.787101,18.2261188 Z" id="Fill-11"></path>
                        <path d="M154.461643,7.87146289 C152.779163,7.91305533 151.373891,9.16951957 151.143814,10.8388043 L150.908775,12.8377247 L156.84986,12.8377247 L157.084899,10.85122 C157.297612,9.43397301 156.322729,8.11232659 154.906915,7.89939811 C154.759318,7.87767072 154.610481,7.86835897 154.461643,7.87146289 L154.461643,7.87146289 Z M156.210481,18.2261188 L156.583194,15.1222051 L150.635287,15.1222051 L150.263194,18.2261188 L147.999628,18.2261188 L148.880248,10.85122 C149.28831,7.90560594 151.764589,5.68630769 154.734512,5.60560594 C156.065984,5.58077463 157.342264,6.13575439 158.232186,7.12652362 C159.124589,8.14833198 159.52707,9.50784615 159.336062,10.85122 L158.455442,18.2261188 L156.210481,18.2261188 Z" id="Fill-13"></path>
                        <path d="M130.617178,18.2262429 C129.280124,18.2541781 127.996403,17.6985776 127.100899,16.7053252 C126.215938,15.6797922 125.820279,14.3208988 126.015628,12.9806289 L126.269271,10.8389285 C126.668651,7.88524426 129.154233,5.66097976 132.129736,5.59331444 C133.469891,5.56662078 134.753612,6.1265668 135.646016,7.12664777 L136.353612,7.92124966 L134.555163,9.52907692 L133.854388,8.72826721 C133.34338,8.16211336 132.612837,7.84551417 131.850667,7.85917139 C130.166946,7.8982807 128.761054,9.1559865 128.533457,10.8265128 L128.272992,12.9806289 C128.168186,13.7386046 128.393922,14.5052713 128.893147,15.0844615 C129.400434,15.6555816 130.132837,15.9759055 130.895628,15.960386 C131.711752,15.9498327 132.494388,15.6406829 133.097798,15.0912901 L133.990202,14.2904804 L135.398574,15.8852713 L134.50555,16.7053252 C133.440744,17.6743671 132.055938,18.2156896 130.617178,18.2262429" id="Fill-15"></path>
                        <path d="M80.0990388,7.87146289 C79.2835349,7.88077463 78.4996589,8.19054521 77.8974884,8.7405587 C77.2822946,9.28063968 76.8829147,10.0261997 76.7750078,10.8388043 L76.5145426,12.9805047 C76.4128372,13.7384804 76.6385736,14.5039055 77.1346977,15.0849582 C77.643845,15.6548367 78.3750078,15.973919 79.1377984,15.9602618 C79.9533023,15.9503293 80.7371783,15.6411795 81.3393488,15.091166 C81.9545426,14.551085 82.3514419,13.8049042 82.4556279,12.9929204 L82.7098915,10.85122 C82.9294264,9.44204318 81.9663256,8.12101754 80.5591938,7.90126046 C80.4047752,7.87704993 80.2484961,7.86711741 80.0928372,7.87146289 L80.0990388,7.87146289 Z M78.8587287,18.2261188 C77.5260155,18.2503293 76.2484961,17.6959703 75.3548527,16.7052011 C74.4686512,15.6809096 74.0705116,14.3213954 74.2633798,12.9805047 L74.5176434,10.8388043 C74.699969,9.39734683 75.403845,8.07197571 76.495938,7.11410796 C77.5607442,6.14320378 78.9443101,5.59691498 80.3843101,5.58077463 C81.7219845,5.5565641 83.0032248,6.11588934 83.8943876,7.11410796 C84.7830698,8.13715789 85.1818295,9.49729285 84.9858605,10.8388043 L84.7191938,12.9805047 C84.539969,14.4232038 83.8354729,15.7491957 82.7408992,16.7052011 C81.6785736,17.6748637 80.2956279,18.2161862 78.8587287,18.2261188 L78.8587287,18.2261188 Z" id="Fill-17"></path>
                        <polygon id="Fill-19" points="50.0091163 18.2262429 51.5098915 5.60573009 60.0928372 5.60573009 59.819969 7.87158704 53.5005891 7.87158704 53.1533023 10.783058 58.7843101 10.783058 58.5176434 13.0420864 52.8866357 13.0420864 52.5393488 15.960386 58.8587287 15.960386 58.5858605 18.2262429"></polygon>
                        <polygon id="Fill-21" points="38.8651163 9.84567611 37.8666667 18.2262429 35.6093023 18.2262429 37.1286822 5.60573009 39.0821705 5.60573009 45.2713178 13.9862969 46.2697674 5.60573009 48.5085271 5.60573009 47.0077519 18.2262429 45.0542636 18.2262429"></polygon>
                        <path d="M22.5860465,10.7022942 C20.8062016,10.4415655 18.6728682,9.36140351 16.6139535,8.32469636 C15.4728682,7.74736842 14.3193798,7.17004049 13.1596899,6.68582996 C12.8744186,5.61932524 11.779845,4.98612686 10.7137984,5.27168691 C10.4217054,5.34990553 10.1513178,5.49392713 9.92248062,5.6925776 C9.6744186,5.65533063 9.42635659,5.61187584 9.17829457,5.59325236 C6.93333333,5.41322537 5.73643411,5.69878543 4.14879173,6.83481781 C4.14879173,6.83481781 4.08062016,2.06099865 9.22790698,2.22860999 C11.3550388,2.29689609 13.8914729,3.67503374 16.3410853,5.00350877 C19.0387597,6.46234818 21.6124031,7.86531714 23.9937984,7.82186235 C25.1832558,7.80013495 26.3311628,7.37551957 27.2496124,6.61754386 C27.2620155,6.5802969 26.9829457,11.3417004 22.5860465,10.7022942 L22.5860465,10.7022942 Z M22.0589147,15.8547908 C21.663876,15.8144399 21.271938,15.7461538 20.8868217,15.6499325 C20.5302326,14.5977058 19.3885271,14.0346559 18.3379845,14.3916059 C18.1854264,14.4437517 18.0396899,14.5145209 17.903876,14.6008097 C17.1472868,14.2780027 16.3782946,13.9179487 15.6155039,13.5578947 C13.3395349,12.4901484 10.9829457,11.3851552 8.79379845,11.0747638 C6.9475969,10.7469906 5.04744186,11.1722267 3.51627907,12.254251 C3.51627907,12.2045884 3.56589147,7.2879892 8.73178295,7.72253711 C8.93023256,7.72253711 9.12868217,7.77219973 9.35193798,7.80944669 C9.67317829,8.86912281 10.7913178,9.46755735 11.8499225,9.1459919 C12.0793798,9.07646424 12.2933333,8.9665857 12.4837209,8.82132254 C13.4697674,9.24966262 14.4806202,9.75249663 15.4728682,10.2553306 C17.6682171,11.3603239 19.9379845,12.5087719 22.027907,12.8191633 C23.5578295,13.1351417 25.1510078,12.8166802 26.4434109,11.9376518 L26.6728682,11.7638327 C26.6294574,11.7390013 26.6294574,16.2582996 22.0589147,15.8547908 L22.0589147,15.8547908 Z M21.5255814,21.0072874 C19.448062,20.9452092 16.9364341,19.845803 14.5054264,18.7848853 C10.7844961,17.1460189 7.24341085,15.5133603 3.99379845,16.9659919 C3.5820155,17.1534683 3.19317829,17.3868826 2.83410853,17.6612686 C2.83410853,17.6053981 3.00775194,12.5516059 8.19224806,13.2288799 C10.1085271,13.48278 12.3286822,14.5263158 14.4744186,15.5319838 C15.3116279,15.9292848 16.1612403,16.3203779 17.0046512,16.6804318 C17.1857364,17.6345749 18.0192248,18.3242645 18.9891473,18.3255061 C19.4877519,18.3236437 19.9677519,18.1361673 20.3348837,17.7978408 C20.7435659,17.8921997 21.1578295,17.9604858 21.5751938,18.0026991 C23.1348837,18.2410796 24.7255814,17.8549528 26.0031008,16.9287449 C25.9844961,17.0522807 26.0217054,21.1500675 21.5255814,21.0072874 L21.5255814,21.0072874 Z M28.0806202,-2.18340865e-13 L27.8449612,1.93063428 C27.6018605,3.38761134 26.7311628,4.66331984 25.4635659,5.4194332 C23.5534884,6.32577598 20.5023256,4.68070175 17.6,3.0977058 C14.951938,1.66369771 12.2170543,0.173819163 9.6124031,0.0931174089 C7.69488372,-0.0353846154 5.80155039,0.577948718 4.32248062,1.80647773 C3.04062016,2.94995951 2.23689922,4.53481781 2.07131783,6.24507422 L7.71131651e-14,23.1179487 L2.13953488,23.1179487 L2.31317829,21.7149798 C2.61209302,20.4634818 3.47968992,19.4249123 4.65736434,18.9090418 C6.86511628,17.9219973 10.1953488,19.3746289 13.4139535,20.77139 C16.0124031,21.9074224 18.6976744,23.080081 21.1596899,23.1551957 L21.6372093,23.1551957 C23.1913178,23.1887179 24.7051163,22.6622942 25.903876,21.671525 C27.2099225,20.468448 28.008062,18.8121997 28.1364341,17.0404858 L30.2139535,0.0186234818 L28.0806202,-2.18340865e-13 Z" id="Fill-23"></path>
                    </g>
                </g>
            </g>
        </g>
    </g>
</svg>