<?xml version="1.0" encoding="UTF-8"?>
<svg width="639px" height="150px" viewBox="0 0 639 150" version="1.1" xmlns="http://www.w3.org/2000/svg" xmlns:xlink="http://www.w3.org/1999/xlink">
    <!-- Generator: sketchtool 57.1 (101010) - https://sketch.com -->
    <title>ADC4FF53-96C9-495A-BC42-8F3CFE40538B</title>
    <desc>Created with sketchtool.</desc>
    <g id="Asset-Artboard-Page" stroke="none" stroke-width="1" fill="none" fill-rule="evenodd">
        <g id="Rimac-logo" fill="#353741">
            <path d="M322.600537,57.1738258 L327.092979,57.1738258 C332.383523,57.1738258 337.674715,57.2038905 342.964611,57.1515133 C344.221549,57.1395586 345.225414,57.4699465 346.229279,58.2277051 C355.476956,65.2107871 364.754769,72.1537829 374.022861,79.1093864 C375.992031,80.5870804 376.03772,80.5838476 378.058736,79.0647744 C387.322291,72.1027053 396.5933,65.1500113 405.842921,58.1698388 C406.746011,57.4883732 407.651693,57.1495801 408.804939,57.1631577 C413.338858,57.2171448 417.874721,57.219731 422.408639,57.1612181 C423.532074,57.1469939 423.976976,57.3163905 423.970882,58.6124034 C423.913465,70.942145 423.92513,83.2722097 423.95721,95.6025978 C423.959802,96.6163909 423.748854,96.9865418 422.642594,96.970378 C418.163113,96.9050763 413.68104,96.9060461 409.201236,96.9700547 C408.112473,96.985572 407.879491,96.6464556 407.883703,95.6194082 C407.921616,86.1968865 407.909626,76.7743648 407.896989,67.3518432 C407.896341,66.7912828 408.170476,66.0529208 407.505553,65.7377268 C406.850027,65.427382 406.443685,66.1062613 405.998783,66.439882 C394.70125,74.9119726 383.404042,83.3843865 372.139885,91.9004426 C370.971086,92.7839555 370.104936,92.9126193 368.866145,91.9786754 C353.804604,80.6210244 338.706123,69.3115415 323.61866,57.988481 C323.377577,57.8074465 323.147511,57.6125112 322.600537,57.1738258" id="Fill-1"></path>
            <path d="M238.822216,96.9432219 L228.044761,96.9432219 C225.939496,96.9432219 223.833259,96.903459 221.72929,96.9600323 C220.671311,96.9881573 219.892003,96.6205926 219.156764,95.8838469 C213.217499,89.9297519 207.251662,84.0018422 201.302352,78.0577688 C200.901843,77.65723 200.245345,77.3148808 200.474115,76.6140187 C200.739825,75.8003334 201.514272,75.9985015 202.136098,75.9839541 C207.639858,75.8530273 213.145563,75.7757644 218.647379,75.5914972 C221.456451,75.4974239 224.230852,75.0551825 226.860084,73.9890187 C229.588471,72.8824453 230.974376,71.1351393 230.935815,68.929428 C230.891098,66.365527 229.456265,64.531583 226.630666,63.490958 C223.379284,62.2932209 219.973336,62.2259795 216.571925,62.22307 C199.783269,62.2094924 182.994613,62.1933286 166.206281,62.2495786 C164.302567,62.2560442 162.760477,61.8878329 161.440676,60.4434364 C160.44394,59.3523803 159.239172,58.4504406 158.139716,57.4754406 C158.399269,57.0606776 158.698031,57.1925742 158.938142,57.1925742 C181.718881,57.1890181 204.49962,57.1744707 227.280035,57.2139104 C231.548892,57.2210225 235.794743,57.6112164 239.857837,59.0811518 C243.58134,60.4285657 246.431889,62.6187597 246.901418,66.8627253 C247.41696,71.5256565 245.324981,74.8573377 241.335767,77.0966696 C237.883482,79.0347085 234.076377,79.7468852 230.191503,80.125118 C228.473462,80.2922516 226.748291,80.3856783 225.027657,80.5311525 C224.558129,80.5705921 223.968382,80.5046439 223.768452,81.056799 C223.560744,81.6299672 224.123596,81.9034586 224.446012,82.2260879 C228.905078,86.6869716 233.369005,91.1433295 237.853347,95.5789978 C238.219508,95.9410667 238.744123,96.144084 239.195182,96.4208081 L238.822216,96.9432219 Z" id="Fill-3"></path>
            <path d="M638.793739,57.2533813 C638.622648,57.4964847 638.596725,57.5456227 638.559785,57.5840925 C634.143491,62.2169589 634.143491,62.2101701 627.746363,62.218252 C616.894704,62.2321529 606.042074,62.1933598 595.191064,62.3006873 C589.884642,62.3533813 584.802129,63.5042434 580.294458,66.4787046 C571.502375,72.2805365 571.415209,83.5253642 580.096795,89.4691142 C581.479459,90.4159892 582.979748,91.1436832 584.536419,91.759847 C588.033097,93.1447608 591.695358,93.709847 595.42275,93.9707306 C595.933107,94.006291 596.484617,93.8385108 597.147596,94.3011186 C595.267536,95.5201919 593.822333,97.1162048 591.308134,96.9826919 C586.254137,96.7134031 581.158987,97.3586617 576.138041,96.2866789 C570.275573,95.0349548 565.09909,92.547347 561.337026,87.7412047 C553.965196,78.3238555 557.841968,65.0892649 569.379288,60.093683 C574.480271,57.8850623 579.910474,57.2844158 585.36336,57.2498252 C602.909937,57.1386183 620.457162,57.1938985 638.004062,57.187433 C638.204965,57.187433 638.405868,57.2200839 638.793739,57.2533813" id="Fill-5"></path>
            <path d="M455.74695,79.0997532 C459.168451,75.6998611 462.263324,72.6284172 465.353336,69.5514776 C469.097254,65.8228139 472.852513,62.1051415 476.564999,58.3451201 C477.383191,57.516564 478.249341,57.1544951 479.422677,57.1646246 C484.659755,57.2117149 489.897157,57.2055727 495.133911,57.1683959 C496.181521,57.1609606 496.979623,57.4596675 497.723287,58.2022321 C510.430054,70.8875767 523.153672,83.5564342 535.872105,96.2301408 C536.017921,96.3749684 536.145267,96.5378994 536.502356,96.9432873 L533.452524,96.9432873 C528.809405,96.9432873 524.165314,96.8996451 519.522843,96.9704425 C518.162862,96.9911322 517.202093,96.5430718 516.257203,95.5961968 C505.631398,84.9471669 494.971893,74.3317576 484.320489,63.7082665 C482.652997,62.0453355 482.333173,62.0453355 480.673782,63.7005079 C475.978493,68.3844517 471.265706,73.0515853 466.605413,77.7697964 C465.659875,78.7270162 464.65925,79.162792 463.31385,79.1204429 C460.953568,79.0460894 458.589722,79.0997532 455.74695,79.0997532" id="Fill-8"></path>
            <path d="M294.789535,77.2204207 C294.789535,83.3051191 294.751299,89.3904641 294.821291,95.474516 C294.835548,96.7123393 294.483321,96.9926195 293.288274,96.9725764 C288.862259,96.8991928 284.433976,96.9121238 280.007637,96.9664342 C278.970721,96.9793652 278.648304,96.7259169 278.65184,95.6439126 C278.691401,83.259214 278.691077,70.8738688 278.652517,58.4891701 C278.648952,57.4171873 278.954195,57.1485451 280.000185,57.1614761 C284.480962,57.2177261 288.963359,57.2322735 293.442839,57.1546873 C294.668021,57.1333511 294.819022,57.593696 294.81157,58.6430494 C294.766853,64.8350755 294.789535,71.0277481 294.789535,77.2204207" id="Fill-10"></path>
            <path d="M109.499861,21.5553878 C108.614593,37.0163795 106.12016,52.2119617 101.898936,67.1214447 C99.7168743,74.8289879 97.0947709,82.3787726 93.821354,89.9696132 C87.3558535,83.4986002 81.0734337,77.2079751 74.7874494,70.920906 C72.2340417,68.3667033 69.6686446,65.8244619 67.1207455,63.2650869 C66.7604169,62.9033412 66.1457197,62.5807119 66.4292516,61.9451515 C66.6891289,61.3616386 67.3423865,61.4683196 67.861169,61.4214446 C71.7288688,61.0732765 75.5988368,60.7351299 79.2957694,59.4281256 C82.7111142,58.220367 85.7719631,56.4798497 87.9109281,53.4465522 C91.5965193,48.2191814 90.3564316,41.6941813 84.9670564,38.2613149 C80.0083256,35.1025864 74.3833759,34.317026 68.6874621,34.2834053 C51.1460696,34.1802803 33.603381,34.2355605 16.0610164,34.229095 C13.8070184,34.2284484 13.7885483,34.2313579 13.5215422,32.0350216 C13.0795564,28.4017242 12.7662131,24.7558189 12.640811,21.0976292 C12.5721153,19.0874999 13.3190194,18.089224 15.2771721,17.6434266 C25.5951426,15.2948274 36.0287942,13.6968748 46.5855797,12.9145472 C57.4813074,12.1066808 68.36699,12.2178877 79.2468398,13.2158403 C88.4916015,14.0637929 97.6378561,15.5191808 106.684955,17.5891162 C108.927936,18.1024783 109.640816,19.0942886 109.499861,21.5553878 M87.7200724,107.203774 C85.4796839,106.518753 85.4923213,106.463149 84.2729719,108.452912 C78.5242401,117.835348 71.7243338,126.342029 63.3133179,133.510025 C61.3007271,135.225004 60.8684624,135.240198 58.912902,133.577266 C46.7877796,123.266059 38.0452744,110.439766 31.172784,96.2589462 C23.2147712,79.8371784 18.1627178,62.5047425 15.2220865,44.5370695 C15.049699,43.4841599 14.6384967,42.8136858 13.6498613,42.3526944 C12.1408232,41.6495694 10.6978886,40.8054961 9.22708687,40.0215521 C9.24588099,39.9174572 9.26499915,39.8136857 9.2841173,39.7094472 C9.58741548,39.7094472 9.89071366,39.7094472 10.1940118,39.7094472 C25.9026541,39.7176727 41.6112963,39.7157331 57.3199385,39.7422417 C60.4608245,39.7477374 63.5725471,40.1130391 66.5653484,41.1051728 C70.9320645,42.5521556 72.8373992,45.306466 72.3218571,49.2362076 C71.9949043,51.7289878 70.4628596,53.2813585 68.3264869,54.3394405 C64.9040132,56.0346992 61.1821298,56.3676733 57.4592742,56.4585138 C52.603587,56.5774794 47.7433633,56.495044 42.8850838,56.5244621 C42.2266416,56.5283414 41.3744256,56.2163802 41.0131249,57.0588371 C40.6482598,57.9093759 41.4696923,58.3005398 41.9333886,58.7634708 C57.9582905,74.7594843 73.9942096,90.7448296 90.0307768,106.729528 C90.4465156,107.143322 90.8891495,107.52996 91.2420253,108.097632 C89.9413427,108.234054 88.8600328,107.552266 87.7200724,107.203774 M119.242023,8.03825426 C100.216867,2.76336205 80.831382,0.0817887926 61.0836242,-9.18805262e-14 C41.4460388,0.0775862065 22.1678098,2.74849136 3.23856827,7.95161633 C0.521846061,8.69838357 -0.0102219105,9.37758615 2.76290147e-14,12.1186422 C0.0623622707,28.6551723 2.06263973,44.9670256 5.862292,61.0522626 C10.7037217,81.5473056 18.1218898,101.000754 29.7560972,118.696228 C37.5556563,130.559482 46.948827,140.923706 58.7758361,148.954202 C60.6409903,150.220473 61.4740882,150.227262 63.3363261,148.977478 C66.2947795,146.991917 69.1106569,144.819827 71.8021043,142.487391 C84.8928558,131.144288 94.5517365,117.232111 101.987727,101.756573 C115.663688,73.295366 121.790895,43.112392 122.143055,11.6657327 C122.166453,9.51077581 121.451952,8.6511853 119.242023,8.03825426" id="Fill-12"></path>
        </g>
    </g>
</svg>