<?xml version="1.0" encoding="UTF-8"?>
<svg width="160px" height="16px" viewBox="0 0 160 16" version="1.1" xmlns="http://www.w3.org/2000/svg" xmlns:xlink="http://www.w3.org/1999/xlink">
    <!-- Generator: sketchtool 63.1 (101010) - https://sketch.com -->
    <title>80F16064-64C7-41DD-BCB3-B7876D2E18CC</title>
    <desc>Created with sketchtool.</desc>
    <g id="Desktop" stroke="none" stroke-width="1" fill="none" fill-rule="evenodd">
        <g id="Web_desktop" transform="translate(-1133.000000, -12617.000000)" fill="#A9BAB8">
            <g id="Sponzori-sekcija" transform="translate(220.000000, 5234.000000)">
                <g id="Medijski-pokrovitelji-sekcija" transform="translate(168.000000, 7263.000000)">
                    <g id="Splittechcity-logo" transform="translate(745.000000, 120.000000)">
                        <path d="M159.786453,1.38666667 L154.559787,10.352 L154.559787,14.9333333 C154.559787,15.52 154.346987,15.9466667 153.759787,15.9466667 L151.946987,15.9466667 C151.359787,15.9466667 151.146987,15.6266667 151.146987,14.9333333 L151.146987,10.3146667 L146.13312,1.38666667 C145.813653,0.8 145.919787,0.266666667 146.559787,0.266666667 L148.373653,0.266666667 C149.173653,0.266666667 149.49312,0.693333333 149.813653,1.28 L153.066453,7.36 L156.213653,1.28 C156.53312,0.693333333 156.906987,0.266666667 157.546987,0.266666667 L159.359787,0.266666667 C160.05312,0.266666667 160.159787,0.853333333 159.786453,1.38666667" id="Fill-1"></path>
                        <path d="M145.22656,1.06661333 L145.22656,2.39994667 C145.22656,2.98661333 144.90656,3.19994667 144.21376,3.19994667 L140.639893,3.19994667 L140.639893,14.93328 C140.639893,15.5199467 140.42656,15.9466133 139.839893,15.9466133 L138.02656,15.9466133 C137.439893,15.9466133 137.22656,15.5199467 137.22656,14.93328 L137.22656,3.19994667 L133.173227,3.19994667 C132.480427,3.19994667 132.159893,2.98661333 132.159893,2.39994667 L132.159893,1.06661333 C132.159893,0.479946667 132.58656,0.266613333 133.173227,0.266613333 L144.21376,0.266613333 C144.799893,0.266613333 145.22656,0.479946667 145.22656,1.06661333" id="Fill-4"></path>
                        <path d="M130.77344,1.27989333 L130.77344,14.8798933 C130.77344,15.46656 130.560107,15.8932267 129.97344,15.8932267 L128.160107,15.8932267 C127.57344,15.8932267 127.360107,15.46656 127.360107,14.8798933 L127.360107,1.27989333 C127.360107,0.693226667 127.57344,0.26656 128.160107,0.26656 L129.97344,0.26656 C130.506773,0.26656 130.77344,0.693226667 130.77344,1.27989333" id="Fill-6"></path>
                        <path d="M117.493227,7.09317333 L117.493227,9.11984 C117.493227,11.03984 118.18656,12.95984 120.21376,12.95984 L124.159893,12.95984 C124.747093,12.95984 125.173227,13.1731733 125.173227,13.75984 L125.173227,15.0931733 C125.173227,15.6803733 124.853227,15.8931733 124.159893,15.8931733 L120.21376,15.8931733 C116.373227,15.8931733 114.133227,13.0665067 114.133227,9.28037333 L114.133227,6.82650667 C114.133227,2.98650667 116.373227,0.213173333 120.21376,0.213173333 L124.26656,0.213173333 C124.853227,0.213173333 125.280427,0.426506667 125.280427,1.01317333 L125.280427,2.34650667 C125.280427,2.93317333 124.959893,3.14650667 124.26656,3.14650667 L120.21376,3.14650667 C118.18656,3.14650667 117.493227,5.06650667 117.493227,7.09317333" id="Fill-8"></path>
                        <path d="M88.42656,6.93328 L88.42656,8.95994667 C88.42656,10.93328 89.1198933,12.7999467 91.1470933,12.7999467 L95.0932267,12.7999467 C95.6804267,12.7999467 96.10656,13.01328 96.10656,13.5999467 L96.10656,14.93328 C96.10656,15.5199467 95.78656,15.73328 95.0932267,15.73328 L91.1470933,15.73328 C87.30656,15.73328 85.06656,12.9066133 85.06656,9.11994667 L85.06656,6.66661333 C85.06656,2.82661333 87.30656,0.05328 91.1470933,0.05328 L95.1998933,0.05328 C95.78656,0.05328 96.21376,0.266613333 96.21376,0.85328 L96.21376,2.18661333 C96.21376,2.77328 95.8932267,2.98661333 95.1998933,2.98661333 L91.1470933,2.98661333 C89.1198933,2.98661333 88.42656,4.90661333 88.42656,6.93328" id="Fill-10"></path>
                        <path d="M71.0401067,0.853333333 L71.0401067,2.18666667 C71.0401067,2.77333333 70.7201067,2.98666667 70.0267733,2.98666667 L65.8667733,2.98666667 L65.8667733,14.7733333 C65.8667733,15.36 65.65344,15.7866667 65.0667733,15.7866667 L63.25344,15.7866667 C62.6667733,15.7866667 62.45344,15.36 62.45344,14.7733333 L62.45344,2.93333333 L59.5201067,2.93333333 C58.8267733,2.93333333 58.5067733,2.72 58.5067733,2.13333333 L58.5067733,0.8 C58.5067733,0.213333333 58.93344,9.66338121e-14 59.5201067,9.66338121e-14 L70.0267733,9.66338121e-14 L70.0267733,0.0533333333 C70.61344,0.0533333333 71.0401067,0.266666667 71.0401067,0.853333333" id="Fill-12"></path>
                        <path d="M111.57344,1.17338667 L111.57344,14.7733867 C111.57344,15.3600533 111.360107,15.7861867 110.77344,15.7861867 L108.960107,15.7861867 C108.37344,15.7861867 108.160107,15.3600533 108.160107,14.7733867 L108.160107,9.33338667 L101.440107,9.33338667 L101.440107,14.7733867 C101.440107,15.3600533 101.226773,15.7861867 100.640107,15.7861867 L98.8267733,15.7861867 C98.2401067,15.7861867 98.0267733,15.3600533 98.0267733,14.7733867 L98.0267733,1.17338667 C98.0267733,0.58672 98.2401067,0.160053333 98.8267733,0.160053333 L100.640107,0.160053333 C101.226773,0.160053333 101.440107,0.58672 101.440107,1.17338667 L101.440107,6.40005333 L108.160107,6.40005333 L108.160107,1.17338667 C108.160107,0.58672 108.37344,0.160053333 108.960107,0.160053333 L110.77344,0.160053333 C111.306773,0.160053333 111.57344,0.58672 111.57344,1.17338667" id="Fill-14"></path>
                        <path d="M76.1067733,2.98666667 L76.1067733,6.29333333 L81.38624,6.29333333 C81.97344,6.29333333 82.4001067,6.50666667 82.4001067,7.09333333 L82.4001067,8.42666667 C82.4001067,9.01333333 82.0801067,9.22666667 81.38624,9.22666667 L76.1067733,9.22666667 L76.1067733,12.8 L82.61344,12.8 C83.3067733,12.8 83.6267733,13.0133333 83.6267733,13.6 L83.6267733,14.9333333 C83.6267733,15.52 83.2001067,15.7333333 82.61344,15.7333333 L73.8667733,15.7333333 C73.0667733,15.7333333 72.7467733,15.4133333 72.7467733,14.72 L72.7467733,1.06666667 C72.7467733,0.373333333 73.0667733,0.0533333333 73.8667733,0.0533333333 L82.61344,0.0533333333 C83.2001067,0.0533333333 83.6267733,0.266666667 83.6267733,0.853333333 L83.6267733,2.18666667 C83.6267733,2.77333333 83.3067733,2.98666667 82.61344,2.98666667 L76.1067733,2.98666667 Z" id="Fill-16"></path>
                        <path d="M36.58672,15.73328 L29.2800533,15.73328 C28.4800533,15.73328 28.1600533,15.41328 28.1600533,14.7199467 L28.1600533,1.06661333 C28.1600533,0.479946667 28.3733867,0.05328 28.9600533,0.05328 L30.7733867,0.05328 C31.3600533,0.05328 31.5733867,0.479946667 31.5733867,1.06661333 L31.5733867,12.7999467 L36.6400533,12.7999467 C37.3333867,12.7999467 37.6533867,13.01328 37.6533867,13.5999467 L37.6533867,14.93328 C37.6000533,15.5199467 37.1733867,15.73328 36.58672,15.73328" id="Fill-18"></path>
                        <path d="M42.6666667,14.7197333 C42.6666667,15.3069333 42.4533333,15.7330667 41.8666667,15.7330667 L40.0533333,15.7330667 C39.4666667,15.7330667 39.2533333,15.3069333 39.2533333,14.7197333 L39.2533333,1.0664 C39.2533333,0.479733333 39.4666667,0.0530666667 40.0533333,0.0530666667 L41.8666667,0.0530666667 C42.4,0.0530666667 42.6666667,0.479733333 42.6666667,1.0664 L42.6666667,14.7197333 Z" id="Fill-20"></path>
                        <path d="M55.78672,0.0533333333 C56.3733867,0.0533333333 56.8000533,0.266666667 56.8000533,0.853333333 L56.8000533,2.18666667 C56.8000533,2.77333333 56.4800533,2.98666667 55.78672,2.98666667 L52.74672,2.98666667 L52.74672,14.7733333 C52.74672,15.36 52.5333867,15.7866667 51.94672,15.7866667 L50.1333867,15.7866667 C49.54672,15.7866667 49.3333867,15.36 49.3333867,14.7733333 L49.3333867,2.93333333 L45.3333867,2.93333333 C44.6400533,2.93333333 44.3200533,2.72 44.3200533,2.13333333 L44.3200533,0.8 C44.3200533,0.213333333 44.74672,9.66338121e-14 45.3333867,9.66338121e-14 L55.78672,9.66338121e-14 L55.78672,0.0533333333 Z" id="Fill-22"></path>
                        <path d="M8.53333333,11.4666133 C8.53333333,10.77328 7.84,10.2399467 6.4,9.65328 C3.84,8.69328 9.66338121e-14,7.41328 9.66338121e-14,4.63994667 C9.66338121e-14,2.07994667 1.54666667,0.05328 5.28,0.05328 L9.97333333,0.05328 C10.56,0.05328 10.9866667,0.266613333 10.9866667,0.85328 L10.9866667,2.18661333 C10.9866667,2.77328 10.56,2.98661333 9.97333333,2.98661333 L5.49333333,2.98661333 C4.48,2.93328 3.25333333,3.19994667 3.25333333,4.15994667 C3.25333333,4.95994667 4.05333333,5.38661333 5.17333333,5.86661333 C8,6.98661333 11.7866667,8.31994667 11.7866667,11.1466133 C11.7866667,14.1866133 9.76,15.73328 6.50666667,15.73328 L1.22666667,15.73328 C0.64,15.73328 0.213333333,15.5199467 0.213333333,14.93328 L0.213333333,13.5999467 C0.213333333,13.01328 0.64,12.7999467 1.22666667,12.7999467 L6.29333333,12.7999467 C7.30666667,12.7999467 8.53333333,12.4799467 8.53333333,11.4666133" id="Fill-24"></path>
                        <path d="M22.8799467,5.54656 C22.8799467,6.87989333 21.65328,7.35989333 20.3199467,7.67989333 L17.2799467,8.37322667 L17.2799467,2.93322667 L20.3199467,2.93322667 C21.65328,2.93322667 22.8799467,3.35989333 22.8799467,4.74656 L22.8799467,5.54656 Z M20.1066133,0.0532266667 L15.0399467,0.0532266667 C14.3466133,0.0532266667 13.9199467,0.479893333 13.9199467,1.38656 L13.9199467,14.7198933 C13.9199467,15.30656 14.13328,15.7332267 14.7199467,15.7332267 L16.53328,15.7332267 C17.1199467,15.7332267 17.33328,15.30656 17.33328,14.7198933 L17.33328,11.14656 L20.4799467,10.4532267 C23.5199467,9.75989333 26.45328,8.74656 26.45328,5.65322667 L26.45328,4.31989333 C26.3999467,1.06656 23.3599467,0.0532266667 20.1066133,0.0532266667 L20.1066133,0.0532266667 Z" id="Fill-26"></path>
                    </g>
                </g>
            </g>
        </g>
    </g>
</svg>