<?xml version="1.0" encoding="UTF-8"?>
<svg width="211px" height="104px" viewBox="0 0 211 104" version="1.1" xmlns="http://www.w3.org/2000/svg" xmlns:xlink="http://www.w3.org/1999/xlink">
    <!-- Generator: sketchtool 57.1 (101010) - https://sketch.com -->
    <title>7F72BD6E-9F8B-4AF7-AC4B-C9BC46852DBC</title>
    <desc>Created with sketchtool.</desc>
    <g id="Asset-Artboard-Page" stroke="none" stroke-width="1" fill="none" fill-rule="evenodd">
        <g id="Szt-logo" fill="#A9BAB8">
            <path d="M106.538772,17.8100001 L28.8258468,17.8100001 L28.8258468,40.0400003 L102.838156,40.0400003 C114.394464,40.0400003 122.31508,41.7625003 126.307849,45.1425003 C130.300618,48.5225003 132.410618,54.8925003 132.410618,64.2525004 L132.410618,78.4225005 C132.410618,87.7500006 130.398003,94.2500006 126.210464,97.5 C122.022926,100.750001 114.297079,102.667501 102.740772,102.667501 L29.6049237,102.667501 C18.0258927,102.732501 10.1929233,101.010001 6.10276937,97.5 C2.04507697,94.0225006 -5.76632759e-14,87.7500006 -5.76632759e-14,78.3250005 L-5.76632759e-14,75.4975005 L24.3461544,71.0775004 L24.3461544,83.2650005 L108.096926,83.2650005 L108.096926,59.8650004 L34.2144623,59.8650004 C22.7003544,59.8650004 14.9225696,58.1327504 10.8746156,54.6650003 C6.84938477,51.2200003 4.8043078,44.9150003 4.8043078,35.4900002 L4.8043078,24.2450002 C4.8043078,14.9175001 6.84938477,8.51500005 10.8746156,5.07000003 C14.8998465,1.62500001 22.6906159,-1.46638257e-12 34.2144623,-1.46638257e-12 L101.474772,-1.46638257e-12 C112.622064,-1.46638257e-12 120.302464,1.64775001 124.52571,4.94000003 C128.742464,8.23225005 130.904403,14.1050001 131.018018,22.5550001 L131.018018,24.7000002 L106.701079,29.6400002 L106.538772,17.8100001 Z" id="Fill-1"></path>
            <polygon id="Fill-4" points="147.928852 48.2946741 147.928852 43.0621742 186.587297 8.87217483 151.788529 8.87217483 151.788529 0.259674989 207.365927 0.259674989 207.365927 5.0371749 168.051759 39.2271743 207.365927 39.2271743 207.365927 48.2946741"></polygon>
            <polygon id="Fill-6" points="184.835028 63.0513016 184.835028 102.473801 171.850412 102.473801 171.850412 63.0513016 146.562873 63.0513016 146.562873 54.4388018 210.320583 54.4388018 210.320583 63.0513016"></polygon>
        </g>
    </g>
</svg>