<?xml version="1.0" encoding="UTF-8"?>
<svg width="494px" height="56px" viewBox="0 0 494 56" version="1.1" xmlns="http://www.w3.org/2000/svg" xmlns:xlink="http://www.w3.org/1999/xlink">
    <!-- Generator: sketchtool 57.1 (101010) - https://sketch.com -->
    <title>FFD43382-F6C7-4210-A51B-D3B587EEC47D</title>
    <desc>Created with sketchtool.</desc>
    <g id="Asset-Artboard-Page" stroke="none" stroke-width="1" fill="none" fill-rule="evenodd">
        <g id="Travelsoft-logo" fill="#A9BAB8">
            <path d="M3.15014491,34.4445911 C3.15014491,33.2623485 2.92434781,32.3037386 2.46173912,31.587673 C1.99913042,30.8716074 1.18956521,30.5009058 -9.13064578e-15,30.5009058 L-9.13064578e-15,25.359922 C0.516946857,25.3768138 1.03077294,25.274545 1.5016425,25.0604597 C1.88990337,24.8812597 2.22180675,24.59924 2.46173912,24.2452466 C2.71433815,23.8668335 2.89258936,23.4438039 2.98676327,22.998558 C3.10021255,22.478217 3.15510143,21.946676 3.15014491,21.4140334 C3.15014491,20.5301514 3.09562317,19.6471874 2.98676327,18.7700989 C2.87294685,17.8779546 2.74995168,16.9872792 2.61961351,16.0912791 C2.48927535,15.1952791 2.35342994,14.3029512 2.25246376,13.3940987 C2.14433815,12.4887348 2.08981641,11.577679 2.08908212,10.6657052 C2.0701739,9.17426911 2.30735265,7.69072808 2.79033815,6.27934444 C3.22669564,4.99942309 3.96540095,3.84361978 4.94367147,2.91016402 C6.01134297,1.92566563 7.28425117,1.18995413 8.6702415,0.756642644 C10.1700483,0.253377056 11.9745893,8.34945956e-14 14.0691787,8.34945956e-14 L15.6093719,8.34945956e-14 L15.6093719,3.97875421 C15.6214878,4.25857061 15.5526473,4.53581652 15.411111,4.77744276 C15.27857,4.99097719 15.1072946,5.17770506 14.9062801,5.32826244 C14.7129758,5.4611936 14.5007632,5.56401327 14.2766183,5.63304934 C14.0956135,5.69786246 13.9052463,5.73384934 13.7130434,5.73954114 C12.4628985,5.73954114 11.5486956,6.12327886 10.9594202,6.89442642 C10.3701449,7.66557399 10.0782608,8.73049205 10.0782608,10.1038691 C10.0782608,11.1944921 10.1314975,12.2208528 10.2177777,13.1939676 C10.3040579,14.1670824 10.4013526,15.0979676 10.500483,16.003148 C10.5996135,16.9083283 10.6932367,17.7878038 10.7850241,18.6582825 C10.8768115,19.528394 10.9227053,20.4133776 10.9227053,21.3057055 C10.9252753,22.0377449 10.8219227,22.7662957 10.6161352,23.4685908 C10.4250338,24.1528925 10.1202995,24.8002892 9.71478256,25.3836073 C9.30394198,25.9773909 8.79856034,26.4997516 8.2186473,26.9295745 C7.60091784,27.3902434 6.90590335,27.7365254 6.16628016,27.9522631 C6.90131398,28.1736926 7.59467629,28.5148336 8.2186473,28.9622828 C8.79819319,29.3862303 9.30357483,29.9030828 9.71478256,30.4917254 C10.1215845,31.0796337 10.4263188,31.7319878 10.6161352,32.4212468 C10.8195362,33.121155 10.9227053,33.8462173 10.9227053,34.5749518 C10.9227053,35.4672797 10.865797,36.3504273 10.7850241,37.2225584 C10.7042512,38.0946896 10.6014492,38.9851814 10.500483,39.8756733 C10.3995169,40.7663487 10.3022222,41.7117389 10.2177777,42.6848537 C10.1333333,43.658152 10.0782608,44.6880013 10.0782608,45.77128 C10.0782608,47.1354767 10.3829951,48.2077391 10.9594202,48.9788866 C11.5358454,49.7500342 12.459227,50.1376276 13.7130434,50.1376276 C13.9052463,50.142585 14.0954299,50.1778375 14.2766183,50.2420998 C14.5000289,50.3155424 14.7118743,50.4200145 14.9062801,50.5523949 C15.1085796,50.6972604 15.2802221,50.8806834 15.411111,51.0921982 C15.553198,51.3329064 15.6220386,51.6097851 15.6093719,51.8892342 L15.6093719,55.8696409 L14.0636714,55.8696409 C11.9745893,55.8696409 10.164541,55.6164475 8.66473426,55.116854 C7.27764248,54.675831 6.00510142,53.9335097 4.93816423,52.9429523 C3.96026085,52.0071097 3.21953622,50.85149 2.77748791,49.5721194 C2.29321738,48.1686309 2.05585506,46.6920669 2.07623187,45.2076078 C2.07843477,44.2969193 2.13479226,43.3869652 2.24512076,42.4828864 C2.35159419,41.5661389 2.47403864,40.6633454 2.61227052,39.7746896 C2.74444443,38.8860339 2.8674396,37.9918699 2.97942028,37.097706 C3.09121738,36.2176797 3.14830916,35.3315944 3.15014491,34.4445911" id="Fill-1"></path>
            <polygon id="Fill-4" points="63.834548 6.15456543 63.834548 14.1102374 51.667205 14.1102374 51.667205 49.4159416 41.6238234 49.4159416 41.6238234 14.1102374 29.4601519 14.1102374 29.4601519 6.15456543"></polygon>
            <path d="M83.9671893,26.4944625 L88.0058367,26.4944625 C89.377141,26.4944625 90.5318271,26.3255445 91.4937594,25.9730199 C92.3771218,25.6752101 93.1824648,25.1833281 93.8508609,24.5335445 C94.4572088,23.9311314 94.9135759,23.1946855 95.1836146,22.3835118 C95.4703586,21.5236823 95.6124455,20.6221741 95.6040011,19.7157086 C95.6040011,17.8172168 94.990861,16.3318398 93.7517305,15.2614136 C92.5126,14.1909874 90.6015855,13.6566924 88.0076724,13.6566924 L83.969025,13.6566924 L83.9671893,26.4944625 Z M83.9671886,33.410921 L83.9671886,49.4159042 L73.9348218,49.4159042 L73.9348218,6.15452831 L88.0076716,6.15452831 C91.1284444,6.15452831 93.8086376,6.46849551 96.0133718,7.11846271 C98.218106,7.76842991 100.020811,8.65341349 101.417816,9.80279051 C102.756077,10.8847839 103.801719,12.2847839 104.459652,13.8751838 C105.096106,15.5010199 105.41626,17.2335313 105.403227,18.979446 C105.408917,20.3280361 105.217816,21.6703836 104.83598,22.9637082 C104.462956,24.1977278 103.896628,25.3645475 103.158106,26.4210196 C102.400859,27.5017278 101.482802,28.460154 100.43569,29.263249 C99.2989949,30.1249146 98.0422413,30.8152752 96.7054491,31.3122981 C97.378251,31.6514195 98.0090142,32.0678391 98.5852557,32.5534784 C99.190135,33.0694129 99.7054296,33.6817407 100.110763,34.3656751 L109.326222,49.4214124 L100.23743,49.4214124 C98.5595553,49.4214124 97.3529176,48.7910911 96.6173331,47.5302649 L89.4377198,34.9550522 C89.1741063,34.4690456 88.7889662,34.059603 88.3197489,33.7671178 C87.8920194,33.5302653 87.2898938,33.3999047 86.5207151,33.3999047 L83.9671886,33.410921 Z" id="Fill-6"></path>
            <path d="M131.838021,32.8765897 L143.6529,32.8765897 L139.674833,21.0284586 C139.412321,20.2756717 139.114929,19.3906881 138.769809,18.3716717 C138.424688,17.3526553 138.081403,16.2510159 137.730775,15.0667537 C137.427876,16.2748848 137.090098,17.3930487 136.759664,18.4157373 C136.429229,19.4386094 136.111644,20.339934 135.80691,21.096393 L131.838021,32.8765897 Z M159.623915,49.4158694 L151.836669,49.4158694 C150.979374,49.4158694 150.256089,49.219594 149.683335,48.8083153 C149.137751,48.4300858 148.728929,47.885876 148.517635,47.2566563 L145.965944,39.7140988 L129.513963,39.7140988 L126.96778,47.2566563 C126.43119,48.5868858 125.128543,49.4470826 123.69464,49.4177055 L115.841306,49.4177055 L132.598021,6.15632764 L142.869036,6.15632764 L159.623915,49.4158694 Z" id="Fill-8"></path>
            <path d="M159.570649,6.15456543 L167.638764,6.15456543 C168.516252,6.15456543 169.223016,6.35102445 169.779247,6.74394249 C170.331808,7.13263759 170.748523,7.68492613 170.970648,8.32295893 L179.339827,31.4847432 C179.706977,32.498435 180.099827,33.5962186 180.479827,34.7896613 C180.859827,35.9831039 181.230648,37.226304 181.561083,38.5299106 C181.841953,37.226304 182.168716,35.9704351 182.532194,34.7896613 C182.895672,33.6092547 183.266494,32.5057793 183.617122,31.4847432 L191.931228,8.33213926 C192.455334,6.99401463 193.760735,6.12739166 195.197025,6.16374576 L203.329392,6.16374576 L185.987073,49.4249404 L176.909296,49.4249404 L159.570649,6.15456543 Z" id="Fill-10"></path>
            <polygon id="Fill-12" points="240.685028 6.15456543 240.685028 13.8752211 222.924159 13.8752211 222.924159 23.9735818 236.532564 23.9735818 236.532564 31.3949588 222.924159 31.3949588 222.924159 41.7081391 240.685028 41.7081391 240.685028 49.4196145 212.836719 49.4196145 212.836719 6.15456543"></polygon>
            <polygon id="Fill-14" points="262.361641 41.4051505 278.396907 41.4051505 278.396907 49.4159045 252.329274 49.4159045 252.329274 6.15452831 262.365312 6.15452831"></polygon>
            <path d="M313.83038,11.7196983 C313.679114,11.9873967 313.477732,12.2235147 313.237616,12.4155672 C313.004476,12.5813639 312.722872,12.6647213 312.437046,12.6524196 C312.069897,12.6524196 311.664196,12.4688131 311.201771,12.1181246 C310.63067,11.6961967 310.036988,11.3064 309.422747,10.9503868 C308.599414,10.4798032 307.733307,10.0881704 306.836177,9.78081305 C305.650283,9.40093108 304.409684,9.22099665 303.164679,9.24835403 C301.949047,9.22962616 300.739105,9.41580321 299.584969,9.79917371 C298.626158,10.114977 297.73894,10.6173245 296.974718,11.2772065 C296.29182,11.8843934 295.754129,12.6373639 295.401298,13.4804852 C295.041124,14.3452721 294.859018,15.2737705 294.865259,16.2107148 C294.865259,17.454282 295.171279,18.4885377 295.783134,19.3136656 C296.438129,20.1747804 297.262747,20.8923148 298.206506,21.4214689 C299.29896,22.0352656 300.449423,22.5394493 301.641192,22.9270427 C302.926216,23.354846 304.233269,23.7991739 305.580708,24.2545181 C306.927964,24.7098624 308.224187,25.229469 309.499848,25.8004854 C310.744302,26.349469 311.901008,27.0789378 312.932699,27.9652067 C313.955945,28.8555149 314.783317,29.9483411 315.363413,31.1746493 C315.974718,32.4598953 316.281288,34.009351 316.281288,35.8547805 C316.295056,37.737115 315.955626,39.6056789 315.280621,41.3629773 C314.637191,43.0448134 313.644051,44.5711347 312.367288,45.8411413 C311.024988,47.1471348 309.428438,48.1632135 307.67695,48.826584 C305.813665,49.5610102 303.700718,49.9282233 301.325443,49.9282233 C298.437076,49.9282233 295.805713,49.4023741 293.431723,48.351043 C291.131714,47.3601184 289.057501,45.9114626 287.335202,44.0930232 L289.080999,41.2232527 C289.250438,40.9974167 289.455675,40.8009576 289.688448,40.6414035 C289.927095,40.4910298 290.203375,40.4115281 290.485163,40.4118953 C290.925743,40.4118953 291.415887,40.6414035 291.986989,41.1151085 C292.656119,41.6653773 293.354805,42.1791085 294.079559,42.6535478 C295.04296,43.2770757 296.070061,43.7959478 297.143607,44.2015347 C298.338496,44.67322 299.794428,44.9027282 301.518196,44.9027282 C302.822679,44.9245774 304.121655,44.7259151 305.360235,44.3151872 C306.414689,43.958256 307.384515,43.3881577 308.209501,42.640879 C308.98951,41.9264658 309.602467,41.0486429 310.004679,40.0703871 C310.433694,39.0113445 310.645906,37.8768396 310.629017,36.7340723 C310.629017,35.3829117 310.327955,34.2757641 309.711143,33.4146494 C309.06808,32.5280133 308.243829,31.7882625 307.293462,31.2444198 C306.211472,30.6264002 305.064496,30.1301116 303.873462,29.7643674 L299.948631,28.5158428 C298.612757,28.0937313 297.300747,27.5998296 296.018293,27.0361575 C294.771636,26.4954362 293.61897,25.7597247 292.603617,24.8567476 C291.572477,23.9198034 290.749878,22.7761181 290.189791,21.5004197 C289.563801,20.1600918 289.271916,18.5057967 289.271916,16.5228459 C289.280728,13.3211147 290.571994,10.2567213 292.85695,8.01451795 C294.099569,6.81942286 295.56725,5.88321301 297.174815,5.26041956 C298.889221,4.57740316 300.846312,4.22671463 303.082071,4.22671463 C305.412921,4.19862283 307.728902,4.60182283 309.912892,5.41648514 C311.92579,6.17992121 313.761172,7.34710811 315.306505,8.84625567 L313.83038,11.7196983 Z" id="Fill-16"></path>
            <path d="M365.541662,27.0930756 C365.541662,24.3389772 365.161662,21.8841575 364.42002,19.6992394 C363.753459,17.654046 362.66945,15.7696919 361.236831,14.1653377 C359.856165,12.6447082 358.15259,11.4525508 356.250938,10.6768131 C354.301372,9.86343606 352.114995,9.45766557 349.706493,9.45766557 C347.29799,9.45766557 345.137314,9.86343606 343.189585,10.6768131 C341.282058,11.4531017 339.57114,12.6448918 338.181662,14.1653377 C336.74372,15.7685902 335.654019,17.6529443 334.981951,19.6992394 C334.230947,21.8841575 333.863797,24.3444854 333.863797,27.0930756 C333.863797,29.8416658 334.230947,32.2891412 334.981951,34.464879 C335.655855,36.5069511 336.745372,38.3872659 338.181662,39.9877643 C339.572425,41.4997643 341.283343,42.6823741 343.189585,43.4487479 C345.136763,44.2492725 347.309005,44.648984 349.706493,44.6477018 C352.114995,44.6477018 354.295865,44.2492725 356.250938,43.4487479 C358.150938,42.6829249 359.854696,41.5001315 361.236831,39.9877643 C362.667798,38.3863478 363.751624,36.5058495 364.42002,34.464879 C365.154319,32.2891412 365.534319,29.8306494 365.534319,27.0930756 L365.541662,27.0930756 Z M371.744657,27.093076 C371.744657,30.4347154 371.21229,33.5193057 370.162242,36.3064533 C369.168551,38.9951878 367.636068,41.452578 365.65915,43.5276994 C363.699671,45.5719748 361.32458,47.1722896 358.694319,48.2206831 C355.986589,49.3331553 352.981468,49.8878307 349.69915,49.8878307 C346.416831,49.8878307 343.417034,49.337011 340.70398,48.2206831 C338.082347,47.1620077 335.712946,45.5629781 333.750164,43.5276994 C331.783159,41.4468862 330.256,38.9907812 329.259922,36.3064533 C328.208038,33.5117778 327.677507,30.4310433 327.677507,27.093076 C327.677507,23.7551087 328.208038,20.6668463 329.259922,17.8760265 C330.25912,15.1874757 331.785729,12.7258625 333.750164,10.6364198 C335.712946,8.59342958 338.081613,6.98411806 340.70398,5.91222295 C343.412261,4.79093767 346.410589,4.22781634 349.69915,4.22304257 C352.974125,4.22304257 355.979246,4.79038685 358.694319,5.91222295 C361.325314,6.97383609 363.699671,8.58443285 365.65915,10.6364198 C367.631662,12.7221903 369.161024,15.1861904 370.154899,17.8796987 C371.204947,20.6716201 371.734744,23.742807 371.744657,27.093076 L371.744657,27.093076 Z" id="Fill-18"></path>
            <polygon id="Fill-20" points="413.783282 4.72974173 413.783282 9.6540697 392.321544 9.6540697 392.321544 25.2808241 410.662509 25.2808241 410.662509 30.2106603 392.328887 30.2106603 392.328887 49.4159066 386.239708 49.4159066 386.239708 4.72974173"></polygon>
            <polygon id="Fill-22" points="458.208439 4.72974173 458.208439 9.80095495 443.77211 9.80095495 443.77211 49.4159066 437.732497 49.4159066 437.732497 9.80095495 423.219066 9.80095495 423.219066 4.72974173"></polygon>
            <path d="M490.798528,34.4445899 C490.801832,35.3284718 490.85874,36.2116194 490.969252,37.0885243 C491.075726,37.9828718 491.204228,38.8770357 491.336402,39.7655078 C491.468393,40.6541636 491.593223,41.5575078 491.703552,42.4737045 C491.813513,43.3777832 491.86675,44.2877373 491.863262,45.1984258 C491.882721,46.6827012 491.645359,48.1592651 491.161822,49.5627537 C490.722528,50.8419405 489.98419,51.9975602 489.008673,52.93377 C487.939533,53.9250618 486.664238,54.6675667 485.274576,55.1076716 C483.776789,55.6072651 481.970228,55.8606421 479.879494,55.8606421 L478.333793,55.8606421 L478.333793,51.8798684 C478.320393,51.6002356 478.390702,51.3228061 478.535726,51.0830159 C478.665513,50.8678291 478.841011,50.6834881 479.049736,50.5433963 C479.237165,50.4088127 479.443687,50.3043405 479.662876,50.2329176 C479.843697,50.1699405 480.033146,50.1348717 480.224615,50.1282619 C481.468151,50.1282619 482.386025,49.7421373 482.978238,48.9697045 C483.558335,48.198557 483.848383,47.1336389 483.848383,45.7622816 C483.848383,44.6788193 483.807996,43.6451144 483.714373,42.6756718 C483.62075,41.7062291 483.530798,40.7716718 483.437175,39.8664915 C483.343552,38.9614947 483.24075,38.0799997 483.147127,37.2133767 C483.053504,36.3467538 483.024132,35.4582817 483.024132,34.5657702 C483.022847,33.8379538 483.120876,33.1132587 483.316016,32.4122489 C483.512074,31.7248259 483.816992,31.0732063 484.219204,30.4823604 C485.068422,29.2571538 486.312692,28.360603 487.743842,27.9430817 C487.007156,27.7300981 486.315813,27.3834489 485.704325,26.9203932 C485.131204,26.4861637 484.630045,25.9645375 484.219204,25.374426 C483.818277,24.7883539 483.513175,24.1418752 483.316016,23.4594096 C483.118673,22.7554621 483.02046,22.0276457 483.023948,21.2965244 C483.023948,20.4041965 483.064518,19.5192129 483.146943,18.6489179 C483.229736,17.7786228 483.330518,16.8918031 483.436992,15.9939671 C483.543465,15.096131 483.620566,14.1579015 483.714373,13.1847868 C483.807996,12.211672 483.848383,11.1853114 483.848383,10.0946884 C483.848383,8.72865566 483.558335,7.6655737 482.978054,6.88524584 C482.398141,6.10491798 481.465581,5.73036061 480.224431,5.73036061 C480.032963,5.72319995 479.843697,5.68721306 479.662876,5.6238688 C479.443136,5.55685241 479.23588,5.45384913 479.049736,5.31908192 C478.842112,5.17311471 478.666982,4.98546881 478.535726,4.76826225 C478.391436,4.52773766 478.321127,4.24994095 478.333793,3.96957374 L478.333793,0 L479.879494,0 C481.96674,0 483.776605,0.253377047 485.274576,0.756642616 C486.66332,1.18921966 487.938615,1.92474752 489.008489,2.91016391 C489.98731,3.84325243 490.726016,4.9992393 491.161822,6.27934421 C491.644074,7.69091141 491.881069,9.17426877 491.863262,10.6657048 C491.866383,11.5776786 491.813146,12.4889179 491.703552,13.3940982 C491.595059,14.312131 491.474083,15.2044589 491.336402,16.0912785 C491.198721,16.9780982 491.071871,17.8779539 490.969252,18.7700982 C490.858924,19.6471867 490.802016,20.5301506 490.798344,21.4140326 C490.796692,21.9470424 490.853967,22.4783998 490.969252,22.9985572 C491.057552,23.4434359 491.231397,23.8668326 491.481426,24.2452457 C491.7276,24.5986883 492.063359,24.8799736 492.454373,25.0604588 C492.921388,25.2738096 493.431726,25.3762621 493.945001,25.3599211 L493.945001,30.5009046 C492.757272,30.5009046 491.925678,30.8681178 491.481426,31.5876719 C491.037175,32.3074096 490.798528,33.2623472 490.798528,34.4445899" id="Fill-24"></path>
        </g>
    </g>
</svg>