<?xml version="1.0" encoding="UTF-8"?>
<svg width="424px" height="48px" viewBox="0 0 424 48" version="1.1" xmlns="http://www.w3.org/2000/svg" xmlns:xlink="http://www.w3.org/1999/xlink">
    <!-- Generator: sketchtool 57.1 (101010) - https://sketch.com -->
    <title>44A8B217-704F-49DD-869C-6EE750F82CC7</title>
    <desc>Created with sketchtool.</desc>
    <g id="Asset-Artboard-Page" stroke="none" stroke-width="1" fill="none" fill-rule="evenodd">
        <g id="Typeqast-logo" fill="#A9BAB8">
            <path d="M172.623965,28.731123 C176.298632,26.6727701 178.277299,26.1617113 185.654898,25.9075936 L191.675698,25.9075936 L191.675698,17.691123 L185.654898,17.691123 C181.180285,17.3777113 176.700019,18.1965348 172.623965,20.0628877 L172.623965,9.86994657 L197.357298,9.86994657 L197.357298,1.5405348 L164.567965,1.5405348 L164.567965,43.893476 L198.714098,43.893476 L198.714098,35.4228877 L172.623965,35.4228877 L172.623965,28.731123 Z" id="Fill-1"></path>
            <polygon id="Fill-3" points="69.7627 18.1993578 58.7104336 1.5405348 48.3365672 1.5405348 65.7205667 26.8393576 65.7205667 43.8370041 73.9178999 43.8370041 73.9178999 26.8393576 91.1605661 1.5405348 81.1258997 1.5405348"></polygon>
            <polygon id="Fill-5" points="-5.2722271e-14 10.0390757 15.0661333 10.0390757 15.0661333 43.8367217 23.4047999 43.8367217 23.4047999 10.0390757 38.9797332 10.0390757 38.9797332 1.54025241 -5.2722271e-14 1.54025241"></polygon>
            <path d="M131.80718,20.2331464 L128.132513,20.2331464 C123.64942,19.9197347 119.160673,20.7357346 115.073313,22.604911 L115.073313,10.0402057 L131.80718,10.0402057 C135.142647,10.0402057 138.308514,10.8872645 138.308514,14.9531466 C138.308514,19.5554994 135.821047,20.2331464 131.80718,20.2331464 M133.305313,1.54138181 L106.875979,1.54138181 L106.875979,43.894324 L115.073313,43.894324 L115.073313,31.0755002 C118.57838,29.2119707 120.415713,28.7037354 128.132513,28.7037354 L131.80718,28.7037354 C141.163447,28.7037354 146.845047,23.4237353 146.845047,15.0943233 C147.311447,8.07502903 141.994487,2.01008771 134.973047,1.54138181 C134.416193,1.50467593 133.862167,1.50467593 133.305313,1.54138181" id="Fill-7"></path>
            <path d="M353.333342,16.9572876 C345.305609,16.9572876 344.316276,15.2349347 344.316276,12.6937582 C344.316276,10.1525818 348.641076,8.11964064 352.796276,8.11964064 C357.236969,7.84293476 361.629609,9.16434652 365.177076,11.8466994 L370.83041,5.38081714 C365.476703,1.68481717 359.074303,-0.195653403 352.570142,0.016111301 C343.383476,0.016111301 335.355742,5.0984642 335.355742,12.7502288 C335.355742,21.9266993 342.535476,25.3149346 352.570142,25.3149346 C361.276276,25.3149346 365.459743,25.9925817 365.459743,29.9172875 C365.459743,34.3219934 360.117343,36.693758 352.570142,36.693758 C345.022942,36.693758 342.224542,32.458464 339.708809,29.7478757 L333.688009,35.8466992 C338.397235,41.4146992 345.271689,44.6956403 352.570142,44.853758 C364.442143,44.853758 373.657076,40.1102286 373.657076,29.9172875 C373.657076,23.1125817 370.971743,16.9572876 353.333342,16.9572876" id="Fill-9"></path>
            <path d="M251.374612,31.0749339 C249.005865,28.7116398 245.986985,27.1078752 242.699572,26.4725811 L238.513279,33.8984632 C240.319519,34.175169 242.032479,34.8697573 243.519305,35.9314043 L243.686079,35.9314043 C241.978772,36.5525807 240.164052,36.8434043 238.346505,36.7784631 C230.318772,36.7784631 222.288212,32.5431691 222.288212,22.8584635 C222.288212,13.173758 230.146345,8.93846398 238.174079,8.93846398 C246.201812,8.93846398 254.568745,13.0043462 254.568745,22.51964 C254.633759,25.6735223 253.491785,28.734228 251.374612,31.0749339 M238.346504,0.185523075 C225.793278,0.185523075 213.751678,8.48669933 213.751678,22.604346 C213.751678,36.7219927 225.626505,45.1925807 238.174078,45.1925807 C242.917224,45.1586984 247.569917,43.9361102 251.71381,41.6349337 C253.68117,43.2217572 256.066877,44.1986984 258.585437,44.4584631 L262.879143,37.2019927 C261.344263,37.0890515 259.85461,36.6259927 258.526077,35.8466986 C261.43189,31.9191693 262.961117,27.1445812 262.879143,22.2655225 C262.879143,7.66787582 250.727304,0.185523075 238.346504,0.185523075" id="Fill-11"></path>
            <polygon id="Fill-13" points="385.020286 1.5408172 385.020286 10.0396408 400.086419 10.0396408 400.086419 43.8344645 408.283752 43.8344645 408.283752 10.0396408 424.000019 10.0396408 424.000019 1.5408172"></polygon>
            <path d="M305.28,29.7487237 C299.476853,29.5821354 293.727413,30.8640178 288.546133,33.4729589 L298.382933,14.1346061 L306.410667,29.776959 L305.28,29.7487237 Z M291.146667,0.694605421 L293.973333,5.97460547 L274.186667,44.007547 L282.666667,44.007547 L282.836267,43.4993117 C284.1648,41.6357823 294.877867,37.5416646 305.082133,37.5416646 L310.085333,37.5416646 L313.449066,43.8353117 L322.466133,43.8353117 L300.050667,0.694605421 L291.146667,0.694605421 Z" id="Fill-15"></path>
        </g>
    </g>
</svg>