<?xml version="1.0" encoding="UTF-8"?>
<svg width="670px" height="125px" viewBox="0 0 670 125" version="1.1" xmlns="http://www.w3.org/2000/svg" xmlns:xlink="http://www.w3.org/1999/xlink">
    <!-- Generator: sketchtool 57.1 (101010) - https://sketch.com -->
    <title>077DA226-88A5-4C6D-830E-69EC5CA75444</title>
    <desc>Created with sketchtool.</desc>
    <g id="Asset-Artboard-Page" stroke="none" stroke-width="1" fill="none" fill-rule="evenodd">
        <g id="Zagrebacka-banka-logo" fill="#A9BAB8">
            <path d="M70.2425514,15.806172 C69.8068288,17.4841223 67.1971787,20.0324658 63.0742126,23.7258185 C63.0742126,23.7258185 56.2642907,30.0047507 51.2886203,34.3218075 C46.317635,38.6411916 30.4114191,51.9507592 27.316852,54.3524856 C24.2246274,56.7588666 12.2375719,65.6187239 11.457488,66.2005375 C10.6797467,66.7800238 8.63660182,68.1049485 7.49917374,67.4337751 C6.36174565,66.7626018 5.79954922,64.5843638 6.40159598,63.7581885 C6.38814189,64.1480422 6.51856812,64.5488668 6.89305105,64.9354532 C8.04454259,66.1172713 10.1499324,64.4195441 10.9039663,63.853635 C11.6602714,63.2854532 23.2819326,54.6331807 26.2798987,52.2831808 C29.280136,49.9377263 44.7014921,36.9399995 49.5209497,32.7218178 C54.3449498,28.5059088 60.9472888,22.3740908 60.9472888,22.3740908 C64.944577,18.7672727 67.4746787,16.2786364 67.8971194,14.6400001 C68.0690479,13.9758259 68.368459,12.7880705 67.1031907,11.7619571 C70.9855797,12.8954733 70.4880564,14.8646145 70.2425514,15.806172 Z M32.4152564,14.9335481 C33.7962567,15.80786 36.269183,17.2647104 37.1407123,17.8104546 C37.6693813,18.1421809 37.9112575,18.4346081 37.9772582,18.7205406 C36.4668751,17.8108885 33.4508969,16.0414175 32.7844672,15.5362105 C32.617411,15.4099569 32.4932878,15.208979 32.4247751,14.9673571 Z" id="Combined-Shape"></path>
            <path d="M67.2848729,19.7938543 C69.6190671,24.526745 70.9314258,29.855355 70.9314258,35.4909095 C70.9314258,55.0909097 55.0535609,70.981819 35.4645773,70.981819 C27.5690751,70.981819 20.2762372,68.399647 14.3831585,64.0332366 C18.3393023,61.0990346 25.1045362,56.0741184 27.316852,54.3524858 C30.4114191,51.9507594 46.317635,38.6411918 51.2886203,34.3218077 C56.2642907,30.0047509 63.0742126,23.7258187 63.0742126,23.7258187 C64.7389942,22.2345075 66.1570442,20.929879 67.2848729,19.7938543 Z M35.4645773,-6.78245339e-14 C45.0361953,-6.78245339e-14 53.7217765,3.79344282 60.1019536,9.9599982 C52.0100498,9.47043239 35.1868675,10.8814618 33.1434239,11.29 C30.9698985,11.7240909 30.8404409,13.8127272 31.5808476,14.3763635 C31.739662,14.4976333 32.0361023,14.6934966 32.4146561,14.9331679 C32.4823321,15.1909546 32.6099812,15.4043421 32.7844672,15.5362107 C33.4511356,16.0415987 36.4690363,17.8121566 37.9784133,18.7228258 C38.0493272,19.0347129 37.9103282,19.3401311 37.7062375,19.6809088 C37.3133223,20.3331815 33.2161019,25.6354541 33.2161019,25.6354541 C31.7403216,27.4095223 14.6210135,51.5506299 9.14153468,59.2765624 C3.46024458,52.9822684 -5.29173692e-13,44.6407479 -5.29173692e-13,35.4909095 C-5.29173692e-13,15.8886365 15.8778649,-6.78245339e-14 35.4645773,-6.78245339e-14 Z" id="Combined-Shape"></path>
            <path d="M90.8908386,116.010679 C86.1054486,116.010679 83.0666011,112.881133 83.0666011,108.806133 L83.0666011,91.6811333 L86.4324995,91.6811333 L86.4324995,108.772042 C86.4324995,111.797042 88.5878555,113.501588 91.0770759,113.501588 C93.5231437,113.501588 95.6784997,111.797042 95.6784997,108.772042 L95.6784997,91.6811333 L98.751415,91.6811333 L98.751415,108.806133 C98.751415,112.881133 95.7148387,116.010679 90.8908386,116.010679 L90.8908386,116.010679 Z M112.862297,115.624315 L112.862297,102.156133 C112.862297,100.417497 112.094636,98.4993151 108.731008,98.4993151 C106.904975,98.4993151 106.026025,98.7470424 105.00172,99.1606787 L105.00172,115.624315 L101.783449,115.624315 L101.783449,97.8402242 C103.539076,97.0379515 105.842059,96.5152242 108.989924,96.5152242 C114.472568,96.5152242 116.078297,99.4061333 116.078297,102.085679 L116.078297,115.624315 L112.862297,115.624315 Z M120.722872,93.2470426 C119.664499,93.2470426 118.821889,92.476588 118.821889,91.5743153 C118.821889,90.6334062 119.664499,89.8720426 120.722872,89.8720426 C121.747177,89.8720426 122.585245,90.6334062 122.585245,91.5743153 C122.585245,92.476588 121.747177,93.2470426 120.722872,93.2470426 L120.722872,93.2470426 Z M119.117144,115.624316 L122.333144,115.624316 L122.333144,96.8629517 L119.117144,96.8629517 L119.117144,115.624316 Z M134.138768,115.96977 C128.106497,115.96977 124.708802,110.442497 124.708802,103.651588 C124.708802,97.0061334 128.074701,91.3288607 134.138768,91.3288607 C136.371344,91.3288607 137.945277,91.8879516 139.037717,92.6561334 L138.233717,94.5334061 C137.468327,94.0811334 136.298666,93.592497 134.724734,93.592497 C129.898463,93.592497 128.215514,98.5743152 128.215514,103.651588 C128.215514,108.840224 130.080158,113.574315 134.688395,113.574315 C136.225989,113.574315 137.245751,113.185679 138.199649,112.631133 L139.074056,114.649315 C137.981616,115.451588 136.187378,115.96977 134.138768,115.96977 L134.138768,115.96977 Z M148.142906,98.8834062 C146.532635,98.4311334 144.706601,98.5743153 143.645957,99.2356789 L143.645957,115.624316 L140.429957,115.624316 L140.429957,97.8743152 C142.365008,96.9334061 144.229652,96.4515879 148.910567,96.5493151 L148.142906,98.8834062 Z M151.620092,107.410679 C151.983482,111.658407 154.06616,113.747043 157.60921,113.747043 C159.841787,113.747043 161.452058,113.224316 162.476363,112.667498 L163.316702,114.68568 C162.110702,115.383407 160.023482,115.969771 157.357109,115.969771 C152.206058,115.969771 148.585787,112.881134 148.585787,106.19477 C148.585787,99.8220425 151.872193,96.5152242 156.514499,96.5152242 C161.231753,96.5152242 164.084363,99.4402243 164.011685,105.703861 L151.620092,107.410679 Z M156.405483,98.4993154 C153.555144,98.4993154 151.431584,100.692497 151.508805,105.774315 L160.943313,104.417497 C160.943313,100.16977 159.219483,98.4993154 156.405483,98.4993154 L156.405483,98.4993154 Z M173.954937,115.969771 C168.324666,115.969771 165.292632,112.212952 165.292632,106.542498 C165.292632,100.312952 168.767547,96.6902246 173.84592,96.6902246 C174.942903,96.6902246 175.896801,96.828861 176.952903,97.1106792 L176.952903,88.3038608 L180.137106,88.3038608 L180.137106,114.649316 C178.819818,115.419771 176.69853,115.969771 173.954937,115.969771 L173.954937,115.969771 Z M176.952906,98.8152248 C176.148906,98.6038612 175.344906,98.4652248 174.504567,98.4652248 C169.930398,98.4652248 168.472296,102.226588 168.472296,106.301589 C168.472296,110.715225 170.078025,113.953861 174.098025,113.953861 C175.419856,113.953861 176.332872,113.815225 176.952906,113.433407 L176.952906,98.8152248 Z M184.772599,93.2470426 C183.714226,93.2470426 182.876159,92.476588 182.876159,91.5743153 C182.876159,90.6334062 183.714226,89.8720426 184.772599,89.8720426 C185.801447,89.8720426 186.641786,90.6334062 186.641786,91.5743153 C186.641786,92.476588 185.801447,93.2470426 184.772599,93.2470426 L184.772599,93.2470426 Z M183.166875,115.624316 L186.385147,115.624316 L186.385147,96.8629517 L183.166875,96.8629517 L183.166875,115.624316 Z M195.379037,115.797043 C191.795105,115.797043 190.480088,113.360679 190.480088,111.065225 L190.480088,98.7811337 L188.211173,98.7811337 L188.211173,96.8629519 L190.480088,96.8629519 L190.480088,92.5515881 L193.700631,91.610679 L193.700631,96.8629519 L197.134665,96.8629519 L197.134665,98.7811337 L193.700631,98.7811337 L193.700631,110.992498 C193.700631,112.490225 194.391071,113.712952 196.183037,113.712952 C196.512359,113.712952 196.805343,113.642498 197.134665,113.574316 L197.134665,115.524316 C196.769004,115.624316 196.183037,115.797043 195.379037,115.797043 L195.379037,115.797043 Z M216.398873,115.96977 C210.552839,115.96977 205.835585,111.937952 205.835585,103.476588 C205.835585,95.5084061 210.661856,91.3288607 216.398873,91.3288607 C219.140195,91.3288607 221.075246,91.8538607 222.285788,92.5811334 L221.295551,94.5652243 C220.459754,94.0811334 218.99711,93.592497 216.766805,93.592497 C212.119958,93.592497 209.308229,96.7970425 209.308229,103.758406 C209.308229,110.267497 212.417483,113.747043 216.362534,113.747043 C218.079551,113.747043 218.99711,113.465224 219.505856,113.185679 L219.505856,104.210679 L215.226941,104.210679 L215.226941,102.192497 L222.762738,102.192497 L222.762738,114.649315 C221.222873,115.485679 219.542195,115.96977 216.398873,115.96977 L216.398873,115.96977 Z M233.291953,98.8834062 C231.679411,98.4311334 229.857919,98.5743153 228.792733,99.2356789 L228.792733,115.624316 L225.574462,115.624316 L225.574462,97.8743152 C227.511784,96.9334061 229.376428,96.4515879 234.061886,96.5493151 L233.291953,98.8834062 Z M241.447782,115.969771 C236.074155,115.969771 233.732561,111.760679 233.732561,106.262952 C233.732561,100.658406 236.108222,96.5152242 241.4069,96.5152242 C246.821409,96.5152242 249.122121,100.658406 249.122121,106.262952 C249.122121,111.760679 246.782799,115.969771 241.447782,115.969771 L241.447782,115.969771 Z M241.447781,98.4652248 C237.679883,98.4652248 236.950832,102.46977 236.950832,106.262952 C236.950832,110.056134 237.754832,113.849316 241.447781,113.849316 C245.213408,113.849316 245.903849,110.022043 245.903849,106.262952 C245.903849,102.501588 245.213408,98.4652248 241.447781,98.4652248 L241.447781,98.4652248 Z M258.154632,116.010679 C253.212531,116.010679 251.170734,113.642498 251.170734,109.881134 L251.170734,96.8629517 L254.389005,96.8629517 L254.389005,109.987952 C254.389005,112.178861 255.631344,113.849316 258.338598,113.849316 C259.876192,113.849316 260.968632,113.606134 261.88392,113.083407 L261.88392,96.8629517 L265.09992,96.8629517 L265.09992,114.510679 C263.641819,115.310679 261.332022,116.010679 258.154632,116.010679 L258.154632,116.010679 Z M274.164229,115.90386 C273.030907,115.90386 271.824907,115.697042 271.095856,115.451587 L271.095856,123.110678 L267.913924,123.110678 L267.913924,97.8402242 C269.228941,97.1106787 271.243483,96.5152242 274.052941,96.5152242 C279.615076,96.5152242 282.758398,100.20386 282.758398,105.949315 C282.758398,112.17886 279.356161,115.90386 274.164229,115.90386 L274.164229,115.90386 Z M273.91213,98.3606794 C272.70613,98.3606794 271.858977,98.5743157 271.095859,98.8834066 L271.095859,113.606134 C271.720435,113.849316 272.524435,114.026589 273.505588,114.026589 C277.498333,114.026589 279.542401,111.065225 279.542401,106.087952 C279.542401,101.31977 278.075215,98.3606794 273.91213,98.3606794 L273.91213,98.3606794 Z" id="Fill-5"></path>
            <path d="M98.7323338,58.474545 L124.873689,58.474545 L124.873689,58.5609086 C124.873689,63.3359086 120.742401,67.3018176 115.566367,67.3018176 L83.1156561,67.3018176 L107.067588,14.0995454 L84.7327408,14.0995454 L84.7327408,13.6927272 C84.7327408,9.56318177 88.2916899,6.24499998 92.7432152,6.24499998 L121.796232,6.24499998 L98.7323338,58.474545 Z M152.49359,38.7154546 L152.49359,35.7177272 C152.49359,29.9699999 148.930099,28.4313635 143.756336,28.4313635 C139.459251,28.4313635 135.173522,30.0495453 130.404031,32.5631817 L130.404031,25.351818 C133.233929,23.976818 138.573489,21.9518179 145.532404,21.9518179 C154.678471,21.9518179 162.284675,26.5699998 162.284675,37.9063636 L162.284675,66.7359095 C159.293522,67.3018186 152.332336,67.9495459 148.123827,67.9495459 L145.857183,67.9495459 C133.878946,67.9495459 127.644539,62.9290913 127.644539,54.4290912 C127.644539,42.7609092 138.97776,40.0131818 152.49359,38.7154546 L152.49359,38.7154546 Z M152.493588,43.7359111 C143.025012,44.6313656 137.276639,46.5745475 137.276639,54.1018202 C137.276639,59.6927293 140.674334,62.2018202 146.50447,62.2018202 C148.771114,62.2018202 151.442029,62.0359111 152.493588,61.7972747 L152.493588,43.7359111 Z M201.230977,67.3836348 C201.230977,79.2040891 194.026774,85.2836343 183.100096,85.2836343 C176.951995,85.2836343 171.208164,83.9859071 167.808198,81.8768163 L167.808198,72.9745438 C172.177961,76.3699982 178.326062,77.5859073 181.405791,77.5859073 C188.19891,77.5859073 190.708571,73.6131801 190.708571,68.2768166 L190.708571,66.0881803 C189.009723,66.9745439 186.584096,67.3018167 183.265893,67.3018167 C172.741215,67.3018167 165.462063,58.7154533 165.462063,45.4381809 C165.462063,31.2631813 172.584503,21.9518179 186.743079,21.9518179 C192.327926,21.9518179 197.42674,23.4109088 201.230977,25.2722724 L201.230977,67.3018167 L201.230977,67.3836348 Z M190.708569,29.4836371 C189.577519,28.9995462 187.955892,28.7563644 186.254773,28.7563644 C179.136875,28.7563644 175.984468,34.5859099 175.984468,44.9518192 C175.984468,54.9972739 179.055112,60.581365 185.773281,60.581365 C187.8764,60.581365 189.413993,60.1768195 190.708569,59.4495468 L190.708569,29.4836371 Z M221.660302,21.9518179 C223.443184,21.9518179 225.705285,22.1131816 227.726641,22.4404543 L227.726641,31.1063636 C224.001895,28.4313635 219.066607,29.3245454 216.881726,30.4540909 L216.881726,57.0972733 C216.881726,62.6859098 212.271217,67.301819 206.68637,67.301819 L206.118573,67.301819 L206.118573,25.4336362 C210.327082,23.4109089 214.621895,21.9518179 221.660302,21.9518179 L221.660302,21.9518179 Z M265.3602,45.1131819 L238.410302,48.8404547 C239.300607,56.2063639 243.025353,60.0972731 249.823014,60.0972731 C257.347454,60.0972731 261.153963,57.6654549 263.902098,55.722273 L263.902098,64.7109095 C261.153963,66.1609095 256.05742,67.9495459 248.773725,67.9495459 C235.578133,67.9495459 227.726641,59.0427276 227.726641,44.7904546 C227.726641,30.9404544 235.017149,21.9518179 246.988573,21.9518179 C258.803285,21.9518179 265.3602,29.8063635 265.3602,43.4154546 L265.3602,45.1131819 Z M255.973392,38.9586357 C255.64407,29.9699994 250.061493,28.9995448 247.074883,28.9995448 L246.66607,28.9995448 C240.597459,29.1586357 237.76529,33.4518175 237.76529,41.4699993 L255.973392,38.9586357 Z M279.845825,6.24499998 L279.845825,24.7086361 C281.78996,24.1404543 284.054333,23.7359088 286.484503,23.7359088 C297.888129,23.7359088 305.741892,32.0745451 305.741892,46.4927267 C305.741892,60.3427265 298.455926,67.9495446 285.671418,67.9495446 L283.813587,67.9495446 C280.413621,67.9495446 272.319113,67.3836355 269.164435,66.7359082 L269.164435,16.5245453 C269.164435,10.8586363 273.693181,6.24499998 279.362062,6.24499998 L279.845825,6.24499998 Z M279.845832,61.0677272 C280.897391,61.310909 283.404781,61.4677272 284.940103,61.4677272 C292.307832,61.4677272 295.950815,55.8836364 295.950815,45.8404549 C295.950815,36.6086369 292.875629,29.3245462 284.213323,29.3245462 C282.678001,29.3245462 281.222171,29.6450007 279.845832,30.0495462 L279.845832,61.0677272 Z M490.795902,6.24499998 L490.795902,24.7086361 C492.740038,24.1404543 495.006682,23.7359088 497.432309,23.7359088 C508.838207,23.7359088 516.69197,32.0745451 516.69197,46.4927267 C516.69197,60.3427265 509.406004,67.9495446 496.623767,67.9495446 L494.763665,67.9495446 C491.363699,67.9495446 483.269191,67.3836355 480.114513,66.7359082 L480.114513,16.5245453 C480.114513,10.8586363 484.64553,6.24499998 490.307597,6.24499998 L490.795902,6.24499998 Z M490.795909,61.0677272 C491.84974,61.310909 494.354859,61.4677272 495.887909,61.4677272 C503.260181,61.4677272 506.900893,55.8836364 506.900893,45.8404549 C506.900893,36.6086369 503.825706,29.3245462 495.165672,29.3245462 C493.628079,29.3245462 492.167706,29.6450007 490.795909,30.0495462 L490.795909,61.0677272 Z M333.17329,38.7154546 L333.17329,35.7177272 C333.17329,29.9699999 329.61207,28.4313635 324.436036,28.4313635 C320.145765,28.4313635 315.855494,30.0495453 311.079189,32.5631817 L311.079189,25.351818 C313.913629,23.976818 319.253189,21.9518179 326.214375,21.9518179 C335.362714,21.9518179 342.964375,26.5699998 342.964375,37.9063636 L342.964375,66.7359095 C339.975494,67.3018186 333.012036,67.9495459 328.803528,67.9495459 L326.536883,67.9495459 C314.563189,67.9495459 308.328782,62.9290913 308.328782,54.4290912 C308.328782,42.7609092 319.655189,40.0131818 333.17329,38.7154546 L333.17329,38.7154546 Z M333.173285,43.7359111 C323.697895,44.6313656 317.958607,46.5745475 317.958607,54.1018202 C317.958607,59.6927293 321.354031,62.2018202 327.186438,62.2018202 C329.453082,62.2018202 332.123997,62.0359111 333.173285,61.7972747 L333.173285,43.7359111 Z M356.293955,44.6313637 C356.293955,54.3450003 362.285345,60.5040913 368.676464,60.5040913 C370.050532,60.5040913 374.427108,60.0109094 377.011718,55.8836366 L377.011718,64.9540913 C375.233379,66.6540914 371.994667,67.9495459 366.736871,67.9495459 C356.293955,67.9495459 346.584633,59.2836367 346.584633,44.7904546 C346.584633,30.2949999 356.859481,21.9518179 366.814091,21.9518179 C372.160464,21.9518179 375.3106,23.4904543 377.011718,24.9495452 L377.011718,32.235909 C374.256769,29.4836362 371.833413,28.9177271 369.003515,28.9177271 C361.799311,28.9177271 356.293955,35.0722727 356.293955,44.6313637 L356.293955,44.6313637 Z M377.738495,5.10863649 L369.482732,13.447273 C368.59697,14.4200003 367.381885,14.8268185 366.248563,14.8268185 C365.040292,14.8268185 363.904698,14.4200003 363.012122,13.447273 L354.758631,5.10863649 L355.805648,4.13590919 C356.293953,3.64954555 357.023004,3.40636373 357.833817,3.40636373 C358.481105,3.40636373 359.130665,3.56772737 359.616698,3.97454555 L366.248563,9.07681838 L372.644224,4.13590919 C373.205207,3.73363646 373.859309,3.40636373 374.66558,3.40636373 C375.310597,3.40636373 375.960156,3.56772737 376.448461,3.97454555 L377.738495,5.10863649 Z M391.231637,56.774545 C391.231637,62.6040904 386.70062,67.3018176 380.627468,67.3018176 L380.550248,67.3018176 L380.550248,16.7699999 C380.550248,10.9404545 385.085807,6.24499998 391.152146,6.24499998 L391.231637,6.24499998 L391.231637,43.0063633 L404.663434,23.0859089 L414.777027,23.0859089 L400.94096,43.3313633 L417.125434,67.3018176 L405.799027,67.3018176 L391.231637,44.8722724 L391.231637,56.774545 Z M440.677608,38.7154546 L440.677608,35.7177272 C440.677608,29.9699999 437.116388,28.4313635 431.938083,28.4313635 C427.643269,28.4313635 423.355269,30.0495453 418.583507,32.5631817 L418.583507,25.351818 C421.415676,23.976818 426.755235,21.9518179 433.720964,21.9518179 C442.86476,21.9518179 450.470964,26.5699998 450.470964,37.9063636 L450.470964,66.7359095 C447.472998,67.3018186 440.516354,67.9495459 436.307845,67.9495459 L434.03893,67.9495459 C422.062964,67.9495459 415.837642,62.9290913 415.837642,54.4290912 C415.837642,42.7609092 427.161778,40.0131818 440.677608,38.7154546 L440.677608,38.7154546 Z M440.677623,43.7359111 C431.209047,44.6313656 425.462946,46.5745475 425.462946,54.1018202 C425.462946,59.6927293 428.858369,62.2018202 434.688505,62.2018202 C436.950606,62.2018202 439.623793,62.0359111 440.677623,61.7972747 L440.677623,43.7359111 Z M543.932587,38.7154546 L543.932587,35.7177272 C543.932587,29.9699999 540.371366,28.4313635 535.19079,28.4313635 C530.905061,28.4313635 526.61479,30.0495453 521.840756,32.5631817 L521.840756,25.351818 C524.679739,23.976818 530.019298,21.9518179 536.978214,21.9518179 C546.115197,21.9518179 553.728214,26.5699998 553.728214,37.9063636 L553.728214,66.7359095 C550.73479,67.3018186 543.771332,67.9495459 539.569637,67.9495459 L537.298451,67.9495459 C525.322485,67.9495459 519.09262,62.9290913 519.09262,54.4290912 C519.09262,42.7609092 530.421298,40.0131818 543.932587,38.7154546 L543.932587,38.7154546 Z M543.932583,43.7359111 C534.468549,44.6313656 528.720176,46.5745475 528.720176,54.1018202 C528.720176,59.6927293 532.117871,62.2018202 537.945735,62.2018202 C540.210108,62.2018202 542.885566,62.0359111 543.932583,61.7972747 L543.932583,43.7359111 Z M576.546811,21.9518179 C591.681998,21.9518179 594.107625,30.4540909 594.107625,35.5586364 L594.107625,67.301819 L593.621591,67.301819 C588.034472,67.301819 583.260439,62.6040916 583.260439,57.0200006 L583.260439,35.7177273 C583.260439,32.7222727 582.054439,29.1586363 576.147083,29.1586363 C573.392133,29.1586363 571.772778,29.4836363 569.987625,30.1336363 L569.987625,67.301819 L559.144981,67.301819 L559.144981,25.2722725 C563.760032,23.2472725 571.204981,21.9518179 576.546811,21.9518179 L576.546811,21.9518179 Z M610.407941,56.774545 C610.407941,62.6040904 605.876923,67.3018176 599.806042,67.3018176 L599.724279,67.3018176 L599.724279,16.7699999 C599.724279,10.9404545 604.255296,6.24499998 610.326178,6.24499998 L610.407941,6.24499998 L610.407941,43.0063633 L623.842009,23.0859089 L633.953332,23.0859089 L620.114992,43.3313633 L636.30401,67.3018176 L624.970789,67.3018176 L610.407941,44.8722724 L610.407941,56.774545 Z M659.851643,38.7154546 L659.851643,35.7177272 C659.851643,29.9699999 656.290423,28.4313635 651.109846,28.4313635 C646.826389,28.4313635 642.533846,30.0495453 637.75527,32.5631817 L637.75527,25.351818 C640.591982,23.976818 645.931541,21.9518179 652.890457,21.9518179 C662.036525,21.9518179 669.644999,26.5699998 669.644999,37.9063636 L669.644999,66.7359095 C666.649304,67.3018186 659.69266,67.9495459 655.48188,67.9495459 L653.217507,67.9495459 C641.241541,67.9495459 635.007134,62.9290913 635.007134,54.4290912 C635.007134,42.7609092 646.333541,40.0131818 659.851643,38.7154546 L659.851643,38.7154546 Z M659.851655,43.7359111 C650.383079,44.6313656 644.636977,46.5745475 644.636977,54.1018202 C644.636977,59.6927293 648.036943,62.2018202 653.860265,62.2018202 C656.12918,62.2018202 658.802367,62.0359111 659.851655,61.7972747 L659.851655,43.7359111 Z" id="Fill-8"></path>
        </g>
    </g>
</svg>