<?xml version="1.0" encoding="UTF-8"?>
<svg width="160px" height="30px" viewBox="0 0 160 30" version="1.1" xmlns="http://www.w3.org/2000/svg" xmlns:xlink="http://www.w3.org/1999/xlink">
    <!-- Generator: sketchtool 63.1 (101010) - https://sketch.com -->
    <title>C77653EE-1864-44A7-A573-48524DD4C535</title>
    <desc>Created with sketchtool.</desc>
    <defs>
        <polygon id="path-1" points="0 0.00469638092 19.8987194 0.00469638092 19.8987194 20.1290311 0 20.1290311"></polygon>
        <polygon id="path-3" points="0.00430065722 0.0282854929 19.1749141 0.0282854929 19.1749141 19.1999989 0.00430065722 19.1999989"></polygon>
        <polygon id="path-5" points="0.00136467155 0.0257934051 16.7366315 0.0257934051 16.7366315 28.6541892 0.00136467155 28.6541892"></polygon>
        <polygon id="path-7" points="0.0687708527 0.02506007 19.1833499 0.02506007 19.1833499 19.1999989 0.0687708527 19.1999989"></polygon>
        <polygon id="path-9" points="0.0407815614 0.133116334 17.5616682 0.133116334 17.5616682 25.5749985 0.0407815614 25.5749985"></polygon>
        <polygon id="path-11" points="0.0674403311 0.0374726816 17.4614316 0.0374726816 17.4614316 19.9679988 0.0674403311 19.9679988"></polygon>
    </defs>
    <g id="Desktop" stroke="none" stroke-width="1" fill="none" fill-rule="evenodd">
        <g id="Web_desktop" transform="translate(-251.000000, -10217.000000)">
            <g id="Sponzori-sekcija" transform="translate(220.000000, 5234.000000)">
                <g id="Srebrni-sekcija" transform="translate(0.000000, 4848.000000)">
                    <g id="Arsfutura-logo" transform="translate(31.000000, 135.000000)">
                        <path d="M155.114304,19.9767527 C155.112547,17.0312632 153.645564,15.0126838 151.416988,14.5133218 C149.163825,14.0085578 146.965265,14.9286359 145.964338,16.7954842 C144.767026,19.0288704 145.137763,21.9972386 146.84488,23.529643 C148.444064,24.9651302 150.297911,25.2439659 152.241169,24.399356 C154.30593,23.5018389 155.044212,21.7261881 155.114304,19.9767527 L155.114304,19.9767527 Z M147.708656,29.5999994 C147.606791,29.3384806 147.343986,29.4209397 147.160054,29.3704156 C143.153152,28.2715966 140.440479,25.0868329 140.064472,20.9549812 C139.752651,17.5264944 140.539789,14.443732 143.126968,11.9914083 C146.051674,9.21909882 150.779454,8.79885935 153.737051,11.036853 C154.112099,11.3207728 154.451543,11.6512447 154.957195,12.0897554 C154.957195,11.5621126 154.98338,11.1599855 154.950649,10.7627838 C154.908658,10.2551599 155.074867,10.0757836 155.617082,10.087223 C157.07736,10.1185225 158.538915,10.0835688 159.999992,10.0749892 L159.999992,29.1238328 C158.805552,29.1214495 157.611273,29.1177953 156.416674,29.1166831 C154.992002,29.115571 154.993439,29.1163654 154.965498,27.66785 C154.962624,27.5197731 155.020102,27.3484997 154.802322,27.2023295 C153.700009,28.506899 152.197581,29.1551323 150.581951,29.5999994 L147.708656,29.5999994 Z" id="Fill-1" fill="#A9BAB8"></path>
                        <g id="Group-5" transform="translate(0.000000, 9.599999)">
                            <mask id="mask-2" fill="white">
                                <use xlink:href="#path-1"></use>
                            </mask>
                            <g id="Clip-4"></g>
                            <path d="M5.24007905,10.0198483 C5.21976159,13.0791415 7.29261861,15.3323149 10.1335708,15.3391998 C12.9716659,15.345894 15.0329356,13.1673258 15.0588086,10.133753 C15.0849991,7.06279774 13.0242056,4.82064733 10.168174,4.81279946 C7.3499202,4.80515117 5.26007905,7.01311417 5.24007905,10.0198483 L5.24007905,10.0198483 Z M-7.93650746e-05,8.31766709 C0.359761883,7.6962232 0.388809501,6.97189759 0.618015836,6.30700055 C2.22261892,1.65320052 7.02055514,-0.976992876 11.5415072,0.346730548 C12.836904,0.725987054 13.8769039,1.51501312 14.9048404,2.61188556 C14.9048404,2.00386102 14.9381737,1.56038332 14.8961102,1.12425431 C14.8465864,0.61064451 15.0573801,0.499775085 15.5296022,0.512235914 C16.7189673,0.543707494 17.9119831,0.568629152 19.0989671,0.505366483 C19.809602,0.467504734 19.9016655,0.753305024 19.8987194,1.37235261 C19.875475,6.18702513 19.8857925,11.0016977 19.8857925,15.8165299 C19.8857925,16.8806528 19.8667448,17.9450951 19.8945226,19.0084191 C19.9064274,19.468032 19.8159512,19.6715589 19.2942052,19.6554237 C18.0257926,19.6164437 16.7551577,19.6263484 15.4862689,19.6517494 C15.0542055,19.6605358 14.8551578,19.5626065 14.8964277,19.086539 C14.9351578,18.6416235 14.9048404,18.1904776 14.9048404,17.6209538 C14.442142,18.02641 14.0608722,18.3697218 13.6697611,18.7015313 C12.7426183,19.4878415 11.5937295,19.7766772 10.4738883,20.129095 L7.6173805,20.129095 C7.52690431,19.8631042 7.26341227,19.9303607 7.08436466,19.8816357 C3.66912677,18.9534637 1.5470634,16.7113133 0.465158702,13.3780416 C0.298492046,12.864272 0.347222202,12.285802 -7.93650746e-05,11.8292245 L-7.93650746e-05,8.31766709 Z" id="Fill-3" fill="#A9BAB8" mask="url(#mask-2)"></path>
                        </g>
                        <g id="Group-8" transform="translate(105.599994, 9.599999)">
                            <mask id="mask-4" fill="white">
                                <use xlink:href="#path-3"></use>
                            </mask>
                            <g id="Clip-7"></g>
                            <path d="M7.72075743,19.2000301 C7.65035744,19.0036594 7.4539785,19.0489276 7.30138904,19.0153667 C2.44799985,17.9532789 0.129852624,15.3740791 0.0368842083,10.7738842 C-0.0311578929,7.39749419 0.0319999981,4.01891878 0.0104421046,0.641436059 C0.00724210483,0.154567796 0.176168411,0.0217287792 0.683621012,0.0321873152 C2.05743146,0.060440972 3.43326295,0.0685580447 4.80639971,0.0292214617 C5.38930494,0.0126751212 5.50012599,0.214665353 5.49709441,0.7026263 C5.47688388,3.76838221 5.4834523,6.83429423 5.49035757,9.89989404 C5.49153651,10.4187623 5.48311546,10.9455915 5.57170493,11.4546257 C5.91696807,13.4373768 7.48547324,14.5709572 9.74736784,14.5135133 C11.9348203,14.4579426 13.4305676,13.2402256 13.6272834,11.2459232 C13.8728413,8.75850875 13.6852202,6.26110402 13.7273255,3.76838221 C13.7453465,2.70332862 13.7362518,1.63796283 13.7271571,0.572753137 C13.7244623,0.25056779 13.7620202,0.0300019494 14.2140623,0.0356214613 C15.700378,0.0538848748 17.1873674,0.0501385336 18.6738515,0.0365580466 C19.0517883,0.0331239005 19.1514936,0.181260477 19.149641,0.502665336 C19.129262,4.19171877 19.2621462,7.88732831 19.0661041,11.5679525 C18.8446305,15.7282644 16.1402938,18.3168301 11.6869046,19.0404984 C11.533473,19.065474 11.3391151,19.0069374 11.2567572,19.2000301 L7.72075743,19.2000301 Z" id="Fill-6" fill="#A9BAB8" mask="url(#mask-4)"></path>
                        </g>
                        <g id="Group-11" transform="translate(51.199997, 0.000000)">
                            <mask id="mask-6" fill="white">
                                <use xlink:href="#path-5"></use>
                            </mask>
                            <g id="Clip-10"></g>
                            <path d="M13.5854232,0.0257617567 C14.3644631,0.404908987 15.2543831,0.443678215 16.037423,0.829471599 C16.607343,1.11019246 16.905423,1.37872871 16.636783,2.08970889 C16.284463,3.02191103 16.057743,4.00253515 15.8142231,4.97144937 C15.6884631,5.47180978 15.5452631,5.6863856 14.9835031,5.38477682 C14.1537432,4.93948454 13.2347032,4.75497466 12.2867033,4.77681202 C11.1236633,4.80387136 10.4119834,5.43272407 10.2155034,6.57206466 C10.0619034,7.46201626 10.1446234,8.35987994 10.1107034,9.25362934 C10.0940634,9.68895239 10.3478234,9.70002931 10.6697434,9.69844689 C12.1092633,9.69195898 13.5494232,9.72139195 14.9878231,9.68309744 C15.5595031,9.66790624 15.8004631,9.78405568 15.7691031,10.4092688 C15.7164631,11.460627 15.7228631,12.5176819 15.7673431,13.569673 C15.7915031,14.1434576 15.5788631,14.271317 15.0380631,14.2580246 C13.6260632,14.2232115 12.2118233,14.27464 10.8003034,14.232706 C10.2188634,14.2154576 10.1014234,14.414051 10.1039834,14.9489081 C10.1247834,19.2432727 10.0998234,23.5377955 10.1321434,27.8321601 C10.1371034,28.4955095 9.96174341,28.6822348 9.29550345,28.6509029 C8.09870352,28.5944106 6.89582359,28.6023227 5.69822366,28.6486875 C5.1083037,28.6714743 4.93790371,28.5206699 4.94190371,27.9161865 C4.9707037,23.6219801 4.93966371,19.3272991 4.9753437,15.0330927 C4.9811037,14.351862 4.78046372,14.2021653 4.13374375,14.2303323 C2.93646382,14.2820774 1.7351839,14.2309653 0.535823968,14.247106 C0.105263994,14.2528027 -0.110255993,14.2107104 0.0593439965,13.6875631 C0.432463974,12.5368291 0.773743954,11.3740688 1.07438394,10.2027633 C1.18622393,9.76680733 1.40414392,9.67755898 1.80478389,9.68895239 C2.60382384,9.7117392 3.4081438,9.64638536 4.20238375,9.71094799 C4.87086371,9.76522491 4.9908637,9.50270185 4.9702237,8.91546672 C4.92702371,7.67944042 4.91454371,6.43898335 5.18398369,5.21767354 C5.74878366,2.65558138 7.22398357,0.927897967 9.84142341,0.241287019 C9.9833434,0.204100208 10.1742234,0.229260646 10.2262234,0.0257617567 L13.5854232,0.0257617567 Z" id="Fill-9" fill="#A9BAB8" mask="url(#mask-6)"></path>
                        </g>
                        <g id="Group-14" transform="translate(68.799996, 9.599999)">
                            <mask id="mask-8" fill="white">
                                <use xlink:href="#path-7"></use>
                            </mask>
                            <g id="Clip-13"></g>
                            <path d="M7.72948164,19.2000301 C7.27710272,18.8538057 6.69066065,18.8968886 6.17040805,18.7551521 C2.61335563,17.7864106 0.246029459,15.124323 0.147503149,11.6853378 C0.0419031554,7.99862586 0.105061046,4.30785535 0.0687708527,0.619114109 C0.0637978909,0.102119018 0.299082087,0.0264117057 0.772176796,0.034684876 C2.06211356,0.0571629234 3.3542398,0.0782360929 4.64232393,0.0278165837 C5.32645021,0.00112390237 5.54607125,0.160967795 5.53680809,0.829377512 C5.49571336,3.84268465 5.51777651,6.85677227 5.52030283,9.8705477 C5.52063967,10.2860794 5.51339757,10.7036403 5.55314493,11.1166745 C5.75205018,13.1848109 7.24510273,14.4654352 9.49537628,14.5150743 C11.7924709,14.565806 13.3106182,13.4097475 13.6577339,11.3561281 C13.8632076,10.1409087 13.7496918,8.91850874 13.7603023,7.69954296 C13.7805129,5.36151383 13.7825339,3.02286031 13.7535655,0.684987276 C13.7469971,0.171114136 13.9031234,0.01657756 14.4575655,0.0310946323 C15.8030812,0.0660604839 17.1509548,0.0688702398 18.4961336,0.0300019494 C19.0728073,0.0132995114 19.1863231,0.204519012 19.1833499,0.697006788 C19.1613968,4.07433342 19.201481,7.45212834 19.163081,10.8292989 C19.1120494,15.2991523 16.6312074,18.0751911 11.9319235,19.0156789 C11.7608077,19.0500203 11.5189551,18.9549569 11.4339025,19.2000301 L7.72948164,19.2000301 Z" id="Fill-12" fill="#A9BAB8" mask="url(#mask-8)"></path>
                        </g>
                        <g id="Group-17" transform="translate(87.999995, 3.200000)">
                            <mask id="mask-10" fill="white">
                                <use xlink:href="#path-9"></use>
                            </mask>
                            <g id="Clip-16"></g>
                            <path d="M9.42960685,25.5750306 C9.35317722,25.3326311 9.11851057,25.3960057 8.95277724,25.3512896 C6.02188853,24.5626467 4.40774048,22.7432832 4.0438442,19.7571206 C3.72867385,17.1697028 3.94932569,14.5697388 3.89994792,11.9758871 C3.87110347,10.4602065 3.89457014,10.4716268 2.40036282,10.4547377 C1.67452583,10.4465344 0.731296253,10.7568122 0.281681465,10.3323316 C-0.172659249,9.90334715 0.157666657,8.96607975 0.144303695,8.25239253 C0.129799992,7.48047795 -0.127029622,6.44605773 0.269459243,6.003562 C0.726407364,5.49383137 1.79821471,5.85799361 2.60178503,5.84142616 C3.89424421,5.81472522 3.8947331,5.83418795 3.8947331,4.59806303 C3.8947331,3.33990178 3.91477754,2.08125799 3.88479236,0.823900989 C3.8727331,0.330094414 3.97197754,0.116004333 4.53941454,0.134180275 C5.8680515,0.176805272 7.19929587,0.172623197 8.52825875,0.135306218 C9.05185872,0.120668955 9.16267353,0.303715171 9.15322168,0.77805901 C9.12519205,2.16956412 9.18108834,3.56348196 9.12731057,4.95337857 C9.10074761,5.63553938 9.25083649,5.87649125 10.0027476,5.85413324 C11.9820956,5.79526248 13.9645399,5.84834267 15.9455176,5.82453701 C16.4513546,5.81842475 16.6710286,5.92056389 16.6488657,6.47967518 C16.6043768,7.60240153 16.6097546,8.72866656 16.647236,9.85187545 C16.6643472,10.3603193 16.4893249,10.4769348 15.9991324,10.4706617 C13.9368362,10.4449259 11.8738882,10.4787042 9.81175497,10.4471778 C9.26957723,10.4388136 9.1245402,10.5974108 9.13187353,11.1204919 C9.16022908,13.1545889 9.14083649,15.1894902 9.14686612,17.223909 C9.14768094,17.5171368 9.18011056,17.8116514 9.21579945,18.1032707 C9.45519203,20.0490616 10.7797549,21.0279889 12.7410141,20.708221 C13.6353547,20.5624918 14.4604362,20.2163446 15.2317398,19.767415 C15.653162,19.5221202 15.8211768,19.6138041 16.0056509,20.0287947 C16.4622731,21.0558158 16.9441545,22.073186 17.4576508,23.0735063 C17.6525545,23.4535926 17.5735175,23.6234492 17.2208656,23.8298185 C16.0959324,24.4878519 14.9325399,25.0377948 13.6523029,25.3397085 C13.440614,25.3895717 13.1435325,25.28695 13.013977,25.5750306 L9.42960685,25.5750306 Z" id="Fill-15" fill="#A9BAB8" mask="url(#mask-10)"></path>
                        </g>
                        <g id="Group-20" transform="translate(35.199998, 9.599999)">
                            <mask id="mask-12" fill="white">
                                <use xlink:href="#path-11"></use>
                            </mask>
                            <g id="Clip-19"></g>
                            <path d="M6.28775302,19.9680305 C5.42406133,19.6163719 4.47850542,19.6074972 3.59172382,19.3407818 C2.48373123,19.0078233 1.4111001,18.6119498 0.412259792,18.025588 C0.0786671513,17.8297114 -0.0408190801,17.6764649 0.178777237,17.2935865 C0.731320323,16.3300513 1.2562524,15.3495592 1.74259366,14.352427 C1.95944502,13.9075844 2.15094593,13.9522747 2.52296792,14.166376 C4.96000264,15.5690487 7.58708505,15.9839393 10.3659473,15.5560536 C10.7439436,15.4978929 11.0948133,15.3698441 11.4154885,15.1720658 C11.875672,14.888235 12.1598554,14.4975912 12.1490371,13.937061 C12.1377343,13.3552949 11.7813747,13.0275662 11.2905124,12.802213 C10.199151,12.3011113 9.01058588,12.2196546 7.84333458,12.0556317 C6.53786677,11.8722748 5.24789987,11.6435937 4.03123939,11.1133324 C2.04679914,10.2486863 0.840149675,8.8197066 0.715496471,6.64573035 C0.592135011,4.49283143 1.32810561,2.69412677 3.20097155,1.47100761 C5.29860079,0.100981023 7.68057496,-0.0549595396 10.1009785,0.0740400718 C11.5528977,0.151534924 12.9820499,0.39115091 14.373903,0.826168027 C14.733169,0.938527639 14.9012571,1.04676687 14.7548057,1.48447808 C14.4118479,2.50886812 14.1287948,3.55338463 13.853815,4.59805961 C13.7335214,5.05542187 13.562204,5.16477044 13.0747324,4.99947978 C11.5932646,4.49758571 10.068362,4.19885811 8.48549234,4.29124973 C7.88806118,4.32611449 7.31242819,4.43340286 6.79492363,4.74686875 C6.29518054,5.04939978 6.04393652,5.48283213 6.07881358,6.06776771 C6.1119145,6.62386063 6.49071815,6.92036957 6.95138601,7.10325108 C8.03386668,7.53303848 9.1990189,7.59959848 10.3375289,7.77360533 C11.6408977,7.97280989 12.9202077,8.2361973 14.1449415,8.74268717 C18.7766477,10.6589812 17.9370147,16.065713 15.3884057,18.0014996 C14.072281,19.0011673 12.5778958,19.512253 10.9730665,19.7979856 C10.804817,19.8279376 10.5816684,19.731901 10.4851106,19.9680305 L6.28775302,19.9680305 Z" id="Fill-18" fill="#A9BAB8" mask="url(#mask-12)"></path>
                        </g>
                        <path d="M131.750337,12.0810678 C133.678228,9.53297389 136.075958,9.29036523 138.701468,9.84588125 C139.198706,9.9511731 139.274049,10.1645687 139.143473,10.636195 C138.806541,11.8542373 138.474417,13.0750915 138.189511,14.3078184 C138.084584,14.7616357 137.924424,14.8213115 137.538234,14.6997728 C136.574216,14.3967073 135.58965,14.2939149 134.595466,14.5308997 C133.160587,14.8731763 132.33006,15.8634508 132.039907,17.3722173 C131.933231,17.9272647 131.903502,18.5071509 131.900879,19.0761018 C131.887763,22.0391143 131.868235,25.0027517 131.913703,27.9649831 C131.924779,28.6856229 131.719297,28.8259079 131.10489,28.7963825 C129.991059,28.7427992 128.873148,28.7677943 127.757278,28.7884153 C127.38158,28.7954451 127.198832,28.7357693 127.199992,28.2536764 C127.214863,22.3795163 127.21428,16.5053561 127.200727,10.6311959 C127.199706,10.1703489 127.349665,10.0669316 127.746785,10.0755237 C128.886847,10.0997377 130.028367,10.1125477 131.167409,10.0709933 C131.672954,10.0525595 131.7977,10.2529889 131.756895,10.7411744 C131.724543,11.1262551 131.750337,11.5168035 131.750337,12.0810678" id="Fill-21" fill="#A9BAB8"></path>
                        <path d="M27.7691944,12.0465508 C29.7123726,9.52378363 32.1082454,9.28431601 34.7227457,9.85900705 C35.1543203,9.9538256 35.2854095,10.1030047 35.1474746,10.5874072 C34.8016905,11.8022407 34.4945049,13.0301956 34.1986804,14.2603375 C34.0961396,14.6870991 33.9759745,14.8743931 33.5167255,14.6970964 C32.8758452,14.4498184 32.1925794,14.4021748 31.5096049,14.4149839 C29.3904759,14.4548171 27.9821414,15.8727215 27.9444169,18.1603949 C27.8902334,21.4340562 27.902614,24.7095921 27.9289775,27.9838782 C27.9342211,28.6290193 27.7836142,28.8270917 27.1740496,28.7970997 C26.0608114,28.7425829 24.9433492,28.7625776 23.8283631,28.7910075 C23.3803295,28.8024107 23.1984069,28.7024373 23.1999986,28.16055 C23.2185072,22.3388158 23.2158855,16.5169253 23.2033592,10.6951911 C23.2023396,10.222348 23.3293504,10.0633278 23.7788405,10.0758244 C24.893681,10.1065975 26.0105606,10.1120648 27.1248184,10.0739499 C27.625142,10.056767 27.8386716,10.1970422 27.7766228,10.759549 C27.7370047,11.1180475 27.7691944,11.4856061 27.7691944,12.0465508" id="Fill-23" fill="#A9BAB8"></path>
                    </g>
                </g>
            </g>
        </g>
    </g>
</svg>