<?xml version="1.0" encoding="UTF-8"?>
<svg width="434px" height="49px" viewBox="0 0 434 49" version="1.1" xmlns="http://www.w3.org/2000/svg" xmlns:xlink="http://www.w3.org/1999/xlink">
    <!-- Generator: sketchtool 57.1 (101010) - https://sketch.com -->
    <title>A7822BCE-4538-4054-A0A3-84E25406E670</title>
    <desc>Created with sketchtool.</desc>
    <g id="Asset-Artboard-Page" stroke="none" stroke-width="1" fill="none" fill-rule="evenodd">
        <g id="Bug-logo" fill="#A9BAB8">
            <path d="M8.01,0.0004 L8.01,48.2804 L96.89,48.2804 L96.89,46.3604 L99.11,46.3604 L99.11,48.2804 L100.84,48.2804 L100.84,46.3604 L103.21,46.3604 L103.21,48.2804 L104.94,48.2804 L104.94,46.3604 L109.04,46.3604 L109.04,44.1794 L111.29,44.1794 L111.29,46.3604 L112.89,46.3604 L112.89,44.1794 L115.33,44.1794 L115.33,46.3904 L117,46.3904 L117,44.2104 L119,44.2104 L119,42.2094 L121.181,42.2094 L121.181,40.2794 L123.359,40.2794 L123.359,42.2094 L125.03,42.2094 L125.03,40.2794 L127.46,40.2794 L127.46,42.2094 L129.19,42.2094 L129.19,40.2794 L131.15,40.2794 L131.15,30.3504 L129.23,30.3504 L129.23,26.1794 L127.5,26.1794 L127.5,30.3504 L125.069,30.3504 L125.069,26.1794 L123.4,26.1794 L123.4,30.3504 L121.22,30.3504 L121.22,26.1794 L119.04,26.1794 L119.04,24.3004 L106.871,24.3004 L106.871,22.1194 L109.04,22.1194 L109.04,19.9394 L111.29,19.9394 L111.29,22.1194 L112.89,22.1194 L112.89,19.9394 L115.33,19.9394 L115.33,22.1194 L117,22.1194 L117,19.9394 L119,19.9394 L119,16.0304 L121.181,16.0304 L121.181,8.0304 L119,8.0304 L119,3.9294 L106.83,3.9294 L106.83,1.9304 L94.71,1.9304 L94.71,0.0004 L8.01,0.0004 Z M56.58,12.1504 L70.43,12.1504 L70.43,14.1504 L72.6,14.1504 L72.6,16.0704 L70.43,16.0704 L70.43,17.9994 L56.58,17.9994 L56.58,12.1504 Z M52.48,17.9994 L54.41,17.9994 L54.41,12.1704 L52.48,12.1704 L52.48,17.9994 Z M48.56,12.1704 L50.29,12.1704 L50.29,17.9994 L48.569,17.9994 L48.56,12.1704 Z M78.95,16.0704 L80.62,16.0704 L80.62,14.1504 L78.95,14.1504 L78.95,16.0704 Z M74.78,16.0704 L76.51,16.0704 L76.51,14.1504 L74.78,14.1504 L74.78,16.0704 Z M78.93,30.3804 L78.93,28.3804 L80.6,28.3804 L80.6,30.3804 L82.52,30.3804 L82.52,34.2594 L80.6,34.2594 L80.6,36.2604 L78.93,36.2604 L78.93,34.2594 L76.49,34.2594 L76.49,36.2604 L74.76,36.2604 L74.76,34.2594 L72.58,34.2594 L72.58,36.2604 L56.58,36.2604 L56.58,28.3804 L72.58,28.3804 L72.58,30.3804 L74.76,30.3804 L74.76,28.3804 L76.49,28.3804 L76.49,30.3804 L78.93,30.3804 Z M52.48,36.2604 L54.41,36.2604 L54.41,28.4394 L52.48,28.4394 L52.48,36.2604 Z M48.56,28.4394 L50.29,28.4394 L50.29,36.2604 L48.569,36.2604 L48.56,28.4394 Z M3.911,48.3204 L5.831,48.3204 L5.831,0.0004 L3.911,0.0004 L3.911,48.3204 Z M-1.84741111e-13,48.3204 L1.73,48.3204 L1.73,0.0004 L-1.84741111e-13,0.0004 L-1.84741111e-13,48.3204 Z M127.46,16.0704 L129.19,16.0704 L129.19,8.0704 L127.46,8.0704 L127.46,16.0704 Z M123.359,16.0704 L125.029,16.0704 L125.029,8.0704 L123.359,8.0704 L123.359,16.0704 Z" id="Fill-1"></path>
            <path d="M272.54,36.18 L274.46,36.18 L274.46,4.05009359e-13 L272.54,4.05009359e-13 L272.54,36.18 Z M268.7,36.18 L270.36,36.18 L270.36,4.05009359e-13 L268.7,4.05009359e-13 L268.7,36.18 Z M216.049,3.97903932e-13 L216.049,32.49 L214.05,32.49 L214.05,34.49 L211.68,34.49 L211.68,32.49 L209.95,32.49 L209.95,34.49 L207.77,34.49 L207.77,32.49 L205.85,32.49 L205.85,34.49 L201.69,34.49 L201.69,32.49 L199.76,32.49 L199.76,34.49 L197.58,34.49 L197.58,32.49 L195.85,32.49 L195.85,34.49 L193.48,34.49 L193.48,32.49 L191.479,32.49 L191.479,3.97903932e-13 L141.241,3.97903932e-13 L141.26,36.18 L143.26,36.18 L143.26,40.34 L145.19,40.34 L145.19,42.27 L147.109,42.27 L147.109,40.34 L149.29,40.34 L149.29,42.27 L150.94,42.27 L150.94,40.34 L153.37,40.34 L153.37,42.27 L155.29,42.27 L155.29,44.44 L157.29,44.44 L157.29,46.37 L159.29,46.37 L159.29,44.44 L161.419,44.44 L161.419,46.37 L163.09,46.37 L163.09,44.44 L165.52,44.44 L165.52,46.37 L179.62,46.37 L179.62,48.37 L227.88,48.37 L227.88,46.37 L242.01,46.37 L242.01,44.44 L244.45,44.44 L244.45,46.37 L246.12,46.37 L246.12,44.44 L248.29,44.44 L248.29,46.37 L250.29,46.37 L250.29,44.44 L252.2,44.44 L252.2,42.27 L254.12,42.27 L254.12,40.34 L256.559,40.34 L256.559,42.27 L258.29,42.27 L258.29,40.34 L260.45,40.34 L260.45,42.27 L262.37,42.27 L262.37,40.34 L264.29,40.34 L264.29,36.18 L266.29,36.18 L266.29,3.97903932e-13 L216.049,3.97903932e-13 Z M137.14,36.18 L138.8,36.18 L138.8,4.05009359e-13 L137.14,4.05009359e-13 L137.14,36.18 Z M133.03,36.18 L134.96,36.18 L134.96,4.05009359e-13 L133.03,4.05009359e-13 L133.03,36.18 Z" id="Fill-2"></path>
            <path d="M381.7305,0.0004 L381.7305,2.1804 L379.2895,2.1804 L379.2895,0.0004 L377.5705,0.0004 L377.5705,2.1804 L375.3895,2.1804 L375.3895,0.0004 L335.1605,0.0004 L335.1605,2.1804 L332.9805,2.1804 L332.9805,0.0004 L330.9805,0.0004 L330.9805,2.1804 L328.7995,2.1804 L328.7995,0.0004 L327.1395,0.0004 L327.1695,2.1804 L312.8105,2.1804 L312.8105,4.0804 L310.8895,4.0804 L310.8895,6.0794 L308.7095,6.0794 L308.7095,4.0804 L306.7905,4.0804 L306.7905,6.0794 L304.6105,6.0794 L304.6105,4.0804 L302.8795,4.0804 L302.8795,6.0794 L300.6995,6.0794 L300.6995,8.2594 L298.7805,8.2594 L298.7805,10.1804 L296.5995,10.1804 L296.5995,8.2594 L294.5995,8.2594 L294.5995,10.1804 L292.4295,10.1804 L292.4295,8.2594 L290.7595,8.2594 L290.7595,10.1804 L288.5795,10.1804 L288.5795,12.1704 L286.5795,12.1704 L286.5795,16.3304 L284.3895,16.3304 L284.3895,12.1704 L282.4695,12.1704 L282.4695,16.3304 L280.2895,16.3304 L280.2895,12.1704 L278.5595,12.1704 L278.5595,16.3304 L276.3805,16.3304 L276.3805,32.3304 L278.5595,32.3304 L278.5595,36.1804 L280.2895,36.1804 L280.2895,32.3304 L282.4695,32.3304 L282.4695,36.1804 L284.3895,36.1804 L284.3895,32.3304 L286.5505,32.3304 L286.5505,36.1804 L288.5495,36.1804 L288.5495,38.3294 L290.7295,38.3294 L290.7295,42.2404 L292.4005,42.2404 L292.4005,38.3294 L294.5695,38.3294 L294.5695,42.2404 L296.5705,42.2404 L296.5705,38.3294 L298.7495,38.3294 L298.7495,42.2404 L302.8505,42.2404 L302.8505,44.4104 L304.5795,44.4104 L304.5795,42.2404 L306.7595,42.2404 L306.7595,44.4104 L308.6795,44.4104 L308.6795,42.2404 L310.8595,42.2404 L310.8595,44.4104 L312.7805,44.4104 L312.7805,46.3404 L327.1305,46.3404 L327.1305,48.3404 L328.7895,48.3404 L328.7895,46.3404 L330.9695,46.3404 L330.9695,48.3404 L332.9695,48.3404 L332.9695,46.3404 L335.1505,46.3404 L335.1505,48.3404 L375.3895,48.3404 L375.3895,46.3404 L377.5595,46.3404 L377.5595,48.3404 L379.2895,48.3404 L379.2895,46.3404 L381.7305,46.3404 L381.7305,48.3404 L383.3895,48.3404 L383.3895,46.3404 L387.5595,46.3404 L387.5595,44.4104 L389.7405,44.4104 L389.7405,46.3404 L391.4005,46.3404 L391.4005,44.4104 L393.8395,44.4104 L393.8395,46.3404 L395.5705,46.3404 L395.5705,44.4104 L397.4905,44.4104 L397.4905,42.2404 L399.9295,42.2404 L399.9295,46.3404 L401.5895,46.3404 L401.5895,42.2404 L403.7705,42.2404 L403.7705,46.3404 L405.7705,46.3404 L405.7705,42.2404 L407.9505,42.2404 L407.9505,48.3204 L433.8995,48.3204 L433.8995,20.3804 L359.3695,20.3804 L359.3695,32.3004 L373.4695,32.3004 L373.4695,34.4794 L347.0005,34.4794 L347.0005,32.4794 L345.3395,32.4794 L345.3395,34.4794 L342.8995,34.4794 L342.8995,32.4794 L341.1705,32.4794 L341.1705,34.4794 L339.0005,34.4794 L339.0005,32.4794 L336.8095,32.4794 L336.8095,30.3094 L334.8895,30.3094 L334.8895,17.9404 L336.8095,17.9404 L336.8095,16.0104 L339.0005,16.0104 L339.0005,14.0894 L341.1705,14.0894 L341.1705,16.0104 L342.8995,16.0104 L342.8995,14.0894 L345.3395,14.0894 L345.3395,16.0104 L347.0005,16.0104 L347.0005,14.0894 L363.5295,14.0894 L363.5295,16.0104 L365.1905,16.0104 L365.1905,14.0894 L367.3705,14.0894 L367.3705,16.0104 L369.3695,16.0104 L369.3695,14.0894 L371.5495,14.0894 L371.5495,16.0104 L373.4695,16.0104 L373.4695,17.9404 L385.3895,17.9404 L385.3895,16.0104 L397.5005,16.0104 L397.5005,14.0894 L411.7895,14.0894 L411.7895,11.9104 L413.9695,11.9104 L413.9695,14.0894 L415.7005,14.0894 L415.7005,11.9104 L418.1395,11.9104 L418.1395,14.0894 L419.7995,14.0894 L419.7995,11.9104 L423.9695,11.9104 L423.9695,10.1804 L421.7905,10.1804 L421.7905,8.2904 L419.7895,8.2904 L419.7895,6.1104 L418.1305,6.1104 L418.1305,8.2904 L415.6905,8.2904 L415.6905,6.1104 L413.9595,6.1104 L413.9595,8.2904 L411.7805,8.2904 L411.7805,6.1104 L409.5995,6.1104 L409.5995,4.1094 L397.4905,4.1094 L397.4905,2.1804 L383.3895,2.1804 L383.3895,0.0004 L381.7305,0.0004 Z M330.9805,30.1194 L332.9805,30.1194 L332.9805,18.1804 L330.9805,18.1804 L330.9805,30.1194 Z M327.1395,30.1194 L328.7995,30.1194 L328.7995,18.1804 L327.1395,18.1804 L327.1395,30.1194 Z M430.2505,10.1804 L430.2905,11.9104 L431.9795,11.9104 L431.9795,10.1804 L430.2505,10.1804 Z M426.1495,11.9104 L427.8095,11.9104 L427.8095,10.1804 L426.1495,10.1804 L426.1495,11.9104 Z M355.2705,20.3804 L355.2905,32.3004 L357.1905,32.3004 L357.1905,20.3804 L355.2705,20.3804 Z M351.3595,32.3004 L353.0895,32.3004 L353.0895,20.3794 L351.3595,20.3794 L351.3595,32.3004 Z" id="Fill-3"></path>
        </g>
    </g>
</svg>