<?xml version="1.0" encoding="UTF-8"?>
<svg width="465px" height="106px" viewBox="0 0 465 106" version="1.1" xmlns="http://www.w3.org/2000/svg" xmlns:xlink="http://www.w3.org/1999/xlink">
    <!-- Generator: sketchtool 57.1 (101010) - https://sketch.com -->
    <title>FDE059FB-3BAE-440C-84AF-CA88316116C8</title>
    <desc>Created with sketchtool.</desc>
    <g id="Asset-Artboard-Page" stroke="none" stroke-width="1" fill="none" fill-rule="evenodd">
        <g id="Dobartek-logo" fill="#A9BAB8">
            <path d="M357.484322,79.1127114 C352.056738,79.1127114 349.217655,82.7322237 349.217655,86.6102726 C349.217655,89.9712484 351.025988,94.1078339 355.931738,94.1078339 C362.909322,94.1078339 364.200989,90.229785 364.200989,87.644419 C364.200989,84.0249067 363.425989,79.1127114 357.484322,79.1127114 Z M109.223403,9.56637094 C104.83432,9.56637094 103.025986,11.376127 103.025986,13.1858831 L103.025368,13.316875 C103.021348,13.6604414 102.991197,14.3923872 102.765069,15.5127124 L101.217653,40.8492978 C99.150986,43.9517368 96.0509859,48.0883222 92.9509858,51.1907612 C91.1400691,43.4346636 87.265069,42.6590539 84.4259856,42.6590539 C80.0343188,42.6590539 76.6759854,45.2444197 75.9009853,48.8639319 C75.6400687,48.3468587 75.1259853,47.8297856 74.6093186,47.0541758 C73.3176519,46.0200295 70.7343185,44.9858831 69.4426518,44.9858831 C66.8593184,44.9858831 59.8843182,56.3614929 59.3676515,66.9614929 L59.3676515,69.0297856 C56.7843181,78.5956392 54.2009847,81.9566148 52.909318,81.9566148 C52.6509846,81.9566148 50.8426513,80.6639319 51.3593179,62.5663709 C51.6176513,51.9663709 52.909318,39.2980783 53.6817347,31.0249075 C53.9426513,27.6639319 54.2009847,24.8200295 54.2009847,23.26881 C54.2009847,22.2346636 54.459318,21.2005173 54.459318,20.1663709 C54.7176514,16.0297856 54.9734014,12.9273466 53.4259847,11.1175905 C52.6509846,10.3419807 51.6176513,9.82490753 50.3259846,9.82490753 C46.7093178,9.82490753 44.9009844,10.3419807 43.6093177,11.1175905 C41.8009843,12.4102734 41.2843176,15.771249 41.2843176,17.0639319 C41.0259843,18.6151514 39.7343176,33.6102734 38.9593176,46.5371026 C37.1509842,45.5029563 34.0509841,44.7273466 30.175984,44.7273466 C18.8067336,44.7273466 11.5759834,52.7419807 10.2843167,66.9614929 C9.50931668,75.2346636 11.3176501,82.7322246 15.7093169,87.3858831 C18.5509836,90.7468587 22.4259837,92.2980783 26.5567339,92.2980783 C31.8953406,92.2980783 35.9817839,85.5445829 38.5726865,78.4343456 L38.7,78.079 L38.7753434,78.5233686 C40.3726456,87.7887104 44.2228594,92.2980783 50.3259846,92.2980783 C54.1317883,92.2980783 57.6884024,88.0585234 60.7510873,80.0692783 L60.917,79.63 L61.0213737,80.0335339 C63.1374716,88.0458775 67.7528977,92.2980783 74.867652,92.2980783 C84.4259856,92.2980783 94.7593192,81.9566148 94.7593192,62.5663709 C94.7593192,60.7566148 94.5009859,58.9468587 94.5009859,57.3956392 C97.0843193,55.3273466 99.4093194,52.7419807 101.473403,50.673688 C100.700986,67.4785661 99.9259861,81.4395417 100.442653,85.0590539 C100.959319,89.971249 101.217653,92.5566148 106.64007,92.5566148 C108.450986,92.5566148 110.25932,91.5224685 111.806736,89.7127124 C114.650986,91.5224685 118.26507,92.5566148 122.400987,92.5566148 C127.567654,92.5566148 131.700987,91.0053953 135.056737,87.6444197 L137.384321,84.8005173 C138.931737,82.7322246 140.742654,79.8883222 142.550987,77.0444197 C144.617654,73.6834441 146.942654,70.0639319 149.525988,66.4444197 L149.525988,67.2200295 C148.750988,75.7517368 150.556738,83.5078344 154.692654,88.1614929 C157.275988,91.2639319 160.890071,92.8151514 165.025988,92.8151514 C168.640071,92.8151514 172.259322,89.7127124 175.359322,83.2492978 C176.390072,89.7127124 179.750988,92.8151514 184.917655,92.8151514 C189.567655,92.8151514 193.700989,89.4541758 197.834322,82.9907612 C197.834322,86.0932002 198.092656,87.9029563 198.609322,89.1956392 C199.384322,91.2639319 202.223406,92.8151514 204.550989,92.8151514 C207.390073,92.8151514 208.942656,92.0395417 209.973406,90.2297856 L209.973406,89.7127124 C209.973406,89.4541758 210.750989,78.8541758 211.265073,68.5127124 C212.556739,65.1517368 215.40099,61.0151514 217.467656,58.171249 C217.723406,61.273688 218.759323,65.1517368 220.567656,66.9614929 C221.859323,68.2541758 224.959323,69.5468587 227.542657,69.5468587 C228.05674,69.5468587 228.57599,69.5468587 229.092657,69.2883222 C231.67599,68.771249 234.259323,66.7029563 236.067657,64.8932002 C236.067657,67.9956392 235.80674,70.3224685 235.80674,71.873688 L235.80674,73.1663709 C235.80674,80.6639319 235.55099,86.6102734 238.909324,89.971249 C240.717657,91.7810051 243.30099,92.8151514 246.915074,92.8151514 C254.665074,92.8151514 260.867658,88.6785661 265.775991,84.5419807 C269.134324,89.7127124 274.040075,92.8151514 279.467658,92.8151514 C286.181742,92.8151514 291.092658,87.3858831 293.931742,82.473688 C294.450992,88.6785661 295.223409,89.7127124 295.484325,89.971249 C297.290075,92.2980783 299.098409,93.3322246 301.165075,93.3322246 C303.492659,93.3322246 305.040076,91.7810051 305.556742,91.2639319 C306.575101,89.9931589 306.839515,76.7297344 306.848186,73.8243698 L306.848919,73.2360546 C306.852486,72.0554716 306.881023,69.9346636 307.109326,67.2200295 C309.950992,61.273688 315.373409,53.0005173 319.248409,53.0005173 C319.509326,53.0005173 320.025993,53.0005173 320.284326,54.2932002 C321.056743,57.6541758 318.473409,65.66881 315.890076,67.2200295 C314.859326,67.7371026 313.825992,67.9956392 313.306742,67.9956392 L311.498409,67.9956392 C310.984326,67.9956392 310.467659,67.9956392 309.950992,68.5127124 C308.915076,69.2883222 307.623409,72.6492978 308.400992,75.2346636 C308.915076,76.7858831 310.467659,78.8541758 314.342659,79.1127124 C317.442659,91.0053953 324.159326,93.5907612 329.325993,93.5907612 C342.24266,93.5907612 347.665077,79.371249 347.665077,73.4249075 C346.890077,66.1858831 342.49841,65.66881 341.72341,65.66881 C339.140077,65.66881 336.300993,67.2200295 336.300993,70.8395417 C336.300993,73.4249075 337.84841,74.2005173 338.884327,74.4590539 C339.659327,74.7175905 339.659327,74.7175905 339.659327,74.976127 C339.659327,76.7858831 338.109327,84.5419807 331.650993,84.5419807 C329.06766,84.5419807 326.484326,80.4053953 323.900993,73.4249075 C327.775993,68.771249 330.61766,61.7907612 330.61766,56.8785661 C330.61766,51.1907612 329.581743,44.7273466 321.575993,44.7273466 C318.473409,44.7273466 312.790076,46.2785661 306.592659,55.3273466 L308.659326,19.3907612 C309.175992,16.5468587 308.400992,13.7029563 306.848409,11.8932002 C305.817659,10.6005173 304.265075,9.82490753 302.456742,9.82490753 C297.290075,9.82490753 296.515075,12.9273466 296.259325,14.2200295 C296.259325,15.2541758 293.159325,48.6053953 292.900992,71.0980783 C290.056742,79.371249 286.442658,83.7663709 282.825992,83.7663709 C277.915075,83.7663709 275.592658,78.3371026 274.556741,74.7175905 C279.723408,69.0297856 285.665075,60.7566148 285.665075,54.2932002 C285.665075,44.7273466 278.950991,44.7273466 275.592658,44.7273466 C264.742658,44.7273466 261.900991,57.9127124 261.123408,63.6005173 C260.348408,69.0297856 260.867658,74.2005173 262.675991,79.1127124 C256.992657,83.7663709 253.890074,84.8005173 252.342657,84.8005173 C249.53737,84.8005173 248.745028,83.0400039 248.723847,73.0695037 L248.723407,72.6492978 C248.723407,69.8053953 248.984324,61.7907612 249.759324,51.1907612 C252.859324,51.1907612 261.123408,50.673688 261.900991,47.3127124 C262.159324,45.7614929 262.159324,44.7273466 261.640074,43.9517368 C261.384324,43.4346636 260.867658,43.176127 260.092658,43.176127 C259.831741,43.176127 253.634324,43.4346636 250.275991,43.6932002 C250.275991,41.1078344 250.534324,39.0395417 250.534324,37.4883222 C250.534324,36.1956392 250.790074,35.4200295 250.790074,34.9029563 L250.790074,33.6102734 C251.050991,30.7663709 251.050991,25.8541758 248.723407,23.0102734 C247.43174,21.7175905 245.884324,21.2005173 243.817657,21.2005173 C240.973407,21.2005173 239.165074,21.7175905 238.390074,22.7517368 C237.359323,24.0444197 237.617657,25.3371026 237.617657,26.6297856 L237.617657,27.9224685 C237.617657,29.2151514 237.098407,37.7468587 236.58174,46.7956392 C236.32599,49.8980783 236.32599,53.2590539 236.067657,56.6200295 C232.192657,61.273688 230.384323,62.8249075 229.867657,63.0834441 C229.348407,61.5322246 229.348407,55.8444197 229.867657,50.673688 C229.867657,48.8639319 229.609323,47.3127124 228.57599,46.2785661 C227.542657,44.9858831 225.734323,44.46881 223.15099,44.2102734 L222.117656,44.2102734 C218.50099,44.2102734 217.984323,45.2444197 217.209323,46.7956392 C216.95099,47.571249 216.692656,49.3810051 216.692656,50.4151514 C214.884323,52.2249075 212.817656,54.2932002 211.265073,56.1029563 C211.525989,52.7419807 211.525989,50.1566148 211.525989,49.6395417 C211.525989,46.7956392 208.942656,44.7273466 205.067656,44.7273466 C202.223406,44.7273466 200.159322,44.9858831 199.640072,46.7956392 C199.384322,47.571249 198.092656,60.4980783 197.575989,71.3566148 C193.959322,79.371249 190.598405,84.0249075 188.275989,84.0249075 C188.015072,84.0249075 187.500989,83.5078344 187.500989,82.473688 C187.242655,77.0444197 188.275989,64.8932002 188.792655,56.8785661 C189.306739,51.7078344 189.567655,48.8639319 189.306739,48.0883222 C189.306739,46.2785661 187.759322,44.2102734 181.817655,44.2102734 L181.512351,44.2107783 C179.919258,44.2183526 177.393697,44.3395417 176.909322,46.2785661 C174.067655,45.2444197 171.223405,44.7273466 167.867655,44.7273466 C162.181738,44.7273466 157.534321,46.7956392 154.431738,50.673688 C149.525988,55.5858831 144.875987,62.0492978 141.259321,67.7371026 C141.775987,58.9468587 140.484321,52.7419807 137.125987,49.1224685 C134.542654,46.2785661 130.667654,44.7273466 125.500987,44.7273466 C121.10932,44.7273466 117.492653,47.571249 114.90932,50.673688 C115.167653,46.7956392 115.167653,43.176127 115.167653,39.5566148 C115.167653,38.0053953 115.167653,36.4541758 115.425987,35.1614929 C115.425987,30.2492978 115.681737,26.8883222 115.942653,23.7858831 C116.200987,21.4590539 116.200987,19.3907612 116.200987,17.0639319 C116.200987,13.1858831 112.842653,9.56637094 109.223403,9.56637094 Z M382.025994,10.0834441 C377.373411,10.0834441 375.050994,12.1517368 374.275994,16.5468586 C374.015077,18.8736878 373.759327,24.5614926 373.24266,31.2834436 L372.46766,44.9858823 L371.69266,53.776126 L371.431744,54.0346626 C369.109327,56.6200284 364.97341,58.1712479 364.200993,58.4297844 C363.681743,58.4297844 363.165077,59.2053942 363.165077,59.7224673 C363.165077,61.0151502 365.49266,62.8249063 367.040077,62.8249063 C368.075994,63.0834441 369.62341,62.5663697 371.175994,61.5322234 C370.659327,71.61515 370.400994,80.1468571 370.400994,87.3858813 C370.400994,91.26393 372.46766,93.5907592 375.825994,93.5907592 C377.890077,93.5907592 379.956744,92.8151495 380.992661,92.0395397 L381.059543,91.9725271 C381.633129,91.3867866 383.118847,89.3714422 384.609327,68.7712476 C390.550994,57.6541747 394.425994,53.5175894 396.234328,53.5175894 C397.009328,53.5175894 397.784328,53.776126 398.040078,54.2931992 C399.331744,55.8444186 399.075994,59.4639308 398.817661,62.3078331 L398.817661,62.8249063 C398.817661,64.1175892 398.556744,65.6688087 398.300994,67.4785647 C397.784328,72.3907597 397.009328,79.1127108 397.265078,86.0931984 C397.265078,90.7468568 400.884328,93.0736861 404.498411,93.0736861 C410.700995,93.0736861 415.348412,90.4883203 418.706745,87.9029545 C418.706745,89.9712471 418.967662,91.26393 419.223412,91.7810032 C420.259328,93.0736861 423.359329,93.3322226 423.873412,93.3322226 C425.165077,93.3322226 427.748412,93.0736861 429.040079,91.5224666 C429.556745,91.0053934 430.331745,90.2297837 431.623412,74.2005158 C432.915079,68.512711 435.759329,62.3078331 438.342662,58.1712479 C438.859329,62.8249063 439.890079,65.9273452 441.442662,67.4785647 C442.734329,68.7712476 444.540079,69.5468573 446.092662,69.5468573 C448.675996,69.5468573 450.998413,67.9956379 451.775996,65.1517355 L452.034329,63.8590526 L451.259329,63.8590526 C450.484329,62.5663697 450.742663,56.6200284 450.998413,51.4492968 C450.998413,49.6395407 450.742663,48.0883213 449.706746,47.054175 C448.675996,45.7614921 446.867663,45.2444189 444.284329,44.9858823 L443.248412,44.9858823 C439.890079,44.9858823 439.117662,46.0200286 438.342662,47.3127115 C438.081746,47.5712481 438.081746,48.0883213 438.081746,48.3468578 L438.081746,48.863931 C436.534329,50.4151505 434.467662,53.5175894 432.659329,56.6200284 L432.659213,55.8462675 C432.657422,51.9780029 432.627859,50.0939384 432.140079,49.1224676 C430.592662,45.5029555 427.748412,45.5029555 426.973412,45.5029555 L424.650995,45.5029555 C422.067662,45.5029555 421.550995,46.7956384 421.290078,47.5712481 C420.775995,49.1224676 419.742662,68.512711 419.223412,80.1468571 C416.384328,83.5078326 413.540078,85.5761253 411.734328,85.8346618 L411.217661,85.8346618 C410.700995,85.8346618 410.442661,85.8346618 410.181745,84.2834424 C410.181745,83.5078326 410.442661,79.8883205 410.956745,76.0102718 C411.734328,67.2200281 413.025995,55.0688089 412.248412,51.4492968 C411.473411,47.3127115 407.598411,45.2444189 401.140078,45.2444189 C394.681744,45.2444189 389.259328,51.1907602 385.640077,56.1029552 L386.931744,33.3517363 L387.706744,26.112712 C388.223411,21.7175902 388.742661,17.8395415 387.706744,14.478566 C386.675994,11.376127 385.640077,10.0834441 382.025994,10.0834441 Z M123.692653,52.2249075 C124.467653,52.2249075 125.242653,52.4834441 125.759319,53.2590539 C128.342653,55.8444197 129.375986,62.3078344 128.598402,70.0639319 C127.825986,80.6639319 123.950986,87.1273466 118.009319,87.1273466 C115.681736,87.1273466 114.134319,86.0932002 113.098402,85.0590539 L114.650986,61.273688 C115.942652,58.4297856 119.300986,52.2249075 123.692653,52.2249075 Z M76.1593164,53.5175905 C76.931733,58.9468588 80.2926496,61.2736881 86.4926494,61.2736881 C87.2650661,61.2736881 88.0426494,61.0151515 88.8176493,61.0151515 L88.8176493,65.4102736 C88.8176493,75.4932005 83.1343162,85.3175909 77.450983,85.3175909 C74.0926498,85.3175909 71.5093165,78.8541762 71.5093165,70.0639322 C71.5093165,62.3078345 73.8343164,57.9127125 75.6400664,54.5517368 C75.900983,54.2932002 75.900983,54.0346636 76.1593164,53.5175905 Z M176.134319,52.4834433 C175.617652,57.3956383 175.098402,64.6346625 174.584319,69.8053941 C173.292652,73.1663697 169.675986,82.2151499 165.542653,82.2151499 C165.025986,82.2151499 164.509319,81.9566134 163.734319,81.1810036 C162.700986,80.1468573 160.375986,76.5273452 161.150986,68.2541747 C161.925986,57.6541749 165.800986,51.1907604 171.742652,51.1907604 C173.292652,50.9322238 174.584319,51.449297 176.134319,52.4834433 Z M38.4426493,53.0005151 C37.9259827,58.9468567 37.6676494,63.0834422 37.6676494,65.6688081 C34.3067328,76.0102718 30.6926496,82.2151499 27.5926497,82.2151499 C27.0759831,82.2151499 26.5567331,81.9566134 25.7843165,81.1810036 C24.7509832,80.1468572 22.4259832,76.5273449 23.2009832,68.254174 C23.9733998,57.6541738 27.8483997,51.190759 33.7926495,51.190759 C35.5983994,50.9322224 37.1509827,51.9663688 38.4426493,53.0005151 Z M279.98431,53.0005153 C280.498393,53.776125 279.98431,58.4297834 278.175976,61.7907589 C276.91531,63.9159296 275.44281,65.9092466 273.78431,67.7371002 C273.78431,65.410271 274.04006,63.0834418 274.300976,61.5322223 C276.367643,54.0346616 278.431726,53.0005153 279.98431,53.0005153 Z M85.2009852,48.6053963 C86.7509852,48.6053963 88.0426519,51.1907622 88.5567353,56.1029573 C88.0426519,56.3614939 87.5259852,56.3614939 87.0093186,56.3614939 C85.9734019,56.3614939 83.6509851,54.5517378 83.6509851,51.4492988 C83.6509851,50.1566158 84.1676518,48.6053963 85.2009852,48.6053963 Z M354.381662,63.5960398 C353.881723,62.5474613 353.618873,61.4035589 353.608552,60.2390255 C353.350219,54.8097571 356.708552,50.1560985 361.875219,48.8634156 C362.133552,48.8634156 362.133552,48.604879 362.391886,48.604879 L362.391886,48.604879 L362.650219,44.2097569 L363.425219,30.7658542 L363.425219,30.5073177 L364.458553,14.9951222 C365.491886,5.68780499 372.208553,6.95292062e-13 381.508553,6.95292062e-13 C389.258553,6.95292062e-13 394.166887,3.87804885 396.491887,11.37561 C398.041887,17.063415 397.52522,22.2341468 396.75022,27.4048786 L396.75022,27.4048786 L395.97522,33.8682933 L395.97522,35.6780495 C397.52522,35.4195129 399.07522,35.1609763 400.62522,35.1609763 C405.533554,35.1609763 409.408554,36.1951226 412.766887,38.0048788 C413.283554,38.2634154 413.800221,38.7804885 414.316887,39.0390251 L414.316887,39.0390251 L415.091887,38.2634154 C416.641887,36.9707324 419.483554,35.4195129 423.616888,35.4195129 L423.616888,35.4195129 L426.458554,35.4195129 C429.300221,35.4195129 431.625221,35.936586 433.950221,37.229269 C436.275221,35.4195129 439.375222,34.6439031 442.991888,34.6439031 L442.991888,34.6439031 L444.283555,34.6439031 C449.708555,34.9024397 453.841889,36.4536592 456.683555,39.8146349 C458.491889,41.8829276 460.558555,45.5024399 460.300222,51.1902449 L460.300222,51.1902449 L460.300222,51.7073181 C460.041889,53 460.041889,54.0341474 460.041889,55.0682937 L460.041889,55.0682937 L464.433556,55.8439035 L460.816889,66.7024403 L460.558555,67.9951232 C458.233555,74.7170746 452.550222,79.1121966 445.575222,79.1121966 C443.766888,79.1121966 441.958555,78.8562454 440.408555,78.3365869 C439.116888,92.2975627 438.083555,95.4000018 435.241888,98.2464897 C431.366888,102.124539 426.458554,102.897563 423.100221,102.897563 C420.775221,102.897563 417.416888,102.639026 414.316887,100.831856 C410.958554,102.124539 407.341887,102.639026 403.72522,102.639026 C397.783554,102.639026 392.616887,99.7951238 389.77522,95.1414652 C389.00022,96.6926848 387.966887,97.9853677 386.67522,99.2780507 L386.67522,99.2780507 L386.158553,99.7951238 C383.316886,102.124539 379.183553,103.417221 375.308553,103.417221 C371.950219,103.417221 368.850219,102.639026 366.525219,100.831856 C363.683553,102.639026 359.808552,103.931709 355.158552,103.931709 C349.991885,103.931709 345.600219,101.863417 342.758552,98.2464897 C338.366885,101.346343 333.458552,103.1561 327.775218,103.1561 C324.158551,103.1561 317.700218,102.38049 312.016884,96.9538067 C312.016884,97.2097579 311.758551,97.2097579 311.758551,97.4682945 C309.950218,100.312197 305.558551,103.417221 299.875217,103.417221 C297.291884,103.417221 293.416884,102.639026 289.800217,99.5391726 C286.441884,101.863417 282.566883,102.897563 278.43355,102.897563 C273.266883,102.897563 268.100216,101.087807 263.708549,97.7268311 C259.058549,100.570734 253.116882,102.897563 246.141882,102.897563 C239.941882,102.897563 235.033549,100.831856 231.416882,97.2097579 C226.766882,92.5560993 225.733548,86.0926846 225.475215,79.6292698 C223.666882,79.6292698 221.341882,79.1121966 219.275215,78.3365869 C218.758548,84.8000016 218.500215,89.7121968 218.500215,90.490392 L218.500215,93.0757579 L217.466881,95.1414652 L217.466881,95.4000018 C215.658548,98.2464897 211.783548,102.897563 203.516881,102.897563 C200.416881,102.897563 197.058547,101.863417 194.216881,100.05366 C191.116881,101.863417 187.758547,102.897563 184.14188,102.897563 C180.008547,102.897563 176.39188,101.863417 173.550213,99.7951238 C170.708547,101.863417 167.608547,102.897563 164.250213,102.897563 C157.533546,102.897563 151.591879,100.312197 146.941879,95.1414652 C145.908546,93.8487823 145.133546,92.8146359 144.358546,91.521953 C144.358546,91.521953 142.808546,93.5902457 142.291879,94.1073189 C141.258546,95.1414652 139.191879,96.9538067 138.158546,97.7268311 C133.766879,101.087807 128.341879,102.639026 122.141879,102.639026 C118.783545,102.639026 115.425212,102.38049 112.583545,101.346343 C110.516878,102.124539 108.450211,102.639026 106.383545,102.639026 C99.1502111,102.639026 95.275211,99.0195141 93.4668776,96.1756116 C93.2085443,95.6611238 92.950211,95.4000018 92.6918776,94.8829286 C87.5252108,100.05366 81.0668773,102.639026 74.8668771,102.639026 C69.4418769,102.639026 64.7918768,101.087807 60.9168766,98.2464897 C58.0752099,100.831856 54.4585431,102.639026 50.0668763,102.639026 C45.1585428,102.639026 40.766876,101.087807 37.4085426,98.2464897 C33.2752091,101.863417 29.1418757,102.639026 26.0418756,102.639026 C19.0668754,102.639026 12.6085418,99.7951238 7.9585417,94.3684408 C2.01687485,87.3853675 -0.824791903,77.3024405 0.208541462,66.1853671 C1.24187483,57.1365865 4.08354158,49.6390253 8.99187506,44.2097569 C14.4168752,38.2634154 21.3918754,35.1609763 29.9168757,35.1609763 L29.9168757,35.1609763 L30.175209,35.1609763 L31.7252091,16.2878052 C32.2418758,12.4097563 33.5335425,6.98048794 37.9252093,3.61951226 C41.8002094,0.775609771 46.4502095,0.25853659 50.583543,0.25853659 C54.4585431,0.25853659 58.0752099,1.80975613 60.6585433,4.65365862 C65.3085434,9.56585384 64.7918768,15.770732 64.2752101,20.9414638 C64.0168767,21.9756102 64.0168767,22.7512199 64.0168767,23.7853663 L64.0168767,23.7853663 L63.2418767,31.8000006 L62.72521,37.4878056 C65.0502101,35.936586 67.3752102,35.1609763 69.7002102,35.1609763 C71.2502103,35.1609763 73.316877,35.6780495 75.1252104,36.4536592 C78.0572938,34.587025 81.4647106,33.5994153 84.9418774,33.6097567 C87.7835441,33.6097567 90.1085442,34.1268299 92.4335443,35.1609763 C92.950211,26.6292688 93.4668776,19.1317077 94.500211,15.5121954 L94.500211,15.5121954 L94.500211,13.4439027 C94.7585443,9.30731725 96.8252111,5.4292684 100.441878,3.10243908 C103.283545,1.29268295 106.641878,0.25853659 110.516878,0.25853659 C119.558545,0.25853659 127.050212,8.27317089 127.050212,17.5804881 L127.050212,17.5804881 L126.533545,25.0780493 C126.275212,27.9219517 126.016879,30.7658542 126.016879,35.1609763 L126.016879,35.1609763 L126.275212,35.1609763 C136.091879,35.1609763 141.775212,39.2975617 144.875213,42.917074 C145.650213,43.6926838 146.425213,44.4682935 146.941879,45.5024399 L146.941879,45.5024399 L147.975213,44.4682935 C153.141879,38.521952 160.375213,35.1609763 168.64188,35.1609763 C170.96688,35.1609763 173.29188,35.4195129 175.61688,35.936586 C176.133547,35.6780495 176.650214,35.6780495 177.16688,35.4195129 C179.233547,34.9024397 181.300214,34.9024397 182.333547,34.9024397 C188.016881,34.9024397 191.891881,36.4536592 194.475214,38.521952 C195.766881,37.4878056 197.058547,36.7121958 198.866881,36.1951226 C201.191881,35.4195129 203.516881,35.4195129 205.325214,35.4195129 C208.425214,35.4195129 211.266881,35.936586 213.591881,37.229269 C215.916881,35.6780495 218.758548,34.9024397 222.375215,34.9024397 L222.375215,34.9024397 L223.666882,34.9024397 C225.216882,34.9024397 226.508548,35.1609763 227.800215,35.4195129 L227.800215,35.4195129 L228.058548,28.4390249 L228.058548,28.1804883 C227.800215,26.1121956 227.283548,20.9414638 231.158548,16.5463418 C235.062252,11.9070463 241.039799,11.6493077 243.432926,11.6349888 L243.816882,11.6341466 C248.466882,11.6341466 252.600216,13.1853661 255.700216,16.5463418 C260.866883,22.2341468 260.866883,29.7317079 260.608549,33.8682933 C263.450216,34.1268299 266.03355,35.1609763 268.100216,36.9707324 C270.425216,35.936586 273.266883,35.4195129 276.10855,35.4195129 C278.175217,35.4195129 281.791883,35.4195129 285.40855,36.9707324 L285.40855,36.9707324 L287.216884,13.7024393 C287.991884,7.23902453 292.900217,0.517073181 302.975217,0.517073181 C307.366884,0.517073181 311.500218,2.32682931 314.600218,5.94634158 C317.958551,10.082927 319.508551,15.770732 318.475218,21.458537 L318.475218,21.458537 L317.441884,35.936586 C318.991885,35.6780495 320.283551,35.4195129 321.833551,35.4195129 C331.391885,35.4195129 336.041885,41.1073179 337.850218,44.4682935 C340.175218,48.3463424 340.691885,52.7414644 340.691885,56.1024401 L340.691885,56.1024401 L341.983552,56.1024401 C343.791885,56.1024401 347.408552,56.3609767 350.766885,59.2048792 C352.058552,60.2390255 353.350219,61.5317085 354.383552,63.6000012 Z" id="Combined-Shape"></path>
        </g>
    </g>
</svg>