<?xml version="1.0" encoding="UTF-8"?>
<svg width="175px" height="40px" viewBox="0 0 175 40" version="1.1" xmlns="http://www.w3.org/2000/svg" xmlns:xlink="http://www.w3.org/1999/xlink">
    <!-- Generator: sketchtool 63.1 (101010) - https://sketch.com -->
    <title>19A6FBFE-2E6F-44C4-B828-0EC582D155FB</title>
    <desc>Created with sketchtool.</desc>
    <g id="Desktop" stroke="none" stroke-width="1" fill="none" fill-rule="evenodd">
        <g id="Web_desktop" transform="translate(-841.000000, -9342.000000)">
            <g id="Sponzori-sekcija" transform="translate(220.000000, 5234.000000)">
                <g id="Zlatni-sekcija" transform="translate(0.000000, 1635.000000)">
                    <g id="3.-zlatni-sponzor" transform="translate(0.000000, 2142.000000)">
                        <g id="Group-27" transform="translate(0.000000, 281.000000)">
                            <g id="Dobartek-logo" transform="translate(621.000000, 50.000000)">
                                <path d="M53.5507056,35.5121951 C53.74515,35.3170732 54.3284833,34.5365854 54.3284833,34.5365854 C54.62015,35.0243902 54.9118167,35.4146341 55.3007056,35.902439 C57.0507056,37.8536585 59.2868167,38.8292683 61.8145945,38.8292683 C63.0784833,38.8292683 64.24515,38.4390244 65.3145945,37.6585366 C66.3840389,38.4390244 67.74515,38.8292683 69.3007056,38.8292683 C70.6618167,38.8292683 71.9257056,38.4390244 73.0923722,37.7560976 C74.1618167,38.4390244 75.4257056,38.8292683 76.5923722,38.8292683 C79.7034833,38.8292683 81.1618167,37.0741463 81.8423722,36 L81.8423722,35.902439 L82.2312611,35.1229268 L82.2312611,34.1473171 C82.2312611,33.8536585 82.3284833,32 82.5229278,29.5609756 C83.3007056,29.8536585 84.1757056,30.0487805 84.8562611,30.0487805 C84.9534833,32.4878049 85.3423722,34.9268293 87.0923722,36.6829268 C88.4534833,38.0497561 90.3007056,38.8292683 92.6340389,38.8292683 C95.2590389,38.8292683 97.49515,37.9512195 99.24515,36.8780488 C100.897928,38.1463415 102.842372,38.8292683 104.786817,38.8292683 C106.342372,38.8292683 107.800706,38.4390244 109.064594,37.5619512 C110.425706,38.7317073 111.884039,39.0253659 112.856261,39.0253659 C114.99515,39.0253659 116.647928,37.8536585 117.328483,36.7804878 C117.328483,36.6829268 117.425706,36.6829268 117.425706,36.5863415 C119.564594,38.6341463 121.99515,38.9268293 123.356261,38.9268293 C125.49515,38.9268293 127.342372,38.2439024 128.99515,37.0741463 C130.064594,38.4390244 131.717372,39.2195122 133.661817,39.2195122 C135.411817,39.2195122 136.87015,38.7317073 137.939594,38.0497561 C138.814594,38.7317073 139.981261,39.0253659 141.24515,39.0253659 C142.703483,39.0253659 144.259039,38.537561 145.328483,37.6585366 L145.522928,37.4634146 C146.009039,36.9756098 146.397928,36.4878049 146.689594,35.902439 C147.759039,37.6585366 149.703483,38.7317073 151.939594,38.7317073 C153.300706,38.7317073 154.661817,38.537561 155.925706,38.0497561 C157.092372,38.7317073 158.356261,38.8292683 159.231261,38.8292683 C160.49515,38.8292683 162.342372,38.537561 163.800706,37.0741463 C164.87015,36 165.259039,34.8292683 165.74515,29.5609756 C166.328483,29.7570732 167.009039,29.8536585 167.689594,29.8536585 C170.314594,29.8536585 172.453483,28.195122 173.328483,25.6585366 L173.425706,25.1707317 L174.786817,21.0731707 L173.134039,20.7804878 C173.134039,20.3902439 173.134039,20 173.231261,19.5121951 L173.231261,19.3170732 C173.328483,17.1707317 172.550706,15.804878 171.87015,15.0243902 C170.800706,13.7560976 169.24515,13.1707317 167.203483,13.0731707 L166.717372,13.0731707 C165.356261,13.0731707 164.189594,13.3658537 163.314594,14.0487805 C162.439594,13.5609756 161.564594,13.3658537 160.49515,13.3658537 L159.425706,13.3658537 C157.87015,13.3658537 156.800706,13.9512195 156.217372,14.4390244 L155.925706,14.7317073 C155.731261,14.6341463 155.536817,14.4390244 155.342372,14.3414634 C154.078483,13.6585366 152.62015,13.2682927 150.772928,13.2682927 C150.189594,13.2682927 149.606261,13.3658537 149.022928,13.4634146 L149.022928,12.7804878 L149.314594,10.3414634 C149.606261,8.3902439 149.800706,6.43902439 149.217372,4.29268293 C148.342372,1.46341463 146.49515,3.53538337e-13 143.578483,3.53538337e-13 C140.078483,3.53538337e-13 137.550706,2.14634146 137.161817,5.65853659 L136.772928,11.5121951 L136.772928,11.6097561 L136.481261,16.6829268 L136.384039,18.3414634 C136.286817,18.3414634 136.286817,18.4390244 136.189594,18.4390244 C134.24515,18.9268293 132.981261,20.6829268 133.078483,22.7317073 C133.082372,23.1717073 133.181539,23.6039024 133.37015,24 C132.981261,23.2195122 132.49515,22.7317073 132.009039,22.3414634 C130.74515,21.2682927 129.384039,21.1707317 128.703483,21.1707317 L128.217372,21.1707317 C128.217372,19.902439 128.022928,18.2439024 127.147928,16.7804878 C126.467372,15.5121951 124.717372,13.3658537 121.12015,13.3658537 C120.536817,13.3658537 120.050706,13.4634146 119.467372,13.5609756 L119.856261,8.09756098 C120.24515,5.95121951 119.661817,3.80487805 118.397928,2.24390244 C117.231261,0.87804878 115.675706,0.195121951 114.022928,0.195121951 C110.231261,0.195121951 108.384039,2.73170732 108.092372,5.17073171 L107.411817,13.9512195 C106.050706,13.3658537 104.689594,13.3658537 103.911817,13.3658537 C102.842372,13.3658537 101.772928,13.5609756 100.897928,13.9512195 C100.12015,13.2682927 99.1479278,12.8780488 98.0784833,12.7804878 C98.1757056,11.2195122 98.1757056,8.3902439 96.2312611,6.24390244 C95.0645945,4.97560976 93.5090389,4.3902439 91.7590389,4.3902439 C90.9812611,4.3902439 88.5507056,4.3902439 86.99515,6.24390244 C85.5368167,7.90243902 85.7312611,9.85365854 85.8284833,10.6341463 L85.8284833,10.7317073 L85.7312611,13.3658537 C85.24515,13.2682927 84.7590389,13.1707317 84.1757056,13.1707317 L83.6895945,13.1707317 C82.3284833,13.1707317 81.2590389,13.4634146 80.3840389,14.0487805 C79.5090389,13.5609756 78.4395945,13.3658537 77.2729278,13.3658537 C76.5923722,13.3658537 75.7173722,13.3658537 74.8423722,13.6585366 C74.1618167,13.8536585 73.6757056,14.1463415 73.1895945,14.5365854 C72.2173722,13.7560976 70.7590389,13.1707317 68.62015,13.1707317 C68.2312611,13.1707317 67.4534833,13.1707317 66.6757056,13.3658537 C66.4812611,13.4634146 66.2868167,13.4634146 66.0923722,13.5609756 C65.2173722,13.3658537 64.3423722,13.2682927 63.4673722,13.2682927 C60.3562611,13.2682927 57.6340389,14.5365854 55.6895945,16.7804878 L55.3007056,17.1707317 C55.1062611,16.7804878 54.8145945,16.4878049 54.5229278,16.195122 C53.3562611,14.8292683 51.2173722,13.2682927 47.5229278,13.2682927 L47.4257056,13.2682927 C47.4257056,11.6097561 47.5229278,10.5365854 47.62015,9.46341463 L47.8145945,6.63414634 C47.8145945,3.12195122 44.99515,0.0975609756 41.5923722,0.0975609756 C40.1340389,0.0975609756 38.87015,0.487804878 37.8007056,1.17073171 C36.4395945,2.04878049 35.6618167,3.51219512 35.5645945,5.07317073 L35.5645945,5.85365854 C35.1757056,7.2195122 34.9812611,10.0487805 34.7868167,13.2682927 C33.9118167,12.8780488 33.0368167,12.6829268 31.9673722,12.6829268 C30.6587611,12.6790244 29.3764,13.0517073 28.2729278,13.7560976 C27.5923722,13.4634146 26.8145945,13.2682927 26.2312611,13.2682927 C25.3562611,13.2682927 24.4812611,13.5609756 23.6062611,14.1463415 L23.8007056,12 L24.0923722,8.97560976 C24.0923722,8.58536585 24.0923722,8.29268293 24.1895945,7.90243902 C24.3840389,5.95121951 24.5784833,3.6097561 22.8284833,1.75609756 C21.8562611,0.682926829 20.49515,0.0975609756 19.0368167,0.0975609756 C17.4812611,0.0975609756 15.7312611,0.292682927 14.2729278,1.36585366 C12.62015,2.63414634 12.1340389,4.68292683 11.9395945,6.14634146 L11.3562611,13.2682927 L11.2590389,13.2682927 C8.05070557,13.2682927 5.42570557,14.4390244 3.3840389,16.6829268 C1.53681668,18.7317073 0.467372232,21.5609756 0.0784833436,24.9756098 C-0.310405545,29.1707317 0.759038899,32.9756098 2.99515001,35.6107317 C4.74515001,37.6585366 7.17570557,38.7317073 9.80070557,38.7317073 C10.9673722,38.7317073 12.5229278,38.4390244 14.0784833,37.0741463 C15.3423722,38.1463415 16.99515,38.7317073 18.8423722,38.7317073 C20.49515,38.7317073 21.8562611,38.0497561 22.9257056,37.0741463 C24.3840389,38.1463415 26.1340389,38.7317073 28.1757056,38.7317073 C30.5090389,38.7317073 32.9395945,37.7560976 34.8840389,35.804878 C34.9812611,36 35.0784833,36.0985366 35.1757056,36.2926829 C35.8562611,37.3658537 37.3145945,38.7317073 40.0368167,38.7317073 C40.8145945,38.7317073 41.5923722,38.537561 42.37015,38.2439024 C43.4395945,38.6341463 44.7034833,38.7317073 45.9673722,38.7317073 C48.3007056,38.7317073 50.3423722,38.1463415 51.99515,36.8780488 C52.3840389,36.5863415 53.1618167,35.902439 53.5507056,35.5121951" id="Fill-1" fill="#FFFFFF"></path>
                                <path d="M134.537108,29.8538537 C132.494469,29.8538537 131.425997,31.2197073 131.425997,32.683122 C131.425997,33.9514146 132.106553,35.5123902 133.952803,35.5123902 C136.578775,35.5123902 137.064886,34.0489756 137.064886,33.0733659 C137.064886,31.7075122 136.773219,29.8538537 134.537108,29.8538537 L134.537108,29.8538537 Z M169.828775,24.0977561 C169.537108,23.6099512 169.634331,21.3660488 169.730581,19.4148293 C169.730581,18.7319024 169.634331,18.1465366 169.244469,17.7562927 C168.856553,17.2684878 168.175997,17.0733659 167.203775,16.9758049 L166.813914,16.9758049 C165.550025,16.9758049 165.259331,17.3660488 164.967664,17.8538537 C164.869469,17.9514146 164.869469,18.1465366 164.869469,18.2440976 L164.869469,18.4392195 C164.287108,19.0245854 163.509331,20.1953171 162.828775,21.3660488 C162.828775,19.7075122 162.828775,18.9270244 162.633358,18.5367805 C162.050997,17.1709268 160.980581,17.1709268 160.688914,17.1709268 L159.814886,17.1709268 C158.842664,17.1709268 158.648219,17.6587317 158.550025,17.9514146 C158.356553,18.5367805 157.967664,25.8538537 157.772247,30.2440976 C156.703775,31.5123902 155.633358,32.292878 154.953775,32.390439 L154.759331,32.390439 C154.564886,32.390439 154.467664,32.390439 154.369469,31.8050732 C154.369469,31.5123902 154.467664,30.1465366 154.661136,28.683122 C154.953775,25.3660488 155.439886,20.7806829 155.147247,19.4148293 C154.855581,17.8538537 153.397247,17.0733659 150.966692,17.0733659 C148.536136,17.0733659 146.495442,19.3172683 145.133358,21.1709268 L145.619469,12.585561 L145.911136,9.85385366 C146.105581,8.19531707 146.300997,6.73190244 145.911136,5.46360976 C145.523219,4.29287805 145.133358,3.80507317 143.773219,3.80507317 C142.022247,3.80507317 141.148219,4.58556098 140.856553,6.24409756 C140.758358,7.12214634 140.662108,9.2684878 140.467664,11.8050732 L140.175997,16.9758049 L139.884331,20.292878 L139.786136,20.390439 C138.912108,21.3660488 137.355581,21.9514146 137.064886,22.0489756 C136.869469,22.0489756 136.675025,22.3416585 136.675025,22.5367805 C136.675025,23.0245854 137.550997,23.7075122 138.133358,23.7075122 C138.523219,23.8050732 139.105581,23.6099512 139.689886,23.2197073 C139.495442,27.0245854 139.398219,30.2440976 139.398219,32.9758049 C139.398219,34.4392195 140.175997,35.3172683 141.439886,35.3172683 C142.216692,35.3172683 142.994469,35.0245854 143.384331,34.7319024 C143.578775,34.5367805 144.161136,34.0489756 144.745442,25.9514146 C146.981553,21.7562927 148.439886,20.1953171 149.120442,20.1953171 C149.412108,20.1953171 149.703775,20.292878 149.800025,20.488 C150.286136,21.0733659 150.189886,22.4392195 150.092664,23.5123902 L150.092664,23.7075122 C150.092664,24.1953171 149.994469,24.7806829 149.898219,25.4636098 C149.703775,27.3172683 149.412108,29.8538537 149.508358,32.488 C149.508358,34.2440976 150.870442,35.1221463 152.230581,35.1221463 C154.564886,35.1221463 156.313914,34.1465366 157.577803,33.1709268 C157.577803,33.9514146 157.675997,34.4392195 157.772247,34.6343415 C158.162108,35.1221463 159.328775,35.2197073 159.522247,35.2197073 C160.008358,35.2197073 160.980581,35.1221463 161.466692,34.5367805 C161.661136,34.3416585 161.952803,34.0489756 162.438914,28.0001951 C162.925025,25.8538537 163.995442,23.5123902 164.967664,21.9514146 C165.162108,23.7075122 165.550025,24.8782439 166.134331,25.4636098 C166.620442,25.9514146 167.300025,26.2440976 167.884331,26.2440976 C168.856553,26.2440976 169.730581,25.6587317 170.023219,24.585561 L170.120442,24.0977561 L169.828775,24.0977561 Z M32.5509972,23.1221463 C32.8416917,23.1221463 33.1343306,23.0245854 33.4259972,23.0245854 L33.4259972,24.683122 C33.4259972,28.488 31.2871083,32.1953171 29.1482195,32.1953171 C27.8843306,32.1953171 26.9121083,29.7562927 26.9121083,26.4392195 C26.9121083,23.5123902 27.7871083,21.8538537 28.4666917,20.585561 C28.5648861,20.488 28.5648861,20.390439 28.6621083,20.1953171 C28.9528028,22.2440976 30.2176639,23.1221463 32.5509972,23.1221463 L32.5509972,23.1221463 Z M14.4676639,20.0001951 C14.2732195,22.2440976 14.1759972,23.8050732 14.1759972,24.7806829 C12.9111361,28.683122 11.5509972,31.0245854 10.3843306,31.0245854 C10.1898861,31.0245854 9.99446945,30.9270244 9.70377501,30.6343415 C9.31488612,30.2440976 8.43988612,28.8782439 8.73155279,25.7562927 C9.02224723,21.7562927 10.4805806,19.3172683 12.7176639,19.3172683 C13.3972472,19.2197073 13.9815528,19.6099512 14.4676639,20.0001951 L14.4676639,20.0001951 Z M31.4815528,19.4148293 C31.4815528,18.9270244 31.6759972,18.3416585 32.0648861,18.3416585 C32.6482195,18.3416585 33.1343306,19.3172683 33.3278028,21.1709268 C33.1343306,21.2684878 32.9398861,21.2684878 32.7454417,21.2684878 C32.3555806,21.2684878 31.4815528,20.585561 31.4815528,19.4148293 L31.4815528,19.4148293 Z M48.3972472,26.4392195 C48.1065528,30.4392195 46.6482195,32.8782439 44.4121083,32.8782439 C43.5361361,32.8782439 42.953775,32.488 42.5639139,32.0977561 L43.1482195,23.1221463 C43.6343306,22.0489756 44.8982195,19.7075122 46.5509972,19.7075122 C46.8426639,19.7075122 47.1343306,19.8050732 47.328775,20.0977561 C48.3009972,21.0733659 48.6898861,23.5123902 48.3972472,26.4392195 L48.3972472,26.4392195 Z M66.2871083,19.8050732 C66.0926639,21.6587317 65.8972472,24.390439 65.703775,26.3416585 C65.2176639,27.6099512 63.8565528,31.0245854 62.3009972,31.0245854 C62.1065528,31.0245854 61.9121083,30.9270244 61.6204417,30.6343415 C61.2315528,30.2440976 60.3565528,28.8782439 60.6482195,25.7562927 C60.9398861,21.7562927 62.3982195,19.3172683 64.6343306,19.3172683 C65.2176639,19.2197073 65.703775,19.4148293 66.2871083,19.8050732 L66.2871083,19.8050732 Z M105.370442,20.0001951 C105.563914,20.292878 105.370442,22.0489756 104.689886,23.3172683 C104.215442,24.1192195 103.661275,24.8714146 103.037108,25.5611707 C103.037108,24.683122 103.133358,23.8050732 103.231553,23.2197073 C104.009331,20.390439 104.786136,20.0001951 105.370442,20.0001951 L105.370442,20.0001951 Z M128.605581,24.7806829 C127.633358,24.7806829 126.564886,25.3660488 126.564886,26.7319024 C126.564886,27.7075122 127.147247,28.0001951 127.537108,28.0977561 C127.828775,28.1953171 127.828775,28.1953171 127.828775,28.292878 C127.828775,28.9758049 127.245442,31.9026341 124.814886,31.9026341 C123.842664,31.9026341 122.870442,30.3416585 121.898219,27.7075122 C123.356553,25.9514146 124.425997,23.3172683 124.425997,21.4636098 C124.425997,19.3172683 124.036136,16.8782439 121.023219,16.8782439 C119.855581,16.8782439 117.716692,17.4636098 115.384331,20.8782439 L116.162108,7.31726829 C116.356553,6.24409756 116.064886,5.17092683 115.480581,4.488 C115.092664,4.00019512 114.508358,3.7075122 113.827803,3.7075122 C111.883358,3.7075122 111.591692,4.8782439 111.495442,5.36604878 C111.495442,5.75629268 110.328775,18.3416585 110.231553,26.8294634 C109.161136,29.9514146 107.800997,31.6099512 106.439886,31.6099512 C104.591692,31.6099512 103.717664,29.5611707 103.327803,28.1953171 C105.272247,26.0489756 107.508358,22.9270244 107.508358,20.488 C107.508358,16.8782439 104.981553,16.8782439 103.717664,16.8782439 C99.6343306,16.8782439 98.5648861,21.8538537 98.2722472,24.0001951 C97.9805806,26.0489756 98.1759972,28.0001951 98.8565528,29.8538537 C96.7176639,31.6099512 95.550025,32.0001951 94.9676639,32.0001951 C93.8972472,32.0001951 93.6055806,31.3172683 93.6055806,27.4148293 C93.6055806,26.3416585 93.703775,23.3172683 93.9954417,19.3172683 C95.1621083,19.3172683 98.2722472,19.1221463 98.5648861,17.8538537 C98.6621083,17.2684878 98.6621083,16.8782439 98.4666917,16.585561 C98.3704417,16.390439 98.1759972,16.292878 97.8843306,16.292878 C97.7861361,16.292878 95.453775,16.390439 94.1898861,16.488 C94.1898861,15.5123902 94.2871083,14.7319024 94.2871083,14.1465366 C94.2871083,13.6587317 94.3833583,13.3660488 94.3833583,13.1709268 L94.3833583,12.683122 C94.4815528,11.6099512 94.4815528,9.75629268 93.6055806,8.68312195 C93.1194695,8.19531707 92.5371083,8.00019512 91.7593306,8.00019512 C90.6889139,8.00019512 90.0083583,8.19531707 89.7166917,8.58556098 C89.328775,9.07336585 89.4259972,9.56117073 89.4259972,10.0489756 L89.4259972,10.5367805 C89.4259972,11.0245854 89.2305806,14.2440976 89.0361361,17.6587317 C88.9398861,18.8294634 88.9398861,20.0977561 88.8426639,21.3660488 C87.3843306,23.1221463 86.703775,23.7075122 86.5093306,23.8050732 C86.3139139,23.2197073 86.3139139,21.0733659 86.5093306,19.1221463 C86.5093306,18.4392195 86.4121083,17.8538537 86.0232195,17.4636098 C85.6343306,16.9758049 84.953775,16.7806829 83.9815528,16.683122 L83.5926639,16.683122 C82.2315528,16.683122 82.0371083,17.0733659 81.7454417,17.6587317 C81.6482195,17.9514146 81.5509972,18.6343415 81.5509972,19.0245854 C80.8704417,19.7075122 80.0926639,20.488 79.5083583,21.1709268 C79.6065528,19.9026341 79.6065528,18.9270244 79.6065528,18.7319024 C79.6065528,17.6587317 78.6343306,16.8782439 77.1759972,16.8782439 C76.1055806,16.8782439 75.328775,16.9758049 75.1333583,17.6587317 C75.0371083,17.9514146 74.5509972,22.8294634 74.3565528,26.9270244 C72.9954417,29.9514146 71.7305806,31.7075122 70.8565528,31.7075122 C70.7583583,31.7075122 70.5648861,31.5123902 70.5648861,31.1221463 C70.4676639,29.0733659 70.8565528,24.488 71.0509972,21.4636098 C71.2444695,19.5123902 71.3426639,18.4392195 71.2444695,18.1465366 C71.2444695,17.4636098 70.6621083,16.683122 68.4259972,16.683122 C67.8416917,16.683122 66.7732195,16.683122 66.578775,17.4636098 C65.5093306,17.0733659 64.4389139,16.8782439 63.1759972,16.8782439 C61.0361361,16.8782439 59.2871083,17.6587317 58.1194695,19.1221463 C56.2732195,20.9758049 54.5232195,23.4148293 53.1621083,25.5611707 C53.3565528,22.2440976 52.8704417,19.9026341 51.6065528,18.5367805 C50.6343306,17.4636098 49.1759972,16.8782439 47.2315528,16.8782439 C45.578775,16.8782439 44.2176639,17.9514146 43.2454417,19.1221463 C43.3426639,17.6587317 43.3426639,16.292878 43.3426639,14.9270244 C43.3426639,14.3416585 43.3426639,13.7562927 43.4398861,13.2684878 C43.4398861,11.4148293 43.5361361,10.1465366 43.6343306,8.97580488 C43.7315528,8.0977561 43.7315528,7.31726829 43.7315528,6.43921951 C43.7315528,4.97580488 42.4676639,3.60995122 41.1055806,3.60995122 C39.453775,3.60995122 38.7732195,4.29287805 38.7732195,4.97580488 C38.7732195,5.07336585 38.7732195,5.36604878 38.675025,5.85385366 L38.0926639,15.4148293 C37.3148861,16.585561 36.1482195,18.1465366 34.9815528,19.3172683 C34.300025,16.390439 32.8416917,16.0977561 31.7732195,16.0977561 C30.1204417,16.0977561 28.8565528,17.0733659 28.5648861,18.4392195 C28.4666917,18.2440976 28.2732195,18.0489756 28.078775,17.7562927 C27.5926639,17.3660488 26.6204417,16.9758049 26.1343306,16.9758049 C25.1621083,16.9758049 22.5371083,21.2684878 22.3426639,25.2684878 L22.3426639,26.0489756 C21.3704417,29.6587317 20.3982195,30.9270244 19.9121083,30.9270244 C19.8148861,30.9270244 19.1343306,30.4392195 19.328775,23.6099512 C19.4259972,19.6099512 19.9121083,14.8294634 20.2028028,11.7075122 C20.3009972,10.4392195 20.3982195,9.36604878 20.3982195,8.78068293 C20.3982195,8.39043902 20.4954417,8.00019512 20.4954417,7.60995122 C20.5926639,6.04897561 20.6889139,4.8782439 20.1065528,4.19531707 C19.8148861,3.90263415 19.4259972,3.7075122 18.9398861,3.7075122 C17.578775,3.7075122 16.8982195,3.90263415 16.4121083,4.19531707 C15.7315528,4.68312195 15.5371083,5.95141463 15.5371083,6.43921951 C15.4398861,7.02458537 14.953775,12.683122 14.6621083,17.5611707 C13.9815528,17.1709268 12.8148861,16.8782439 11.3565528,16.8782439 C7.07780279,16.8782439 4.35655279,19.9026341 3.87044168,25.2684878 C3.57877501,28.390439 4.25933057,31.2197073 5.91210834,32.9758049 C6.98155279,34.2440976 8.43988612,34.8294634 9.99446945,34.8294634 C12.0371083,34.8294634 13.5926639,32.1953171 14.5648861,29.4636098 C15.1482195,33.0733659 16.6065528,34.8294634 18.9398861,34.8294634 C20.3982195,34.8294634 21.7593306,33.1709268 22.9259972,30.0489756 C23.703775,33.1709268 25.453775,34.8294634 28.1759972,34.8294634 C31.7732195,34.8294634 35.6621083,30.9270244 35.6621083,23.6099512 C35.6621083,22.9270244 35.5648861,22.2440976 35.5648861,21.6587317 C36.5371083,20.8782439 37.4121083,19.9026341 38.1889139,19.1221463 C37.8982195,25.4636098 37.6065528,30.7319024 37.8009972,32.0977561 C37.9954417,33.9514146 38.0926639,34.9270244 40.1333583,34.9270244 C40.8148861,34.9270244 41.4954417,34.5367805 42.0778028,33.8538537 C43.1482195,34.5367805 44.5083583,34.9270244 46.0648861,34.9270244 C48.0093306,34.9270244 49.5648861,34.3416585 50.8278028,33.0733659 L51.703775,32.0001951 C52.2861361,31.2197073 52.9676639,30.1465366 53.6482195,29.0733659 C54.4259972,27.8050732 55.3009972,26.4392195 56.2732195,25.0733659 L56.2732195,25.3660488 C55.9815528,28.585561 56.6611361,31.5123902 58.2176639,33.2684878 C59.1898861,34.4392195 60.550025,35.0245854 62.1065528,35.0245854 C63.4666917,35.0245854 64.828775,33.8538537 65.9954417,31.4148293 C66.3833583,33.8538537 67.6482195,35.0245854 69.5926639,35.0245854 C71.3426639,35.0245854 72.8982195,33.7562927 74.453775,31.3172683 C74.453775,32.488 74.5509972,33.1709268 74.7454417,33.6587317 C75.0371083,34.4392195 76.1055806,35.0245854 76.9815528,35.0245854 C78.050025,35.0245854 78.6343306,34.7319024 79.0222472,34.0489756 L79.0222472,33.8538537 C79.0222472,33.7562927 79.3148861,29.7562927 79.5083583,25.8538537 C79.9944695,24.585561 81.0648861,23.0245854 81.8426639,21.9514146 C81.9389139,23.1221463 82.328775,24.585561 83.0093306,25.2684878 C83.4954417,25.7562927 84.6621083,26.2440976 85.6343306,26.2440976 C85.8278028,26.2440976 86.0232195,26.2440976 86.2176639,26.1465366 C87.1898861,25.9514146 88.1621083,25.1709268 88.8426639,24.488 C88.8426639,25.6587317 88.7444695,26.5367805 88.7444695,27.1221463 L88.7444695,27.6099512 C88.7444695,30.4392195 88.6482195,32.683122 89.9121083,33.9514146 C90.5926639,34.6343415 91.5648861,35.0245854 92.925025,35.0245854 C95.8416917,35.0245854 98.1759972,33.4636098 100.023219,31.9026341 C101.287108,33.8538537 103.133358,35.0245854 105.175997,35.0245854 C107.702803,35.0245854 109.550997,32.9758049 110.619469,31.1221463 C110.814886,33.4636098 111.105581,33.8538537 111.203775,33.9514146 C111.883358,34.8294634 112.563914,35.2197073 113.341692,35.2197073 C114.217664,35.2197073 114.800025,34.6343415 114.994469,34.4392195 C115.384331,33.9514146 115.480581,28.7806829 115.480581,27.8050732 C115.480581,27.4148293 115.480581,26.5367805 115.578775,25.3660488 C116.648219,23.1221463 118.688914,20.0001951 120.147247,20.0001951 C120.245442,20.0001951 120.439886,20.0001951 120.537108,20.488 C120.827803,21.7562927 119.855581,24.7806829 118.883358,25.3660488 C118.495442,25.5611707 118.106553,25.6587317 117.911136,25.6587317 L117.230581,25.6587317 C117.037108,25.6587317 116.842664,25.6587317 116.648219,25.8538537 C116.258358,26.1465366 115.772247,27.4148293 116.064886,28.390439 C116.258358,28.9758049 116.842664,29.7562927 118.300997,29.8538537 C119.467664,34.3416585 121.995442,35.3172683 123.939886,35.3172683 C128.800997,35.3172683 130.841692,29.9514146 130.841692,27.7075122 C130.550025,24.9758049 128.897247,24.7806829 128.605581,24.7806829 L128.605581,24.7806829 Z" id="Fill-4" fill="#C6281D"></path>
                            </g>
                        </g>
                    </g>
                </g>
            </g>
        </g>
    </g>
</svg>