<?xml version="1.0" encoding="UTF-8"?>
<svg width="337px" height="138px" viewBox="0 0 337 138" version="1.1" xmlns="http://www.w3.org/2000/svg" xmlns:xlink="http://www.w3.org/1999/xlink">
    <!-- Generator: sketchtool 57.1 (101010) - https://sketch.com -->
    <title>4F0395BC-44E3-4B80-BAA0-BBA179096545</title>
    <desc>Created with sketchtool.</desc>
    <g id="Asset-Artboard-Page" stroke="none" stroke-width="1" fill="none" fill-rule="evenodd">
        <g id="Fesb-logo" fill="#A9BAB8">
            <path d="M328.505815,70.4069228 C327.588838,69.1868544 327.611754,68.4624388 328.498401,67.2518178 C335.041593,58.3155589 337.836334,48.3053294 336.437447,37.2933347 C334.535756,22.3235406 326.619289,11.4694529 313.354969,4.43280279 C308.741439,1.98558037 303.744403,0.771922713 298.620318,0.000269926644 L206.374655,0.000269926644 C206.106066,0.0718004866 205.841184,0.17842151 205.56754,0.21013789 C197.321487,1.15994226 190.028133,4.30796171 183.603564,9.56579528 C167.35612,22.8630565 163.140924,46.0774224 174.137234,63.928346 C182.362056,77.2802674 194.569882,84.2015238 210.324295,84.5510788 C218.775918,84.7390153 223.955945,93.3047998 219.915989,100.726433 C217.787834,104.63632 214.301232,106.308178 209.88788,106.305142 C184.360129,106.285572 158.832379,106.296032 133.304629,106.295019 C130.780162,106.295019 128.251651,106.370936 125.731565,106.260604 C122.284729,106.109782 119.423599,104.670736 117.468662,101.785557 C114.993734,98.1321004 114.753453,94.2242374 116.760962,90.3072645 C118.771841,86.3845556 122.194076,84.5885312 126.516775,84.5824578 C146.883033,84.5534407 167.248954,84.5709859 187.614875,84.5595141 C188.241358,84.5591766 188.928838,84.7494749 189.926696,84.0311327 C189.524318,83.8803111 189.303246,83.8189028 189.101382,83.7186926 C185.819676,82.0849616 182.804874,80.0490399 180.050236,77.6355583 C179.351972,77.023837 178.559348,76.9583798 177.699998,76.9587172 C160.419649,76.9674899 143.1393,76.9216023 125.859288,76.9846977 C114.605847,77.0255241 105.872492,87.9858954 108.196444,98.9918168 C110.078252,107.904794 117.409687,113.878608 126.616527,113.885694 C154.444639,113.907963 182.272414,113.895141 210.10019,113.89008 C211.053226,113.889743 212.015698,113.904926 212.956939,113.784472 C221.770837,112.654491 228.755162,104.751039 228.976234,95.6916262 C229.185511,87.111333 222.577615,78.9450399 214.111838,77.3106341 C211.236217,76.75526 208.298925,77.0123652 205.40915,76.6030889 C185.784628,73.8228445 172.399662,54.8966006 176.340877,35.4713299 C179.675492,19.0338096 193.719294,7.53156063 210.601646,7.51232836 C238.429421,7.48061198 266.257196,7.49613276 294.084972,7.52042616 C295.874105,7.5221132 297.688513,7.61894938 299.446979,7.92329167 C313.537623,10.3600544 323.284,18.259795 327.521438,31.9039119 C331.773367,45.5945911 328.221387,57.685955 318.005906,67.7498325 C317.056577,68.6847909 317.150937,69.094742 318.057804,69.9655928 C327.104232,78.6525069 330.767085,89.3034748 328.578944,101.596946 C325.549651,118.616833 311.364647,130.145063 294.038466,130.159571 C277.318884,130.17408 260.599977,130.179141 243.88107,130.135615 C242.33424,130.131566 241.078915,130.451767 239.916602,131.511904 C237.878089,133.371023 235.521111,134.797586 233.14425,136.188045 C232.571013,136.523429 231.43229,136.597322 231.654373,137.445903 C231.819503,138.077532 232.852408,137.737087 233.489675,137.737424 C253.743038,137.75362 273.997075,137.751258 294.251113,137.750246 C304.585892,137.749908 313.699046,134.402481 321.639777,127.797376 C338.760051,113.556046 341.834165,88.1390787 328.505815,70.4069228" id="Fill-1"></path>
            <path d="M1.15591002,73.3832713 C2.64578704,70.6738825 4.34056006,68.0987823 6.34234009,65.7467089 C7.19663511,64.7425818 7.52015511,63.709775 7.53565711,62.397594 C7.63001711,54.4442053 7.10968911,46.4776576 7.82244412,38.5387774 C8.56889913,30.2199755 12.1188572,23.1323765 18.0453393,17.340088 C25,10.5426601 33.5395885,7.50362346 43.2108146,7.50328605 C59.9159049,7.50294864 76.6213321,7.49147676 93.3264224,7.52521759 C94.6491474,7.52757945 95.6796934,7.16520292 96.6647444,6.29131539 C98.9809455,4.237511 101.60685,2.61761369 104.30622,1.11682151 C104.836995,0.821926649 105.471903,0.659295842 105.712184,1.29461234e-13 L38.3799196,1.29461234e-13 C33.2490945,0.683589241 28.2517214,1.85945721 23.6375173,4.28339853 C10.1494292,11.3696479 2.19016303,22.366797 0.206581003,37.5613056 C0.170522003,37.8356185 0.070433001,38.1011589 -5.74686965e-14,38.3707481 L-5.74686965e-14,74.7221075 C0.742074011,74.5861319 0.872493013,73.8984938 1.15591002,73.3832713" id="Fill-4"></path>
            <path d="M84.1100798,41.774995 C83.8873228,52.0311954 84.0632368,62.2965057 84.0790758,72.5577672 C84.0800868,73.174887 83.8526118,73.8760215 84.3749618,74.4239726 C85.0000968,74.1783393 85.0985008,73.6391608 85.3286718,73.2103149 C86.6059018,70.8322611 87.9667079,68.4650044 89.7966179,66.5090485 C91.3255869,64.8739678 91.6609019,63.1589214 91.6811219,61.0457331 C91.7566099,53.2033518 91.0293639,45.3231808 92.0198069,37.5239877 C93.403866,26.6243498 99.0654661,18.3143205 108.379809,12.527768 C114.162729,8.93538178 120.566741,7.51421799 127.313144,7.50814464 C143.970717,7.49296127 160.62829,7.48924977 177.28519,7.52805173 C178.669249,7.53142581 179.747649,7.16297594 180.78325,6.25905908 C183.157078,4.18770948 185.793766,2.48109825 188.582778,1.01472175 C189.078505,0.753905124 189.611976,0.549773098 189.878206,0.000134963322 L122.208942,0.000134963322 C116.389288,0.814301211 110.773183,2.3083452 105.692908,5.34873147 C91.9301649,13.5841935 84.4598858,25.6529512 84.1100798,41.774995" id="Fill-7"></path>
            <path d="M77.5803645,53.0625203 C65.8561347,53.1269653 54.1268498,52.888755 42.408012,53.1455227 C24.9173752,53.5288186 12.1531634,61.757195 4.07392554,77.2344516 C1.73750458,81.7101728 0.68808659,86.5880847 0.000269599993,91.5513609 L0.000269599993,137.663605 C1.73750458,137.692622 3.47507655,137.740871 5.21231153,137.746419 C7.49919349,137.752006 7.50660749,137.737835 7.50728149,135.375639 C7.50997749,122.307478 7.48234349,109.239654 7.52042449,96.1718303 C7.53862249,89.9625052 8.77507548,84.0129845 11.9280474,78.590833 C17.9782083,68.1854981 26.9562252,62.2241681 38.985103,60.9666473 C44.245336,60.4166718 49.5203969,60.7635275 54.7880438,60.7189896 C62.4729917,60.6542072 70.1589506,60.669728 77.8438985,60.7301241 C79.3250135,60.741596 79.8787045,60.2310972 79.7931065,58.7907012 C79.7230105,57.6171951 79.6973985,56.428843 79.7998465,55.2597232 C79.9488005,53.5578357 79.2727785,53.0534103 77.5803645,53.0625203" id="Fill-9"></path>
            <path d="M210.396548,118.13009 C196.425876,118.187449 182.45453,118.144598 168.483522,118.144598 C168.483522,118.131102 168.483185,118.117606 168.483185,118.104109 C153.951408,118.104109 139.41761,118.237723 124.887855,118.059909 C114.125424,117.927645 103.390626,108.794002 103.530481,95.1751905 C103.663259,82.2521149 113.660364,72.746648 126.596445,72.7372006 C141.689664,72.7260661 156.782882,72.7341639 171.876101,72.7338265 C172.324985,72.7338265 172.775554,72.7544084 173.222416,72.7247165 C173.647373,72.6967116 174.198368,72.8704769 174.404949,72.3360221 C174.569068,71.9125747 174.147481,71.640961 173.929442,71.3288583 C172.837562,69.7669952 171.641212,68.2662031 170.688176,66.6236994 C169.94408,65.3408731 169.047323,64.8924574 167.57497,64.9008926 C157.419138,64.9592643 147.263307,64.8954941 137.107812,64.9477924 C132.568422,64.9710736 128.029706,64.7672789 123.48762,65.1623841 C106.091681,66.6749855 93.1946912,83.4971515 96.3456411,100.647278 C99.0402931,115.31273 111.602979,125.881371 126.537807,125.902965 C154.423882,125.944129 182.309957,125.914437 210.196033,125.916124 C212.223424,125.916461 214.222508,125.658007 216.210808,125.293943 C231.327617,122.52787 242.418961,107.665034 240.725873,92.4438702 C238.979202,76.741225 225.983808,65.1046872 210.084823,64.9181005 C201.153649,64.8135039 194.443979,60.7183792 190.288095,52.9043402 C186.021001,44.8811081 186.581769,36.780272 191.630703,29.3090399 C196.107074,22.6857148 202.631394,19.4978811 210.706251,19.5144141 C228.324273,19.5501794 245.942969,19.5204875 263.560992,19.5255486 C274.277591,19.5285853 284.997224,19.3929471 295.710117,19.5991036 C307.308308,19.8221305 317.647805,29.5253186 317.275757,42.9626045 C316.925277,55.6208145 306.955469,64.917763 294.250907,64.9278853 C279.101409,64.940032 263.952249,64.9312594 248.802751,64.9319342 C248.297925,64.9319342 247.792762,64.9302472 247.287936,64.9437435 C246.269522,64.971411 246.118546,65.3553816 246.720428,66.1803449 C247.843649,67.7192642 249.032585,69.2284916 249.973489,70.8760564 C250.769146,72.2678656 251.731955,72.7739781 253.338771,72.7672299 C267.029059,72.7091957 280.719683,72.730115 294.410308,72.7422617 C295.585427,72.7436113 296.776722,72.7490099 297.933306,72.9278363 C311.087763,74.9647702 318.691157,87.0129461 317.067828,98.7210144 C315.611651,109.224198 306.513325,117.74477 295.893108,118.084877 C291.745312,118.217479 287.590439,118.142911 283.438262,118.145611 C273.33871,118.151347 263.239157,118.143924 253.139604,118.154383 C252.265089,118.155395 251.289811,117.961048 250.711856,118.914902 C249.460575,120.979503 248.125044,122.984383 246.623035,124.877244 C246.189653,125.423508 246.301874,125.824686 247.049677,125.885082 C247.551807,125.924912 248.058655,125.915112 248.563481,125.915112 C263.600758,125.916461 278.638034,125.922197 293.674974,125.905664 C295.017582,125.903977 296.365919,125.811527 297.700439,125.66543 C310.615289,124.255738 321.15766,114.884559 324.114835,102.210828 C327.013709,89.7891416 321.657094,76.8039829 310.758514,69.8311028 C309.220783,68.8472202 309.239992,68.8755625 310.729869,67.8879684 C319.686992,61.9492448 324.592701,53.5730835 324.892631,42.8701546 C325.37016,25.8360962 311.437906,11.7999106 294.251918,11.7692064 C266.365843,11.7189326 238.479768,11.7563849 210.593693,11.7543604 C208.565964,11.7543604 206.56688,12.01349 204.57858,12.3772162 C189.446269,15.1456513 178.3219,30.1758418 180.10901,45.4337829 C181.939257,61.0618609 194.916116,72.6221443 210.756127,72.7355135 C226.197803,72.8455086 237.018536,88.0892786 232.044079,102.724027 C228.850667,112.118486 220.552716,118.088589 210.396548,118.13009" id="Fill-11"></path>
            <path d="M252.608091,92.7088061 C251.632139,79.4068205 245.615004,68.8817053 234.930756,61.0399985 C227.606398,55.6644091 219.282835,53.1743357 210.204392,53.0818858 C203.814534,53.0171034 199.099904,47.8503698 199.524187,41.686932 C199.967679,35.2501934 204.487523,31.3845063 210.980166,31.3760711 C220.910208,31.3629122 230.840924,31.3720222 240.77164,31.3720222 C258.612757,31.3723596 276.454211,31.3629122 294.295328,31.38012 C299.385039,31.3851811 303.488688,34.3617973 304.860615,38.9434649 C307.027188,46.1818857 301.968481,53.0754751 294.411256,53.086947 C274.270114,53.1176511 254.129309,53.1085411 233.988167,53.1159641 C233.483004,53.1159641 232.977504,53.1061792 232.473352,53.1281108 C232.152528,53.1422819 231.721505,53.0427465 231.577606,53.4088345 C231.366981,53.9432893 231.911573,54.0499103 232.21521,54.2169274 C234.232829,55.326326 236.378845,56.3216805 238.010262,57.9267319 C240.456208,60.3331281 243.26207,60.7872797 246.552538,60.7606244 C262.709666,60.6307222 278.868479,60.718111 295.026281,60.6907809 C304.171787,60.6752601 313.195973,52.8416511 312.962769,41.9595579 C312.709682,30.13812 302.552502,23.6285012 293.960013,23.6957957 C266.246144,23.9146235 238.529579,23.7759487 210.813688,23.7843839 C209.694511,23.7847213 208.555451,23.7675135 207.459189,23.9547751 C198.638551,25.4609658 192.02897,33.0796457 191.859459,41.8741936 C191.689274,50.6994457 197.94669,58.5816415 206.761262,60.3277295 C209.542524,60.8787173 212.464988,60.6762723 215.283656,61.0872357 C235.154524,63.9835487 248.261802,82.4235883 244.46516,102.094493 C241.262312,118.688909 227.077645,130.143585 210.135981,130.156743 C182.644868,130.178338 155.153419,130.158093 127.66197,130.170577 C125.129415,130.171589 122.610677,130.018743 120.132716,129.524778 C107.05442,126.918298 97.9513755,119.376885 93.6077825,106.825633 C89.1758955,94.0166008 91.7408025,82.1735687 100.709721,72.0317494 C107.499597,64.3533482 116.386624,60.8028004 126.59031,60.7238469 C138.315551,60.6330841 150.041803,60.7025902 161.767381,60.7022528 C163.114033,60.7022528 164.46237,60.6563652 165.806663,60.7137246 C167.042779,60.7663603 167.446168,60.3857638 166.959203,59.1511867 C166.445278,57.8501402 165.946518,56.5241255 165.642544,55.16437 C165.288357,53.5772012 164.501125,53.0488198 162.845107,53.0586047 C150.951366,53.1294604 139.056951,53.1088785 127.162873,53.0866095 C124.518097,53.0818858 121.905673,53.3052501 119.294597,53.7185753 C96.7098675,57.2954409 80.6946164,79.590708 84.5259694,102.149491 C88.0523374,122.909213 105.583078,137.727511 126.665124,137.747756 C140.523238,137.761252 154.381015,137.750455 168.238792,137.750455 C182.20879,137.750455 196.179125,137.737296 210.148787,137.764055 C212.344342,137.768338 214.525069,137.633037 216.683891,137.305751 C238.285928,134.031541 254.206145,114.489526 252.608091,92.7088061" id="Fill-13"></path>
            <path d="M294.844965,106.279605 C292.770393,106.325156 290.694473,106.295126 288.61889,106.295464 C278.297591,106.296813 267.976292,106.314696 257.655667,106.27387 C256.323843,106.268808 255.597608,106.633209 255.283861,108.015234 C254.950568,109.483297 254.433947,110.925718 253.847904,112.316515 C253.285451,113.65164 253.682437,113.928652 255.015946,113.919114 C261.859068,113.868931 268.702864,113.895586 275.545986,113.895586 L275.545986,113.878378 C282.108724,113.878378 288.67281,113.952608 295.2342,113.86117 C304.946203,113.725195 313.239773,105.008588 313.022071,95.2935909 C312.790889,84.9935273 304.622346,76.9915518 294.27712,76.9689455 C284.966147,76.9483636 275.6545,76.9638844 266.34319,76.963547 C262.69685,76.963547 259.050847,76.9574736 255.405181,76.9665836 C253.348133,76.9719822 253.320499,77.037102 253.995173,78.9073562 C254.413053,80.0666912 254.902377,81.2202902 255.136592,82.4201142 C255.465841,84.1047939 256.313396,84.6183293 258.033107,84.6082071 C270.260815,84.5349895 282.489197,84.5387009 294.717242,84.5849259 C300.696296,84.6078696 305.28017,89.3541924 305.303423,95.3830041 C305.327013,101.450618 300.833792,106.147679 294.844965,106.279605" id="Fill-15"></path>
            <path d="M19.5411806,114.643313 L19.5496056,114.643313 C19.5496056,108.138081 19.4865866,101.631836 19.5630856,95.1269415 C19.7123766,82.4447754 29.5547989,72.7587951 42.2539701,72.7385506 C52.9682114,72.7210053 63.6824526,72.7341643 74.3966938,72.7341643 C79.831493,72.7338269 79.831493,72.7338269 79.780606,67.3106631 C79.759375,65.0442915 79.664341,64.9349712 77.4098109,64.933959 C65.6859176,64.9295727 53.9620244,64.9160764 42.2381311,64.9528539 C40.6768101,64.9575776 39.0979651,65.1262817 37.558549,65.3972206 C22.2493127,68.0921008 11.7861365,80.5762082 11.7713085,96.1408534 C11.7591765,109.095983 11.7686125,122.050775 11.7692865,135.005904 C11.7692865,135.454657 11.7851255,135.90341 11.7793965,136.351826 C11.7676015,137.327611 12.2212035,137.776364 13.2177125,137.752745 C14.6196325,137.720017 16.0289666,137.663332 17.4227986,137.772652 C19.0329846,137.898843 19.5836426,137.293195 19.5691516,135.673973 C19.5041106,128.664315 19.5411806,121.653645 19.5411806,114.643313" id="Fill-17"></path>
            <path d="M86.6436429,17.8043283 C87.5002969,16.3004995 88.6120599,14.9434432 89.5738579,13.496299 C89.8640149,13.0596926 90.5804769,12.7003528 90.2610009,12.0947049 C89.9610709,11.5254971 89.2456199,11.7657318 88.7108009,11.7647195 C80.855331,11.7512232 72.9998611,11.7552721 65.1443912,11.7549347 C64.5273443,11.7545973 63.9099603,11.7444751 63.2929133,11.7559469 C55.1061724,11.9087929 46.9022445,11.3142795 38.7333646,12.0562403 C26.9171338,13.1295362 16.061016,22.4764212 12.995664,33.965849 C10.8290911,42.0882793 12.085764,50.3733404 11.8111091,58.584509 C11.7726911,59.7327095 12.405914,59.5167682 13.099123,59.0180787 C14.691785,57.8715653 16.252095,56.6589198 17.94552,55.6811105 C19.2032039,54.9553452 19.5843509,54.0416435 19.5634569,52.6700787 C19.5058299,48.9126998 19.4852729,45.1519468 19.5728929,41.39558 C19.8512549,29.4773063 29.3711678,19.8976095 41.2783886,19.5635753 C44.9786486,19.4599909 48.6843005,19.5264603 52.3872564,19.5251107 C62.7678673,19.5217366 73.1484781,19.4994677 83.528415,19.5510911 C85.0000939,19.5585141 85.9110049,19.0901914 86.6436429,17.8043283" id="Fill-19"></path>
            <path d="M170.631867,17.919148 C171.505034,16.360659 172.642409,14.950967 173.647343,13.4646834 C173.943229,13.0270648 174.681259,12.6984291 174.373915,12.0863704 C174.08241,11.5060281 173.359882,11.7665073 172.829107,11.7654951 C164.86209,11.7503117 156.89541,11.7550355 148.928393,11.7563851 C141.354654,11.7577347 133.779905,11.7067861 126.206504,11.7685318 C112.342998,11.8812262 100.138206,21.466659 96.8652621,34.9066444 C94.9682891,42.6977399 96.1990131,50.6588891 95.9277281,58.5397351 C95.8889731,59.6599307 96.4871481,59.5438622 97.2056321,59.0235786 C98.7490922,57.9060823 100.250427,56.7076079 101.892628,55.7561165 C103.143235,55.0313634 103.524045,54.146004 103.48866,52.7616177 C103.403062,49.3983316 103.407106,46.0303218 103.473832,42.6660235 C103.600544,36.3058767 105.589518,30.6563119 110.184513,26.1137837 C114.711434,21.6387372 120.18027,19.486747 126.572823,19.5100282 C140.261763,19.5606394 153.951378,19.5093534 167.640655,19.5468057 C169.021344,19.5505172 169.924504,19.1820673 170.631867,17.919148" id="Fill-21"></path>
            <path d="M77.8482459,76.9365606 C65.7371402,76.9879062 53.6253606,76.9069282 41.514929,76.9912802 C32.0395003,77.0574123 23.8584886,85.3745272 23.8096236,94.8482778 C23.7752496,101.51884 23.8028836,108.190077 23.8018726,114.86064 C23.8005246,121.811926 23.8322026,128.763549 23.7746465,135.714161 C23.7627806,137.200782 24.1617885,137.920473 25.7608535,137.76864 C26.8163375,137.668429 27.8896824,137.752782 28.9549394,137.750082 C31.3789803,137.743672 31.3870683,137.742322 31.3874053,135.335588 C31.3904383,122.274175 31.3823503,109.212762 31.3917863,96.1513487 C31.3971783,89.0435052 35.8519812,84.5775688 42.929992,84.571158 C51.8449897,84.5630602 60.7603244,84.5691335 69.6756591,84.5687961 C72.479162,84.5684587 75.2836759,84.5269575 78.0858308,84.5849917 C79.3236318,84.6106348 79.8230658,84.1264538 79.7856588,82.9131335 C79.7438708,81.5688988 79.7216288,80.2192656 79.7940838,78.8780675 C79.8715938,77.4410455 79.3307088,76.9302093 77.8482459,76.9365606" id="Fill-23"></path>
            <path d="M81.5073621,23.7775012 C74.7211928,23.7741271 67.9353606,23.7761516 61.1491913,23.7761516 L61.1491913,23.7893105 C54.643406,23.7893105 48.1372838,23.7410611 41.6325095,23.8014572 C33.4585742,23.8766992 25.9235908,30.025291 24.2298288,38.0525723 C23.2953277,42.4813939 23.9487708,46.9962545 23.8240808,51.4706262 C23.7957728,52.4875749 24.4471938,52.295927 25.0952448,52.0793108 C26.7425009,51.5293353 28.3863869,50.9641764 30.053863,50.4830321 C31.0149871,50.2060199 31.4251161,49.6870859 31.3988301,48.6778976 C31.3506391,46.8289 31.3863611,44.9775406 31.3893941,43.1271934 C31.4008521,35.7912617 35.7879182,31.379648 43.1038515,31.3745869 C55.10577,31.3661517 67.1076885,31.3533301 79.10927,31.3975306 C80.4518781,31.4025918 81.1663181,31.0192959 81.4841091,29.6673008 C81.8160541,28.255247 82.3518842,26.8897555 82.8240212,25.5124548 C83.4006282,23.8304743 83.3753532,23.7785134 81.5073621,23.7775012" id="Fill-25"></path>
            <path d="M127.270573,31.3741471 C139.165326,31.3670615 151.060415,31.3512033 162.95483,31.3984405 C164.41741,31.4041764 165.237331,31.0391006 165.541642,29.4971447 C165.800458,28.1883378 166.349095,26.9341911 166.800001,25.6668855 C167.436594,23.878284 167.391773,23.7827974 165.479634,23.780773 C158.690432,23.7726752 151.901567,23.7773989 145.112365,23.7773989 L145.112365,23.7888708 C138.660163,23.7888708 132.207286,23.7372473 125.755421,23.8010175 C116.313355,23.8941422 108.254,31.7851104 107.9507,41.2042009 C107.844208,44.5097902 107.889366,47.8197657 107.836794,51.1273794 C107.821629,52.0970909 108.071009,52.4851105 109.120764,52.1065384 C110.806775,51.4981912 112.519409,50.9580005 114.240468,50.4566117 C115.150368,50.1917462 115.501522,49.6562792 115.490401,48.7446019 C115.467485,46.8939173 115.486357,45.0425579 115.490738,43.1915359 C115.509273,35.6852131 119.793891,31.3785334 127.270573,31.3741471" id="Fill-27"></path>
        </g>
    </g>
</svg>