<?xml version="1.0" encoding="UTF-8"?>
<svg width="162px" height="49px" viewBox="0 0 162 49" version="1.1" xmlns="http://www.w3.org/2000/svg" xmlns:xlink="http://www.w3.org/1999/xlink">
    <!-- Generator: sketchtool 63.1 (101010) - https://sketch.com -->
    <title>A5750E38-FD37-482E-8BAD-77CF455F71B3</title>
    <desc>Created with sketchtool.</desc>
    <g id="Desktop" stroke="none" stroke-width="1" fill="none" fill-rule="evenodd">
        <g id="Web_desktop" transform="translate(-759.000000, -12299.000000)" stroke="#A9BAB8" stroke-width="1.60000002">
            <g id="Sponzori-sekcija" transform="translate(220.000000, 5234.000000)">
                <g id="Sponzor-nagradne-igre-sekcija" transform="translate(464.000000, 6980.000000)">
                    <g id="Futura-it-logo" transform="translate(76.000000, 86.000000)">
                        <path d="M159.961297,22.6494862 C159.876654,22.0449872 160.152428,21.3988127 159.686303,20.6263973 C157.689965,20.6263973 155.604692,20.5539707 153.526441,20.6490559 C151.813287,20.7275518 149.709682,22.9440479 149.669115,25.0780021 C149.546246,31.5502681 149.624648,38.0261756 149.624648,44.6000003 L153.915333,44.6000003 L153.915333,32.9672395 C153.915333,30.7418418 153.970721,28.5144209 153.893879,26.2918554 C153.850582,25.039968 154.268729,24.5807269 155.476752,24.6527488 C156.902039,24.7377186 158.335908,24.6725751 159.766266,24.6725751 C159.935943,24.0656484 160.194164,23.4587218 159.766266,22.8517951" id="Stroke-1"></path>
                        <path d="M32.6014603,27.0000004 L19.2000003,27.0000004 L19.2000003,44.4114912 C20.4071244,44.7727673 21.750447,44.4417658 23.2700733,44.6000007 L23.2700733,31.2384354 C24.9858573,31.2384354 26.5110427,31.261444 28.0350369,31.2331878 C30.4949494,31.1879778 32.1487888,29.7723405 32.8000005,27.2018306" id="Stroke-3"></path>
                        <path d="M60.2476868,36.0001974 C59.8447483,36.8406967 60.0119165,37.3957731 61.0358218,37.3689655 C62.0877198,37.3413693 63.1589368,37.564898 64.3874654,37.1099561 C64.3874654,33.768853 64.3988991,30.3508751 64.3827342,26.9328971 C64.3740604,25.0035333 64.0306559,24.4311107 66.7534475,24.5584471 C67.9374242,24.6136394 69.126132,24.5675144 70.400001,24.5675144 L70.400001,20.62521 C68.2686064,20.62521 66.2263156,20.5562196 64.1915159,20.6464984 C62.4989378,20.7217964 60.40145,22.7031987 60.2670057,24.3719761 C59.9602678,28.1778769 59.8723468,31.9920564 60.2476868,35.8030821" id="Stroke-5"></path>
                        <path d="M100.594227,31.1674809 C102.849471,30.5895903 104.764976,29.5886012 105.600001,27.0000004 L93.7282438,27.0000004 C93.4823908,28.8241662 93.4143635,30.4891738 95.1965991,31.7997472 C96.2731012,32.5915685 97.1948512,33.664794 97.9849226,34.756277 C99.7814797,37.2369202 102.132996,37.8306869 104.970252,37.1210245" id="Stroke-7"></path>
                        <path d="M119.200002,32.6563723 C118.014895,28.9721958 116.779223,25.3030196 115.671148,21.595553 C115.268211,20.2467015 114.290498,20.7385566 113.531634,20.6000003 C111.440315,26.1465946 109.362032,31.6592406 107.200002,37.3933399 C108.394195,37.3933399 109.4521,37.3783395 110.509216,37.3992611 C111.085573,37.4107088 111.345902,37.2954426 111.539469,36.6160825 C111.999686,34.9995923 112.660185,33.4375772 113.287502,31.8720094 C113.477514,31.3979179 113.364929,30.6988205 114.260475,30.654214 C115.100716,30.6123708 115.170242,31.3098893 115.205796,31.6738463 C115.329047,32.9319059 116.147561,32.8790098 117.027305,32.8569039 C117.685435,32.8403246 118.343959,32.853746 119.002484,32.853746" id="Stroke-9"></path>
                        <path d="M120.800002,36.9826371 C120.731664,36.8020884 120.621587,36.6251507 120.601946,36.44063 C120.4088,34.6499482 119.323582,34.0090004 117.317649,34.2480468 C116.108442,34.3921247 114.858723,34.2744069 113.600002,34.2744069 C114.18435,36.9985254 116.504145,37.875992 120.800002,37.1631858" id="Stroke-11"></path>
                        <path d="M130.795312,44.0855515 C132.59427,44.9128778 133.970012,44.7202707 134.266848,43.4996569 C134.395568,42.9718135 134.60503,42.2094585 133.911113,41.7861842 C133.116171,41.3006298 132.297824,41.3390743 131.370651,41.5420615 C130.451279,41.7435108 130.39043,42.230603 130.400961,42.9322157 C130.417344,44.0213492 130.405252,45.1108672 130.405252,46.2000007" id="Stroke-13"></path>
                        <path d="M17.6000003,17.4000003 L17.6000003,8.85352394 C11.6037211,8.59748584 5.78958148,9.13260966 0,8.60000013" id="Stroke-15"></path>
                        <path d="M58.1697966,43.4335688 C59.230253,43.0057241 60.3957473,43.4258367 61.6000009,43.1622077 C61.5240326,41.6183583 60.5643505,41.2950815 59.3349033,41.4265277 C58.4577788,41.5204179 57.3988728,41.7582731 57.6329794,42.872805 C57.8504194,43.90707 58.4550656,44.8257211 59.9166815,44.5506781 C60.3519492,44.4689384 60.8182244,44.5381594 61.2705463,44.5381594" id="Stroke-17"></path>
                        <path d="M115.509116,43.2426468 C116.70503,43.1252389 117.96068,43.5223873 119.200002,42.9149616 C118.731672,41.349019 117.716957,41.2546396 116.298029,41.5064438 C114.855604,41.7627782 115.249463,42.5076202 115.248269,43.4314056 C115.247472,44.4446625 115.965897,44.4352246 116.511485,44.5299815 C117.281681,44.6643777 118.097674,44.5639581 118.894154,44.5639581" id="Stroke-19"></path>
                        <line x1="11.6000002" y1="9.40000014" x2="11.6000002" y2="26.2000004" id="Stroke-21"></line>
                        <path d="M112.218287,44.3842046 C112.862354,43.9959514 113.79089,43.7931262 113.565506,42.6924389 C113.376903,41.7691176 112.604883,41.5124037 111.826603,41.4186289 C110.925849,41.3100029 110.158525,41.6774644 109.704626,42.4942813 C109.501936,42.8596212 109.577847,43.5079829 110.072832,43.7311754 C110.666813,44.0001946 111.100365,44.6544968 111.826994,44.5963649" id="Stroke-23"></path>
                        <path d="M48.0000007,41.4000006 C48.069752,41.9351216 48.2414153,42.4777342 48.1883709,43.0039365 C48.0630692,44.2404226 48.8629116,44.6328446 50.0879444,44.5978834 C51.2352901,44.5654194 52.1495746,44.2543358 51.979582,43.0042932 C51.9081601,42.4763072 51.9678872,41.9351216 51.9678872,41.4000006" id="Stroke-25"></path>
                        <path d="M107.997066,44.6000007 C107.997066,44.1600404 107.988349,43.72008 107.998961,43.2804967 C108.030416,41.9873829 107.347874,41.3966221 106.102168,41.4000006 C104.854946,41.4034082 103.879452,41.7298911 104.012095,43.2808737 C104.049614,43.717818 104.01778,44.1600404 104.01778,44.6000007" id="Stroke-27"></path>
                        <path d="M40.0000006,40.6000006 C40.4100973,41.2651938 39.9945382,41.9379258 40.0277325,42.5942497 C40.0941212,43.8980284 40.750444,44.680739 42.1009059,44.593377 C43.2975816,44.5162145 44.0560084,44.0062331 43.9967628,42.5955801 C43.9681905,41.9312739 43.9917207,41.2651938 43.9917207,40.6000006" id="Stroke-29"></path>
                        <path d="M87.2241849,41.4000006 C87.2241849,41.9342757 87.2766986,42.4731812 87.213434,43.0021136 C87.0827699,44.0891853 87.9250576,44.4603284 88.8827102,44.5785813 C89.789503,44.6907791 90.7579064,44.3652274 90.8865031,43.5303336 C90.9915306,42.8510918 91.499715,42.1123674 90.9456328,41.4000006" id="Stroke-31"></path>
                        <path d="M139.923879,42.3572425 C138.567787,41.1272984 137.593096,41.0789713 136.119288,42.2332889 C137.061018,43.4761449 139.085346,42.4771381 140.000002,43.773117 C138.605849,44.8654579 137.425939,44.8654579 136.000002,43.8328803" id="Stroke-33"></path>
                        <path d="M76.8279291,40.6000006 C76.8279291,41.2063403 76.7552208,41.8276907 76.8444358,42.4162906 C76.9890665,43.3746986 77.5345755,43.8000007 78.4000012,43.8000007 C79.2658199,43.8000007 79.8109359,43.3746986 79.9555665,42.4162906 C80.0447816,41.8276907 79.9720732,41.2063403 79.9720732,40.6000006" id="Stroke-35"></path>
                        <path d="M99.2000015,31.0000005 C101.546802,32.9059618 103.421202,35.3152521 105.600002,37.4000006" id="Stroke-37"></path>
                        <path d="M23.2000003,0.600000009 C22.1207584,1.16855274 22.4483763,2.05437094 22.4417111,2.84000004 C22.4155632,5.826531 22.4309443,8.81346922 22.4309443,11.8000002" id="Stroke-39"></path>
                        <path d="M56.8000008,41.9638806 C54.6663898,40.8390105 53.6189671,41.3937255 53.6012779,43.6585292 C53.5986434,43.9722275 53.6009016,44.2863024 53.6009016,44.6000007" id="Stroke-41"></path>
                        <path d="M95.2000014,41.7977934 C92.7544484,40.8536364 92.0000014,41.5142101 92.0000014,44.6000007" id="Stroke-43"></path>
                        <path d="M124.000002,41.7806376 C121.325178,40.9194161 120.800002,41.3821676 120.800002,44.6000007" id="Stroke-45"></path>
                        <path d="M66.2085322,41.4180041 C66.7740817,41.4180041 67.3434015,41.4580286 67.9044266,41.4098509 C69.1750277,41.3008953 69.4970139,42.1110213 69.5916492,43.0868044 C69.6919399,44.1241067 68.8711391,44.4291084 68.0895498,44.54177 C67.2088007,44.6685143 66.2767752,44.65962 65.600001,43.7646271 C66.2477436,41.8219553 68.1355478,43.2417141 69.2247961,42.5297964" id="Stroke-47"></path>
                        <line x1="30.4000005" y1="11.4000002" x2="17.6000003" y2="11.4000002" id="Stroke-49"></line>
                        <path d="M44.8024925,39.8000006 C44.8024925,40.5273748 44.8094671,41.2543126 44.8011848,41.9816868 C44.775902,44.2187879 45.1420669,44.612364 47.2000007,44.5997103" id="Stroke-51"></path>
                        <path d="M70.4243837,39.8000006 C70.4243837,40.5274188 70.4498676,41.2557097 70.4196324,41.9818188 C70.3276313,44.1889461 70.471896,44.3565098 72.8000011,44.6000007" id="Stroke-53"></path>
                        <path d="M38.4000006,39.8000006 C36.274022,39.8807279 35.8587446,40.2119279 36.0752236,42.1947643 C36.1662137,43.0264734 35.9195485,43.8001461 36.0282192,44.6000007" id="Stroke-55"></path>
                        <path d="M14.1995259,3.80000006 C14.2947259,5.40014554 13.2419259,6.99985465 14.1995259,8.60000013" id="Stroke-57"></path>
                        <path d="M27.2000004,3.96659181 C25.6194913,4.89139182 23.9970913,4.11139181 22.4000003,4.36659181" id="Stroke-59"></path>
                        <path d="M125.643764,39.8000006 C125.643764,40.5274188 125.710681,41.2609461 125.630569,41.9805097 C125.445369,43.6386916 126.085323,44.5986916 128.000002,44.6000007" id="Stroke-61"></path>
                        <path d="M101.600002,39.8235251 C99.6211455,39.6302949 98.9638979,40.6455131 99.2726051,42.2043811 C99.4381025,43.041567 99.1094787,43.8040661 99.2289783,44.6000007" id="Stroke-63"></path>
                        <path d="M112.146728,44.6000007 C112.759635,45.2204931 113.162159,45.9842117 112.322566,46.6462859 C111.60175,47.2150322 110.807183,47.1679062 110.400002,45.9860598" id="Stroke-65"></path>
                        <path d="M79.7593273,43.8000007 C80.4435938,45.4768861 79.6518409,46.2317644 77.6000012,46.1989784" id="Stroke-67"></path>
                        <line x1="7.20000011" y1="18.6000003" x2="11.2000002" y2="18.6000003" id="Stroke-69"></line>
                        <path d="M27.0098178,11.8000002 C25.7058177,12.5512002 27.8786178,13.4472002 26.6098177,14.2000002" id="Stroke-71"></path>
                        <path d="M83.3234081,41.4009866 C82.4684879,41.6779861 81.5640782,41.8461375 81.6011008,43.0907586 C81.62339,43.8185391 81.9698159,44.2032606 82.5716223,44.392431 C83.4303203,44.6626744 84.1972174,44.7673937 85.0676267,44.0839031 C85.655833,43.6226126 85.6312771,43.1924752 85.5693209,42.7172972 C85.4144304,41.5297276 84.4949095,41.3859731 83.512299,41.4009866" id="Stroke-73"></path>
                        <path d="M87.8291284,27.0000004 C86.9041608,27.2426345 87.274379,28.01515 87.2674446,28.5653814 C87.2323876,31.4351162 87.2512645,34.3052423 87.2512645,37.1988491 C88.5187127,37.5776713 89.8219885,37.2567682 91.2000013,37.4000006 L91.2000013,27.0000004 L88.0217497,27.0000004" id="Stroke-75"></path>
                        <path d="M141.664715,20.6000003 C140.213463,21.7577439 141.640963,23.2244106 140.800002,24.6000003 L147.200002,24.6000003 L147.200002,20.6000003 L141.865998,20.6000003" id="Stroke-77"></path>
                        <path d="M135.945654,20.6000003 C135.193993,20.954418 135.212961,21.6983794 135.210358,22.3760355 C135.193993,27.1121294 135.199572,31.8482233 135.209614,36.5843173 C135.209986,36.7816545 135.327886,36.9785971 135.408222,37.2300047 C136.627394,37.4601 137.867393,37.4601 139.200002,37.2086923 L139.200002,20.6000003 L136.131617,20.6000003" id="Stroke-79"></path>
                        <path d="M87.9816532,20.6145461 C86.5677771,21.7984358 87.9585135,23.2982252 87.2000013,24.6000003 L105.600002,24.6000003 C104.502238,21.7954992 102.756561,20.5663012 100.139812,20.6007019 C96.1531124,20.6531421 92.1652364,20.6145461 88.1777526,20.6145461" id="Stroke-81"></path>
                        <path d="M72.0322961,20.6000003 C71.0566396,21.2482274 71.2008921,22.2377514 71.2160982,23.1676274 C71.269936,26.4597203 71.3159653,29.7522082 71.4261068,33.0427211 C71.5066581,35.4286391 73.6145529,37.3377686 76.1420541,37.3835909 C77.5800584,37.4096622 79.0188846,37.4001817 80.4572999,37.385961 C83.6201696,37.3547545 85.5735376,35.4910522 85.5895657,32.4505868 C85.6097035,28.5651745 85.5944974,24.6797622 85.5944974,20.6987552 L81.2792515,20.6987552 L81.2792515,33.141871 L75.7310783,33.141871 L75.7310783,20.6000003 L72.237784,20.6000003" id="Stroke-83"></path>
                        <path d="M52.5560946,20.6000003 C51.6116373,21.8529234 52.5064727,23.2030773 52.0000008,24.6000003 L58.4000009,24.6000003 L58.4000009,20.6000003 L52.7611439,20.6000003" id="Stroke-85"></path>
                        <path d="M36.6699632,20.6000003 C35.6859534,20.8450216 36.0781639,21.6251379 36.0724262,22.1807831 C36.03841,25.6715466 36.104803,29.1634957 36.0367707,32.6530736 C35.9953775,34.7922679 38.0105281,37.3709198 40.7682966,37.3938411 C42.2027132,37.405697 43.6371299,37.3970027 45.0715466,37.3958171 C48.4391471,37.3918651 50.3969209,35.5055961 50.3989701,32.2582731 C50.4010193,28.437126 50.3993799,24.6155837 50.3993799,20.6987992 L45.8912133,20.6987992 L45.8912133,33.2462624 C44.3272892,33.2462624 42.9572164,33.227293 41.5879632,33.2513999 C40.1801857,33.2762972 40.3625616,32.3128101 40.3609222,31.4678818 C40.3547747,28.3723139 40.3707582,25.2763509 40.3453486,22.1807831 C40.3412502,21.7235417 40.5732159,21.2101825 39.9822362,20.6000003 L36.8748799,20.6000003" id="Stroke-87"></path>
                        <path d="M20.0613969,20.6000003 C18.6157103,21.7577439 20.0377365,23.2244106 19.2000003,24.6000003 L35.2000003,24.6000003 L35.2000003,20.6000003 L20.2619082,20.6000003" id="Stroke-89"></path>
                    </g>
                </g>
            </g>
        </g>
    </g>
</svg>