<?xml version="1.0" encoding="UTF-8"?>
<svg width="456px" height="69px" viewBox="0 0 456 69" version="1.1" xmlns="http://www.w3.org/2000/svg" xmlns:xlink="http://www.w3.org/1999/xlink">
    <!-- Generator: sketchtool 57.1 (101010) - https://sketch.com -->
    <title>7AFFBFBF-A2A3-40E0-BE56-940DF75E7F16</title>
    <desc>Created with sketchtool.</desc>
    <g id="Asset-Artboard-Page" stroke="none" stroke-width="1" fill="none" fill-rule="evenodd">
        <g id="Netokracija-logo" fill="#A9BAB8">
            <polygon id="Fill-1" points="185.934526 51.9447919 189.451735 22.4340228 177.46848 22.4340228 178.246154 15.9763305 208.646153 15.9763305 207.868479 22.4340228 195.902898 22.4340228 192.385688 51.9447919"></polygon>
            <path d="M291.911039,33.2797617 L303.028248,33.2797617 C306.062946,33.205454 308.613365,30.9726849 309.090574,27.9720696 C309.270853,26.572608 308.846667,25.1625312 307.924063,24.0974543 C306.992621,23.0713004 305.665272,22.4980697 304.283132,22.5210697 L293.199504,22.5210697 L291.911039,33.2797617 Z M306.209644,51.9451463 L306.598481,48.7233771 C307.072155,45.3618387 305.840248,41.982608 303.309272,39.7197618 L291.133364,39.7197618 L289.682295,51.927454 L283.250573,51.927454 L287.527783,15.9572237 L305.096155,15.9572237 C308.130853,15.9218391 311.02769,17.2133776 313.030202,19.4956852 C315.011504,21.7974544 315.9129,24.8387621 315.506388,27.8482236 C315.039784,31.485762 313.127411,34.7836081 310.204062,36.9951465 L310.204062,37.0995311 C312.588342,40.4557618 313.61169,44.5922233 313.067318,48.6703002 L312.678481,51.927454 L306.209644,51.9451463 Z" id="Fill-2"></path>
            <path d="M268.685811,51.9447923 L269.056974,48.7247923 C269.672044,44.4857153 267.545812,40.3227152 263.754649,38.3394075 C261.285533,39.2364075 258.678556,39.7105613 256.05037,39.7370998 L255.412324,39.7370998 L255.270928,39.860946 L253.821626,51.9624847 L247.388138,51.9624847 L251.665347,15.9940224 L258.118277,15.9940224 L256.05037,33.2599458 L256.896975,33.2599458 C264.876974,33.0670997 271.536695,27.1100996 272.627207,19.1963302 L273.016044,15.9586378 L279.468974,15.9586378 L279.078369,19.1609456 C278.265346,25.1639457 275.177625,30.6237919 270.453253,34.4117151 L270.3313,34.5160997 L270.453253,34.6240228 C274.384044,38.1660229 276.298183,43.4312537 275.562927,48.6699461 L275.191765,51.9271 L268.685811,51.9447923 Z" id="Fill-4"></path>
            <polygon id="Fill-6" points="392.406748 51.9447919 396.7034 15.9763305 403.135121 15.9763305 398.857911 51.9447919"></polygon>
            <path d="M411.584539,15.9761543 L407.378027,51.3607698 C406.619794,56.7498468 402.084539,60.8049237 396.649655,60.9500006 L395.854306,67.407693 C404.970771,67.1723853 412.577841,60.3679237 413.82919,51.323616 L418.033934,15.9407696 L411.584539,15.9761543 Z" id="Fill-8"></path>
            <path d="M339.260805,22.4336697 C334.460433,22.5522082 330.451875,26.1313621 329.787317,30.8905929 L329.115689,36.5875161 L346.065456,36.5875161 L346.735317,30.9259775 C347.039317,28.760439 346.395968,26.5665928 344.967875,24.9105928 C343.518573,23.2899774 341.432991,22.3859005 339.260805,22.4336697 L339.260805,22.4336697 Z M344.243225,51.9444401 L345.305458,43.0982859 L328.353922,43.0982859 L327.293457,51.9444401 L320.808713,51.9444401 L323.316713,30.9259778 C324.476155,22.5203621 331.545922,16.1918234 340.020806,15.9759772 C343.819039,15.905208 347.461737,17.4869004 350.005086,20.3105928 C352.548435,23.2227467 353.697272,27.0973623 353.151132,30.9259778 L350.641365,51.9798247 L344.243225,51.9444401 Z" id="Fill-11"></path>
            <path d="M440.215682,22.4336696 C435.420612,22.5522081 431.415589,26.1331311 430.759868,30.8905926 L430.090007,36.5875157 L447.022101,36.5875157 L447.691961,30.9259772 C448.298194,26.8868234 445.519775,23.1201311 441.484705,22.513285 C441.064054,22.4513619 440.639868,22.4248234 440.215682,22.4336696 L440.215682,22.4336696 Z M445.199866,51.9444393 L446.262099,43.0982853 L429.310565,43.0982853 L428.2501,51.9444393 L421.798937,51.9444393 L424.308705,30.9259775 C425.471681,22.5309773 432.529076,16.2059772 440.993355,15.9759772 C444.788053,15.905208 448.425448,17.4869003 450.961727,20.3105927 C453.505075,23.2227466 454.652145,27.097362 454.107773,30.9259775 L451.598006,51.9444393 L445.199866,51.9444393 Z" id="Fill-13"></path>
            <path d="M372.258956,51.944791 C368.448351,52.0244064 364.789747,50.4409449 362.23756,47.6101758 C359.715421,44.6874066 358.587793,40.8145606 359.144537,36.9947916 L359.867421,30.8909457 C361.005653,22.472946 368.089561,16.1337924 376.569747,15.9409462 C380.389189,15.8648693 384.047794,17.4607154 386.591143,20.3109461 L388.607794,22.5755614 L383.482212,27.1578689 L381.485003,24.8755613 C380.028631,23.2620229 377.946584,22.3597152 375.774398,22.3986383 C370.975793,22.5100998 366.969003,26.0945612 366.320351,30.855561 L365.578026,36.9947916 C365.279328,39.1550223 365.922677,41.3400222 367.345468,42.9907144 C368.791235,44.6184067 370.878584,45.5313297 373.052538,45.4870989 C375.378491,45.457022 377.609003,44.5759451 379.328724,43.0101759 L381.872073,40.7278683 L385.885933,45.273022 L383.340817,47.6101758 C380.306119,50.3719449 376.359421,51.9147141 372.258956,51.944791" id="Fill-15"></path>
            <path d="M228.28226,22.4336699 C225.958073,22.4602083 223.724027,23.3430545 222.007841,24.9105929 C220.254538,26.4498237 219.116306,28.5746698 218.808771,30.8905929 L218.066445,36.994439 C217.776585,39.1546698 218.419934,41.3361313 219.833887,42.9921313 C221.284957,44.6162851 223.368771,45.5256698 225.542725,45.4867467 C227.866911,45.458439 230.100957,44.5773621 231.817143,43.0098236 C233.570446,41.4705928 234.701609,39.3439775 234.998539,37.0298236 L235.72319,30.9259775 C236.348865,26.9098237 233.604027,23.1449006 229.593701,22.5185929 C229.153608,22.4495929 228.708213,22.4212852 228.264585,22.4336699 L228.28226,22.4336699 Z M224.747376,51.9444399 C220.949143,52.0134399 217.308213,50.4335168 214.761329,47.6098244 C212.235654,44.6905936 211.100957,40.8159781 211.650631,36.9944395 L212.375282,30.8905932 C212.89491,26.7824393 214.900957,23.0051315 218.013422,20.2752083 C221.04812,17.5081314 224.991283,15.9512082 229.095283,15.9052082 C232.907655,15.8362082 236.55919,17.4302852 239.099004,20.2752083 C241.631749,23.1909007 242.768214,27.0672854 242.209702,30.8905932 L241.449702,36.9944395 C240.938911,41.1061319 238.931097,44.885209 235.811562,47.6098244 C232.783934,50.3733629 228.842539,51.9161322 224.747376,51.9444399 L224.747376,51.9444399 Z" id="Fill-17"></path>
            <polygon id="Fill-19" points="142.525985 51.9447919 146.803194 15.9763305 171.26459 15.9763305 170.486915 22.4340228 152.476682 22.4340228 151.486915 30.7317151 167.535287 30.7317151 166.775287 37.1699458 150.726915 37.1699458 149.737148 45.4870997 167.74738 45.4870997 166.969706 51.9447919"></polygon>
            <polygon id="Fill-21" points="110.765578 28.0601766 107.919997 51.9447919 101.486508 51.9447919 105.816741 15.9763305 111.384182 15.9763305 129.023252 39.8609458 131.868833 15.9763305 138.249298 15.9763305 133.972089 51.9447919 128.404647 51.9447919"></polygon>
            <path d="M64.3702349,30.501538 C59.2976766,29.7584611 53.2176763,26.6799996 47.349769,23.7253842 C44.0976759,22.0799996 40.8102339,20.434615 37.5051174,19.0546151 C36.6920941,16.0150766 33.5725591,14.2104613 30.5343264,15.0243074 C29.7018612,15.2472305 28.9312566,15.657692 28.2790705,16.2238459 C27.5720937,16.117692 26.8651169,15.9938459 26.1581401,15.9407689 C19.7600003,15.427692 16.3488374,16.2415382 11.8240564,19.4792304 C11.8240564,19.4792304 11.6297674,5.873846 26.2995355,6.35153831 C32.3618614,6.54615369 39.5906989,10.4738459 46.5720946,14.2599997 C54.260467,18.417692 61.5953511,22.4161535 68.3823282,22.2923073 C71.7722818,22.2303842 75.0438168,21.0202304 77.6613984,18.8599997 C77.6967472,18.7538458 76.9013983,32.3238457 64.3702349,30.501538 L64.3702349,30.501538 Z M62.8679073,45.1861545 C61.7420469,45.0711545 60.6250236,44.8765391 59.5274422,44.6023083 C58.5111631,41.6034621 55.2573026,39.9987698 52.2632561,41.0160775 C51.8284654,41.1646929 51.4131166,41.3663852 51.0260468,41.6123083 C48.8697677,40.6923083 46.6781398,39.6661544 44.5041863,38.6400006 C38.0176747,35.5969236 31.3013956,32.4476928 25.0623258,31.5630774 C19.8006513,30.6289235 14.3852095,31.8408466 10.0213955,34.9246159 C10.0213955,34.7830774 10.1627908,20.7707695 24.8855816,22.0092311 C25.451163,22.0092311 26.0167444,22.1507696 26.6530235,22.2569234 C27.5685583,25.2770004 30.755256,26.9825389 33.7722793,26.0660773 C34.4262328,25.8679235 35.0360002,25.5547696 35.5786049,25.1407696 C38.3888375,26.3615389 41.2697677,27.7946158 44.0976747,29.2276927 C50.3544189,32.3769236 56.8232561,35.6500005 62.7795352,36.5346159 C67.1398143,37.4351544 71.6803725,36.527539 75.3637213,34.0223082 L76.0176748,33.5269236 C75.8939539,33.4561543 75.8939539,46.3361545 62.8679073,45.1861545 L62.8679073,45.1861545 Z M61.3479082,59.8707693 C55.4269778,59.6938463 48.2688382,56.5605386 41.340466,53.5369233 C30.7358146,48.8661542 20.6437214,44.2130774 11.3823259,48.3530773 C10.2087445,48.887385 9.10055846,49.5526157 8.07720961,50.3346157 C8.07720961,50.1753849 8.57209333,35.7720776 23.3479075,37.7023083 C28.809303,38.4259237 35.1367449,41.4000005 41.2520939,44.2661543 C43.6381404,45.398462 46.0595358,46.5130773 48.4632568,47.5392312 C48.9793498,50.2585388 51.3547917,52.2241541 54.1190708,52.2276926 C55.5400941,52.2223849 56.9080941,51.6880772 57.9544197,50.7238465 C59.1191639,50.9927695 60.2998151,51.1873849 61.4893035,51.3076926 C65.9344199,51.9870772 70.4679083,50.8866157 74.1088386,48.2469234 C74.0558153,48.5990004 74.1618618,60.2776924 61.3479082,59.8707693 L61.3479082,59.8707693 Z M80.0297694,-6.22271465e-13 L79.3581415,5.50230776 C78.6653043,9.65469242 76.1838159,13.2904617 72.5711646,15.4453848 C67.1274435,18.0284618 58.4316294,13.3400002 50.1600013,8.82846164 C42.6130243,4.74153852 34.8186055,0.495384621 27.3953495,0.265384619 C21.9304192,-0.100846155 16.534419,1.64715387 12.3190701,5.1484616 C8.66576766,8.40738471 6.37516295,12.9242309 5.90325596,17.7984617 L2.19772521e-13,65.8861546 L6.09767457,65.8861546 L6.5925583,61.887693 C7.4444653,58.3209238 9.91711653,55.3610007 13.2734887,53.8907699 C19.5655819,51.0776929 29.0567449,55.217693 38.2297684,59.1984622 C45.63535,62.4361546 53.2883734,65.7782315 60.3051178,65.9923085 L61.6660481,65.9923085 C66.0952575,66.0878469 70.4095832,64.5875392 73.8260484,61.7638469 C77.548281,58.3350776 79.8229787,53.6147699 80.1888392,48.5653852 L86.1097696,0.0530769237 L80.0297694,-6.22271465e-13 Z" id="Fill-23"></path>
        </g>
    </g>
</svg>