<?xml version="1.0" encoding="UTF-8"?>
<svg width="213px" height="145px" viewBox="0 0 213 145" version="1.1" xmlns="http://www.w3.org/2000/svg" xmlns:xlink="http://www.w3.org/1999/xlink">
    <!-- Generator: sketchtool 57.1 (101010) - https://sketch.com -->
    <title>001B6E5E-6052-44AA-9709-8A40858F09BE</title>
    <desc>Created with sketchtool.</desc>
    <g id="Asset-Artboard-Page" stroke="none" stroke-width="1" fill="none" fill-rule="evenodd">
        <g id="Shift-logo" fill="#A9BAB8">
            <path d="M213,143.975493 L0,143.975493 L0,-4.04034105e-14 L213,-4.04034105e-14 L213,143.975493 Z M7.54068947,136.454408 L205.451976,136.454408 L205.451976,7.51078423 L7.54068947,7.51078423 L7.54068947,136.454408 Z M21.9644617,53.6838241 L28.5845997,47.6568632 C30.88451,50.6960789 34.0320135,52.2852946 37.6471376,52.2852946 C40.6056342,52.2852946 42.4349859,51.2563731 42.4349859,49.5284319 C42.4349859,47.8470593 41.4972963,47.1450985 38.39631,46.4916672 L34.1715652,45.5558828 C27.7374962,44.1544122 24.4994066,40.6500004 24.4994066,35.1367651 C24.4994066,28.8294121 29.7578135,24.9985298 38.2567583,24.9985298 C43.8437238,24.9985298 48.7270549,26.7259807 52.0606273,29.9970592 L46.4736618,36.2117651 C44.1717928,33.6892161 40.6986687,32.146569 37.504648,32.146569 C34.9207376,32.146569 33.3264204,33.0338239 33.3264204,34.4838239 C33.3264204,36.026471 34.4065997,36.7725494 37.8327169,37.5205887 L42.6215445,38.5926475 C48.9596411,39.9946083 51.7325583,43.0799024 51.7325583,48.638726 C51.7325583,55.5534319 46.2386273,59.7598045 37.261779,59.7598045 C30.7811928,59.7573535 25.14771,57.5612751 21.9644617,53.6838241 L21.9644617,53.6838241 Z M55.3344604,25.0882346 L64.8205503,25.0882346 L64.8205503,39.6186264 C66.3218331,36.4946068 68.7637436,34.9519598 72.1438333,34.9519598 C77.2166611,34.9519598 79.7976336,38.1735284 79.7976336,44.4372537 L79.7976336,58.9681356 L70.3144815,58.9681356 L70.3144815,45.4166654 C70.3144815,43.0818615 69.4693367,41.9117635 67.7300815,41.9117635 C65.8517642,41.9117635 64.818102,43.4058811 64.818102,46.1647046 L64.818102,58.9676454 L55.3344604,58.9676454 L55.3344604,25.0882346 Z M84.6300423,24.9470587 L94.3022011,24.9470587 L94.3022011,32.7970588 L84.6300423,32.7970588 L84.6300423,24.9470587 L84.6300423,24.9470587 Z M84.7230771,35.6000005 L94.2091671,35.6000005 L94.2091671,58.9627453 L84.7230771,58.9627453 L84.7230771,35.6000005 Z M115.620318,41.5803923 L110.452497,41.5803923 L110.452497,58.9627453 L100.968856,58.9627453 L100.968856,41.5803923 L97.4932834,41.5803923 L97.4932834,35.6000001 L100.968856,35.6000001 L100.968856,34.1980393 C100.968856,27.937255 104.490946,24.8078432 111.48567,24.8078432 C112.87629,24.8225491 114.262015,24.9794119 115.620318,25.2759805 L115.620318,31.7710785 C114.908849,31.6303923 114.185628,31.5529413 113.459959,31.539706 C111.535125,31.539706 110.454946,32.519608 110.454946,34.2034315 L110.454946,35.6053923 L115.622766,35.6053923 L115.622766,41.5857845 L115.620318,41.5808825 L115.620318,41.5803923 Z M118.196886,35.5999994 L122.093562,35.5999994 L122.093562,30.2745092 L131.579651,26.7235287 L131.579651,35.5999994 L136.980058,35.5999994 L136.980058,41.5803916 L131.579161,41.5803916 L131.579161,48.5441172 C131.579161,50.6941172 132.80183,51.9073525 135.008216,51.9073525 C135.668272,51.9142153 136.327837,51.8671565 136.980058,51.7661761 L136.980058,58.9656859 C134.868665,59.2921565 133.599968,59.4338232 132.284755,59.4338232 C125.380617,59.4338232 122.09601,56.7700977 122.09601,51.2053917 L122.09601,41.5808818 L118.196886,41.5808818 L118.196886,35.5999994 L118.196886,35.5999994 Z M45.9492427,115.513731 L45.9492427,120.419613 L22.8453518,120.419613 L22.8453518,115.513731 L45.9492427,115.513731 Z" id="Shape"></path>
        </g>
    </g>
</svg>