<?xml version="1.0" encoding="UTF-8"?>
<svg width="100px" height="68px" viewBox="0 0 100 68" version="1.1" xmlns="http://www.w3.org/2000/svg" xmlns:xlink="http://www.w3.org/1999/xlink">
    <!-- Generator: sketchtool 63.1 (101010) - https://sketch.com -->
    <title>BDDB1564-38DA-4E04-BB26-BE22AE20CFC5</title>
    <desc>Created with sketchtool.</desc>
    <g id="Desktop" stroke="none" stroke-width="1" fill="none" fill-rule="evenodd">
        <g id="Web_desktop" transform="translate(-700.000000, -11995.000000)" fill="#A9BAB8">
            <g id="Sponzori-sekcija" transform="translate(220.000000, 5234.000000)">
                <g id="Organizacijski-sekcija" transform="translate(465.000000, 6675.000000)">
                    <g id="Shift-logo" transform="translate(15.000000, 86.000000)">
                        <path d="M100,67.5195402 L0,67.5195402 L0,-1.89478063e-14 L100,-1.89478063e-14 L100,67.5195402 Z M3.54022989,63.9924138 L96.4563218,63.9924138 L96.4563218,3.52229885 L3.54022989,3.52229885 L3.54022989,63.9924138 Z M10.311954,25.1758621 L13.42,22.3494253 C14.4997701,23.7747126 15.9774713,24.52 17.6747126,24.52 C19.0636782,24.52 19.9225287,24.0374713 19.9225287,23.2271264 C19.9225287,22.4386207 19.4822989,22.1094253 18.0264368,21.8029885 L16.0429885,21.3641379 C13.0222989,20.7068966 11.502069,19.0634483 11.502069,16.477931 C11.502069,13.52 13.9708046,11.7234483 17.9609195,11.7234483 C20.583908,11.7234483 22.8765517,12.5335632 24.4416092,14.0675862 L21.8186207,16.982069 C20.737931,15.7990805 19.1073563,15.0756322 17.6078161,15.0756322 C16.3947126,15.0756322 15.6462069,15.4917241 15.6462069,16.1717241 C15.6462069,16.8951724 16.1533333,17.2450575 17.7618391,17.5958621 L20.0101149,18.0986207 C22.9857471,18.756092 24.2875862,20.2029885 24.2875862,22.8098851 C24.2875862,26.0526437 21.7082759,28.0252874 17.4937931,28.0252874 C14.4512644,28.0241379 11.8064368,26.9942529 10.311954,25.1758621 L10.311954,25.1758621 Z M25.9786207,11.7655172 L30.4321839,11.7655172 L30.4321839,18.5797701 C31.1370115,17.1147126 32.2834483,16.3912644 33.8703448,16.3912644 C36.251954,16.3912644 37.4636782,17.902069 37.4636782,20.8395402 L37.4636782,27.654023 L33.0114943,27.654023 L33.0114943,21.2988506 C33.0114943,20.203908 32.6147126,19.6551724 31.7981609,19.6551724 C30.9163218,19.6551724 30.4310345,20.3558621 30.4310345,21.6496552 L30.4310345,27.6537931 L25.9786207,27.6537931 L25.9786207,11.7655172 Z M39.7324138,11.6993103 L44.2733333,11.6993103 L44.2733333,15.3806897 L39.7324138,15.3806897 L39.7324138,11.6993103 L39.7324138,11.6993103 Z M39.776092,16.6951724 L44.2296552,16.6951724 L44.2296552,27.6514943 L39.776092,27.6514943 L39.776092,16.6951724 Z M54.2818391,19.4997701 L51.8556322,19.4997701 L51.8556322,27.6514943 L47.4032184,27.6514943 L47.4032184,19.4997701 L45.7714943,19.4997701 L45.7714943,16.6951724 L47.4032184,16.6951724 L47.4032184,16.0377011 C47.4032184,13.1016092 49.0567816,11.634023 52.3406897,11.634023 C52.9935632,11.6409195 53.6441379,11.7144828 54.2818391,11.8535632 L54.2818391,14.8995402 C53.9478161,14.8335632 53.6082759,14.7972414 53.2675862,14.7910345 C52.363908,14.7910345 51.8567816,15.2505747 51.8567816,16.0402299 L51.8567816,16.6977011 L54.2829885,16.6977011 L54.2829885,19.5022989 L54.2818391,19.5 L54.2818391,19.4997701 Z M55.4914943,16.6951724 L57.3209195,16.6951724 L57.3209195,14.1977011 L61.7744828,12.5324138 L61.7744828,16.6951724 L64.3098851,16.6951724 L64.3098851,19.4997701 L61.7742529,19.4997701 L61.7742529,22.7655172 C61.7742529,23.7737931 62.3482759,24.3427586 63.3841379,24.3427586 C63.694023,24.345977 64.0036782,24.323908 64.3098851,24.2765517 L64.3098851,27.6528736 C63.3186207,27.805977 62.7229885,27.8724138 62.1055172,27.8724138 C58.8641379,27.8724138 57.322069,26.6232184 57.322069,24.0135632 L57.322069,19.5 L55.4914943,19.5 L55.4914943,16.6951724 L55.4914943,16.6951724 Z M21.5724138,54.171954 L21.5724138,56.4726437 L10.7255172,56.4726437 L10.7255172,54.171954 L21.5724138,54.171954 Z" id="Shape"></path>
                    </g>
                </g>
            </g>
        </g>
    </g>
</svg>