<?xml version="1.0" encoding="UTF-8"?>
<svg width="483px" height="194px" viewBox="0 0 483 194" version="1.1" xmlns="http://www.w3.org/2000/svg" xmlns:xlink="http://www.w3.org/1999/xlink">
    <!-- Generator: sketchtool 57.1 (101010) - https://sketch.com -->
    <title>B1E29EF4-4B1F-4857-B36C-E2B4696747BA</title>
    <desc>Created with sketchtool.</desc>
    <defs>
        <polygon id="path-1" points="0.000165222357 0.00303124998 157.593099 0.00303124998 157.593099 193.448867 0.000165222357 193.448867"></polygon>
    </defs>
    <g id="Asset-Artboard-Page" stroke="none" stroke-width="1" fill="none" fill-rule="evenodd">
        <g id="Splitsko-dalmatinska-zupanija-logo">
            <g id="Group-3" transform="translate(0.000000, 0.548381)">
                <mask id="mask-2" fill="white">
                    <use xlink:href="#path-1"></use>
                </mask>
                <g id="Clip-2"></g>
                <path d="M157.593099,0.108298294 L157.444949,154.292552 C156.49437,170.241887 159.507475,184.721341 131.655943,184.721341 C104.971983,184.721341 99.3549736,185.047063 96.9107843,185.536472 C94.8735927,185.944313 87.1345778,186.00604 79.561336,193.449137 C71.9875434,186.00604 63.0253324,185.944313 60.9875901,185.536472 C58.5434008,185.047063 52.9269423,184.721341 26.2424312,184.721341 C-1.60910047,184.721341 0.397800346,170.38904 0.0310067278,154.389552 L0.000165222357,0.00303124998 L157.593099,0.108298294 Z" id="Fill-1" fill="#A9BAB8" mask="url(#mask-2)"></path>
            </g>
            <path d="M41.3084502,120.122759 C41.3084502,120.122759 54.9403959,95.2301333 78.4251014,95.3469742 C102.599886,95.4671219 112.037387,112.664782 117.398852,120.590123 C122.760868,128.516015 116.815066,106.013117 116.815066,106.013117 L94.4456117,81.8744453 L51.9146239,86.4218716 L38.9193349,102.804401 L41.3084502,120.122759 Z" id="Fill-4" fill="#F1F3F6"></path>
            <path d="M41.3084502,120.122759 C41.3084502,120.122759 54.9403959,95.2301333 78.4251014,95.3469742 C102.599886,95.4671219 112.037387,112.664782 117.398852,120.590123 C122.760868,128.516015 116.815066,106.013117 116.815066,106.013117 L94.4456117,81.8744453 L51.9146239,86.4218716 L38.9193349,102.804401 L41.3084502,120.122759 Z" id="Stroke-6" stroke="#A9BAB8" stroke-width="1.243"></path>
            <path d="M22.3853158,38.5904036 L32.0524757,36.5131706 L33.4486046,41.9600513 L38.7643584,40.6880286 L40.7618966,49.7680002 L35.6416559,51.1304093 L37.1093812,56.8903354 C37.1093812,56.8903354 54.3690589,52.8846763 73.1708119,51.8876706 L73.1438256,47.1622275 L66.0679029,47.1975002 L66.0679029,36.9347899 L73.332179,36.9419547 L73.3415416,30.937324 L84.6410983,30.937324 L84.7115932,36.749057 L91.3463722,36.7617331 L91.2979069,47.0729434 L84.4450345,47.0900286 L84.4450345,51.5217161 C84.4450345,51.5217161 110.402017,53.1172559 119.956825,55.7053922 L121.216921,49.8931081 L115.349876,48.7059604 L116.904067,39.679449 L123.024454,40.8263638 L124.086283,35.3524774 L134.007885,37.1199718 L133.004435,42.7647104 L138.290448,43.9237502 L136.651443,53.315665 L131.083449,52.1990627 L129.880631,58.4087161 L132.481231,59.3847786 L130.708395,71.7219661 L129.951676,71.6337843 L129.245075,91.5937389 L130.758512,92.0991309 C130.758512,92.0991309 130.227598,104.23846 133.158091,116.63462 C135.456885,126.362728 137.491874,132.590568 143.99117,140.206171 C148.251704,145.197813 143.768671,147.599665 141.158709,147.822324 C135.384738,148.313387 127.671608,140.994296 126.502935,139.177199 C124.769753,136.482142 118.831111,124.150466 118.491854,123.139682 C115.104245,113.021921 104.404445,90.899307 79.1226718,91.7342786 C55.7172733,92.5069718 47.3432537,105.436631 42.6972011,116.827517 C39.3288681,125.085745 40.2166629,131.923693 29.662259,144.431733 C26.464105,148.222449 18.0515335,150.826017 15.9030922,149.140642 C12.4929028,146.46708 13.5150785,144.115381 17.8053522,138.356006 C23.2863284,130.998887 25.9353935,116.933887 26.8292464,111.742182 C27.9400913,105.294989 27.4075246,92.7968695 27.4075246,92.7968695 L28.7199408,92.3074605 L27.7495349,72.2042104 L26.9184665,72.1915343 L24.5293512,60.1051138 L26.4288576,59.4277672 L25.1649066,53.5570627 L20.2897457,54.6339831 L17.9992131,45.1632559 L23.3639829,43.9094206 L22.3853158,38.5904036 Z" id="Fill-8" fill="#F1F3F6"></path>
            <path d="M22.3853158,38.5904036 L32.0524757,36.5131706 L33.4486046,41.9600513 L38.7643584,40.6880286 L40.7618966,49.7680002 L35.6416559,51.1304093 L37.1093812,56.8903354 C37.1093812,56.8903354 54.3690589,52.8846763 73.1708119,51.8876706 L73.1438256,47.1622275 L66.0679029,47.1975002 L66.0679029,36.9347899 L73.332179,36.9419547 L73.3415416,30.937324 L84.6410983,30.937324 L84.7115932,36.749057 L91.3463722,36.7617331 L91.2979069,47.0729434 L84.4450345,47.0900286 L84.4450345,51.5217161 C84.4450345,51.5217161 110.402017,53.1172559 119.956825,55.7053922 L121.216921,49.8931081 L115.349876,48.7059604 L116.904067,39.679449 L123.024454,40.8263638 L124.086283,35.3524774 L134.007885,37.1199718 L133.004435,42.7647104 L138.290448,43.9237502 L136.651443,53.315665 L131.083449,52.1990627 L129.880631,58.4087161 L132.481231,59.3847786 L130.708395,71.7219661 L129.951676,71.6337843 L129.245075,91.5937389 L130.758512,92.0991309 C130.758512,92.0991309 130.227598,104.23846 133.158091,116.63462 C135.456885,126.362728 137.491874,132.590568 143.99117,140.206171 C148.251704,145.197813 143.768671,147.599665 141.158709,147.822324 C135.384738,148.313387 127.671608,140.994296 126.502935,139.177199 C124.769753,136.482142 118.831111,124.150466 118.491854,123.139682 C115.104245,113.021921 104.404445,90.899307 79.1226718,91.7342786 C55.7172733,92.5069718 47.3432537,105.436631 42.6972011,116.827517 C39.3288681,125.085745 40.2166629,131.923693 29.662259,144.431733 C26.464105,148.222449 18.0515335,150.826017 15.9030922,149.140642 C12.4929028,146.46708 13.5150785,144.115381 17.8053522,138.356006 C23.2863284,130.998887 25.9353935,116.933887 26.8292464,111.742182 C27.9400913,105.294989 27.4075246,92.7968695 27.4075246,92.7968695 L28.7199408,92.3074605 L27.7495349,72.2042104 L26.9184665,72.1915343 L24.5293512,60.1051138 L26.4288576,59.4277672 L25.1649066,53.5570627 L20.2897457,54.6339831 L17.9992131,45.1632559 L23.3639829,43.9094206 L22.3853158,38.5904036 Z" id="Stroke-10" stroke="#A9BAB8" stroke-width="1.243"></path>
            <path d="M76.0667175,58.41351 C76.0667175,56.4674475 77.6434894,54.888993 79.5881564,54.888993 C81.5333741,54.888993 83.110146,56.4674475 83.110146,58.41351 C83.110146,60.3595725 81.5333741,61.938027 79.5881564,61.938027 C77.6434894,61.938027 76.0667175,60.3595725 76.0667175,58.41351 Z M27.626828,72.2040445 C27.626828,72.2040445 53.4901836,64.6215102 79.2758847,64.6215102 C99.2490637,64.6215102 106.291942,64.8684193 129.828416,71.6336184" id="Stroke-12" stroke="#A9BAB8" stroke-width="1.521"></path>
            <path d="M28.7110723,92.2529522 C28.7110723,92.2529522 54.2162407,84.6704179 79.6448301,84.6704179 C99.3413962,84.6704179 106.286736,84.917327 129.496705,91.682526" id="Stroke-14" stroke="#A9BAB8" stroke-width="1.521"></path>
            <path d="M125.138364,78.6540473 C125.138364,77.93757 125.719396,77.3561211 126.435359,77.3561211 C127.151323,77.3561211 127.732354,77.93757 127.732354,78.6540473 C127.732354,79.3705246 127.151323,79.9519734 126.435359,79.9519734 C125.719396,79.9519734 125.138364,79.3705246 125.138364,78.6540473 Z M100.587422,75.0297734 C100.587422,74.312745 101.168454,73.7318473 101.884418,73.7318473 C102.600381,73.7318473 103.181413,74.312745 103.181413,75.0297734 C103.181413,75.7462507 102.600381,76.3276995 101.884418,76.3276995 C101.168454,76.3276995 100.587422,75.7462507 100.587422,75.0297734 Z M55.3236583,75.6464958 C55.3236583,74.9300185 55.9046902,74.3485696 56.6212045,74.3485696 C57.3366173,74.3485696 57.9176492,74.9300185 57.9176492,75.6464958 C57.9176492,76.362973 57.3366173,76.9444219 56.6212045,76.9444219 C55.9046902,76.9444219 55.3236583,76.362973 55.3236583,75.6464958 Z M30.545813,80.2187217 C30.545813,79.5016933 31.1262942,78.9207956 31.8422577,78.9207956 C32.558772,78.9207956 33.1392532,79.5016933 33.1392532,80.2187217 C33.1392532,80.935199 32.558772,81.5166479 31.8422577,81.5166479 C31.1262942,81.5166479 30.545813,80.935199 30.545813,80.2187217 Z M27.7375838,66.208285 C27.7375838,65.4907055 28.318065,64.9103589 29.0340285,64.9103589 C29.7505428,64.9103589 30.331024,65.4907055 30.331024,66.208285 C30.331024,66.9247623 29.7505428,67.505109 29.0340285,67.505109 C28.318065,67.505109 27.7375838,66.9247623 27.7375838,66.208285 Z M127.284604,64.607234 C127.284604,63.8907567 127.865636,63.3093079 128.581599,63.3093079 C129.297563,63.3093079 129.878044,63.8907567 129.878044,64.607234 C129.878044,65.3237113 129.297563,65.9051602 128.581599,65.9051602 C127.865636,65.9051602 127.284604,65.3237113 127.284604,64.607234 Z M121.203316,63.177035 C121.203316,62.3238759 121.895047,61.6321998 122.746492,61.6321998 C123.59904,61.6321998 124.29022,62.3238759 124.29022,63.177035 C124.29022,64.0290918 123.59904,64.7213191 122.746492,64.7213191 C121.895047,64.7213191 121.203316,64.0290918 121.203316,63.177035 Z M33.9741769,64.2870239 C33.9741769,63.4333137 34.6659078,62.7416376 35.5179044,62.7416376 C36.3704517,62.7416376 37.0610811,63.4333137 37.0610811,64.2870239 C37.0610811,65.140183 36.3704517,65.8307569 35.5179044,65.8307569 C34.6659078,65.8307569 33.9741769,65.140183 33.9741769,64.2870239 Z M41.4609517,62.3751316 C41.4609517,61.317501 42.3173542,60.4604839 43.3742265,60.4604839 C44.4310988,60.4604839 45.2875013,61.317501 45.2875013,62.3751316 C45.2875013,63.4327623 44.4310988,64.2897794 43.3742265,64.2897794 C42.3173542,64.2897794 41.4609517,63.4327623 41.4609517,62.3751316 Z M112.531899,61.4696145 C112.531899,60.4119839 113.388852,59.5549668 114.445724,59.5549668 C115.501495,59.5549668 116.358999,60.4119839 116.358999,61.4696145 C116.358999,62.5272452 115.501495,63.3837111 114.445724,63.3837111 C113.388852,63.3837111 112.531899,62.5272452 112.531899,61.4696145 Z M102.054598,60.4092282 C102.054598,59.078785 103.131847,58.0002112 104.460786,58.0002112 C105.789724,58.0002112 106.867525,59.078785 106.867525,60.4092282 C106.867525,61.7385691 105.789724,62.8171429 104.460786,62.8171429 C103.131847,62.8171429 102.054598,61.7385691 102.054598,60.4092282 Z M51.1457345,61.1802679 C51.1457345,59.8503759 52.2229843,58.771802 53.5519228,58.771802 C54.8808612,58.771802 55.9586617,59.8503759 55.9586617,61.1802679 C55.9586617,62.5101599 54.8808612,63.5887337 53.5519228,63.5887337 C52.2229843,63.5887337 51.1457345,62.5101599 51.1457345,61.1802679 Z M64.0451966,59.4970975 C64.0451966,58.0746146 65.1978979,56.9210862 66.61881,56.9210862 C68.0402729,56.9210862 69.1924234,58.0746146 69.1924234,59.4970975 C69.1924234,60.9190292 68.0402729,62.0720065 66.61881,62.0720065 C65.1978979,62.0720065 64.0451966,60.9190292 64.0451966,59.4970975 Z M89.9063498,59.3267964 C89.9063498,57.9054157 91.0585004,56.7513362 92.4805141,56.7513362 C93.9014263,56.7513362 95.0541276,57.9054157 95.0541276,59.3267964 C95.0541276,60.7503817 93.9014263,61.9028078 92.4805141,61.9028078 C91.0585004,61.9028078 89.9063498,60.7503817 89.9063498,59.3267964 Z" id="Stroke-16" stroke="#A9BAB8" stroke-width="1.396"></path>
            <path d="M49.313858,82.3416478 C47.0987771,82.4871478 38.2274387,83.6048523 38.2274387,83.6048523 C35.8961514,83.4317955 36.2425676,81.6483183 35.8961514,79.0260116 C35.6362016,75.3146595 34.5192986,74.1005061 38.5738549,73.2721482" id="Stroke-18" stroke="#231F20" stroke-width="0.308"></path>
            <path d="M47.2434586,71.4303561 C49.7763172,70.9971629 50.1133708,71.1702197 50.6910983,72.953697 C51.0380652,74.8815721 51.2506513,76.7774813 51.7028098,80.0385552 C51.9341211,81.7062939 51.4714985,81.9945383 49.3136946,82.3417542 C47.0986136,82.4872542 38.2272749,83.6044077 38.2272749,83.6044077 C35.8959876,83.4313508 36.2424038,81.6484246 35.8959876,79.0261177 C35.6360377,75.3147653 34.5191347,74.1006118 38.5736911,73.2722539 C43.0198246,72.36343 43.6498725,72.0465265 47.2434586,71.4303561 Z" id="Stroke-20" stroke="#A9BAB8" stroke-width="1.521"></path>
            <path d="M38.4584772,78.7754044 L48.331614,77.3292225 L38.4584772,78.7754044 Z M45.107575,74.4561488 C46.5741987,74.2042795 47.8811074,74.2252227 48.215958,75.2569499 C48.4169785,76.3735521 48.41808,77.2140351 48.620202,79.1711203 C48.7209876,80.140018 48.013836,80.6751713 45.7111873,80.8190179 C44.4285112,80.9027907 39.9036219,81.2136316 39.9036219,81.2136316 C38.5537554,81.1138759 38.6594977,80.2645748 38.4584772,78.7472964 C38.3075741,76.5989669 37.8735901,75.9684669 40.2213996,75.4889783 C42.7950129,74.9626431 43.026875,74.8110806 45.107575,74.4561488 Z" id="Stroke-22" stroke="#A9BAB8" stroke-width="1.396"></path>
            <path d="M110.646708,70.9725815 C108.113299,70.5388372 107.776796,70.7124451 107.198518,72.4959223 C106.852102,74.4237973 106.639516,76.3191552 106.187357,79.580229 C105.956046,81.2479676 106.418668,81.5367631 108.575921,81.8834278 C110.791553,82.029479 119.662341,83.1466323 119.662341,83.1466323 C121.993628,82.9735755 121.647212,81.1900983 121.993628,78.5683427 C122.253578,74.8569905 123.371583,73.6422859 119.315925,72.813928 C114.870342,71.9056553 114.240845,71.5882008 110.646708,70.9725815 Z" id="Stroke-24" stroke="#A9BAB8" stroke-width="1.521"></path>
            <path d="M119.431968,78.3176935 L109.558831,76.8715116 L119.431968,78.3176935 Z M112.782869,73.9978865 C111.315695,73.7465683 110.008786,73.7669604 109.673936,74.7992387 C109.472915,75.915841 109.471814,76.7563239 109.269692,78.7128579 C109.169457,79.6823068 109.876608,80.216909 112.178706,80.3613067 C113.461383,80.4450795 117.986272,80.7559204 117.986272,80.7559204 C119.336139,80.6561647 119.230396,79.8068636 119.431968,78.2890341 C119.582871,76.1407046 120.016855,75.5107558 117.668494,75.030716 C115.095432,74.5043808 114.863019,74.3533694 112.782869,73.9978865 Z" id="Stroke-26" stroke="#A9BAB8" stroke-width="1.396"></path>
            <path d="M79.2770426,66.4286857 C68.0705613,66.2649982 61.7359364,74.637862 61.7359364,74.637862 C61.7359364,74.637862 67.7841759,82.0550553 78.9488009,82.1371746 C88.5515239,82.20772 96.8594544,75.0886915 96.6132731,74.8428847 C95.2733198,73.5019699 90.4835239,66.5929243 79.2770426,66.4286857 Z" id="Stroke-28" stroke="#A9BAB8" stroke-width="1.521"></path>
            <path d="M68.0299186,74.3095495 L89.6520157,74.3095495 L68.0299186,74.3095495 Z M78.9489131,69.9384871 C72.1461581,69.8387314 67.7429824,74.3095499 67.7429824,74.3095499 C67.7429824,74.3095499 71.2385367,78.9264195 78.8674034,78.9677547 C87.0596784,79.0112945 90.052406,74.5691351 89.9389533,74.3911181 C89.4058358,73.5589021 85.7522189,70.0382428 78.9489131,69.9384871 Z" id="Stroke-30" stroke="#A9BAB8" stroke-width="1.396"></path>
            <path d="M122.786421,105.760371 L117.796706,95.5219111 L122.786421,105.760371 Z M122.333712,99.5810304 C123.950688,102.779826 122.853061,105.896502 122.853061,105.896502 C122.853061,105.896502 119.863638,105.306235 118.083643,101.702905 C116.17202,97.8350304 117.581918,95.392394 117.692066,95.4050211 C118.208661,95.465144 120.716736,96.3827861 122.333712,99.5810304 Z M123.917093,98.6159905 C126.581579,103.883752 124.084518,108.815871 124.084518,108.815871 C124.084518,108.815871 119.18127,107.663996 116.56635,102.396786 C114.316573,97.8658939 115.765573,92.2894963 115.938505,92.3495701 C116.881374,92.6730872 121.253709,93.3471269 123.917093,98.6159905 Z M36.2759994,106.561172 L41.2657146,96.3227122 L36.2759994,106.561172 Z M36.7292595,100.382383 C35.1117327,103.580627 36.2093598,106.697303 36.2093598,106.697303 C36.2093598,106.697303 39.1993337,106.108139 40.9793292,102.50536 C42.8909518,98.6358316 41.4816051,96.1937463 41.3703554,96.2063733 C40.8543109,96.2670474 38.3462356,97.1835872 36.7292595,100.382383 Z M35.1453278,99.4167919 C32.4813928,104.685656 34.9784532,109.617224 34.9784532,109.617224 C34.9784532,109.617224 39.881151,108.4659 42.4966207,103.197587 C44.7463983,98.6672464 43.2979491,93.0902974 43.1244656,93.1503713 C42.1815968,93.4749906 37.808712,94.1490304 35.1453278,99.4167919 Z" id="Stroke-32" stroke="#A9BAB8" stroke-width="1.413"></path>
            <path d="M127.369852,122.928767 C127.369852,122.212289 127.949783,121.63084 128.666848,121.63084 C129.382811,121.63084 129.962742,122.212289 129.962742,122.928767 C129.962742,123.645244 129.382811,124.226693 128.666848,124.226693 C127.949783,124.226693 127.369852,123.645244 127.369852,122.928767 Z M29.0686137,124.119219 C29.0686137,123.402742 29.6490949,122.821293 30.3656092,122.821293 C31.0821234,122.821293 31.6626046,123.402742 31.6626046,124.119219 C31.6626046,124.835696 31.0821234,125.417145 30.3656092,125.417145 C29.6490949,125.417145 29.0686137,124.835696 29.0686137,124.119219 Z M31.127835,94.8604921 C31.127835,94.1440148 31.7088669,93.5625659 32.4242797,93.5625659 C33.1413447,93.5625659 33.7218259,94.1440148 33.7218259,94.8604921 C33.7218259,95.5780716 33.1413447,96.1584182 32.4242797,96.1584182 C31.7088669,96.1584182 31.127835,95.5780716 31.127835,94.8604921 Z M32.0156296,114.63747 C32.0156296,113.731953 32.7492169,112.99784 33.6540846,112.99784 C34.5589524,112.99784 35.2930904,113.731953 35.2930904,114.63747 C35.2930904,115.542987 34.5589524,116.277101 33.6540846,116.277101 C32.7492169,116.277101 32.0156296,115.542987 32.0156296,114.63747 Z M123.805455,114.083027 C123.805455,113.117987 124.586957,112.335925 125.551856,112.335925 C126.516203,112.335925 127.298807,113.117987 127.298807,114.083027 C127.298807,115.048618 126.516203,115.831783 125.551856,115.831783 C124.586957,115.831783 123.805455,115.048618 123.805455,114.083027 Z M109.403577,98.295725 C109.403577,97.5792477 109.984059,96.9977988 110.700022,96.9977988 C111.416536,96.9977988 111.997018,97.5792477 111.997018,98.295725 C111.997018,99.0122023 111.416536,99.5925489 110.700022,99.5925489 C109.984059,99.5925489 109.403577,99.0122023 109.403577,98.295725 Z M46.6928814,98.8545774 C46.6928814,98.1381002 47.2733626,97.5561002 47.9898768,97.5561002 C48.7058404,97.5561002 49.2868723,98.1381002 49.2868723,98.8545774 C49.2868723,99.5710547 48.7058404,100.152504 47.9898768,100.152504 C47.2733626,100.152504 46.6928814,99.5710547 46.6928814,98.8545774 Z M97.1859323,90.7661001 C97.1859323,89.7084694 98.0423348,88.8514524 99.099207,88.8514524 C100.156079,88.8514524 101.012482,89.7084694 101.012482,90.7661001 C101.012482,91.8231796 100.156079,92.6807478 99.099207,92.6807478 C98.0423348,92.6807478 97.1859323,91.8231796 97.1859323,90.7661001 Z M58.0502666,90.9055377 C58.0502666,89.8484582 58.9066691,88.99089 59.9635413,88.99089 C61.0198629,88.99089 61.8768161,89.8484582 61.8768161,90.9055377 C61.8768161,91.9626173 61.0198629,92.8196343 59.9635413,92.8196343 C58.9066691,92.8196343 58.0502666,91.9626173 58.0502666,90.9055377 Z M88.4462231,88.4447138 C88.4462231,87.7282365 89.0272551,87.1467876 89.7432186,87.1467876 C90.4597328,87.1467876 91.040214,87.7282365 91.040214,88.4447138 C91.040214,89.161191 90.4597328,89.743191 89.7432186,89.743191 C89.0272551,89.743191 88.4462231,89.161191 88.4462231,88.4447138 Z M68.3661966,88.9027081 C68.3661966,88.1862309 68.9466778,87.604782 69.6626414,87.604782 C70.3791556,87.604782 70.9596368,88.1862309 70.9596368,88.9027081 C70.9596368,89.6191854 70.3791556,90.2006343 69.6626414,90.2006343 C68.9466778,90.2006343 68.3661966,89.6191854 68.3661966,88.9027081 Z M77.1042586,88.1878843 C77.1042586,86.8579922 78.1820591,85.7794183 79.5109976,85.7794183 C80.8399361,85.7794183 81.9171858,86.8579922 81.9171858,88.1878843 C81.9171858,89.5172253 80.8399361,90.5957992 79.5109976,90.5957992 C78.1820591,90.5957992 77.1042586,89.5172253 77.1042586,88.1878843 Z" id="Stroke-34" stroke="#A9BAB8" stroke-width="1.396"></path>
            <path d="M26.2085052,131.988891 C26.2085052,131.367761 26.7124333,130.86292 27.3336694,130.86292 C27.9554561,130.86292 28.4588336,131.367761 28.4588336,131.988891 C28.4588336,132.611124 27.9554561,133.114863 27.3336694,133.114863 C26.7124333,133.114863 26.2085052,132.611124 26.2085052,131.988891 Z M131.190783,130.84363 C131.190783,130.222499 131.694711,129.717658 132.315947,129.717658 C132.937183,129.717658 133.441111,130.222499 133.441111,130.84363 C133.441111,131.466414 132.937183,131.970152 132.315947,131.970152 C131.694711,131.970152 131.190783,131.466414 131.190783,130.84363 Z" id="Stroke-36" stroke="#A9BAB8" stroke-width="1.241"></path>
            <path d="M124.903854,94.0291002 C124.903854,93.3120718 125.484886,92.731174 126.200849,92.731174 C126.916813,92.731174 127.497845,93.3120718 127.497845,94.0291002 C127.497845,94.7455775 126.916813,95.3264752 126.200849,95.3264752 C125.484886,95.3264752 124.903854,94.7455775 124.903854,94.0291002 Z" id="Stroke-38" stroke="#A9BAB8" stroke-width="1.396"></path>
            <path d="M205.270379,46.8663223 C205.862426,47.5249303 206.299714,48.2458167 206.582795,49.0289814 C206.865326,49.8126973 207.006866,50.7242769 207.006866,51.7642712 C207.006866,54.2394247 206.092636,56.2802826 204.264175,57.8868451 C202.435164,59.4934076 200.165009,60.2958622 197.455362,60.2958622 C196.20518,60.2958622 194.955548,60.1018622 193.705366,59.7133111 C192.455183,59.3253111 191.376281,58.8540895 190.46866,58.3012997 L189.620518,59.7430724 L188.041544,59.7430724 L187.765071,50.1444814 L189.363873,50.1444814 C189.692666,51.3299758 190.077083,52.3997315 190.518227,53.3537485 C190.958819,54.3088678 191.540953,55.2006065 192.265177,56.0300667 C192.948647,56.807169 193.747773,57.4260951 194.662554,57.8868451 C195.576784,58.3475951 196.639164,58.5779701 197.849693,58.5779701 C198.757865,58.5779701 199.550382,58.4594758 200.228344,58.221936 C200.905205,57.9849474 201.454844,57.6482031 201.876161,57.2133565 C202.296928,56.7779588 202.609198,56.2676065 202.813523,55.6806463 C203.017297,55.093686 203.119184,54.4179928 203.119184,53.6530156 C203.119184,52.5331065 202.80361,51.4881519 202.171909,50.518703 C201.54076,49.5503564 200.600094,48.8151405 199.349912,48.3136064 C198.49406,47.9730042 197.514291,47.5960269 196.408954,47.1832257 C195.303616,46.7704246 194.350284,46.38022 193.547854,46.0126121 C191.968879,45.3021973 190.741827,44.3707769 189.8667,43.2189018 C188.991572,42.067578 188.554284,40.5635268 188.554284,38.7072995 C188.554284,37.6414018 188.771826,36.6477029 189.20581,35.7262029 C189.639794,34.8047029 190.258277,33.9824075 191.060707,33.2582143 C191.824034,32.5737029 192.725597,32.0374472 193.764295,31.6494472 C194.804094,31.2608961 195.889605,31.0668961 197.020827,31.0668961 C198.310112,31.0668961 199.465017,31.2642029 200.484989,31.6593677 C201.50386,32.0539813 202.435164,32.5152824 203.277247,33.0416177 L204.086286,31.6984983 L205.665261,31.6984983 L205.823323,41.000578 L204.224522,41.000578 C203.934832,39.9341291 203.609344,38.9139757 203.247507,37.9395666 C202.88567,36.9651575 202.414786,36.0833393 201.836508,35.2930097 C201.270346,34.5296859 200.579717,33.9206802 199.764069,33.4665438 C198.948421,33.0118563 197.948826,32.7847881 196.764733,32.7847881 C195.51455,32.7847881 194.448866,33.1865665 193.56713,33.9895722 C192.685393,34.7925779 192.245351,35.7741518 192.245351,36.9320893 C192.245351,38.143487 192.527881,39.1476575 193.094043,39.9440495 C193.659103,40.7409927 194.48136,41.3957427 195.560813,41.9088507 C196.520754,42.3701518 197.465276,42.7680723 198.392724,43.1037143 C199.320172,43.4399075 200.21788,43.7986973 201.086399,44.1800837 C201.876161,44.5228905 202.635633,44.9114416 203.365916,45.3457371 C204.096199,45.7800325 204.731204,46.287078 205.270379,46.8663223" id="Fill-40" fill="#A9BAB8"></path>
            <path d="M225.953288,43.3904693 C226.40049,42.7583158 226.696789,42.1035658 226.841083,41.425117 C226.985928,40.7472192 227.058626,40.1387647 227.058626,39.598651 C227.058626,38.8480033 226.969957,38.0846794 226.792067,37.3075771 C226.614178,36.531026 226.309067,35.8525771 225.873982,35.2733328 C225.414113,34.6544066 224.808848,34.1738157 224.058739,33.83156 C223.308629,33.4893043 222.374572,33.3179009 221.256568,33.3179009 L218.473672,33.3179009 L218.473672,45.7008329 L220.486631,45.7008329 C221.907544,45.7008329 223.061897,45.4803784 223.950243,45.0394693 C224.838588,44.5985602 225.506087,44.0490772 225.953288,43.3904693 M231.953062,38.6110144 C231.953062,40.0720769 231.666677,41.366145 231.094457,42.4915655 C230.522237,43.6175371 229.729169,44.5489575 228.716356,45.2863779 C227.71621,46.0237984 226.617482,46.5633609 225.42017,46.9056165 C224.222859,47.2484233 222.953401,47.4192756 221.611245,47.4192756 L218.473672,47.4192756 L218.473672,55.9117357 C218.473672,56.3724857 218.549124,56.7775709 218.700578,57.1258891 C218.851481,57.4753095 219.164302,57.7420595 219.637939,57.9261391 C219.874758,58.0181788 220.29222,58.103605 220.891426,58.1829686 C221.490082,58.2617811 222.03917,58.3080765 222.539243,58.3207527 L222.539243,59.7233947 L210.520419,59.7233947 L210.520419,58.3207527 C210.835994,58.2948493 211.293109,58.2485538 211.891765,58.1829686 C212.49042,58.1168322 212.907882,58.0314061 213.144701,57.9261391 C213.539582,57.7547356 213.825417,57.5045197 214.003857,57.1754913 C214.181196,56.8464629 214.269865,56.4248436 214.269865,55.9117357 L214.269865,35.6877872 C214.269865,35.2270372 214.203776,34.8125827 214.0727,34.4438725 C213.940522,34.0751622 213.631556,33.7990429 213.144701,33.6144122 C212.644628,33.44356 212.14841,33.3212077 211.654946,33.2490088 C211.162033,33.17681 210.737411,33.1272077 210.382183,33.1007532 L210.382183,31.6986623 L223.170393,31.6986623 C225.775949,31.6986623 227.890795,32.3275089 229.515482,33.5846509 C231.140168,34.842344 231.953062,36.5172474 231.953062,38.6110144" id="Fill-42" fill="#A9BAB8"></path>
            <path d="M257.648338,51.3889468 L257.056291,59.7232307 L235.169838,59.7232307 L235.169838,58.3211398 C235.485413,58.2946853 235.942528,58.248941 236.541184,58.1828046 C237.139839,58.1172194 237.557852,58.0317932 237.79412,57.9259751 C238.189001,57.7551228 238.475386,57.5049069 238.653276,57.1758785 C238.830614,56.8462989 238.919284,56.4252308 238.919284,55.9115717 L238.919284,35.8457993 C238.919284,35.3982766 238.843282,35.003663 238.692378,34.6608562 C238.540925,34.3186005 238.241872,34.0424812 237.79412,33.831396 C237.491212,33.6732198 237.067141,33.5189017 236.521908,33.3673392 C235.975022,33.2163278 235.525066,33.1275949 235.169838,33.1005892 L235.169838,31.6984983 L246.990946,31.6984983 L246.990946,33.1005892 C246.6225,33.1138164 246.145558,33.1799528 245.560671,33.2984471 C244.974683,33.4169414 244.550612,33.5222085 244.287358,33.6142483 C243.840156,33.7724244 243.533944,34.0424812 243.369823,34.4238676 C243.204601,34.8063562 243.123091,35.2141971 243.123091,35.6484925 L243.123091,54.469799 C243.123091,55.338941 243.165498,56.0140831 243.250863,56.4941228 C243.336779,56.9752649 243.537248,57.3467308 243.853374,57.6101739 C244.155731,57.8471626 244.606237,58.0020319 245.204892,58.0742307 C245.803548,58.1469807 246.642327,58.1828046 247.72178,58.1828046 C248.207533,58.1828046 248.714215,58.1701285 249.240724,58.1431228 C249.766681,58.1172194 250.267305,58.0643103 250.740942,57.9854978 C251.201362,57.9061342 251.625433,57.7975603 252.014256,57.6592251 C252.401978,57.5208898 252.687812,57.3467308 252.872311,57.1361967 C253.412037,56.5304978 254.039882,55.6123047 254.756947,54.381066 C255.474012,53.1498274 255.97078,52.1528218 256.247252,51.3889468 L257.648338,51.3889468 Z" id="Fill-44" fill="#A9BAB8"></path>
            <path d="M271.798742,59.7232854 L259.187871,59.7232854 L259.187871,58.3211945 C259.542548,58.2947399 260.055839,58.2550581 260.726641,58.2027002 C261.397995,58.1503422 261.871632,58.0709786 262.148104,57.9657115 C262.582089,57.7943081 262.897663,57.5606263 263.094829,57.2646661 C263.292545,56.9681547 263.391127,56.557007 263.391127,56.0301207 L263.391127,35.7273597 C263.391127,35.2666097 263.31898,34.8819165 263.174135,34.5721779 C263.02929,34.2629904 262.68728,34.002854 262.148104,33.79232 C261.753223,33.6341438 261.255904,33.4858881 260.657799,33.3475529 C260.059143,33.2097688 259.568984,33.1276495 259.187871,33.1006438 L259.187871,31.698553 L271.798742,31.698553 L271.798742,33.1006438 C271.390643,33.1138711 270.903788,33.1634734 270.338177,33.2488995 C269.772015,33.3348768 269.279101,33.4434506 268.857784,33.5746211 C268.357711,33.7327972 268.02231,33.9896268 267.85158,34.3451097 C267.679749,34.7005927 267.594935,35.0952063 267.594935,35.5300529 L267.594935,55.8129729 C267.594935,56.2472684 267.690213,56.6325127 267.88132,56.9681547 C268.071326,57.3037968 268.396814,57.5705468 268.857784,57.7684047 C269.134256,57.8736718 269.584212,57.9888593 270.209854,58.1139672 C270.834394,58.2390752 271.364207,58.3079672 271.798742,58.3211945 L271.798742,59.7232854 Z" id="Fill-46" fill="#A9BAB8"></path>
            <path d="M298.08585,39.3021962 L296.723867,39.3021962 C296.605458,38.8282189 296.391219,38.2655087 296.081152,37.6135144 C295.771635,36.9620712 295.425219,36.3464519 295.043005,35.7672076 C294.647022,35.1615088 294.215792,34.6313156 293.747111,34.1771792 C293.278981,33.7230429 292.827373,33.4629065 292.392288,33.3973213 C291.983638,33.3444122 291.469246,33.3052815 290.849662,33.278827 C290.229527,33.2523724 289.655655,33.2391452 289.128596,33.2391452 L287.981402,33.2391452 L287.981402,55.6549629 C287.981402,56.0892584 288.073376,56.4877299 288.257874,56.8498265 C288.441821,57.2119231 288.764005,57.4913492 289.224975,57.6892072 C289.461794,57.781247 289.958012,57.9063549 290.71473,58.0639799 C291.470898,58.222156 292.060191,58.3081333 292.480957,58.3208094 L292.480957,59.7234515 L279.258213,59.7234515 L279.258213,58.3208094 C279.626108,58.294906 280.188965,58.2419969 280.945683,58.1631844 C281.702402,58.0843719 282.225055,57.9851674 282.514745,57.8666731 C282.94928,57.6958208 283.268159,57.4489117 283.471933,57.1259458 C283.675707,56.8035311 283.778145,56.3725424 283.778145,55.8324288 L283.778145,33.2391452 L282.633154,33.2391452 C282.225055,33.2391452 281.718373,33.2490656 281.113659,33.2689065 C280.508395,33.2881963 279.929566,33.3317361 279.376622,33.3973213 C278.942638,33.4496792 278.492132,33.7103667 278.025103,34.1771792 C277.558075,34.6445429 277.126844,35.174736 276.732514,35.7672076 C276.337632,36.3596792 275.989013,36.9885258 275.686105,37.6531962 C275.383198,38.3178666 275.173365,38.8679007 275.054956,39.3021962 L273.673146,39.3021962 L273.673146,31.698719 L298.08585,31.698719 L298.08585,39.3021962 Z" id="Fill-48" fill="#A9BAB8"></path>
            <path d="M317.742572,46.8663223 C318.334619,47.5249303 318.771907,48.2458167 319.054988,49.0289814 C319.337519,49.8126973 319.479059,50.7242769 319.479059,51.7642712 C319.479059,54.2394247 318.564829,56.2802826 316.736368,57.8868451 C314.907357,59.4934076 312.637202,60.2958622 309.927555,60.2958622 C308.677373,60.2958622 307.427741,60.1018622 306.177559,59.7133111 C304.927376,59.3253111 303.848474,58.8540895 302.940853,58.3012997 L302.092711,59.7430724 L300.513736,59.7430724 L300.237264,50.1444814 L301.836066,50.1444814 C302.164858,51.3299758 302.549276,52.3997315 302.990419,53.3537485 C303.431012,54.3088678 304.013146,55.2006065 304.73737,56.0300667 C305.42084,56.807169 306.219966,57.4260951 307.134747,57.8868451 C308.048977,58.3475951 309.111357,58.5779701 310.321886,58.5779701 C311.230058,58.5779701 312.022574,58.4594758 312.700537,58.221936 C313.377398,57.9849474 313.927037,57.6482031 314.348354,57.2133565 C314.769121,56.7779588 315.081391,56.2676065 315.285716,55.6806463 C315.48949,55.093686 315.591377,54.4179928 315.591377,53.6530156 C315.591377,52.5331065 315.275802,51.4881519 314.644102,50.518703 C314.012953,49.5503564 313.072287,48.8151405 311.822105,48.3136064 C310.966253,47.9730042 309.986484,47.5960269 308.881147,47.1832257 C307.775809,46.7704246 306.822476,46.38022 306.020047,46.0126121 C304.441072,45.3021973 303.21402,44.3707769 302.338893,43.2189018 C301.463765,42.067578 301.026476,40.5635268 301.026476,38.7072995 C301.026476,37.6414018 301.244019,36.6477029 301.678003,35.7262029 C302.111987,34.8047029 302.73047,33.9824075 303.532899,33.2582143 C304.296227,32.5737029 305.19779,32.0374472 306.236488,31.6494472 C307.276287,31.2608961 308.361798,31.0668961 309.49302,31.0668961 C310.782305,31.0668961 311.93721,31.2642029 312.957182,31.6593677 C313.976053,32.0539813 314.907357,32.5152824 315.74944,33.0416177 L316.558479,31.6984983 L318.137454,31.6984983 L318.295516,41.000578 L316.696715,41.000578 C316.407025,39.9341291 316.081537,38.9139757 315.7197,37.9395666 C315.357863,36.9651575 314.886979,36.0833393 314.308701,35.2930097 C313.742539,34.5296859 313.05191,33.9206802 312.236262,33.4665438 C311.420614,33.0118563 310.421019,32.7847881 309.236926,32.7847881 C307.986743,32.7847881 306.921059,33.1865665 306.039322,33.9895722 C305.157586,34.7925779 304.717544,35.7741518 304.717544,36.9320893 C304.717544,38.143487 305.000074,39.1476575 305.566236,39.9440495 C306.131296,40.7409927 306.953553,41.3957427 308.033005,41.9088507 C308.992947,42.3701518 309.937468,42.7680723 310.864917,43.1037143 C311.792365,43.4399075 312.690073,43.7986973 313.558592,44.1800837 C314.348354,44.5228905 315.107826,44.9114416 315.838109,45.3457371 C316.568392,45.7800325 317.203397,46.287078 317.742572,46.8663223" id="Fill-50" fill="#A9BAB8"></path>
            <path d="M350.168009,59.7232854 L342.313338,59.7232854 C340.799901,57.3798536 339.119039,55.0524048 337.270752,52.7420412 C335.422464,50.4311265 333.484957,48.1896549 331.45878,46.0170754 L330.94604,46.0170754 L330.94604,55.7732911 C330.94604,56.2081377 331.02755,56.5966888 331.192772,56.9383934 C331.356893,57.2812002 331.656496,57.5573195 332.09048,57.7684047 C332.300864,57.8604445 332.69244,57.9723252 333.264661,58.1040468 C333.837431,58.2357684 334.313822,58.3079672 334.695486,58.3211945 L334.695486,59.7232854 L323.071543,59.7232854 L323.071543,58.3211945 C323.3739,58.2947399 323.814493,58.2550581 324.393322,58.2027002 C324.972701,58.1503422 325.38025,58.0709786 325.617069,57.9657115 C326.01195,57.7943081 326.297785,57.5413365 326.475674,57.2051434 C326.653564,56.8695013 326.742233,56.4644161 326.742233,55.99099 L326.742233,35.7670415 C326.742233,35.3195188 326.666231,34.9309677 326.515327,34.6019393 C326.363323,34.2729109 326.06427,34.002854 325.617069,33.79232 C325.261841,33.6209166 324.841074,33.4693541 324.354219,33.3376325 C323.867364,33.206462 323.439438,33.1276495 323.071543,33.1006438 L323.071543,31.698553 L334.695486,31.698553 L334.695486,33.1006438 C334.32704,33.1138711 333.866621,33.1733938 333.313677,33.2786609 C332.761834,33.3839279 332.353184,33.4831325 332.09048,33.5746211 C331.642728,33.7327972 331.340371,33.9962404 331.182308,34.3649506 C331.024796,34.7336609 330.94604,35.1348881 330.94604,35.5697347 L330.94604,45.2465868 L331.340371,45.2465868 C332.524464,44.2462743 333.688731,43.2024221 334.833722,42.1166834 C335.978162,41.0303937 337.017411,39.9474108 337.951468,38.8677346 C338.991267,37.6695642 339.750739,36.7122404 340.231536,35.9941097 C340.711232,35.2765302 340.951906,34.6410699 340.951906,34.0882802 C340.951906,33.8909734 340.829641,33.7294904 340.586764,33.6043825 C340.342786,33.4792745 340.06356,33.3773143 339.747986,33.2985018 C339.378989,33.2191382 339.050197,33.170087 338.761057,33.1502461 C338.471368,33.1304052 338.234549,33.1138711 338.050601,33.1006438 L338.050601,31.698553 L348.549931,31.698553 L348.549931,33.1006438 C348.510278,33.1006438 348.424362,33.1078086 348.293286,33.1204847 C348.161659,33.133712 348.010205,33.1469393 347.839475,33.1601666 C347.655527,33.1733938 347.47158,33.1998484 347.287632,33.2389791 C347.103685,33.2786609 346.866866,33.3249563 346.577176,33.3773143 C346.117307,33.4831325 345.640365,33.6506779 345.147452,33.8810529 C344.653988,34.1114279 344.249744,34.3980188 343.93472,34.7397234 C342.580447,36.2807006 341.167246,37.8740358 339.696216,39.5213824 C338.224636,41.1681778 336.767374,42.6700243 335.32223,44.026922 C337.324724,46.290439 338.981354,48.238706 340.291016,49.8706208 C341.60178,51.5025355 342.995156,53.246331 344.47004,55.1020071 C345.033449,55.8129729 345.596306,56.3822968 346.160265,56.8099786 C346.723123,57.2382116 347.207775,57.5573195 347.613671,57.7684047 C347.954029,57.939257 348.379752,58.0709786 348.89084,58.1630184 C349.401377,58.2550581 349.827651,58.3079672 350.168009,58.3211945 L350.168009,59.7232854 Z" id="Fill-52" fill="#A9BAB8"></path>
            <path d="M370.732082,54.8846949 C371.468973,53.6865244 372.005395,52.3307289 372.340797,50.8162062 C372.676198,49.3022346 372.844174,47.6102459 372.844174,45.7407913 C372.844174,43.8184276 372.656371,42.0542401 372.281317,40.4476776 C371.906813,38.8416662 371.357173,37.4720923 370.633499,36.3400582 C369.909825,35.2207002 369.001653,34.3482513 367.910084,33.7232626 C366.817964,33.0977229 365.567782,32.7846774 364.160087,32.7846774 C362.581663,32.7846774 361.239507,33.1473251 360.134169,33.8709672 C359.029383,34.5957115 358.127819,35.5629559 357.430581,36.7743536 C356.772445,37.9328423 356.282836,39.2891889 355.960653,40.8422912 C355.637919,42.3964958 355.477102,44.0289617 355.477102,45.7407913 C355.477102,47.6367004 355.647281,49.34853 355.989842,50.8757289 C356.331852,52.4029278 356.871028,53.7592744 357.60847,54.9436665 C358.318927,56.1027063 359.21333,57.0076722 360.292232,57.6596665 C361.371134,58.3111097 362.660419,58.6373825 364.160087,58.6373825 C365.567782,58.6373825 366.837791,58.3078029 367.969013,57.6497461 C369.100786,56.9911381 370.021626,56.0696381 370.732082,54.8846949 M373.673039,35.0167797 C374.909453,36.3069899 375.876554,37.8639501 376.573792,39.6871092 C377.271031,41.5108194 377.6202,43.5285296 377.6202,45.7407909 C377.6202,47.9657284 377.264422,49.9867454 376.553966,51.803842 C375.84351,53.6209385 374.856581,55.1679783 373.593732,56.4449612 C372.370536,57.7087169 370.949624,58.6836771 369.330995,59.3676373 C367.712918,60.0521487 365.989098,60.3949555 364.160087,60.3949555 C362.212666,60.3949555 360.413946,60.0295521 358.762824,59.2987453 C357.111702,58.5679385 355.693543,57.5505407 354.510001,56.2476544 C353.325907,54.9706715 352.394604,53.4203249 351.717192,51.5966147 C351.03923,49.7729045 350.701075,47.8213306 350.701075,45.7407909 C350.701075,43.4629443 351.055752,41.4320069 351.766208,39.6479785 C352.477215,37.8639501 353.456983,36.319666 354.706615,35.0167797 C355.94358,33.7260183 357.381565,32.7389331 359.018918,32.0538706 C360.657373,31.3693593 362.370729,31.0271036 364.160087,31.0271036 C366.015534,31.0271036 367.765238,31.3759729 369.410302,32.0737115 C371.054265,32.7720013 372.475177,33.7524729 373.673039,35.0167797" id="Fill-54" fill="#A9BAB8"></path>
            <path d="M209.829633,94.4055829 C209.829633,92.5245545 209.579597,90.8237477 209.079524,89.3042647 C208.5789,87.7847817 207.848617,86.4592988 206.888675,85.3278158 C205.981054,84.249242 204.865803,83.400492 203.543473,82.782117 C202.221695,82.163742 200.751216,81.8545545 199.132587,81.8545545 C198.593412,81.8545545 197.984843,81.8644749 197.307431,81.8843158 C196.629469,81.9041567 196.126091,81.9206908 195.797299,81.9339181 L195.797299,103.463509 C195.797299,104.660577 196.145918,105.489486 196.843707,105.949685 C197.540945,106.410435 198.613238,106.640259 200.060586,106.640259 C201.730984,106.640259 203.19155,106.344299 204.441732,105.752378 C205.691364,105.161009 206.704177,104.338162 207.480722,103.285492 C208.29637,102.180464 208.892272,100.901276 209.267326,99.4473784 C209.64183,97.9940318 209.829633,96.3130659 209.829633,94.4055829 M214.664589,94.4155031 C214.664589,96.7986167 214.217388,98.8659291 213.322433,100.616889 C212.42803,102.36785 211.263763,103.803009 209.829633,104.922367 C208.381734,106.041173 206.757048,106.877247 204.954472,107.430588 C203.151896,107.983378 201.290391,108.260048 199.369957,108.260048 L187.76529,108.260048 L187.76529,106.857406 C188.146403,106.857406 188.643171,106.821582 189.255596,106.748832 C189.866918,106.676634 190.271162,106.594514 190.468878,106.501923 C190.863209,106.331071 191.149594,106.077548 191.327484,105.741906 C191.505373,105.405713 191.594042,105.001179 191.594042,104.527202 L191.594042,84.3038044 C191.594042,83.8562817 191.51804,83.4545033 191.367137,83.0990203 C191.215133,82.7435374 190.91608,82.4602533 190.468878,82.2497192 C190.060779,82.0518613 189.620737,81.9074635 189.146549,81.8154238 C188.672911,81.723384 188.265363,81.6638613 187.923353,81.6374067 L187.923353,80.2353158 L200.158618,80.2353158 C201.842785,80.2353158 203.501066,80.4954522 205.132361,81.0151738 C206.763657,81.5354465 208.184569,82.2364919 209.395098,83.1188612 C211.039611,84.2905771 212.328896,85.8243896 213.262953,87.7202987 C214.197561,89.6162077 214.664589,91.8477588 214.664589,94.4155031" id="Fill-56" fill="#A9BAB8"></path>
            <path d="M232.961256,96.8052251 L228.719448,85.9302022 L224.538221,96.8052251 L232.961256,96.8052251 Z M244.228318,108.260044 L232.587303,108.260044 L232.587303,106.857402 C233.613884,106.791817 234.46533,106.660095 235.143292,106.462788 C235.820153,106.265481 236.15941,106.021879 236.15941,105.731981 C236.15941,105.613487 236.146192,105.468538 236.119756,105.297686 C236.093321,105.126283 236.054218,104.97472 236.001898,104.842998 L233.682727,98.5627994 L223.851997,98.5627994 C223.483001,99.4842994 223.183397,100.287856 222.952637,100.972368 C222.721876,101.656879 222.514247,102.289032 222.329749,102.868277 C222.159019,103.434294 222.040059,103.895044 221.97452,104.250527 C221.908432,104.60601 221.875387,104.895908 221.875387,105.119669 C221.875387,105.646555 222.290095,106.054947 223.118961,106.344294 C223.947826,106.633641 224.881883,106.805044 225.921682,106.857402 L225.921682,108.260044 L215.374989,108.260044 L215.374989,106.857402 C215.716999,106.831499 216.144925,106.755993 216.657665,106.630334 C217.170956,106.505777 217.591722,106.33768 217.920515,106.127146 C218.447023,105.771663 218.855123,105.399646 219.144262,105.011095 C219.433952,104.623095 219.716482,104.086288 219.992954,103.401226 C221.400648,99.8860778 222.953188,95.9360834 224.650572,91.5517934 C226.347956,87.1675035 227.860291,83.2638045 229.18978,79.8401453 L230.768755,79.8401453 L240.103818,104.013538 C240.300432,104.527197 240.524033,104.942203 240.774621,105.258004 C241.024657,105.573805 241.372726,105.883544 241.820478,106.186118 C242.122835,106.370749 242.517716,106.525067 243.004572,106.650175 C243.490876,106.775283 243.898975,106.844726 244.228318,106.857402 L244.228318,108.260044 Z" id="Fill-58" fill="#A9BAB8"></path>
            <path d="M267.713348,99.9255457 L267.121301,108.25983 L245.234848,108.25983 L245.234848,106.857739 C245.550423,106.831284 246.007538,106.78554 246.606193,106.719404 C247.204849,106.653818 247.622862,106.568392 247.85913,106.462574 C248.254011,106.291722 248.540396,106.041506 248.718286,105.712477 C248.895624,105.382898 248.984294,104.96183 248.984294,104.448171 L248.984294,84.3823982 C248.984294,83.9348755 248.908291,83.5402619 248.757388,83.1974551 C248.605935,82.8551994 248.306882,82.5790801 247.85913,82.3679949 C247.556222,82.2098187 247.132151,82.0555006 246.586917,81.9039381 C246.040032,81.7529267 245.590076,81.6641938 245.234848,81.6371881 L245.234848,80.2350972 L257.055956,80.2350972 L257.055956,81.6371881 C256.68751,81.6504153 256.210568,81.7165517 255.625681,81.835046 C255.039693,81.9535403 254.615622,82.0588074 254.352368,82.1508472 C253.905166,82.3090233 253.598954,82.5790801 253.434833,82.9604665 C253.269611,83.3429551 253.188101,83.750796 253.188101,84.1850914 L253.188101,103.006398 C253.188101,103.87554 253.230508,104.550682 253.315873,105.030722 C253.401788,105.511864 253.602258,105.88333 253.918384,106.146773 C254.22074,106.383761 254.671247,106.538631 255.269902,106.61083 C255.868558,106.68358 256.707337,106.719404 257.786789,106.719404 C258.272543,106.719404 258.779225,106.706727 259.305733,106.679722 C259.831691,106.653818 260.332315,106.600909 260.805952,106.522097 C261.266372,106.442733 261.690443,106.334159 262.079266,106.195824 C262.466988,106.057489 262.752822,105.88333 262.937321,105.672796 C263.477047,105.067097 264.104892,104.148904 264.821957,102.917665 C265.539022,101.686426 266.03579,100.689421 266.312262,99.9255457 L267.713348,99.9255457 Z" id="Fill-60" fill="#A9BAB8"></path>
            <path d="M303.335683,108.25988 L290.961631,108.25988 L290.961631,106.857789 C291.408833,106.844562 291.984357,106.798266 292.688204,106.719454 C293.392051,106.640641 293.875602,106.528761 294.138857,106.383812 C294.546405,106.133596 294.846008,105.847556 295.037115,105.52459 C295.227121,105.202176 295.32295,104.79709 295.32295,104.309886 L295.32295,83.9283124 L295.027202,83.9283124 L285.475147,107.805744 L284.488219,107.805744 L275.390525,83.4344942 L275.13388,83.4344942 L275.13388,100.162585 C275.13388,101.782375 275.235767,103.013062 275.440092,103.855749 C275.643866,104.698437 275.955586,105.304136 276.377454,105.672846 C276.666042,105.949516 277.265248,106.21296 278.173421,106.462624 C279.081042,106.71284 279.672538,106.844562 279.94901,106.857789 L279.94901,108.25988 L268.640641,108.25988 L268.640641,106.857789 C269.232688,106.80488 269.854475,106.706778 270.506002,106.561278 C271.156978,106.41688 271.660355,106.199181 272.015583,105.909835 C272.476003,105.541124 272.791578,104.975107 272.962858,104.211232 C273.133588,103.447909 273.218953,102.170375 273.218953,100.379732 L273.218953,86.0419203 C273.218953,85.2119089 273.120921,84.5340112 272.923205,84.007676 C272.72604,83.4807896 272.442959,83.0531078 272.074513,82.7235283 C271.666964,82.3680453 271.166891,82.1046022 270.574845,81.9337499 C269.982798,81.7628976 269.39736,81.6642442 268.818531,81.6372385 L268.818531,80.2351476 L278.366731,80.2351476 L286.388827,101.270369 L293.236742,83.6736874 C293.486779,83.0283067 293.700467,82.3531647 293.877805,81.6482613 C294.055144,80.9433579 294.150422,80.4726874 294.164191,80.2351476 L303.296581,80.2351476 L303.296581,81.6372385 C302.927584,81.6504658 302.457251,81.7099885 301.885031,81.8152556 C301.312811,81.9205226 300.894799,82.0197272 300.632095,82.1112158 C300.184342,82.2693919 299.881986,82.5328351 299.723923,82.9015453 C299.56586,83.2702555 299.487655,83.6714828 299.487655,84.1063294 L299.487655,104.309886 C299.487655,104.770636 299.56586,105.159187 299.723923,105.474988 C299.881986,105.79134 300.184342,106.06746 300.632095,106.304999 C300.868914,106.43617 301.28968,106.558522 301.894945,106.669852 C302.499658,106.781732 302.979905,106.844562 303.335683,106.857789 L303.335683,108.25988 Z" id="Fill-62" fill="#A9BAB8"></path>
            <path d="M321.948476,96.8052251 L317.706668,85.9302022 L313.525441,96.8052251 L321.948476,96.8052251 Z M333.215539,108.260044 L321.574523,108.260044 L321.574523,106.857402 C322.601104,106.791817 323.45255,106.660095 324.130513,106.462788 C324.807373,106.265481 325.14663,106.021879 325.14663,105.731981 C325.14663,105.613487 325.133412,105.468538 325.106977,105.297686 C325.080541,105.126283 325.041438,104.97472 324.989118,104.842998 L322.669947,98.5627994 L312.839217,98.5627994 C312.470221,99.4842994 312.170618,100.287856 311.939857,100.972368 C311.709097,101.656879 311.501467,102.289032 311.316969,102.868277 C311.146239,103.434294 311.027279,103.895044 310.961741,104.250527 C310.895652,104.60601 310.862607,104.895908 310.862607,105.119669 C310.862607,105.646555 311.277315,106.054947 312.106181,106.344294 C312.935046,106.633641 313.869103,106.805044 314.908903,106.857402 L314.908903,108.260044 L304.362209,108.260044 L304.362209,106.857402 C304.70422,106.831499 305.132146,106.755993 305.644886,106.630334 C306.158176,106.505777 306.578943,106.33768 306.907735,106.127146 C307.434244,105.771663 307.842343,105.399646 308.131482,105.011095 C308.421172,104.623095 308.703702,104.086288 308.980174,103.401226 C310.387868,99.8860778 311.940408,95.9360834 313.637792,91.5517934 C315.335176,87.1675035 316.847512,83.2638045 318.177001,79.8401453 L319.755976,79.8401453 L329.091038,104.013538 C329.287653,104.527197 329.511254,104.942203 329.761841,105.258004 C330.011877,105.573805 330.359946,105.883544 330.807698,106.186118 C331.110055,106.370749 331.504937,106.525067 331.991792,106.650175 C332.478096,106.775283 332.886195,106.844726 333.215539,106.857402 L333.215539,108.260044 Z" id="Fill-64" fill="#A9BAB8"></path>
            <path d="M356.996364,87.838793 L355.634381,87.838793 C355.515971,87.3648157 355.301733,86.8021055 354.991666,86.1501112 C354.682149,85.498668 354.335733,84.8830487 353.953519,84.3038044 C353.557536,83.6981055 353.126306,83.1679124 352.657625,82.713776 C352.189495,82.2596397 351.737887,81.9995033 351.302802,81.9339181 C350.894152,81.881009 350.379759,81.8418783 349.760176,81.8154238 C349.140041,81.7889692 348.566169,81.7757419 348.039109,81.7757419 L346.891916,81.7757419 L346.891916,104.19156 C346.891916,104.625855 346.983889,105.024327 347.168388,105.386423 C347.352335,105.74852 347.674519,106.027946 348.135489,106.225804 C348.372308,106.317844 348.868526,106.442952 349.625244,106.600577 C350.381412,106.758753 350.970705,106.84473 351.391471,106.857406 L351.391471,108.260048 L338.168726,108.260048 L338.168726,106.857406 C338.536622,106.831503 339.099479,106.778594 339.856197,106.699781 C340.612916,106.620969 341.135569,106.521764 341.425259,106.40327 C341.859794,106.232418 342.178673,105.985509 342.382447,105.662543 C342.586221,105.340128 342.688659,104.909139 342.688659,104.369026 L342.688659,81.7757419 L341.543668,81.7757419 C341.135569,81.7757419 340.628887,81.7856624 340.024173,81.8055033 C339.418909,81.8247931 338.84008,81.8683329 338.287136,81.9339181 C337.853152,81.986276 337.402645,82.2469635 336.935617,82.713776 C336.468588,83.1811397 336.037358,83.7113328 335.643027,84.3038044 C335.248146,84.896276 334.899527,85.5251226 334.596619,86.189793 C334.293712,86.8544634 334.083329,87.4044975 333.96547,87.838793 L332.58366,87.838793 L332.58366,80.2353158 L356.996364,80.2353158 L356.996364,87.838793 Z" id="Fill-66" fill="#A9BAB8"></path>
            <path d="M371.462976,108.25988 L358.852105,108.25988 L358.852105,106.857789 C359.206782,106.831335 359.720073,106.791653 360.390875,106.739295 C361.062229,106.686937 361.535866,106.607573 361.812338,106.502306 C362.246322,106.330903 362.561897,106.097221 362.759062,105.801261 C362.956779,105.504749 363.055361,105.093602 363.055361,104.566715 L363.055361,84.2639544 C363.055361,83.8032044 362.983214,83.4185112 362.838369,83.1087726 C362.693524,82.7995851 362.351514,82.5394487 361.812338,82.3289147 C361.417457,82.1707385 360.920138,82.0224828 360.322033,81.8841476 C359.723377,81.7463635 359.233217,81.6642442 358.852105,81.6372385 L358.852105,80.2351476 L371.462976,80.2351476 L371.462976,81.6372385 C371.054877,81.6504658 370.568022,81.7000681 370.00241,81.7854942 C369.436249,81.8714715 368.943335,81.9800453 368.522018,82.1112158 C368.021945,82.2693919 367.686544,82.5262215 367.515814,82.8817044 C367.343983,83.2371874 367.259169,83.631801 367.259169,84.0666476 L367.259169,104.349568 C367.259169,104.783863 367.354447,105.169107 367.545554,105.504749 C367.73556,105.840391 368.061048,106.107141 368.522018,106.304999 C368.79849,106.410266 369.248446,106.525454 369.874088,106.650562 C370.498628,106.77567 371.028441,106.844562 371.462976,106.857789 L371.462976,108.25988 Z" id="Fill-68" fill="#A9BAB8"></path>
            <path d="M403.710389,81.6374067 C403.341943,81.650634 402.776332,81.755901 402.013004,81.9532078 C401.249677,82.1510658 400.703893,82.3549862 400.3751,82.5655203 C399.901463,82.8950999 399.582584,83.5267021 399.417912,84.4619805 C399.25324,85.3967077 399.17118,86.5816509 399.17118,88.0168099 L399.17118,108.536167 L397.45452,108.536167 L380.481779,85.6072418 L380.481779,100.064099 C380.481779,101.683338 380.583666,102.927253 380.787991,103.796395 C380.991765,104.665537 381.303484,105.284463 381.725352,105.653173 C382.027709,105.94252 382.6528,106.212576 383.599524,106.462792 C384.54735,106.713008 385.17189,106.84473 385.474798,106.857406 L385.474798,108.260048 L373.98854,108.260048 L373.98854,106.857406 C374.344319,106.831503 374.942975,106.703088 375.785058,106.472713 C376.62659,106.242338 377.152548,106.035111 377.363482,105.85048 C377.823902,105.48177 378.139476,104.919059 378.310757,104.161798 C378.481487,103.405088 378.567402,102.11102 378.567402,100.281247 L378.567402,86.4758327 C378.567402,85.870685 378.46166,85.2649861 378.251277,84.6592873 C378.041444,84.0535885 377.758363,83.5862248 377.402585,83.2566453 C376.929498,82.8223499 376.287885,82.450884 375.478846,82.1411453 C374.669807,81.8319578 374.014976,81.6638613 373.515454,81.6374067 L373.515454,80.2353158 L381.51607,80.2353158 L397.256804,101.600116 L397.256804,88.2719861 C397.256804,86.6395202 397.151612,85.385685 396.941229,84.5104805 C396.730295,83.635276 396.427938,83.0527249 396.033608,82.7628271 C395.665162,82.5126112 395.063202,82.2695601 394.227177,82.0325715 C393.392253,81.7955828 392.757248,81.6638613 392.322714,81.6374067 L392.322714,80.2353158 L403.710389,80.2353158 L403.710389,81.6374067 Z" id="Fill-70" fill="#A9BAB8"></path>
            <path d="M423.405848,95.4029149 C423.997894,96.0615229 424.435183,96.7824092 424.718264,97.565574 C425.000794,98.3492899 425.142334,99.2608695 425.142334,100.300864 C425.142334,102.776017 424.228104,104.816875 422.399643,106.423438 C420.570632,108.03 418.300477,108.832455 415.590831,108.832455 C414.340648,108.832455 413.091016,108.638455 411.840834,108.249904 C410.590652,107.861904 409.51175,107.390682 408.604128,106.837892 L407.755987,108.279665 L406.177012,108.279665 L405.90054,98.681074 L407.499341,98.681074 C407.828134,99.8665684 408.212551,100.936324 408.653695,101.890341 C409.094288,102.84546 409.676421,103.737199 410.400646,104.566659 C411.084116,105.343762 411.883241,105.962688 412.798022,106.423438 C413.712252,106.884188 414.774632,107.114563 415.985161,107.114563 C416.893333,107.114563 417.68585,106.996068 418.363812,106.758529 C419.040673,106.52154 419.590313,106.184796 420.01163,105.749949 C420.432396,105.314551 420.744666,104.804199 420.948991,104.217239 C421.152765,103.630279 421.254653,102.954585 421.254653,102.189608 C421.254653,101.069699 420.939078,100.024744 420.307378,99.0552956 C419.676228,98.086949 418.735563,97.3517331 417.48538,96.850199 C416.629528,96.5095967 415.64976,96.1326195 414.544422,95.7198183 C413.439085,95.3070172 412.485752,94.9168126 411.683322,94.5492047 C410.104347,93.8387899 408.877296,92.9073694 408.002168,91.7554944 C407.12704,90.6041706 406.689752,89.1001194 406.689752,87.2438921 C406.689752,86.1779944 406.907295,85.1842955 407.341279,84.2627955 C407.775263,83.3412955 408.393745,82.519 409.196175,81.7948069 C409.959502,81.1102955 410.861065,80.5740398 411.899763,80.1860398 C412.939563,79.7974887 414.025073,79.6034887 415.156296,79.6034887 C416.445581,79.6034887 417.600485,79.8007955 418.620458,80.1959603 C419.639329,80.5905739 420.570632,81.051875 421.412715,81.5782103 L422.221754,80.2350909 L423.800729,80.2350909 L423.958792,89.5371706 L422.35999,89.5371706 C422.0703,88.4707217 421.744812,87.4505683 421.382975,86.4761592 C421.021138,85.5017501 420.550255,84.6199319 419.971976,83.8296023 C419.405815,83.0662785 418.715185,82.4572728 417.899537,82.0031364 C417.08389,81.5484489 416.084295,81.3213807 414.900201,81.3213807 C413.650019,81.3213807 412.584335,81.7231591 411.702598,82.5261648 C410.820861,83.3291705 410.380819,84.3107444 410.380819,85.4686819 C410.380819,86.6800796 410.663349,87.6842501 411.229511,88.4806421 C411.794572,89.2775853 412.616828,89.9323353 413.696281,90.4454433 C414.656223,90.9067444 415.600744,91.3046649 416.528192,91.6403069 C417.45564,91.9765001 418.353348,92.3352899 419.221867,92.7166763 C420.01163,93.0594831 420.771102,93.4480342 421.501385,93.8823297 C422.231667,94.3166251 422.866672,94.8236706 423.405848,95.4029149" id="Fill-72" fill="#A9BAB8"></path>
            <path d="M455.831284,108.25988 L447.976613,108.25988 C446.463177,105.916448 444.782315,103.588999 442.934027,101.278636 C441.08574,98.9677212 439.148232,96.7262496 437.122056,94.5536701 L436.609316,94.5536701 L436.609316,104.309886 C436.609316,104.744732 436.690825,105.133284 436.856048,105.474988 C437.020169,105.817795 437.319772,106.093914 437.753756,106.304999 C437.964139,106.397039 438.355716,106.50892 438.927936,106.640641 C439.500707,106.772363 439.977098,106.844562 440.358762,106.857789 L440.358762,108.25988 L428.734818,108.25988 L428.734818,106.857789 C429.037175,106.831335 429.477768,106.791653 430.056597,106.739295 C430.635977,106.686937 431.043525,106.607573 431.280344,106.502306 C431.675226,106.330903 431.96106,106.077931 432.13895,105.741738 C432.316839,105.406096 432.405508,105.001011 432.405508,104.527585 L432.405508,84.3036362 C432.405508,83.8561135 432.329506,83.4675624 432.178603,83.138534 C432.026598,82.8095056 431.727546,82.5394487 431.280344,82.3289147 C430.925116,82.1575112 430.50435,82.0059488 430.017495,81.8742272 C429.530639,81.7430567 429.102713,81.6642442 428.734818,81.6372385 L428.734818,80.2351476 L440.358762,80.2351476 L440.358762,81.6372385 C439.990316,81.6504658 439.529896,81.7099885 438.976952,81.8152556 C438.425109,81.9205226 438.016459,82.0197272 437.753756,82.1112158 C437.306003,82.2693919 437.003646,82.5328351 436.845584,82.9015453 C436.688072,83.2702555 436.609316,83.6714828 436.609316,84.1063294 L436.609316,93.7831815 L437.003646,93.7831815 C438.18774,92.782869 439.352007,91.7390167 440.496998,90.6532781 C441.641438,89.5669884 442.680686,88.4840054 443.614743,87.4043293 C444.654543,86.2061589 445.414015,85.2488351 445.894812,84.5307044 C446.374507,83.8131249 446.615181,83.1776646 446.615181,82.6248749 C446.615181,82.4275681 446.492917,82.2660851 446.25004,82.1409772 C446.006062,82.0158692 445.726836,81.913909 445.411261,81.8350965 C445.042264,81.7557328 444.713472,81.7066817 444.424333,81.6868408 C444.134643,81.6669999 443.897824,81.6504658 443.713877,81.6372385 L443.713877,80.2351476 L454.213206,80.2351476 L454.213206,81.6372385 C454.173553,81.6372385 454.087637,81.6444033 453.956561,81.6570794 C453.824934,81.6703067 453.67348,81.683534 453.50275,81.6967613 C453.318803,81.7099885 453.134855,81.7364431 452.950908,81.7755738 C452.76696,81.8152556 452.530141,81.861551 452.240452,81.913909 C451.780583,82.0197272 451.303641,82.1872726 450.810728,82.4176476 C450.317263,82.6480226 449.913019,82.9346135 449.597995,83.276318 C448.243723,84.8172953 446.830521,86.4106305 445.359491,88.057977 C443.887911,89.7047725 442.43065,91.206619 440.985505,92.5635167 C442.988,94.8270337 444.644629,96.7753007 445.954292,98.4072155 C447.265056,100.03913 448.658431,101.782926 450.133316,103.638602 C450.696724,104.349568 451.259582,104.918891 451.823541,105.346573 C452.386398,105.774806 452.87105,106.093914 453.276946,106.304999 C453.617305,106.475852 454.043027,106.607573 454.554115,106.699613 C455.064652,106.791653 455.490926,106.844562 455.831284,106.857789 L455.831284,108.25988 Z" id="Fill-74" fill="#A9BAB8"></path>
            <path d="M471.562302,96.8052251 L467.320493,85.9302022 L463.139267,96.8052251 L471.562302,96.8052251 Z M482.829364,108.260044 L471.188348,108.260044 L471.188348,106.857402 C472.21493,106.791817 473.066376,106.660095 473.744338,106.462788 C474.421199,106.265481 474.760455,106.021879 474.760455,105.731981 C474.760455,105.613487 474.747238,105.468538 474.720802,105.297686 C474.694366,105.126283 474.655264,104.97472 474.602943,104.842998 L472.283772,98.5627994 L462.453043,98.5627994 C462.084046,99.4842994 461.784443,100.287856 461.553682,100.972368 C461.322922,101.656879 461.115292,102.289032 460.930794,102.868277 C460.760064,103.434294 460.641104,103.895044 460.575566,104.250527 C460.509477,104.60601 460.476433,104.895908 460.476433,105.119669 C460.476433,105.646555 460.891141,106.054947 461.720006,106.344294 C462.548872,106.633641 463.482929,106.805044 464.522728,106.857402 L464.522728,108.260044 L453.976035,108.260044 L453.976035,106.857402 C454.318045,106.831499 454.745971,106.755993 455.258711,106.630334 C455.772002,106.505777 456.192768,106.33768 456.52156,106.127146 C457.048069,105.771663 457.456168,105.399646 457.745307,105.011095 C458.034997,104.623095 458.317527,104.086288 458.593999,103.401226 C460.001694,99.8860778 461.554233,95.9360834 463.251617,91.5517934 C464.949002,87.1675035 466.461337,83.2638045 467.790826,79.8401453 L469.369801,79.8401453 L478.704864,104.013538 C478.901478,104.527197 479.125079,104.942203 479.375666,105.258004 C479.625703,105.573805 479.973771,105.883544 480.421524,106.186118 C480.723881,106.370749 481.118762,106.525067 481.605617,106.650175 C482.091922,106.775283 482.500021,106.844726 482.829364,106.857402 L482.829364,108.260044 Z" id="Fill-76" fill="#A9BAB8"></path>
            <path d="M204.737429,120.536113 L200.119465,126.145028 C199.842992,126.487835 199.629305,126.721517 199.477851,126.846074 C199.326948,126.971733 198.928762,127.034011 198.283844,127.034011 C197.744669,127.034011 197.372918,126.961812 197.169144,126.816312 C196.96537,126.671914 196.764349,126.474056 196.567184,126.223841 L191.909566,120.536113 L192.856841,119.904511 L198.363151,124.130625 L203.790154,119.904511 L204.737429,120.536113 Z M209.868685,148.047187 L208.941237,156.796477 L186.442909,156.796477 L186.442909,156.105352 L204.066076,130.332011 L197.612491,130.332011 C196.862932,130.332011 196.234537,130.345239 195.728405,130.371693 C195.221724,130.398148 194.758,130.450506 194.336683,130.529318 C193.468714,130.700722 192.49225,131.418301 191.406189,132.682057 C190.320678,133.946364 189.501726,135.282869 188.949332,136.691023 L187.567523,136.691023 L188.416215,128.771744 L209.395047,128.771744 L209.395047,129.462869 L191.771881,155.23621 L198.422631,155.23621 C199.540636,155.23621 200.731889,155.157397 201.994738,154.999221 C203.257588,154.841596 204.079844,154.571539 204.461508,154.189602 C205.316809,153.373369 206.112079,152.372505 206.849522,151.187562 C207.585863,150.002619 208.132198,148.956011 208.487426,148.047187 L209.868685,148.047187 Z" id="Fill-79" fill="#A9BAB8"></path>
            <path d="M240.478043,130.173997 C240.109598,130.187225 239.570422,130.266037 238.859966,130.410986 C238.148959,130.555935 237.570681,130.773083 237.122928,131.06298 C236.675726,131.366105 236.36621,131.991094 236.196031,132.939048 C236.02475,133.887003 235.939385,135.045492 235.939385,136.415066 L235.939385,148.600691 C235.939385,150.153793 235.616651,151.503526 234.972284,152.648788 C234.327366,153.7946 233.478674,154.735941 232.426207,155.473362 C231.386408,156.184327 230.291535,156.69468 229.140486,157.003867 C227.988886,157.313055 226.886853,157.467924 225.834386,157.467924 C224.15077,157.467924 222.650551,157.24747 221.334831,156.80656 C220.01911,156.3651 218.914323,155.769322 218.019369,155.019225 C217.137632,154.268577 216.472888,153.409356 216.026237,152.44156 C215.578484,151.473765 215.355434,150.463532 215.355434,149.41031 L215.355434,132.840395 C215.355434,132.379645 215.278881,131.994401 215.128528,131.684662 C214.976524,131.375475 214.670863,131.089435 214.210443,130.825992 C213.8811,130.641361 213.460333,130.493656 212.947593,130.381225 C212.434303,130.269895 212.012986,130.200452 211.684193,130.173997 L211.684193,128.771906 L223.34779,128.771906 L223.34779,130.173997 C222.979895,130.187225 222.51562,130.246747 221.956618,130.352014 C221.397065,130.457281 220.985661,130.555935 220.722957,130.647423 C220.275205,130.8056 219.976152,131.068492 219.825249,131.437202 C219.673795,131.805361 219.598344,132.206588 219.598344,132.640884 L219.598344,148.112384 C219.598344,148.86193 219.679854,149.648401 219.844525,150.470697 C220.009197,151.292992 220.335236,152.059072 220.822091,152.769486 C221.334831,153.49368 222.032069,154.085049 222.913255,154.545799 C223.794992,155.005998 225.005521,155.236373 226.544842,155.236373 C227.99219,155.236373 229.206024,155.005998 230.186343,154.545799 C231.166112,154.085049 231.939352,153.479901 232.504963,152.729805 C233.04469,152.01939 233.425803,151.276458 233.649954,150.499907 C233.873555,149.723907 233.985356,148.941293 233.985356,148.151515 L233.985356,136.666384 C233.985356,135.205872 233.880164,134.012662 233.669781,133.0851 C233.458847,132.157537 233.149331,131.549083 232.741782,131.259185 C232.281362,130.930708 231.653518,130.673878 230.857146,130.489798 C230.061325,130.305719 229.452205,130.200452 229.03199,130.173997 L229.03199,128.771906 L240.478043,128.771906 L240.478043,130.173997 Z" id="Fill-81" fill="#A9BAB8"></path>
            <path d="M258.161461,140.463663 C258.608663,139.831509 258.904962,139.176759 259.049256,138.498311 C259.194101,137.820413 259.266799,137.211958 259.266799,136.671845 C259.266799,135.921197 259.178129,135.157873 259.00024,134.380771 C258.822351,133.60422 258.51724,132.925771 258.082154,132.346526 C257.622286,131.7276 257.017021,131.247009 256.266912,130.904754 C255.516802,130.562498 254.582745,130.391094 253.46474,130.391094 L250.681845,130.391094 L250.681845,142.774027 L252.694804,142.774027 C254.115717,142.774027 255.27007,142.553572 256.158416,142.112663 C257.046761,141.671754 257.714259,141.122271 258.161461,140.463663 M264.161235,135.684208 C264.161235,137.14527 263.87485,138.439339 263.302629,139.564759 C262.730409,140.690731 261.937342,141.622151 260.924529,142.359572 C259.924383,143.096992 258.825655,143.636554 257.628343,143.97881 C256.431032,144.321617 255.161574,144.492469 253.819417,144.492469 L250.681845,144.492469 L250.681845,152.984929 C250.681845,153.445679 250.757297,153.850764 250.90875,154.199083 C251.059653,154.548503 251.372474,154.815253 251.846112,154.999333 C252.082931,155.091372 252.500392,155.176799 253.099599,155.256162 C253.698254,155.334975 254.247343,155.38127 254.747416,155.393946 L254.747416,156.796588 L242.728592,156.796588 L242.728592,155.393946 C243.044167,155.368043 243.501282,155.321747 244.099937,155.256162 C244.698593,155.190026 245.116055,155.1046 245.352874,154.999333 C245.747755,154.827929 246.03359,154.577713 246.21203,154.248685 C246.389368,153.919657 246.478038,153.498037 246.478038,152.984929 L246.478038,132.760981 C246.478038,132.300231 246.411949,131.885776 246.280872,131.517066 C246.148695,131.148356 245.839729,130.872237 245.352874,130.687606 C244.852801,130.516754 244.356583,130.394401 243.863119,130.322202 C243.370205,130.250004 242.945584,130.200401 242.590356,130.173947 L242.590356,128.771856 L255.378566,128.771856 C257.984122,128.771856 260.098968,129.400702 261.723655,130.657844 C263.348341,131.915538 264.161235,133.590441 264.161235,135.684208" id="Fill-83" fill="#A9BAB8"></path>
            <path d="M282.220858,145.341824 L277.97905,134.466801 L273.797823,145.341824 L282.220858,145.341824 Z M293.48792,156.796643 L281.846905,156.796643 L281.846905,155.394001 C282.873486,155.328416 283.724932,155.196694 284.402894,154.999387 C285.079755,154.80208 285.419012,154.558478 285.419012,154.26858 C285.419012,154.150086 285.405794,154.005137 285.379358,153.834285 C285.352923,153.662881 285.31382,153.511319 285.2615,153.379597 L282.942329,147.099398 L273.111599,147.099398 C272.742602,148.020898 272.442999,148.824455 272.212239,149.508967 C271.981478,150.193478 271.773849,150.825631 271.58935,151.404876 C271.418621,151.970893 271.299661,152.431643 271.234122,152.787126 C271.168033,153.142609 271.134989,153.432506 271.134989,153.656268 C271.134989,154.183154 271.549697,154.591546 272.378563,154.880893 C273.207428,155.170239 274.141485,155.341643 275.181284,155.394001 L275.181284,156.796643 L264.634591,156.796643 L264.634591,155.394001 C264.976601,155.368097 265.404527,155.292592 265.917267,155.166933 C266.430558,155.042376 266.851324,154.874279 267.180117,154.663745 C267.706625,154.308262 268.114725,153.936245 268.403864,153.547694 C268.693553,153.159694 268.976084,152.622887 269.252556,151.937825 C270.66025,148.422677 272.212789,144.472682 273.910174,140.088392 C275.607558,135.704102 277.119893,131.800403 278.449382,128.376744 L280.028357,128.376744 L289.36342,152.550137 C289.560034,153.063796 289.783635,153.478802 290.034223,153.794603 C290.284259,154.110404 290.632327,154.420143 291.08008,154.722717 C291.382437,154.907347 291.777318,155.061666 292.264173,155.186774 C292.750478,155.311882 293.158577,155.381325 293.48792,155.394001 L293.48792,156.796643 Z" id="Fill-85" fill="#A9BAB8"></path>
            <path d="M323.229067,130.173997 C322.860621,130.187224 322.29501,130.292492 321.531683,130.489798 C320.768356,130.687656 320.222571,130.891577 319.893779,131.102111 C319.420141,131.43169 319.101262,132.063293 318.93659,132.998571 C318.771919,133.933298 318.689858,135.118241 318.689858,136.5534 L318.689858,157.072758 L316.973198,157.072758 L300.000457,134.143832 L300.000457,148.60069 C300.000457,150.219928 300.102344,151.463843 300.306669,152.332985 C300.510443,153.202127 300.822163,153.821053 301.244031,154.189764 C301.546387,154.47911 302.171479,154.749167 303.118203,154.999383 C304.066028,155.249599 304.690569,155.38132 304.993476,155.393996 L304.993476,156.796638 L293.507219,156.796638 L293.507219,155.393996 C293.862997,155.368093 294.461653,155.239678 295.303736,155.009303 C296.145269,154.778928 296.671227,154.571701 296.882161,154.38707 C297.34258,154.01836 297.658155,153.45565 297.829435,152.698389 C298.000165,151.941678 298.086081,150.64761 298.086081,148.817838 L298.086081,135.012423 C298.086081,134.407275 297.980338,133.801577 297.769955,133.195878 C297.560123,132.590179 297.277042,132.122815 296.921263,131.793236 C296.448176,131.35894 295.806563,130.987474 294.997524,130.677736 C294.188485,130.368548 293.533654,130.200452 293.034132,130.173997 L293.034132,128.771906 L301.034749,128.771906 L316.775482,150.136707 L316.775482,136.808577 C316.775482,135.176111 316.670291,133.922275 316.459907,133.047071 C316.248974,132.171866 315.946617,131.589315 315.552286,131.299418 C315.18384,131.049202 314.58188,130.806151 313.745855,130.569162 C312.910931,130.332173 312.275927,130.200452 311.841392,130.173997 L311.841392,128.771906 L323.229067,128.771906 L323.229067,130.173997 Z" id="Fill-87" fill="#A9BAB8"></path>
            <path d="M337.73492,156.796479 L325.124049,156.796479 L325.124049,155.394388 C325.478726,155.367934 325.992017,155.328252 326.66282,155.275894 C327.334173,155.223536 327.807811,155.144172 328.084283,155.038905 C328.518267,154.867502 328.833841,154.63382 329.031007,154.33786 C329.228723,154.041348 329.327305,153.630201 329.327305,153.103314 L329.327305,132.800553 C329.327305,132.339803 329.255158,131.95511 329.110313,131.645371 C328.965469,131.336184 328.623458,131.076048 328.084283,130.865514 C327.689401,130.707337 327.192082,130.559082 326.593977,130.420747 C325.995321,130.282962 325.505162,130.200843 325.124049,130.173837 L325.124049,128.771747 L337.73492,128.771747 L337.73492,130.173837 C337.326821,130.187065 336.839966,130.236667 336.274355,130.322093 C335.708193,130.40807 335.215279,130.516644 334.793962,130.647815 C334.293889,130.805991 333.958488,131.06282 333.787758,131.418303 C333.615927,131.773786 333.531113,132.1684 333.531113,132.603246 L333.531113,152.886167 C333.531113,153.320462 333.626391,153.705706 333.817498,154.041348 C334.007504,154.37699 334.332992,154.64374 334.793962,154.841598 C335.070434,154.946865 335.52039,155.062053 336.146032,155.187161 C336.770573,155.312269 337.300386,155.381161 337.73492,155.394388 L337.73492,156.796479 Z" id="Fill-89" fill="#A9BAB8"></path>
            <path d="M359.167077,130.173997 C358.798631,130.187225 358.341516,130.236827 357.795732,130.322253 C357.249947,130.407679 356.786223,130.516804 356.404009,130.647975 C355.956807,130.806151 355.65445,131.069594 355.496387,131.437753 C355.338876,131.806463 355.259569,132.208242 355.259569,132.642537 L355.259569,149.252134 C355.259569,150.121276 355.085535,151.042776 354.736915,152.017185 C354.387746,152.991594 353.877759,153.860737 353.207507,154.62406 C352.430962,155.519657 351.506819,156.217396 350.434526,156.717276 C349.361682,157.217708 348.135181,157.467924 346.753922,157.467924 C344.608786,157.467924 342.868994,156.865532 341.533447,155.660748 C340.19845,154.455964 339.530952,152.833418 339.530952,150.79256 C339.530952,149.897515 339.760611,149.103878 340.221582,148.412753 C340.682001,147.721628 341.352804,147.376066 342.234541,147.376066 C343.023753,147.376066 343.658206,147.59652 344.139003,148.03743 C344.618699,148.47889 344.859373,149.061441 344.859373,149.785083 C344.859373,150.206702 344.773457,150.628322 344.602727,151.04939 C344.431447,151.471009 344.24034,151.846333 344.030507,152.17481 C343.832791,152.477935 343.60919,152.833418 343.359154,153.241259 C343.109117,153.649651 342.931779,154.018362 342.826587,154.34739 C343.102509,154.781685 343.533188,155.164174 344.119177,155.492651 C344.704064,155.822231 345.490522,155.98647 346.47745,155.98647 C347.437392,155.98647 348.223851,155.766566 348.835724,155.325106 C349.448148,154.884197 349.904713,154.295032 350.207069,153.557612 C350.496759,152.8731 350.703838,152.030413 350.828856,151.029549 C350.953874,150.029236 351.016659,148.909878 351.016659,147.672026 L351.016659,132.840395 C351.016659,132.379645 350.940657,131.994401 350.789754,131.684662 C350.6383,131.375475 350.325479,131.102111 349.852392,130.865122 C349.444293,130.655139 348.934307,130.493656 348.322984,130.381225 C347.71056,130.269895 347.207733,130.200452 346.812852,130.173997 L346.812852,128.771906 L359.167077,128.771906 L359.167077,130.173997 Z" id="Fill-91" fill="#A9BAB8"></path>
            <path d="M377.010189,145.341824 L372.768381,134.466801 L368.587154,145.341824 L377.010189,145.341824 Z M388.277251,156.796643 L376.636235,156.796643 L376.636235,155.394001 C377.662817,155.328416 378.514263,155.196694 379.192225,154.999387 C379.869086,154.80208 380.208343,154.558478 380.208343,154.26858 C380.208343,154.150086 380.195125,154.005137 380.168689,153.834285 C380.142254,153.662881 380.103151,153.511319 380.050831,153.379597 L377.73166,147.099398 L367.90093,147.099398 C367.531933,148.020898 367.23233,148.824455 367.00157,149.508967 C366.770809,150.193478 366.56318,150.825631 366.378681,151.404876 C366.207952,151.970893 366.088991,152.431643 366.023453,152.787126 C365.957364,153.142609 365.92432,153.432506 365.92432,153.656268 C365.92432,154.183154 366.339028,154.591546 367.167893,154.880893 C367.996759,155.170239 368.930816,155.341643 369.970615,155.394001 L369.970615,156.796643 L359.423922,156.796643 L359.423922,155.394001 C359.765932,155.368097 360.193858,155.292592 360.706598,155.166933 C361.219889,155.042376 361.640655,154.874279 361.969448,154.663745 C362.495956,154.308262 362.904055,153.936245 363.193194,153.547694 C363.482884,153.159694 363.765415,152.622887 364.041887,151.937825 C365.449581,148.422677 367.00212,144.472682 368.699505,140.088392 C370.396889,135.704102 371.909224,131.800403 373.238713,128.376744 L374.817688,128.376744 L384.152751,152.550137 C384.349365,153.063796 384.572966,153.478802 384.823553,153.794603 C385.07359,154.110404 385.421658,154.420143 385.869411,154.722717 C386.171768,154.907347 386.566649,155.061666 387.053504,155.186774 C387.539809,155.311882 387.947908,155.381325 388.277251,155.394001 L388.277251,156.796643 Z" id="Fill-93" fill="#A9BAB8"></path>
        </g>
    </g>
</svg>