<?xml version="1.0" encoding="UTF-8"?>
<svg width="480px" height="48px" viewBox="0 0 480 48" version="1.1" xmlns="http://www.w3.org/2000/svg" xmlns:xlink="http://www.w3.org/1999/xlink">
    <!-- Generator: sketchtool 57.1 (101010) - https://sketch.com -->
    <title>BEBACF2C-72E5-4A9C-9995-D419D155DAD5</title>
    <desc>Created with sketchtool.</desc>
    <g id="Asset-Artboard-Page" stroke="none" stroke-width="1" fill="none" fill-rule="evenodd">
        <g id="Splittechcity-logo" fill="#A9BAB8">
            <path d="M479.359383,4.15999996 L463.679382,31.0559996 L463.679382,44.8 C463.679382,46.5599994 463.040982,47.8399994 461.279382,47.8399994 L455.840982,47.8399994 C454.079382,47.8399994 453.440982,46.8799994 453.440982,44.8 L453.440982,30.9439996 L438.399382,4.15999996 C437.440982,2.39999998 437.759382,0.8 439.679382,0.8 L445.120982,0.8 C447.520982,0.8 448.479382,2.07999998 449.440982,3.83999996 L459.199382,22.0799997 L468.640982,3.83999996 C469.599382,2.07999998 470.720982,0.8 472.640982,0.8 L478.079382,0.8 C480.159383,0.8 480.479383,2.55999998 479.359383,4.15999996" id="Fill-1"></path>
            <path d="M435.679688,3.19983999 L435.679688,7.19983994 C435.679688,8.95983992 434.719687,9.59983991 432.641288,9.59983991 L421.919687,9.59983991 L421.919687,44.79984 C421.919687,46.5598394 421.279688,47.8398394 419.519687,47.8398394 L414.079688,47.8398394 C412.319687,47.8398394 411.679688,46.5598394 411.679688,44.79984 L411.679688,9.59983991 L399.519688,9.59983991 C397.441287,9.59983991 396.479688,8.95983992 396.479688,7.19983994 L396.479688,3.19983999 C396.479688,1.43984001 397.759688,0.799840021 399.519688,0.799840021 L432.641288,0.799840021 C434.399687,0.799840021 435.679688,1.43984001 435.679688,3.19983999" id="Fill-4"></path>
            <path d="M392.320322,3.83967992 L392.320322,44.6396789 C392.320322,46.3996788 391.680322,47.6796788 389.920322,47.6796788 L384.480322,47.6796788 C382.720322,47.6796788 382.080322,46.3996788 382.080322,44.6396789 L382.080322,3.83967992 C382.080322,2.07967996 382.720322,0.799679995 384.480322,0.799679995 L389.920322,0.799679995 C391.520322,0.799679995 392.320322,2.07967996 392.320322,3.83967992" id="Fill-6"></path>
            <path d="M352.479682,21.2795197 L352.479682,27.3595196 C352.479682,33.1195196 354.559682,38.8795195 360.641282,38.8795195 L372.479681,38.8795195 C374.241281,38.8795195 375.519681,39.5195195 375.519681,41.2795195 L375.519681,45.2795194 C375.519681,47.0411194 374.559681,47.6795194 372.479681,47.6795194 L360.641282,47.6795194 C349.119682,47.6795194 342.399683,39.1995195 342.399683,27.8411196 L342.399683,20.4795197 C342.399683,8.95951987 349.119682,0.639519978 360.641282,0.639519978 L372.799681,0.639519978 C374.559681,0.639519978 375.841281,1.27951997 375.841281,3.03951995 L375.841281,7.03951989 C375.841281,8.79951987 374.879681,9.43951986 372.799681,9.43951986 L360.641282,9.43951986 C354.559682,9.43951986 352.479682,15.1995198 352.479682,21.2795197" id="Fill-8"></path>
            <path d="M265.279682,20.7998397 L265.279682,26.8798397 C265.279682,32.7998396 267.359682,38.3998395 273.441282,38.3998395 L285.279681,38.3998395 C287.041281,38.3998395 288.319681,39.0398395 288.319681,40.7998395 L288.319681,44.7998394 C288.319681,46.5598394 287.359681,47.1998394 285.279681,47.1998394 L273.441282,47.1998394 C261.919682,47.1998394 255.199683,38.7198395 255.199683,27.3598396 L255.199683,19.9998397 C255.199683,8.47983989 261.919682,0.15984 273.441282,0.15984 L285.599681,0.15984 C287.359681,0.15984 288.641281,0.799839991 288.641281,2.55983997 L288.641281,6.55983992 C288.641281,8.31983989 287.679681,8.95983989 285.599681,8.95983989 L273.441282,8.95983989 C267.359682,8.95983989 265.279682,14.7198398 265.279682,20.7998397" id="Fill-10"></path>
            <path d="M213.120325,2.56000003 L213.120325,6.56000008 C213.120325,8.32000011 212.160325,8.96000012 210.080325,8.96000012 L197.600325,8.96000012 L197.600325,44.3200006 C197.600325,46.0800006 196.960325,47.3600006 195.200325,47.3600006 L189.760325,47.3600006 C188.000325,47.3600006 187.360325,46.0800006 187.360325,44.3200006 L187.360325,8.80000011 L178.560325,8.80000011 C176.480325,8.80000011 175.520325,8.16000011 175.520325,6.40000008 L175.520325,2.40000003 C175.520325,0.640000008 176.800325,2.89901436e-13 178.560325,2.89901436e-13 L210.080325,2.89901436e-13 L210.080325,0.160000002 C211.840325,0.160000002 213.120325,0.80000001 213.120325,2.56000003" id="Fill-12"></path>
            <path d="M334.720322,3.52015998 L334.720322,44.3201597 C334.720322,46.0801597 334.080322,47.3585597 332.320322,47.3585597 L326.880322,47.3585597 C325.120322,47.3585597 324.480322,46.0801597 324.480322,44.3201597 L324.480322,28.0001598 L304.320322,28.0001598 L304.320322,44.3201597 C304.320322,46.0801597 303.680322,47.3585597 301.920322,47.3585597 L296.480322,47.3585597 C294.720322,47.3585597 294.080322,46.0801597 294.080322,44.3201597 L294.080322,3.52015998 C294.080322,1.76015999 294.720322,0.480159998 296.480322,0.480159998 L301.920322,0.480159998 C303.680322,0.480159998 304.320322,1.76015999 304.320322,3.52015998 L304.320322,19.2001599 L324.480322,19.2001599 L324.480322,3.52015998 C324.480322,1.76015999 325.120322,0.480159998 326.880322,0.480159998 L332.320322,0.480159998 C333.920322,0.480159998 334.720322,1.76015999 334.720322,3.52015998" id="Fill-14"></path>
            <path d="M228.320332,8.95999989 L228.320332,18.8799998 L244.158732,18.8799998 C245.920332,18.8799998 247.200331,19.5199998 247.200331,21.2799997 L247.200331,25.2799997 C247.200331,27.0399997 246.240332,27.6799996 244.158732,27.6799996 L228.320332,27.6799996 L228.320332,38.3999995 L247.840331,38.3999995 C249.920331,38.3999995 250.880331,39.0399995 250.880331,40.7999995 L250.880331,44.7999994 C250.880331,46.5599994 249.600331,47.1999994 247.840331,47.1999994 L221.600332,47.1999994 C219.200332,47.1999994 218.240332,46.2399994 218.240332,44.16 L218.240332,3.19999996 C218.240332,1.11999999 219.200332,0.160000002 221.600332,0.160000002 L247.840331,0.160000002 C249.600331,0.160000002 250.880331,0.799999994 250.880331,2.55999997 L250.880331,6.55999992 C250.880331,8.3199999 249.920331,8.95999989 247.840331,8.95999989 L228.320332,8.95999989 Z" id="Fill-16"></path>
            <path d="M109.760156,47.1998394 L87.8401573,47.1998394 C85.4401574,47.1998394 84.4801575,46.2398394 84.4801575,44.15984 L84.4801575,3.19983996 C84.4801575,1.43983998 85.1201574,0.15984 86.8801574,0.15984 L92.3201571,0.15984 C94.0801571,0.15984 94.720157,1.43983998 94.720157,3.19983996 L94.720157,38.3998395 L109.920156,38.3998395 C112.000156,38.3998395 112.960156,39.0398395 112.960156,40.7998395 L112.960156,44.7998394 C112.800156,46.5598394 111.520156,47.1998394 109.760156,47.1998394" id="Fill-18"></path>
            <path d="M127.999998,44.1592 C127.999998,45.9207994 127.359998,47.1991994 125.599998,47.1991994 L120.159998,47.1991994 C118.399998,47.1991994 117.759998,45.9207994 117.759998,44.1592 L117.759998,3.19919996 C117.759998,1.43919998 118.399998,0.159200001 120.159998,0.159200001 L125.599998,0.159200001 C127.199998,0.159200001 127.999998,1.43919998 127.999998,3.19919996 L127.999998,44.1592 Z" id="Fill-20"></path>
            <path d="M167.360156,0.160000002 C169.120156,0.160000002 170.400156,0.80000001 170.400156,2.56000003 L170.400156,6.56000008 C170.400156,8.32000011 169.440156,8.96000012 167.360156,8.96000012 L158.240156,8.96000012 L158.240156,44.3200006 C158.240156,46.0800006 157.600156,47.3600006 155.840156,47.3600006 L150.400156,47.3600006 C148.640156,47.3600006 148.000156,46.0800006 148.000156,44.3200006 L148.000156,8.80000011 L136.000156,8.80000011 C133.920156,8.80000011 132.960156,8.16000011 132.960156,6.40000008 L132.960156,2.40000003 C132.960156,0.640000008 134.240156,2.89901436e-13 136.000156,2.89901436e-13 L167.360156,2.89901436e-13 L167.360156,0.160000002 Z" id="Fill-22"></path>
            <path d="M25.6000004,34.3998396 C25.6000004,32.3198396 23.5200004,30.7198396 19.2000003,28.9598396 C11.5200002,26.0798397 2.89901436e-13,22.2398397 2.89901436e-13,13.9198398 C2.89901436e-13,6.23983992 4.64000008,0.15984 15.8400003,0.15984 L29.9200005,0.15984 C31.6800005,0.15984 32.9600006,0.799839991 32.9600006,2.55983997 L32.9600006,6.55983992 C32.9600006,8.31983989 31.6800005,8.95983989 29.9200005,8.95983989 L16.4800003,8.95983989 C13.4400002,8.79983989 9.76000017,9.59983988 9.76000017,12.4798398 C9.76000017,14.8798398 12.1600002,16.15984 15.5200003,17.5998398 C24,20.9598397 35.3600006,24.9598397 35.3600006,33.4398396 C35.3600006,42.5598394 29.2800005,47.1998394 19.5200003,47.1998394 L3.68000006,47.1998394 C1.92000003,47.1998394 0.640000011,46.5598394 0.640000011,44.7998394 L0.640000011,40.7998395 C0.640000011,39.0398395 1.92000003,38.3998395 3.68000006,38.3998395 L18.8800003,38.3998395 C21.9200004,38.3998395 25.6000004,37.4398395 25.6000004,34.3998396" id="Fill-24"></path>
            <path d="M68.6398392,16.63968 C68.6398392,20.6396799 64.9598392,22.0796799 60.9598392,23.0396799 L51.8398392,25.1196798 L51.8398392,8.79968015 L60.9598392,8.79968015 C64.9598392,8.79968015 68.6398392,10.0796801 68.6398392,14.23968 L68.6398392,16.63968 Z M60.3198389,0.159679997 L45.1198389,0.159679997 C43.0398389,0.159679997 41.7598389,1.43967998 41.7598389,4.15968 L41.7598389,44.15968 C41.7598389,45.9196794 42.3998389,47.1996794 44.1598389,47.1996794 L49.5998389,47.1996794 C51.3598389,47.1996794 51.9998389,45.9196794 51.9998389,44.15968 L51.9998389,33.4396796 L61.4398389,31.3596796 C70.5598389,29.2796796 79.3598389,26.2396797 79.3598389,16.9596798 L79.3598389,12.9596798 C79.1998389,3.19967996 70.0798389,0.159679997 60.3198389,0.159679997 L60.3198389,0.159679997 Z" id="Fill-26"></path>
        </g>
    </g>
</svg>