<?xml version="1.0" encoding="UTF-8"?>
<svg width="79px" height="80px" viewBox="0 0 79 80" version="1.1" xmlns="http://www.w3.org/2000/svg" xmlns:xlink="http://www.w3.org/1999/xlink">
    <!-- Generator: sketchtool 63.1 (101010) - https://sketch.com -->
    <title>0CBFCB40-C540-4BB4-917C-D378F7465AD4</title>
    <desc>Created with sketchtool.</desc>
    <defs>
        <polygon id="path-1" points="0.000186033901 0.0292797918 78.3839757 0.0292797918 78.3839757 78.5230276 0.000186033901 78.5230276"></polygon>
    </defs>
    <g id="Desktop" stroke="none" stroke-width="1" fill="none" fill-rule="evenodd">
        <g id="Web_desktop" transform="translate(-918.000000, -12862.000000)">
            <g id="Sponzori-sekcija" transform="translate(220.000000, 5234.000000)">
                <g id="Prijateljii-sekcija" transform="translate(283.000000, 7542.000000)">
                    <g id="Svuciliste-logo" transform="translate(415.000000, 86.000000)">
                        <g id="Group-3" transform="translate(0.489588, 0.569492)">
                            <mask id="mask-2" fill="white">
                                <use xlink:href="#path-1"></use>
                            </mask>
                            <g id="Clip-2"></g>
                            <path d="M39.1414531,77.767163 C17.779446,77.7191615 0.666984688,60.4360989 0.751976936,38.9953059 C0.837072826,17.8100456 18.1517795,0.707985366 39.4364497,0.782273068 C60.5459822,0.859707924 77.6826279,18.1667267 77.6269536,39.3573106 C77.5680841,60.6304102 60.3522412,77.8123245 39.1414531,77.767163 M39.2371276,0.0292253484 C17.5617863,0.0239029573 0.0052355255,17.6237196 0.000186033901,39.365296 C-0.00273735597,60.8779576 17.643907,78.5310103 39.1494259,78.5230276 C60.7798534,78.5177013 78.381318,60.92587 78.3839757,39.3200454 C78.3866333,17.6636466 60.8197178,0.0345501543 39.2371276,0.0292253484" id="Fill-1" fill="#A9BAB8" mask="url(#mask-2)"></path>
                        </g>
                        <path d="M42.609589,19.7694918 C42.433589,19.9774918 42.257589,20.1774918 42.089589,20.3854918 C42.521589,20.4014918 42.697589,20.2014918 42.609589,19.7694918 M42.609589,19.7694918 C42.433589,19.9774918 42.257589,20.1774918 42.089589,20.3854918 C42.521589,20.4014918 42.697589,20.2014918 42.609589,19.7694918 M42.609589,19.7694918 C42.433589,19.9774918 42.257589,20.1774918 42.089589,20.3854918 C42.521589,20.4014918 42.697589,20.2014918 42.609589,19.7694918 M42.609589,19.7694918 C42.433589,19.9774918 42.257589,20.1774918 42.089589,20.3854918 C42.521589,20.4014918 42.697589,20.2014918 42.609589,19.7694918 M42.609589,19.7694918 C42.433589,19.9774918 42.257589,20.1774918 42.089589,20.3854918 C42.521589,20.4014918 42.697589,20.2014918 42.609589,19.7694918 M42.609589,19.7694918 C42.433589,19.9774918 42.257589,20.1774918 42.089589,20.3854918 C42.521589,20.4014918 42.697589,20.2014918 42.609589,19.7694918 M42.609589,19.7694918 C42.433589,19.9774918 42.257589,20.1774918 42.089589,20.3854918 C42.521589,20.4014918 42.697589,20.2014918 42.609589,19.7694918 M42.609589,19.7694918 C42.433589,19.9774918 42.257589,20.1774918 42.089589,20.3854918 C42.521589,20.4014918 42.697589,20.2014918 42.609589,19.7694918 M42.609589,19.7694918 C42.433589,19.9774918 42.257589,20.1774918 42.089589,20.3854918 C42.521589,20.4014918 42.697589,20.2014918 42.609589,19.7694918 M42.609589,19.7694918 C42.433589,19.9774918 42.257589,20.1774918 42.089589,20.3854918 C42.521589,20.4014918 42.697589,20.2014918 42.609589,19.7694918 M42.609589,19.7694918 C42.433589,19.9774918 42.257589,20.1774918 42.089589,20.3854918 C42.521589,20.4014918 42.697589,20.2014918 42.609589,19.7694918 M42.609589,19.7694918 C42.433589,19.9774918 42.257589,20.1774918 42.089589,20.3854918 C42.521589,20.4014918 42.697589,20.2014918 42.609589,19.7694918 M42.609589,19.7694918 C42.433589,19.9774918 42.257589,20.1774918 42.089589,20.3854918 C42.521589,20.4014918 42.697589,20.2014918 42.609589,19.7694918 M42.609589,19.7694918 C42.433589,19.9774918 42.257589,20.1774918 42.089589,20.3854918 C42.521589,20.4014918 42.697589,20.2014918 42.609589,19.7694918 M42.609589,19.7694918 C42.433589,19.9774918 42.257589,20.1774918 42.089589,20.3854918 C42.521589,20.4014918 42.697589,20.2014918 42.609589,19.7694918 M42.609589,19.7694918 C42.433589,19.9774918 42.257589,20.1774918 42.089589,20.3854918 C42.521589,20.4014918 42.697589,20.2014918 42.609589,19.7694918 M42.609589,19.7694918 C42.433589,19.9774918 42.257589,20.1774918 42.089589,20.3854918 C42.521589,20.4014918 42.697589,20.2014918 42.609589,19.7694918 M42.609589,19.7694918 C42.433589,19.9774918 42.257589,20.1774918 42.089589,20.3854918 C42.521589,20.4014918 42.697589,20.2014918 42.609589,19.7694918 M42.609589,19.7694918 C42.433589,19.9774918 42.257589,20.1774918 42.089589,20.3854918 C42.521589,20.4014918 42.697589,20.2014918 42.609589,19.7694918 M42.609589,19.7694918 C42.433589,19.9774918 42.257589,20.1774918 42.089589,20.3854918 C42.521589,20.4014918 42.697589,20.2014918 42.609589,19.7694918 M42.609589,19.7694918 C42.433589,19.9774918 42.257589,20.1774918 42.089589,20.3854918 C42.521589,20.4014918 42.697589,20.2014918 42.609589,19.7694918 M42.609589,19.7694918 C42.433589,19.9774918 42.257589,20.1774918 42.089589,20.3854918 C42.521589,20.4014918 42.697589,20.2014918 42.609589,19.7694918 M42.609589,19.7694918 C42.433589,19.9774918 42.257589,20.1774918 42.089589,20.3854918 C42.521589,20.4014918 42.697589,20.2014918 42.609589,19.7694918 M42.609589,19.7694918 C42.433589,19.9774918 42.257589,20.1774918 42.089589,20.3854918 C42.521589,20.4014918 42.697589,20.2014918 42.609589,19.7694918 M42.609589,19.7694918 C42.433589,19.9774918 42.257589,20.1774918 42.089589,20.3854918 C42.521589,20.4014918 42.697589,20.2014918 42.609589,19.7694918 M42.609589,19.7694918 C42.433589,19.9774918 42.257589,20.1774918 42.089589,20.3854918 C42.521589,20.4014918 42.697589,20.2014918 42.609589,19.7694918 M42.609589,19.7694918 C42.433589,19.9774918 42.257589,20.1774918 42.089589,20.3854918 C42.521589,20.4014918 42.697589,20.2014918 42.609589,19.7694918" id="Fill-4" fill="#A9BAB8"></path>
                        <path d="M54.369291,9.67296363 C54.412798,8.49483867 53.3205955,8.38240872 52.5369661,8.03933391 C51.73699,7.68896498 51.9100122,8.57834368 51.6502274,8.9035605 C51.4832409,9.11282608 51.3019197,9.41515447 51.7208949,9.62492309 C52.0073372,9.76803861 52.265613,9.81884588 52.520368,9.56782779 C52.7326219,9.35856222 52.8711906,8.89098444 53.2914232,9.27581177 C53.637719,9.59297991 53.3236134,9.89002636 53.2051636,10.1785211 C53.0147889,10.642326 52.8208934,11.106131 52.591287,11.5508204 C52.493962,11.7392097 52.4519639,12.0772541 52.0817769,11.945457 C51.7867842,11.8405727 51.7307029,11.660232 51.8390932,11.3639402 C52.0171451,10.8782529 51.799107,10.4501639 51.3398941,10.3996082 C50.65535,10.3241518 50.7446274,11.0689059 50.505213,11.450715 C50.3276641,11.7341793 50.0550536,12.123534 50.6299499,12.3667549 C51.5876075,12.7724585 52.5585938,13.4296832 53.3487619,12.1107064 C53.4941207,11.8687431 53.6920399,11.7326701 53.9696802,11.8564185 C54.378093,12.0382683 54.1698628,12.3322965 54.0755557,12.5968967 C54.0476407,12.6753713 53.9978466,12.7452942 53.9661594,12.8222597 C53.3080213,14.4199219 53.3065123,14.4236947 51.7339722,13.7262266 C50.549726,13.2010505 49.3695035,12.6673226 48.190287,12.1318342 C47.9365379,12.0166375 47.5766619,11.9514935 47.723781,11.5379928 C47.8261357,11.2497496 48.0544847,11.2110153 48.3338853,11.3143905 C48.6816901,11.4429178 48.8987223,11.2510072 49.0292433,10.9577335 C49.5042999,9.88952332 49.9660276,8.8155281 50.4390722,7.74656331 C50.5499774,7.49579675 50.584431,7.27395512 50.3402384,7.07902624 C50.0892556,6.87931847 49.704734,6.70803258 50.073915,6.30610182 C50.3596028,5.99497019 50.6234113,6.29855619 50.8598078,6.40017072 C52.2407159,6.99552123 53.6138279,7.60973582 54.9804013,8.23753255 C55.2922435,8.3808996 55.8357042,8.44252227 55.652874,8.96015275 C55.433327,9.58040385 55.3181466,10.4838677 54.7538126,10.6772875 C54.0758071,10.909693 54.202053,10.2185129 54.369291,9.67296363" id="Fill-6" fill="#A9BAB8"></path>
                        <path d="M10.9574419,50.8613131 C10.8132056,50.894447 10.5897067,50.9253902 10.3807662,50.9993253 C10.1133225,51.0943455 9.85854991,51.1830676 9.69786797,50.8503598 C9.50078994,50.4423478 9.80274259,50.2805121 10.0755784,50.1151166 C10.1906978,50.0452891 10.3152533,49.9918915 10.433608,49.9272668 C11.9587384,49.092622 11.9587384,49.0923482 12.7343793,50.6334836 C13.3862735,51.9284426 14.0435597,53.2209371 14.6841307,54.5219205 C14.8113822,54.7801456 15.0772084,55.067397 14.6792779,55.3453381 C14.3536004,55.5726199 14.2454906,55.2867377 14.0352021,55.1303787 C13.3617399,54.6303586 9.4840747,56.546646 9.50618195,57.3958039 C9.51507877,57.7375483 9.63990384,58.0283595 9.24332138,58.1455603 C8.79605402,58.2772742 8.75426593,57.8336638 8.62674485,57.586666 C7.81767351,56.0170518 7.03664062,54.4323769 6.23323089,52.8594768 C6.04019687,52.4821341 5.97980634,52.159832 6.45268576,51.9955318 C7.09433515,51.7723575 7.64081553,51.0146599 8.36010988,51.3640716 C8.82436208,51.5897105 8.38167792,51.9363838 8.13526299,52.20255 C7.47581997,52.915065 7.63245791,54.6632186 8.41295159,55.1867884 C8.94864795,55.5463319 9.30317271,54.9784011 9.73372484,54.8193038 C9.98148778,54.7278433 10.2570196,54.573675 10.0747696,54.2223465 C9.87041234,53.8293953 9.58598372,53.5637768 9.09935467,53.777367 C8.76585875,53.9238679 8.60598561,53.7299938 8.49248376,53.4490405 C8.36711949,53.1376917 8.61515203,53.0555416 8.80009803,52.9555924 C9.43258099,52.6146696 10.069108,52.2814141 10.7094093,51.955826 C10.8965122,51.8608057 11.0987126,51.7011607 11.290129,51.9760897 C11.471031,52.2359577 11.5095839,52.4550246 11.2065528,52.6546493 C10.7129142,52.9796897 10.4705432,53.5207849 10.9620251,53.8775901 C11.5028439,54.2708151 11.9789585,53.5834928 12.4914692,53.3975598 C13.060596,53.1910893 12.9128549,52.8044362 12.685312,52.4153187 C12.2865728,51.7334731 12.0803283,50.8405018 10.9574419,50.8613131" id="Fill-8" fill="#A9BAB8"></path>
                        <path d="M24.6605771,65.3694925 C25.6065231,65.4603621 26.4028082,65.8594653 27.0499297,66.5784191 C27.216993,66.7640305 27.3509916,66.9989489 27.5491306,67.1337044 C27.8432316,67.3340304 28.5927788,66.8894924 28.4776742,67.5482967 C28.3598349,68.2225902 27.9804621,68.9898184 27.4772835,69.408283 C26.9982196,69.8066118 26.8353827,69.2022776 26.8699389,68.7301173 C26.9452666,67.6905386 26.4425851,67.0317343 25.5893692,66.5933919 C25.1833956,66.3848049 24.7736928,66.3269789 24.4753656,66.7387316 C24.2038878,67.1133103 24.3878563,67.4884054 24.6553564,67.7806337 C25.1659932,68.3397913 25.7169041,68.8599679 26.2255521,69.421707 C26.8189747,70.0768971 27.0469464,70.8108237 26.5024992,71.6245193 C25.9779405,72.4095601 25.2584746,72.7307014 24.3540458,72.4924269 C23.7046869,72.321272 23.116485,72.0127802 22.6525861,71.4938944 C22.5128695,71.3377123 22.4111897,71.0348998 22.2632691,71.0137313 C20.3949947,70.7439623 21.7608363,69.8159053 21.921933,69.1669108 C21.9840845,68.9170195 22.1006807,68.5543157 22.5148584,68.6965575 C22.8698678,68.8184054 22.8877674,69.0951445 22.8395379,69.4204162 C22.7003185,70.3593156 23.116485,70.9778482 23.900837,71.3872775 C24.3033302,71.5971552 24.7140274,71.6851851 25.0213044,71.2814351 C25.3089416,70.9032422 25.0742575,70.5258238 24.8219224,70.2436634 C24.2896569,69.6481064 23.692008,69.1145059 23.1711783,68.5088809 C22.6737176,67.9306201 22.4616567,67.2720739 22.8564431,66.5043294 C23.2484948,65.7420061 23.8528561,65.3996963 24.6605771,65.3694925" id="Fill-10" fill="#A9BAB8"></path>
                        <path d="M30.7966056,5.74814045 C31.0570854,5.76655543 31.3175652,5.79915492 31.5783076,5.80015032 C31.9537976,5.80214113 32.2746709,5.09117363 32.550643,5.4920727 C32.8856957,5.97857654 32.9143169,6.65644685 33.0660884,7.25368941 C33.1141407,7.44356278 32.9899401,7.55927853 32.8218886,7.63866202 C32.4272302,7.82554917 32.2951522,7.53912159 32.1102956,7.30395733 C31.4701244,6.48946778 30.6364315,6.33891289 29.6780128,6.72264123 C29.3445356,6.85627426 29.0457191,7.08571494 29.0971849,7.46222661 C29.1489132,7.83848943 29.4944691,7.99750526 29.8573553,8.03358866 C30.723083,8.11919343 31.5919618,8.17369181 32.4590024,8.24585862 C33.2270503,8.30981335 33.8107666,8.65347667 33.999562,9.37738443 C34.2112018,10.186897 34.0754477,10.947137 33.3152773,11.4936139 C32.5540566,12.0408374 31.6843901,12.2657988 30.7385753,12.2045814 C30.2963898,12.1759635 29.8780991,11.881075 29.4655852,12.4093859 C29.2234861,12.7194543 28.8306657,12.5557103 28.7209071,12.1197232 C28.6502729,11.8392681 28.5226588,11.5598083 28.5187201,11.2788554 C28.5137311,10.903588 27.9890953,10.472578 28.5342124,10.161763 C29.0963971,9.84149168 29.2539454,10.4265405 29.5425213,10.6850968 C29.8305721,10.9436531 30.1230867,11.209426 30.5298238,11.2547169 C31.3272807,11.3433079 32.3752393,11.4060183 32.5411901,10.5716207 C32.7373377,9.58393082 31.6027276,9.74941678 30.9391867,9.62349814 C30.5174825,9.5433681 30.0692577,9.59338716 29.6338993,9.57148827 C28.7458522,9.52719278 27.9607366,9.28232332 27.7519852,8.34962952 C27.5277415,7.34800397 27.9076954,6.57034438 28.8955231,6.08533365 C29.4968323,5.79019628 30.1325396,5.70260071 30.7966056,5.74814045" id="Fill-12" fill="#A9BAB8"></path>
                        <path d="M67.9075069,26.919916 C67.8063171,26.2155311 67.686494,25.5338998 67.61636,24.8478646 C67.5387208,24.0933237 67.7995884,23.4892506 68.5842617,23.1594448 C69.3774753,22.8264584 70.0909793,22.9289722 70.7294322,23.4850914 C71.3549452,24.0294667 71.7459878,24.6795364 71.8068052,25.5001363 C71.8288029,25.7988699 71.6644667,26.1445788 72.0570621,26.3762747 C72.8699443,26.8563036 72.3849582,27.1550372 71.8422604,27.3373112 C71.3492516,27.5027034 70.8427854,28.1476352 70.3500354,27.7109116 C69.7819754,27.2073951 70.6823311,26.9321491 70.8280339,26.5120627 C70.939058,26.1927774 71.032225,25.879364 70.9646789,25.5600787 C70.8355391,24.9530697 70.6329008,24.184583 69.8722957,24.2711938 C68.9913498,24.371261 69.2146918,25.1490448 69.3290802,25.7521392 C69.4351871,26.311439 69.5710557,26.8690261 69.6248855,27.4329744 C69.6965723,28.1843347 69.4010259,28.7984389 68.6569837,29.1458605 C67.8914614,29.5025792 67.1435374,29.4365202 66.4861923,28.9190578 C65.724552,28.3196333 65.3042653,27.5379349 65.2398247,26.5942695 C65.2235205,26.3532764 65.2587169,26.0868383 65.160374,25.8781407 C65.0180355,25.5759818 64.1277729,25.5246026 64.6546841,25.0391911 C65.1541628,24.5784906 65.8894059,24.1581594 66.6005807,24.2066027 C67.1683819,24.2450148 67.0746973,24.7343409 66.6955593,25.1040268 C66.0594357,25.724003 65.9212379,26.4418444 66.3231501,27.232106 C66.5521856,27.6820414 66.8192644,28.1850686 67.4434834,28.0363135 C68.0449282,27.8931856 67.8857679,27.3319286 67.9075069,26.919916" id="Fill-14" fill="#A9BAB8"></path>
                        <path d="M58.8895893,16.9415975 C58.8914077,16.3427117 59.1475538,15.8728325 59.5525555,15.4567484 C60.179412,14.8129909 60.7987347,14.1620946 61.4094846,13.5038047 C61.6300404,13.2659331 62.0082845,13.0344354 61.7308362,12.6494556 C61.5123587,12.346061 61.2860877,12.0964615 61.7388895,11.8371738 C62.1342792,11.6105202 62.2670284,12.011562 62.4660222,12.1836556 C63.0167622,12.6601637 63.5420434,13.1652265 64.0673247,13.6692695 C64.2403402,13.8349893 64.5097352,13.9905109 64.2961936,14.2974749 C64.1075911,14.5692553 63.884957,14.5626265 63.6459567,14.3589187 C63.6134838,14.3311288 63.579712,14.2801381 63.5469793,14.280393 C62.0514084,14.2877867 61.7583732,15.7683015 60.8117239,16.4559111 C60.358922,16.7845461 60.0684846,17.3064359 60.3838612,17.9165396 C60.8428978,18.8050525 61.7703232,18.9853046 62.5078472,18.2854573 C63.2212114,17.6077909 63.882619,16.8768393 64.5575353,16.1609299 C64.7217182,15.9870516 65.0100773,15.8246463 64.8295281,15.5276255 C64.6435235,15.2211714 64.1761738,14.9063038 64.7450986,14.6166767 C65.1885483,14.3910428 65.3675388,14.9300145 65.6538196,15.1370367 C65.9310081,15.3374302 66.1959868,15.5635739 66.4264144,15.8139382 C66.6098212,16.0133118 67.0130044,16.1308454 66.8527183,16.5053721 C66.6667137,16.9403227 66.3877067,16.8296729 66.0294659,16.6379479 C65.6197881,16.4186879 65.4301465,16.8536385 65.2064733,17.0739183 C64.5967625,17.6745887 64.0125105,18.3002446 63.4207248,18.9185068 C62.7078801,19.6629709 61.8937202,20.0497353 60.879787,19.5331996 C59.8009081,18.9832649 58.9592111,18.2385458 58.8895893,16.9415975" id="Fill-16" fill="#A9BAB8"></path>
                        <path d="M54.4050886,64.5732296 C55.1818826,64.5279338 55.7482795,64.8955981 56.1200467,65.6107954 C56.5386236,66.4163195 56.926651,67.2406506 57.3553289,68.0398174 C57.5822326,68.4628433 57.6999958,69.1118186 58.4127345,68.7817683 C58.6694485,68.6628337 58.7753861,68.9075901 58.8566871,69.1025476 C58.9729722,69.3809447 58.7566623,69.4967007 58.587162,69.5949741 C57.8672788,70.0121726 57.1387727,70.4124182 56.4164257,70.8248486 C56.2272162,70.9329229 56.0407166,71.0325207 55.8798392,70.8004789 C55.7458158,70.6071108 55.7093535,70.3522886 55.9066932,70.2174607 C56.5962734,69.7456954 56.2065214,69.2471763 55.9660676,68.7536902 C55.6058796,68.0141232 55.229185,67.2838273 54.8680115,66.5447901 C54.4989543,65.7898596 54.0059747,65.545633 53.2663821,65.9996509 C52.5755701,66.4234715 52.3612311,66.9731138 52.7423603,67.7492353 C53.162169,68.6042934 53.5777895,69.4620004 54.0025256,70.3141448 C54.1754749,70.6606181 54.324034,71.0688103 54.827361,70.814518 C54.9286177,70.7636595 55.0774231,70.7331974 55.1732598,70.7753146 C55.3789759,70.8656413 55.4782616,71.0566255 55.3976998,71.3021766 C55.325268,71.5228282 53.3486686,72.647807 53.1589663,72.565162 C52.8960931,72.4504656 52.7155063,72.1598836 52.9433955,71.9590985 C53.6310047,71.3543595 53.1027947,70.8685551 52.8702246,70.3570566 C52.6189306,69.8047654 52.3351163,69.2699567 52.0692867,68.7253472 C51.0434161,66.6250512 52.1875427,64.5923015 54.4050886,64.5732296" id="Fill-18" fill="#A9BAB8"></path>
                        <path d="M8.48273269,41.9058636 C7.42130433,42.0114877 6.47538435,42.0929013 5.53414715,42.2061208 C5.19542663,42.2467089 4.83199147,42.3281226 4.79218791,42.7385137 C4.76383112,43.0314128 4.71648309,43.3328569 4.28905006,43.2547663 C3.8860715,43.1809481 3.98753156,42.8306084 3.94746784,42.5728381 C3.90532289,42.299877 3.87904734,42.0247797 3.84886947,41.7503944 C3.80828545,41.377031 3.47450785,40.9243903 3.91494859,40.6547522 C4.45190647,40.3267241 4.4251106,41.0444932 4.7396368,41.1373 C5.01383913,41.2182389 5.32992625,41.2277332 5.62129874,41.2044721 C6.43766202,41.1399109 7.24882222,41.0143488 8.06570581,40.9630796 C9.84854123,40.8510468 10.6948222,41.576174 10.8743285,43.3252614 C11.0158523,44.7009855 10.1685307,45.5554725 8.51837378,45.7133153 C7.74597653,45.7871334 6.97566051,45.877804 6.20378356,45.9563693 C5.81537363,45.996008 5.3850789,45.9948213 5.300789,46.4529212 C5.24563635,46.751517 5.19412585,47.0356339 4.77944036,46.9558818 C4.37073842,46.8770791 4.4930108,46.5200934 4.45554862,46.2670703 C4.35721041,45.6038935 4.27318066,44.9388177 4.19903677,44.2732673 C4.1779643,44.0829066 4.17588306,43.8695222 4.45008539,43.799027 C4.68812631,43.7373141 4.9082166,43.7933304 4.94984124,44.0235672 C5.0671707,44.6744015 5.59450288,44.5590457 6.05107316,44.5222553 C6.91036185,44.4531843 7.76782947,44.3594281 8.62321585,44.2552281 C9.40341772,44.1605225 9.95078176,43.8175409 9.83813507,43.0183582 C9.73173208,42.2637987 9.33265583,41.7522933 8.48273269,41.9058636" id="Fill-20" fill="#A9BAB8"></path>
                        <path d="M72.3489071,36.4891896 C71.5288788,36.486608 71.4237225,35.7664486 71.3617256,35.164601 C71.2711148,34.2618297 72.0460761,34.6167655 72.2773722,34.4855936 C73.1574899,34.2541138 73.2266402,34.7273614 73.2335553,35.3009169 C73.2430933,35.9747804 73.09287,36.491752 72.3489071,36.4891896 M73.6579956,32.677479 C73.6439271,32.5514511 73.6413042,32.4228512 73.6248511,32.2968233 C73.5864607,32.0370515 73.5342403,31.7644197 73.2266402,31.7695637 C73.0213351,31.7721357 72.8520359,31.8853036 72.8663428,32.1656514 C72.9021103,32.8678068 72.420442,32.8395148 71.9843176,32.9012428 C71.2403548,33.0041227 70.4961535,33.1172906 69.7569596,33.2458905 C69.1894494,33.3436265 68.5742494,33.6779862 68.3048013,32.7469229 C68.2571114,32.579743 68.0520447,32.5565951 67.8925219,32.628611 C67.6609873,32.7340629 67.6800632,32.9681147 67.7017622,33.1713026 C67.7897501,34.0174899 67.8898989,34.8611053 67.9924323,35.7047206 C68.0212847,35.9310565 68.1235796,36.1188123 68.3715672,36.0828043 C68.5959483,36.0519404 68.6910897,35.8847605 68.7077812,35.6404207 C68.7747855,34.5498935 69.6594337,34.8919693 70.1694774,34.8070933 C70.820445,34.6964974 70.5440818,35.4886728 70.7083736,35.8616125 C70.820445,36.1213843 70.7920695,36.4506 70.8752884,36.7335198 C71.137583,37.6208591 71.6075672,38.2741466 72.5754343,38.1555775 C73.6248511,38.0298068 74.058591,37.2993594 74.0895895,36.1779683 C73.9489042,35.0411451 73.8036884,33.8605981 73.6579956,32.677479" id="Fill-22" fill="#A9BAB8"></path>
                        <path d="M16.9016971,61.3798661 C16.1602885,61.7695341 15.4191174,62.1597078 14.6774712,62.54887 C14.2410829,62.7777146 13.7336658,62.9698935 14.2904943,63.6141984 C14.4230499,63.7679415 14.3382428,63.9224432 14.2118637,64.0412907 C14.0382111,64.2043899 13.8678843,64.211723 13.6985077,64.0246015 C13.5609634,63.873387 13.4146296,63.7312758 13.2718592,63.5856245 C12.1736431,62.4669411 12.2004868,62.5379967 13.5512237,61.9564027 C14.7933979,61.4215891 15.9714324,60.7165961 17.1734599,60.0770956 C17.6267145,59.8358605 17.9932616,59.5255928 18.5239592,60.0786128 C19.0522811,60.629357 18.9273273,61.0508862 18.6539017,61.6231241 C18.1165526,62.7471177 17.6205381,63.8938693 17.1299873,65.0418852 C17.0026579,65.3400153 16.8997967,65.6758226 16.8902945,65.9979751 C16.8810299,66.3198747 17.3597029,66.7115656 16.8095259,66.9381344 C16.4474923,67.0873259 16.2740772,66.6673139 16.0541015,66.4528828 C15.5870686,65.998228 15.1397529,65.5208152 14.6819847,65.0552872 C14.5254361,64.895981 14.432077,64.7207442 14.5833994,64.5116232 C14.7062153,64.3422024 14.8660897,64.1798618 15.068724,64.3803853 C15.6027473,64.9078657 15.7937414,64.4886123 15.9959005,64.027383 C16.3576966,63.2017724 16.7332708,62.3827364 17.1031436,61.5611717 C17.0359156,61.5007365 16.9686876,61.4403013 16.9016971,61.3798661" id="Fill-24" fill="#A9BAB8"></path>
                        <path d="M9.10364876,34.0568787 C9.89299369,34.0966682 10.5207517,33.8183904 10.8177094,33.0121558 C11.1048955,32.232779 10.7867266,31.6376773 10.175175,31.1980034 C9.86534755,30.9754309 9.48974139,30.7384347 9.7821708,30.3390476 C10.0631604,29.9545816 10.4237519,30.3208936 10.69783,30.4927345 C11.6597249,31.0957941 11.8029605,32.050742 11.6223073,33.0939729 C11.3780203,34.5062514 10.3529682,35.6101612 9.12223841,35.7414666 C7.77019924,35.8857035 6.57927032,35.4853217 5.80422513,34.2578157 C5.04848456,33.0608979 5.1564475,31.8331432 5.92291286,30.6608451 C5.98940659,30.5591332 6.10523438,30.4827871 6.14575027,30.3736147 C6.53041292,29.3366009 7.08643397,29.1194995 8.06119868,29.6452182 C8.22612219,29.7339985 8.4596844,29.7819946 8.40129385,30.0664895 C8.35958631,30.2691673 8.30381738,30.5064122 8.06358197,30.5069095 C6.87741963,30.5093964 6.10952429,31.0149717 6.23178696,32.3489146 C6.32163691,33.3319638 7.66438126,34.0732919 9.10364876,34.0568787" id="Fill-26" fill="#A9BAB8"></path>
                        <path d="M63.2474151,65.3694924 C62.7579001,64.8167829 62.1674324,64.2810517 61.7620445,63.6311739 C61.5895838,63.3553416 61.942918,62.9886099 62.3880034,63.1651844 C62.7076867,63.29213 62.983729,63.5374014 63.3076187,63.6408385 C63.7266772,63.7748366 64.1189202,63.5674399 64.3210883,63.2276124 C64.532195,62.8731573 64.0952594,62.7247929 63.9038701,62.5403823 C63.1212244,61.7860225 62.3072938,61.0632686 61.509663,60.3240587 C61.1786751,60.0174042 60.8655642,59.6888084 60.4267883,60.1822245 C60.2017481,60.4355932 59.9727644,60.3820462 59.7732253,60.1399093 C59.5799956,59.9061309 59.7632352,59.7457511 59.9044111,59.5929462 C60.5240604,58.9219109 61.1492306,58.2563608 61.7728233,57.5889823 C61.9271441,57.424162 62.0969759,57.2724019 62.3267483,57.4474092 C62.5444273,57.6130131 62.7287185,57.8120513 62.4492585,58.0774354 C61.8842918,58.6139503 62.3882663,58.9138135 62.7182026,59.2296102 C63.4406448,59.9220644 64.1620354,60.617653 64.9215461,61.2683144 C65.165515,61.4775396 65.3571672,62.0717807 65.8316971,61.6567261 C66.18582,61.3466759 66.2107952,60.8799028 66.0004773,60.4536164 C65.8874314,60.2242785 65.6928873,60.0356885 65.5493452,59.8191497 C65.3455997,59.5127563 65.5753721,59.2364016 65.7835869,59.2016613 C66.52154,59.0791562 66.7081972,59.8405685 67.1627469,60.1796124 C67.4235412,60.3739489 67.9574859,60.6283624 67.5281744,61.096964 C66.2946595,62.4434753 65.032226,63.7641272 63.7747874,65.0889584 C63.693815,65.1741112 63.5581599,65.2075455 63.2474151,65.3694924" id="Fill-28" fill="#A9BAB8"></path>
                        <path d="M40.2287717,4.69729926 C41.3685336,4.78675777 42.5082955,4.87548896 43.6480574,4.96543234 C44.0279781,4.99549428 44.5251026,4.91476343 44.4674267,5.47890961 C44.4041947,6.10027044 44.6891352,6.80139238 44.1689932,7.31802131 C43.9430515,7.54203122 43.5837672,7.38929719 43.4940784,7.02734178 C43.417089,6.71702501 43.4120622,6.37907066 43.2699888,6.09784609 C43.1146869,5.79092342 42.7755099,5.63237095 42.3868585,5.70534387 C42.0336593,5.77177106 42.1042991,6.06802659 42.0831336,6.29227894 C41.9886826,7.2964446 41.9019041,8.30133755 41.8214752,9.30671538 C41.7884041,9.71982458 41.7698843,10.1300245 42.3834191,10.2299078 C42.6628036,10.275728 42.8919201,10.4042185 42.7567255,10.7232629 C42.6620099,10.9458182 42.4440053,10.9816986 42.2127723,10.9664252 C41.3351979,10.9087257 40.457359,10.849814 39.5800493,10.7892052 C39.3123057,10.7707802 39.0302755,10.7557492 39.0353023,10.4124613 C39.0392709,10.1625108 39.2244689,10.0551121 39.463639,10.0517181 C40.0414571,10.0442026 40.1988754,9.73218876 40.2285071,9.26695605 C40.2927973,8.26085091 40.3967728,7.25692769 40.4568299,6.25058013 C40.4721749,5.99747802 40.6301224,5.65128088 40.2150141,5.52497225 C39.8377392,5.40981564 39.4940644,5.54970062 39.2895528,5.83431928 C39.1014445,6.09639148 39.0194282,6.42028461 38.8673012,6.70660031 C38.6860717,7.04794875 38.2429191,7.07728338 38.1868305,6.79193742 C38.0651289,6.17300093 38.0489903,5.49927415 38.1881534,4.88567123 C38.3262582,4.27691702 38.9218024,4.74384677 39.3038395,4.69293543 C39.6030667,4.65293366 39.9179035,4.7128151 40.2255969,4.72833094 C40.2266551,4.71790623 40.2277134,4.70748153 40.2287717,4.69729926" id="Fill-30" fill="#A9BAB8"></path>
                        <path d="M14.5966759,14.6203609 C13.6469621,15.6550418 14.9749563,15.9311824 15.431354,16.4795947 C15.7756587,16.893322 16.2050364,17.2753729 16.6745428,17.569407 C17.0605814,17.8114532 17.2398232,18.6993588 17.9715042,18.1028274 C18.6411193,17.5573168 19.5140535,16.9985069 18.7435814,15.9771252 C18.5498933,15.7205708 17.991301,15.4748975 18.4910378,15.0858343 C19.0555156,14.6462339 19.2615099,15.2558228 19.5343854,15.4807008 C20.8102123,16.531099 20.7976386,16.5441565 19.5587302,17.7188421 C18.6673368,18.5641902 17.7788861,19.4124399 16.8789319,20.2507757 C16.676148,20.4391413 16.4808547,20.7351098 16.10953,20.4534077 C15.8235457,20.2362674 15.9316258,20.0333935 16.1360149,19.8433353 C16.5303468,19.4762763 16.1699906,19.2707425 15.9270779,19.0540858 C15.1020307,18.3187587 14.2676201,17.5921366 13.4377575,16.861162 C13.175583,16.6304806 12.9101981,16.3695737 12.5380708,16.694317 C12.2456659,16.9494206 12.0048934,16.9368468 11.7745544,16.6428126 C11.5439478,16.3480531 11.8374227,16.2094992 12.0081037,16.0494247 C12.5955887,15.4981107 13.1900293,14.9530837 13.7884828,14.4119255 C13.9366917,14.2779659 14.0758047,14.0775101 14.3438648,14.2165476 C14.500902,14.2980357 14.6370722,14.4000771 14.5966759,14.6203609" id="Fill-32" fill="#A9BAB8"></path>
                        <path d="M67.9576543,46.391169 C67.8762691,47.1132966 68.376242,47.411876 68.9285694,47.6605197 C69.2024999,47.7836773 69.5024837,47.8936394 69.3697365,48.292349 C69.2345081,48.6990794 68.90202,48.5518595 68.6337963,48.5037349 C68.3097444,48.4455197 67.9958656,48.3156351 67.6710694,48.2752725 C66.9934386,48.1906664 66.7696294,47.8726819 66.948776,47.1541766 C67.300618,45.7407109 67.5939023,44.3114624 67.9070367,42.8876473 C67.9703087,42.599676 67.9442555,42.2139031 68.3075113,42.1735406 C68.7136927,42.1280033 68.714189,42.4749661 68.7186552,42.794503 C68.7253546,43.2403023 69.0531284,43.3264608 69.3900828,43.4071859 C70.3540504,43.6374595 71.3128073,43.8912778 72.2787599,44.1127544 C72.6812195,44.2048639 73.1194091,44.2990432 73.338752,43.7619107 C73.4571079,43.4710933 73.6414651,43.355439 73.9126663,43.5181829 C74.1243174,43.6452215 74.1086855,43.8615234 74.0558347,44.0858461 C73.8687481,44.8783494 73.6997746,45.6752511 73.504748,46.4654258 C73.447431,46.6982867 73.4191447,47.0041107 73.0702802,46.9834119 C72.7387846,46.9634894 72.6685651,46.7673688 72.743499,46.4566288 C72.8730205,45.9192376 72.5239079,45.7981499 72.1318696,45.7060405 C71.2480466,45.4977594 70.3657123,45.28094 69.483378,45.0643793 C68.2665706,44.7652825 67.9601356,45.0227231 67.9576543,46.391169" id="Fill-34" fill="#A9BAB8"></path>
                        <path d="M24.0438586,13.6718748 C23.5940647,12.8905624 23.2425864,12.0782372 22.7026699,11.4032542 C22.2378556,10.8228731 22.377136,9.52581109 20.9275271,9.91203689 C20.6314879,9.99100209 20.2420488,9.52007764 20.6997626,9.22975676 C21.5250674,8.70618884 22.4265669,8.29155642 23.2974793,7.83288069 C23.470624,7.74140616 23.6385798,7.74036372 23.7857801,7.8865666 C23.9690295,8.06847322 24.0247417,8.29207764 23.7983427,8.43958358 C23.1224229,8.8794953 23.492745,9.32279496 23.7530083,9.77625845 C24.2088103,10.5711226 24.6468609,11.3753688 25.1234185,12.1585055 C25.3784929,12.5775683 25.5491797,13.1986048 26.3215034,12.7831905 C26.5686579,12.6502788 26.731971,12.849907 26.8403913,13.0534444 C26.9889571,13.3315165 26.7718435,13.4446218 26.5768509,13.5504299 C25.8304716,13.955941 25.0849116,14.3637975 24.326789,14.7489809 C24.1129526,14.8579164 23.8843688,15.1206125 23.6074465,14.8532254 C23.2991179,14.5556074 23.4463182,14.3335666 23.7393533,14.1112653 C23.8677098,14.0140573 23.931888,13.8397084 24.0438586,13.6718748" id="Fill-36" fill="#A9BAB8"></path>
                        <path d="M14.8895886,24.0247905 C14.3389182,24.9971737 13.8765726,25.9698276 13.262702,26.8236737 C13.0031668,27.1844271 12.5120703,26.8066239 12.6682577,26.4393753 C13.0389112,25.5682087 12.3968077,25.4407407 11.9585507,25.1609065 C11.1897878,24.6707907 10.4041889,24.2090913 9.62092106,23.7438737 C9.22307075,23.507882 8.818745,23.1197947 8.41959959,23.7611942 C8.27998936,23.9852781 8.07925108,23.9971859 7.86996523,23.8377833 C7.58737754,23.6215478 7.68787619,23.3904274 7.82670937,23.1414454 C8.23699251,22.4058657 8.63613792,21.6632496 9.04642106,20.92767 C9.17929685,20.6892426 9.3357432,20.4610992 9.65329821,20.6251026 C9.86880046,20.7363326 9.97706962,20.9008773 9.85092828,21.1590609 C9.5307831,21.8134508 9.99908608,22.0202141 10.4197299,22.2697375 C11.1659583,22.7119513 11.9007899,23.1755451 12.6472773,23.6177589 C13.1458852,23.9130192 13.596316,24.4142309 14.2039702,23.6810869 C14.5111646,23.3103202 14.7652604,23.667014 14.8895886,24.0247905" id="Fill-38" fill="#A9BAB8"></path>
                        <path d="M71.6895894,54.2442884 C71.2289169,55.2286737 70.8220893,56.2099635 70.3184969,57.1296237 C70.0393882,57.6387012 69.5222696,57.218269 69.5987449,56.9610569 C69.9917862,55.6401007 68.9250341,55.6451661 68.3506892,55.2556895 C67.7334244,54.8372272 67.0521702,54.5282349 66.3948469,54.1806889 C65.9817764,53.9625932 65.551798,53.5824032 65.2131218,54.3101392 C65.0952874,54.5628488 64.8903129,54.5808593 64.6744133,54.4218605 C64.4551321,54.260329 64.4494095,54.056304 64.5612611,53.8204793 C64.953522,52.9903087 65.3442223,52.1592938 65.7346624,51.328279 C65.8368895,51.1110276 65.9633079,50.9219175 66.2223874,50.9801702 C66.4736633,51.0370157 66.6175097,51.2483575 66.5189242,51.4900919 C66.2252487,52.2096669 66.7270202,52.3779523 67.1395705,52.6104001 C67.9412603,53.062632 68.7455513,53.5097985 69.5527037,53.950211 C70.036787,54.2147399 70.4802916,54.6264483 71.0093757,53.9079989 C71.2759987,53.5458194 71.608432,53.7836141 71.6895894,54.2442884" id="Fill-40" fill="#A9BAB8"></path>
                        <path d="M2.89533965,30.169492 C3.3109645,30.7323676 4.79716027,30.8554083 4.43253234,31.7136287 C4.08575332,32.5305998 2.83377909,32.354053 2.08958841,32.569492 C2.35659368,31.7744419 2.61849926,30.9935344 2.89533965,30.169492" id="Fill-42" fill="#A9BAB8"></path>
                        <path d="M29.2895888,2.79290105 C30.7857726,3.10191289 30.7857726,3.10191289 31.6895888,2.16949156 C31.5155239,3.0073243 31.6545025,4.19085982 30.9299913,4.50492086 C30.0758429,4.8755331 29.831833,3.56341095 29.2895888,2.79290105" id="Fill-44" fill="#A9BAB8"></path>
                        <path d="M41.9991734,19.8720441 C42.0551918,19.802688 42.1141444,19.7359995 42.1725636,19.6666434 C42.2021733,19.8106907 42.1432207,19.8773792 41.9991734,19.8720441" id="Fill-46" fill="#A9BAB8"></path>
                        <path d="M41.9991734,19.8720441 C42.0551918,19.802688 42.1141444,19.7359995 42.1725636,19.6666434 C42.2021733,19.8106907 42.1432207,19.8773792 41.9991734,19.8720441" id="Fill-48" fill="#A9BAB8"></path>
                        <path d="M60.2742507,47.681136 C60.1255057,48.485811 59.7191128,49.282466 58.9355449,49.5604932 C56.4759387,50.434675 54.2500746,52.1750186 51.7293766,51.704511 L50.6164446,51.704511 C48.8049419,51.7018376 47.6176374,50.4453684 47.7477893,48.6381913 C47.7958659,47.97253 48.3055834,47.8335164 48.8660336,47.7319295 C51.293766,47.2881552 53.7294668,47.0368614 56.2023539,47.183895 C56.5848413,47.2052817 57.1877902,47.3924154 57.1771655,46.6625939 C57.158838,45.3446379 58.0457306,45.542465 58.8160176,45.6894986 C59.8678579,45.8926724 60.4814314,46.5529871 60.2742507,47.681136 L60.2742507,47.681136 Z M48.7943173,56.6876145 C48.7093201,56.9709885 48.4171422,57.0217819 48.1409013,57.0217819 L44.8313231,57.0217819 L44.8313231,57.0351486 C43.7290158,57.0351486 42.6240522,57.0404953 41.5217449,57.0324752 C41.0595726,57.0324752 40.7328647,56.7731614 41.1790999,56.4283007 C41.965324,55.8161061 42.4699948,54.631817 43.7874513,54.9419243 C43.8697924,54.9606377 43.9840073,54.9659843 44.0477552,54.9232109 C46.0000345,53.6266416 47.1474966,55.1584647 48.4410477,56.1796802 C48.6136982,56.3186938 48.8633775,56.4523607 48.7943173,56.6876145 L48.7943173,56.6876145 Z M40.2945979,52.4637392 C40.1352282,53.2577208 40.4141252,54.1907161 39.3490041,54.8643975 C39.4764999,54.1238826 39.6199327,53.6079282 39.6438381,53.0893005 C39.6624313,52.6348329 39.8855489,51.9959049 39.2693192,51.8114445 C38.7726169,51.6644109 38.5255938,52.1990787 38.2945077,52.5626527 C37.9199888,53.156134 37.58,53.7736752 37.2107935,54.4099299 C36.6875295,52.8700867 36.7459651,52.707013 38.8204278,49.8922546 C37.6756219,50.103181 36.7964321,50.5897287 35.9836465,51.24737 C35.5374112,51.6055974 35.0646143,51.9344181 34.5814584,52.2445254 C34.183034,52.4987599 33.7551263,52.525226 33.3301403,52.2578921 C32.8493749,51.9558048 32.9662461,51.4906439 33.0167132,51.0602363 C33.3992005,47.7372762 33.4948224,47.7025228 36.7645582,48.3681841 C38.512313,48.7210648 40.2972541,48.6863114 42.0396965,48.3307574 C42.9002931,48.1545843 43.1818463,48.3494707 43.1499724,49.2022658 C43.1260669,49.7957471 43.4368379,50.3117014 43.6572994,50.8436959 C43.7608897,51.0976631 43.8751047,51.373017 43.6124102,51.570844 C43.3518407,51.7686711 43.0888806,51.5922307 42.8949808,51.4211371 C42.2415649,50.8436959 41.6040859,50.244868 40.8497358,49.7182202 C41.6997077,51.0228096 42.7807658,52.225812 42.3717168,54.1078426 C41.7236132,53.5758481 41.6731461,52.8861267 41.4128422,52.3167056 C41.2640971,51.9959049 41.1047274,51.5842107 40.7036469,51.6162908 C40.2228815,51.6537175 40.3556896,52.1563052 40.2945979,52.4637392 L40.2945979,52.4637392 Z M34.66619,53.1213805 C35.0486773,53.172174 35.2053909,53.4181212 35.1947663,53.7576352 C35.1841416,54.0918025 35.2585142,54.5649835 34.7750926,54.5730035 C34.4244792,54.5783502 34.3341697,54.1907161 34.3368258,53.8672421 C34.3368258,53.5758481 34.2624533,53.2309874 34.66619,53.1213805 L34.66619,53.1213805 Z M30.0072813,56.9255417 C30.9292352,55.8080861 31.6328526,55.1557914 33.2292062,55.0221245 C35.4975688,54.8296441 37.1497017,55.7145192 38.9133935,56.7009812 C38.9426113,56.7170213 38.9479236,56.7731614 39.0169838,56.9255417 L30.0072813,56.9255417 Z M29.4813611,48.8229191 C29.3432407,48.5980913 29.2130888,48.3387774 29.4494872,48.1008502 C29.6354186,47.9163899 29.8585362,48.0259967 30.0659825,48.0901569 C30.4030495,48.1917438 30.7350698,48.3441241 31.0803709,48.3815508 C32.3579849,48.5232378 32.9184352,49.0472122 32.3075178,50.3838816 C32.1773659,50.6726022 32.2198645,51.1003364 32.3128302,51.4264837 C32.5173547,52.1536319 32.2437699,52.3247256 31.4203596,52.1429385 C30.5889808,52.1108585 29.9063471,51.7553044 30.052436,50.5549753 C30.1323865,49.9053539 29.8080691,49.3575868 29.4813611,48.8229191 L29.4813611,48.8229191 Z M47.2803048,51.6911443 C47.415769,52.0921451 47.3467088,52.4877992 46.9190667,52.7096864 C46.5498601,52.9048401 46.188622,52.9877136 45.827384,52.6588929 C44.7303889,51.6644109 44.1035346,50.3357615 43.9919758,48.9536453 C43.9043225,47.8522297 45.1792804,48.2371905 45.8512894,48.0580768 C46.3665849,47.9190632 47.0518748,47.9564899 47.1076542,48.801265 C47.1318253,49.1969192 47.1103104,49.5952466 47.1103104,49.6380201 C47.0678118,50.568342 47.0943734,51.1324165 47.2803048,51.6911443 L47.2803048,51.6911443 Z M22.8143938,46.4514002 C21.9484848,46.4594202 21.6749001,46.2722865 21.672244,45.3740446 C21.6616193,42.3799052 21.6270892,42.3799052 24.5435554,42.3799052 C34.6608776,42.3799052 44.7781999,42.3986185 54.8955221,42.3558451 C56.072202,42.3504984 56.497188,42.6044656 56.449377,43.8716282 C56.3484429,46.4246668 56.4228154,46.4273401 53.8277448,46.4273401 L38.9851099,46.4273401 C33.5957566,46.4273401 28.2037471,46.4059534 22.8143938,46.4514002 L22.8143938,46.4514002 Z M28.2648388,52.044025 C25.6193012,51.3783636 22.85158,51.2179633 20.314945,50.1085277 C19.4038814,49.7102002 18.6309381,49.0605789 18.2643877,48.1115436 C17.9376798,47.2640952 17.9961153,46.3097132 18.9549899,45.9568325 C19.725277,45.6761319 20.7718049,45.408798 21.0560143,46.7347741 C21.1914786,47.357662 21.6536508,47.1411216 22.0016081,47.1625083 C23.5448384,47.2560752 25.077444,47.3870688 26.5648949,47.8736164 C28.1028129,48.3735308 28.8043054,49.5016798 29.0669998,51.0067695 C29.1785586,51.6376775 29.0457505,52.0814517 28.2648388,52.044025 L28.2648388,52.044025 Z M29.6619802,32.753212 C29.7947883,32.5366716 29.8744732,32.1971576 30.2118058,32.3040911 C30.4667974,32.3869646 30.6049178,32.6542985 30.6128863,32.9376724 C30.6208548,33.2451064 30.6553849,33.5712537 30.5703877,33.857301 C30.2357112,35.0121834 30.2569605,36.121619 30.80413,37.2123412 C30.9210011,37.4449217 30.9608435,37.7202756 31.016623,37.9795895 C31.1733365,38.717431 30.8200669,39.0328849 30.1241524,39.1344718 C29.0563752,39.2868521 29.6168254,38.5305646 29.5318282,38.1079097 C29.6168254,37.447595 29.5318282,36.7177735 29.2104326,36.1831058 C28.4109277,34.859803 29.0138766,33.8252209 29.6619802,32.753212 L29.6619802,32.753212 Z M33.0114008,39.5755727 C32.833438,40.0968738 32.8228133,40.9309555 32.2012713,40.9710556 C31.197242,41.0352157 30.3127399,41.3239363 29.4308941,41.7356305 C29.3033983,41.794444 29.0590313,41.7516705 28.9474725,41.6581037 C28.7270111,41.4763166 28.9023178,41.2544295 28.9952834,41.0672958 C29.3512092,40.3642077 29.8346307,39.8348866 30.6660095,39.7012197 C31.3167693,39.5969594 31.9542483,39.4338858 32.5996957,39.2948722 C32.8653119,39.1852653 33.0857734,39.3563589 33.0114008,39.5755727 L33.0114008,39.5755727 Z M29.7761952,29.0239044 C30.477422,28.6683503 31.1520872,28.3555697 31.7311306,29.2564849 C31.9409674,29.5826322 32.2650192,29.8499661 32.5784464,30.0905666 C33.0857734,30.4782007 33.1893637,30.8925682 32.8839051,31.4700094 C31.8055032,33.525807 31.5850417,35.6029912 32.8467188,37.6748288 C33.0353063,37.9795895 33.1043665,38.2632307 32.7643778,38.4741571 C32.4190767,38.6853509 32.1909123,38.4500971 31.983466,38.1963972 C31.5425431,37.6534421 31.3566117,37.0171875 31.3940636,36.3328127 C31.4894198,34.5603891 31.2423968,32.8040055 31.1388064,30.8070214 C30.2224304,31.3497092 29.675261,31.0396019 29.3060544,30.1975001 C29.0430944,29.6066923 29.2848051,29.2751982 29.7761952,29.0239044 L29.7761952,29.0239044 Z M34.961024,28.5934968 C36.2811366,29.9863064 37.9518627,29.5505521 39.5482163,29.0158844 C40.0767926,28.8397113 40.5469333,28.4598299 41.2747218,28.5293367 C40.5495895,30.1734401 39.1232303,30.5878076 37.6649972,30.8257348 C35.1549238,31.2347556 33.2026445,30.2456202 31.6567581,28.1096225 C32.9715584,27.5001013 33.9490261,27.5241613 34.961024,28.5934968 L34.961024,28.5934968 Z M36.4856611,27.8716954 C38.4034103,27.8636753 40.1511651,27.4011877 41.5854928,26.0484783 C42.0025103,25.6554975 42.539055,25.5648713 42.8976369,25.920158 C43.290749,26.3077921 42.7701412,26.724833 42.5124934,26.8772133 C40.4672484,28.0775424 38.315757,28.9543976 35.8720877,28.6870637 C35.6383454,28.6630036 35.4258524,28.4437899 35.1177376,28.2620028 C35.6038153,27.7513951 36.0686437,27.8716954 36.4856611,27.8716954 L36.4856611,27.8716954 Z M33.2026445,20.4906069 C33.1574898,20.3997133 33.1707706,20.223273 33.2318623,20.1430728 C33.3673266,19.9639591 33.5559141,20.0227726 33.6834099,20.1644595 C34.5625996,21.1322082 35.1283622,22.3726374 36.2227011,23.1588663 C36.2466065,23.1773124 36.2359819,23.2414725 36.2466065,23.300286 C36.1908271,23.5943532 35.9809903,23.6424733 35.7870905,23.4713797 C34.7936858,22.5945245 33.8188742,21.6962827 33.2026445,20.4906069 L33.2026445,20.4906069 Z M32.5731341,19.899799 C32.4482944,19.2263849 32.915779,18.9641304 33.0671803,18.5580502 C33.2292062,18.1193553 33.6063812,18.1781688 33.9038714,18.5069895 C34.9530555,19.6698918 35.9995834,20.8354676 37.0434552,22.0037166 C37.2240743,22.2042171 37.415318,22.4581842 37.1603264,22.6934381 C36.9000225,22.9340385 36.6556555,22.6827447 36.4856611,22.5089777 C35.9942711,22.0010433 35.338199,21.5439024 35.0964883,20.9290344 C34.5997859,19.6591985 33.8401235,19.3600519 32.5731341,19.899799 L32.5731341,19.899799 Z M34.43776,17.983015 C34.6422845,16.4057451 36.6689363,14.5156946 38.4485651,14.3392542 C38.3529432,14.873922 37.9598312,14.9490428 37.6676534,15.1065025 C36.4166009,15.7775105 35.6144399,16.7535465 35.4391332,18.2131895 C35.4046031,18.5016428 35.5427235,19.0550239 34.9663363,18.929377 C34.5493188,18.8358101 34.3740121,18.4535227 34.43776,17.983015 L34.43776,17.983015 Z M40.6744291,16.6837724 C39.625245,16.6867131 38.8682387,16.964473 39.0647947,18.2075755 C39.1205742,18.5497629 39.2666631,19.1806708 38.7062128,19.1459174 C38.1723242,19.1165107 38.3423186,18.5337228 38.4328937,18.1621287 C38.5521554,17.6729077 38.724806,17.1569534 38.1909173,16.846846 C37.6729657,16.5447588 37.2081373,16.7479325 36.8097129,17.14626 C37.1257963,17.6223816 37.7738999,16.8765201 37.922645,17.5686475 C37.9465504,17.6702344 37.7659314,17.8897155 37.6331233,17.9402416 C37.1815757,18.124702 36.7539335,17.9990551 36.4059763,17.6755811 C36.0925491,17.3815138 36.1775463,17.0500198 36.3794147,16.7105058 C37.383444,15.0022423 39.2852562,14.9383495 40.6744291,16.6837724 L40.6744291,16.6837724 Z M39.7609749,17.5018141 C39.8111764,17.0981399 40.1830391,17.1569534 40.4752169,17.1783401 C40.6850537,17.1943801 40.9586385,17.2318068 40.9427015,17.5018141 C40.918796,17.8841015 40.5867757,17.9242016 40.2839732,17.9536083 C40.018357,17.9028149 39.7208668,17.8039013 39.7609749,17.5018141 L39.7609749,17.5018141 Z M41.9254815,18.3546091 C41.7926734,18.7342233 42.6267084,19.0683906 42.3000004,19.6458318 C42.9374794,19.2876044 43.2296572,18.4535227 44.3930563,18.2556956 C42.0875074,21.0814147 39.9572653,23.6157399 36.467068,24.468535 C36.4750365,23.6986135 37.1629825,23.2601859 37.8352572,23.1211723 C39.8138325,22.7121514 41.0250425,21.3728087 42.1273499,19.8516789 C41.8564213,19.8703923 41.7023639,18.9988838 41.3092519,19.7875188 C41.017074,20.37298 40.4539676,20.7739808 40.0980419,21.351422 C39.396815,22.487591 37.6756219,22.3512507 37.0859538,21.1589416 C36.8734608,20.728534 36.8070568,20.2045596 36.3953516,19.8971256 C35.8242767,19.4720648 35.4497578,18.7823434 35.9809903,18.3519358 C36.4697242,17.956549 37.3250084,18.3786692 37.7473382,18.8384835 C38.1351379,19.2581977 38.9771414,19.8703923 37.922645,20.578827 C37.7446821,20.6967213 37.2931345,21.1749816 38.0660777,21.225775 C38.4992978,20.089606 38.9452674,20.1484195 39.4047835,21.2070617 C40.0236693,21.2471618 39.7819586,20.9397278 39.6281668,20.6617005 C39.0249523,19.5736516 39.3410356,18.76363 40.5044347,18.4000559 C41.6465845,18.0445018 41.851109,17.3574538 41.1817561,16.3282183 C40.6159935,15.4540365 39.5163423,15.2321494 38.8390209,14.3873743 C41.1525383,14.4274744 42.6054591,16.4030718 41.9254815,18.3546091 L41.9254815,18.3546091 Z M42.7063933,16.5768388 C43.2216888,17.0366531 43.4341817,17.3734938 43.2139859,17.8413281 C43.1791902,17.9161816 42.9507602,17.9910351 42.9056054,17.9536083 C42.5151496,17.627461 42.539055,17.2157668 42.7063933,16.5768388 L42.7063933,16.5768388 Z M39.5083738,26.7569131 C38.2785707,27.4653479 36.9451772,27.4680212 35.5905344,27.2381141 C36.5175351,26.7622597 37.5109398,26.5350259 38.2812269,25.8132245 C38.4830952,25.6260907 38.8523018,25.5378706 39.1391673,25.5458906 C39.6281668,25.5592573 40.3689704,25.2518233 40.525684,25.8990386 C40.6611483,26.4521524 39.9014859,26.5270059 39.5083738,26.7569131 L39.5083738,26.7569131 Z M43.6333939,21.0787414 C42.6163494,22.1293636 41.7129886,23.2494925 40.9427015,24.5139818 C40.5894319,25.091423 39.625245,24.7946824 39.0090153,24.941716 C38.6610581,24.8695359 38.2493529,25.1261764 38.119201,24.7545823 C37.9651435,24.3081347 38.4193473,24.0595142 38.7115252,24.0354541 C40.5761511,23.8777272 41.5350257,22.5731378 42.4753071,21.1990417 C42.6453015,20.9504211 42.9162301,20.7606141 43.1712217,20.5921937 C43.2960613,20.5066469 43.5351159,20.4478334 43.6440186,20.5119936 C43.9096348,20.6670472 43.7688582,20.9397278 43.6333939,21.0787414 L43.6333939,21.0787414 Z M43.7635459,26.8638466 C44.0108346,26.8397866 44.3558701,26.9948402 44.2416551,27.3156409 C44.0158813,27.9545689 43.4235571,28.176456 42.9002931,28.366263 C42.5815536,28.3288363 42.3664045,28.2058627 42.4354647,27.9518955 C42.6187399,27.2915808 43.0968491,26.9253334 43.7635459,26.8638466 L43.7635459,26.8638466 Z M46.0956564,27.7888219 C45.2403721,28.981131 43.7608897,28.9704376 42.669207,29.983633 C44.7091396,30.3819605 45.8087908,28.9517242 47.2803048,28.1336826 C47.2776486,28.9410309 46.9217228,29.336685 46.5047054,29.6334256 C44.9614751,30.7294946 43.1738778,30.9968284 41.3490943,31.0609886 C41.0755096,31.0716819 40.6611483,30.9166283 40.5442771,30.7081078 C40.3716266,30.3980005 40.7859879,30.1975001 40.9745754,29.967593 C41.3995614,29.4436186 41.867046,29.0452911 42.586866,28.9036041 C43.2668435,28.7728779 43.9388526,28.505544 44.4435234,27.9438755 C44.895071,27.4439611 45.4289596,27.553568 46.0956564,27.7888219 L46.0956564,27.7888219 Z M39.4924369,40.989769 C39.6677436,40.9737289 39.8642996,40.9309555 40.0157008,40.989769 C41.2348793,41.4656233 42.031728,41.3747298 41.9998541,39.7493398 C41.9892294,39.2681388 41.7156447,38.4394037 42.5762413,38.3565302 C43.4076201,38.2790034 44.1436427,38.7147576 44.5869562,39.4124991 C45.3333378,40.5914415 44.8817902,41.4308699 43.487305,41.5885969 C42.7037371,41.676817 41.9175131,41.7489972 41.131289,41.826524 C41.131289,41.810484 41.1286329,41.7917706 41.1286329,41.7757306 C40.5578236,41.7757306 39.9864831,41.7864239 39.4180643,41.7703839 C39.1869782,41.7623639 38.9479236,41.6340436 38.937299,41.4014631 C38.9187058,41.0539291 39.2268206,41.013829 39.4924369,40.989769 L39.4924369,40.989769 Z M39.7102422,39.8375599 C40.0900734,39.9017201 40.443343,39.9204334 40.7673948,40.0300403 C41.0941027,40.1396472 41.5004956,40.350841 41.3995614,40.7411485 C41.2640971,41.2707369 40.8656728,40.9175888 40.5602141,40.856102 C40.2653801,40.7972886 39.9625776,40.7652085 39.6624313,40.7360691 C39.2746316,40.6957017 38.6902759,40.7117417 38.7009005,40.2786608 C38.7141813,39.6263662 39.3729096,39.9819202 39.7102422,39.8375599 L39.7102422,39.8375599 Z M33.1256158,40.5433214 C33.3567019,39.7359731 33.6727853,38.9419914 34.6821269,38.8510979 C34.9025884,38.8323845 35.1150814,38.9446648 34.9928979,39.3403189 C34.2943272,39.7493398 34.8733706,41.0940292 33.7471578,41.2918563 C33.2717048,41.3747298 32.9901516,41.0111557 33.1256158,40.5433214 L33.1256158,40.5433214 Z M41.4819024,39.3216055 C41.4394038,39.6985463 41.1233205,39.7145863 40.9028591,39.5728994 C40.2999102,39.1799186 39.5402478,39.5675527 38.7009005,39.0916984 C39.6146203,38.6719842 40.3052225,38.8457512 40.9825439,38.8647319 C41.2534725,38.8724846 41.5217449,38.9794182 41.4819024,39.3216055 L41.4819024,39.3216055 Z M41.7634556,34.8090096 C41.6492407,34.843763 41.5456503,34.8410897 41.5058079,34.8918831 C41.1366013,35.3383307 41.3915929,36.4290529 40.6106812,36.2900393 C39.9732023,36.1750857 40.3078787,35.1966437 40.1378843,34.6192025 C40.0210132,34.031068 40.1060104,33.36006 39.3808781,32.7933121 C39.5136862,33.7853882 39.6172765,34.5897958 39.723523,35.3944708 C38.9558921,36.6295533 38.9558921,36.6295533 37.9359258,34.7555428 C37.4259426,34.9801033 37.5348453,35.506751 37.3887563,35.9024052 C36.8973663,37.2123412 35.8880246,37.6668088 34.650253,37.1134277 C32.6767244,36.2312259 32.0923687,32.8146988 33.6518016,31.3149558 C33.9437138,31.0369285 34.2066739,31.1679221 34.4961956,31.2935691 C35.893337,31.9057636 37.3276646,31.8603169 38.7619922,31.4726828 C39.4685314,31.2802024 40.1617898,31.3470358 40.8577043,31.4753561 C41.7793926,31.6467171 42.7276426,31.77477 43.60152,31.4325827 C44.6374233,31.0235618 44.9986613,31.5448629 45.3359939,32.3709246 C45.8512894,33.6461072 45.8300401,34.8892098 45.2164666,36.1002323 C44.81273,36.8942139 44.2124373,37.5171018 43.2190326,37.2711547 C42.2575018,37.0332275 41.6970516,36.4183596 41.8165789,35.3383307 C41.835172,35.1699103 41.7847049,34.99347 41.7634556,34.8090096 L41.7634556,34.8090096 Z M38.0767024,40.2813342 C38.4512213,41.6794904 37.80843,41.8078106 36.9186156,41.7730572 C36.0606752,41.7730572 35.2478895,41.8131573 34.945087,41.0432357 C34.6449407,40.2840075 35.2664826,39.7335671 35.7419357,39.2093253 C36.5148789,38.3592036 37.5560946,38.1747432 38.6159033,38.0811763 C39.184322,38.0303829 39.7609749,38.0597896 40.3317842,38.0384029 C40.7089592,38.0250362 41.2933149,37.4850218 41.3809683,38.2041499 C41.4340915,38.6372308 40.7594263,38.5035639 40.3928759,38.5490106 C40.132572,38.5784173 39.8642996,38.5570306 39.6013395,38.559704 C38.217479,38.5623773 37.7260889,38.9740715 38.0767024,40.2813342 L38.0767024,40.2813342 Z M45.9309743,41.4522566 C45.1397036,41.2624495 45.4289596,40.4657946 45.2191228,39.9952869 C45.2642776,39.6611196 45.1208448,39.1451652 45.53255,39.2360587 C46.2815877,39.3993997 46.3612726,40.1690539 46.5073615,40.7919419 C46.6082957,41.2170028 46.3054932,41.5404768 45.9309743,41.4522566 L45.9309743,41.4522566 Z M48.4968271,29.0185577 C48.7465063,29.1415313 48.9165007,29.336685 48.9616555,29.6227323 C48.9165007,30.0130398 48.5818243,30.0825466 48.3082396,30.2081935 C47.8301303,30.4274073 47.3310375,30.6091943 46.8553188,30.8417748 C46.4677847,31.0342552 46.2762754,31.2802024 46.4754876,31.7961568 C47.3228033,34.0096813 46.940316,36.1430057 45.9309743,38.2068233 C45.7822292,38.5142572 45.6467649,38.9633781 45.1952173,38.7922845 C44.7622629,38.6292108 44.8472601,38.2014766 45.025223,37.8860226 C46.2151837,35.7714116 46.7357915,33.6220472 45.4422404,31.3523825 C45.4209911,31.3125498 45.3838049,31.2748557 45.3784925,31.2347556 C45.3439624,30.796328 48.1090274,28.8287507 48.4968271,29.0185577 L48.4968271,29.0185577 Z M48.9563432,38.0731563 C48.9483747,38.6051507 48.6591186,39.0195183 48.2126177,38.9983989 C47.612325,38.9660515 48.0080932,38.3672236 47.856692,37.9902828 C48.3135519,35.8890385 48.2790218,33.7343274 47.9735631,31.5742696 C47.9337207,31.2962424 47.939033,30.9968284 48.2551163,30.929995 C48.6402599,30.8497948 48.6004174,31.1973289 48.6561968,31.4462167 C49.1608677,33.6354139 48.9882171,35.8572258 48.9563432,38.0731563 L48.9563432,38.0731563 Z M49.8886561,41.005809 C49.8488137,41.4923567 49.2352402,41.1822494 48.9988418,41.2330428 C48.2471478,41.2811629 47.6388867,41.2490828 47.219213,40.6609483 C46.9642214,40.3027209 46.5604848,39.87766 46.7836024,39.4846792 C47.0837487,38.9580315 47.4343622,39.6129995 47.7849756,39.6370595 C48.1807438,39.6637929 48.5897928,39.6210195 48.9669678,39.7172597 C49.5991344,39.87766 49.9338109,40.4687352 49.8886561,41.005809 L49.8886561,41.005809 Z M62.2398109,45.2483977 C61.3207787,44.1336154 60.0378523,44.0641086 58.7124273,44.3742159 C58.4972782,44.4250094 58.2794729,44.4624361 58.0616675,44.4971895 C57.4613749,44.5934297 57.2116956,44.398276 57.1718532,43.7272679 C57.0443574,41.5057234 57.0124834,41.5083967 54.7972441,41.5083967 C54.4891292,41.51107 54.1783583,41.5271101 53.8702434,41.5083967 C52.603254,41.4335432 51.3707947,41.9390716 50.5420721,40.0487537 C49.9391232,38.6826776 49.5274181,37.4262083 49.689444,36.0577262 C49.8249082,34.8999031 50.0931806,33.8760144 49.4078908,32.7558854 C49.0121226,32.1116107 49.1050883,31.1893088 49.4530455,30.432754 C49.7879876,29.7085465 49.5991344,29.2885649 48.9961856,28.7405305 C47.3520211,27.2381141 45.025223,27.0001869 43.3916831,25.4042036 C42.4912441,24.5273485 42.374373,24.0514942 43.0888806,23.1452323 C43.7768267,22.2763972 44.4063371,21.3567686 45.0172545,20.4317934 C45.7636361,19.3036444 45.4608336,18.140742 44.6480479,17.3066603 C43.2270011,15.844344 41.572212,14.6306482 39.7633654,13.6628995 C38.9612044,13.2351653 38.1935735,13.2832854 37.383444,13.753793 C35.5533482,14.8153759 34.1083959,16.3228716 32.6767244,17.8306347 C31.6116033,18.953437 31.6939443,19.9615531 32.7245353,21.1241882 C33.4576361,21.9529232 34.3660436,22.6241986 34.9344624,23.5996999 C35.6728755,24.8641892 35.5719413,25.422917 34.2172985,25.9869915 C32.4961054,26.7034463 31.0245914,27.8663487 29.3140229,28.5961702 C28.6898248,28.8608307 28.3232744,29.3179717 28.6313892,30.0825466 C29.0430944,31.1010887 28.8757561,32.1276508 28.4029592,33.052626 C27.8770391,34.0818614 27.8664145,35.0790168 28.1718731,36.1483524 C28.3445237,36.7445069 28.4003031,37.3700682 28.5437359,37.9742428 C28.8518507,39.2868521 27.9514117,40.2786608 27.5184572,41.3375703 C27.3112765,41.8398907 26.123972,41.4656233 25.3829027,41.50305 C24.7215183,41.5351301 24.0548216,41.5083967 23.390781,41.5083967 C21.1994471,41.5083967 21.1781978,41.5083967 21.0932006,43.6497411 C21.0613266,44.4463961 20.9099254,44.7431367 19.9962056,44.5132295 C19.0638926,44.2806491 18.089081,44.3555025 17.1939543,44.9382904 C15.8419677,45.8154129 15.5710392,47.1090415 15.7304089,48.5472978 C15.9219182,50.2716014 16.6600657,51.712531 18.3068863,52.4664125 C19.8819906,53.188214 21.4863126,53.8672421 22.572683,55.2974784 C23.4359357,56.4336474 24.601991,56.9870285 25.9167913,57.2917891 C26.6445798,57.4602095 27.3936176,57.5805097 28.137343,57.6313031 C28.987315,57.6901166 29.3724585,57.9868572 29.3113668,58.9305458 C29.2237134,60.2591952 29.282149,61.598538 29.2927736,62.9352074 C29.2980859,63.3094748 29.183871,63.8120625 29.8319746,63.7666157 C30.3366454,63.729189 30.3047715,63.3257822 30.3047715,62.9726341 C30.3127399,61.7696316 30.3764878,60.5639558 30.2888345,59.3689734 C30.2038373,58.2087443 30.4880467,57.7355634 31.7762854,57.7917035 C34.3822462,57.9039837 36.9956443,57.8264569 39.6039957,57.8264569 C42.4354647,57.8264569 45.2669337,57.8478436 48.0984027,57.8104168 C48.8846268,57.7997235 49.2086786,58.0082439 49.1688362,58.8503456 C49.1077444,60.138895 49.134306,61.432791 49.16618,62.7242809 C49.1741485,63.1036277 48.9165007,63.7585957 49.6310084,63.7318623 C50.2233326,63.7104756 50.0028711,63.1223411 50.0081834,62.7721337 C50.0347451,61.3499174 50.0878683,59.9196812 49.9949026,58.5001383 C49.9231862,57.4308027 50.3003613,57.2303023 51.2751729,57.3612959 C53.5966587,57.6767499 55.5303449,57.1233688 56.7654603,54.8563774 C57.5410597,53.4368345 58.7124273,52.351459 60.1786289,51.5922307 C61.2357815,51.0441963 61.9715385,50.1352611 62.4230861,49.0391922 C62.94635,47.7640095 63.2039978,46.4169141 62.2398109,45.2483977 L62.2398109,45.2483977 Z" id="Fill-50" fill="#A9BAB8"></path>
                    </g>
                </g>
            </g>
        </g>
    </g>
</svg>