<?xml version="1.0" encoding="UTF-8"?>
<svg width="186px" height="40px" viewBox="0 0 186 40" version="1.1" xmlns="http://www.w3.org/2000/svg" xmlns:xlink="http://www.w3.org/1999/xlink">
    <!-- Generator: sketchtool 63.1 (101010) - https://sketch.com -->
    <title>2693AD9D-1EA9-4B95-8798-40E3D832BF8A</title>
    <desc>Created with sketchtool.</desc>
    <defs>
        <polygon id="path-1" points="0 39.0697674 185.918233 39.0697674 185.918233 0.213751264 0 0.213751264"></polygon>
    </defs>
    <g id="Desktop" stroke="none" stroke-width="1" fill="none" fill-rule="evenodd">
        <g id="Web_desktop" transform="translate(-830.000000, -7200.000000)">
            <g id="Sponzori-sekcija" transform="translate(220.000000, 5234.000000)">
                <g id="Zlatni-sekcija" transform="translate(0.000000, 1635.000000)">
                    <g id="1.-zlatni-sponzor">
                        <g id="Group-27" transform="translate(0.000000, 281.000000)">
                            <g id="Ericsson-logo" transform="translate(610.000000, 49.860094)">
                                <polygon id="Fill-1" fill="#1C2E5E" points="0 11.735384 0 32.2005003 16.744186 32.2005003 16.744186 28.0791278 6.02038483 28.0791278 6.02038483 23.9823209 16.1646013 23.9823209 16.1646013 19.778216 5.99339291 19.778216 5.99339291 15.8468739 16.5077843 15.8468739 16.5077843 11.735384"></polygon>
                                <g id="Group-22" transform="translate(0.000000, 0.572593)">
                                    <path d="M182.371343,0.213921132 C183.258249,0.703708797 184.347627,1.01117088 184.992984,1.71895652 C186.75632,3.65291001 185.884705,6.75442669 183.348582,7.69946208 C176.087388,10.4060344 168.808637,13.068724 161.520824,15.7045177 C159.369254,16.4827988 157.328689,15.4924651 156.604609,13.462819 C155.869767,11.403729 156.779328,9.41230334 158.945623,8.6093913 C166.557106,5.78844085 174.184447,3.00910819 181.805841,0.213921132 L182.371343,0.213921132 Z" id="Fill-2" fill="#1C2E5E"></path>
                                    <path d="M127.289229,12.312639 C129.47478,12.312639 131.498354,12.2514863 133.51315,12.3607685 C133.952072,12.3845501 134.517008,12.9346411 134.753743,13.383094 C136.608828,16.9007887 138.397933,20.452457 140.207993,23.993367 C140.419242,24.4061476 140.637004,24.8155308 141.116137,25.2101921 L141.116137,12.4063498 L146.116173,12.4063498 L146.116173,32.9669565 C144.111288,32.9669565 142.10612,33.017634 140.108598,32.9188271 C139.760575,32.9018402 139.352518,32.3033367 139.128243,31.8894237 C137.144597,28.2281901 135.196913,24.5474216 133.235355,20.8742973 C133.029486,20.4884125 132.802662,20.1138524 132.32636,19.8066734 L132.32636,32.8726795 L127.289229,32.8726795 L127.289229,12.312639 Z" id="Fill-4" fill="#1C2E5E"></path>
                                    <path d="M118.640473,23.7210961 C118.635376,20.9123195 118.360412,18.9806309 117.11812,17.3286593 C115.443135,15.1019656 112.515946,15.0804489 110.874376,17.2525015 C108.898658,19.8670617 108.86666,24.9775571 110.810662,27.5974965 C112.579944,29.982451 115.761141,29.9694277 117.265654,27.4112073 C118.046936,26.082269 118.366925,24.4852214 118.640473,23.7210961 M113.95986,11.6767067 C120.95317,11.6474055 124.585183,16.1780829 124.251035,23.2140384 C124.03837,27.6957371 122.243036,31.2927037 117.6621,32.6745844 C111.23854,34.6119353 103.818484,31.8725217 103.796027,22.7565258 C103.792715,21.4117331 103.888995,20.0278706 104.209267,18.7278099 C105.331493,14.1725015 108.833245,11.69327 113.95986,11.6767067" id="Fill-6" fill="#1C2E5E"></path>
                                    <path d="M25.4335776,16.2516077 C25.4335776,16.9265521 25.4344271,17.3880283 25.4332944,17.8495046 C25.4247991,21.3598382 25.4247991,21.3598382 29.0273619,21.0385035 C30.409543,20.9150657 31.3700754,19.9771082 31.4046228,18.7166835 C31.4383208,17.4848534 30.48685,16.3724975 29.1587554,16.2702932 C27.9966019,16.1808291 26.8217054,16.2516077 25.4335776,16.2516077 M25.5318396,32.8905157 L20.3256522,32.8905157 L20.3256522,12.3115066 C22.2798485,12.3115066 24.2416906,12.2761173 26.2018336,12.3208493 C28.3151747,12.3692619 30.4667445,12.267907 32.5299635,12.6334075 C36.117518,13.2692821 37.9049237,16.5160364 36.505752,19.8497068 C36.0104775,21.029727 34.8072635,21.9164408 33.8812785,22.9902932 C36.0589006,25.6221234 36.4431702,29.3807482 38.150154,32.9689383 C36.1180843,32.9689383 34.4017557,33.0060263 32.6902411,32.9293023 C32.4322679,32.9176946 32.0969877,32.413185 31.970125,32.0731648 C31.3666773,30.4557331 30.8317582,28.8133873 30.2560617,27.1857634 C29.6019256,25.3353286 27.9818767,24.488817 26.1222612,25.1119515 C25.8388022,25.2070779 25.566387,25.7962386 25.5573254,26.1634378 C25.5052211,28.356724 25.5318396,30.5519919 25.5318396,32.8905157" id="Fill-8" fill="#1C2E5E"></path>
                                    <path d="M181.720661,23.5203964 C183.864869,23.4929343 185.380992,24.6350172 185.751952,26.3155834 C186.194556,28.3180506 185.310198,30.0753407 183.348356,30.8131365 C179.000474,32.4478382 174.62824,34.0191223 170.267332,35.6198504 C167.408389,36.6690718 164.558791,37.7437735 161.691919,38.7714783 C159.441521,39.5780708 157.407469,38.7074944 156.624488,36.6591628 C155.812339,34.5349565 156.80034,32.5174843 159.127762,31.6582326 C166.211122,29.0425399 173.300711,26.4432679 180.393133,23.8513569 C180.914176,23.660821 181.475997,23.5798504 181.720661,23.5203964" id="Fill-10" fill="#1C2E5E"></path>
                                    <path d="M160.499041,27.4758423 C158.340675,27.4936785 156.83333,26.327814 156.437167,24.5484408 C156.048366,22.8013428 156.920831,20.9466613 158.648204,20.3037088 C166.033146,17.5549525 173.43168,14.8413023 180.848055,12.1771972 C182.850108,11.458087 184.932866,12.4682386 185.629762,14.287814 C186.390655,16.2741436 185.463821,18.453274 183.394655,19.2227786 C176.096082,21.9367118 168.779951,24.6027988 161.465803,27.2748311 C161.077003,27.4169545 160.646575,27.4463984 160.499041,27.4758423" id="Fill-12" fill="#1C2E5E"></path>
                                    <path d="M83.7412623,12.684906 C83.6093023,13.990912 83.4844218,15.2281213 83.376815,16.2917816 C81.5506141,16.0718018 79.844763,15.7399919 78.1315493,15.6946936 C76.3809564,15.648546 75.2040777,16.4500425 75.1548051,17.4842588 C75.0752327,19.1605784 76.4316449,19.4833286 77.6280627,19.8932781 C78.7381119,20.2740667 79.8841245,20.552368 80.9890765,20.9458969 C83.3725673,21.7943903 84.647708,23.498455 84.7303954,26.0215693 C84.8147818,28.5945116 83.985643,30.7209828 81.5571272,31.9754621 C78.9235921,33.3361092 76.0994797,33.2508918 73.2719691,32.9519232 C72.1585218,32.8341476 71.0646136,32.5309323 69.8189232,32.2837735 C69.9429542,30.8619737 70.0596227,29.5290718 70.1847864,28.0911345 C71.4831475,28.4155834 72.7141128,28.8476158 73.9790591,29.0021962 C75.1228063,29.1414884 76.3650986,29.1865035 77.446547,28.8728129 C78.1420268,28.6709525 78.8788503,27.8374641 79.142487,27.1217513 C79.5168454,26.1042386 78.6200276,25.500639 77.7569077,25.1597695 C76.186981,24.5394661 74.5434286,24.0915794 73.0066334,23.4033286 C69.7954196,21.9659575 68.5771973,18.4324085 70.1689285,15.4214884 C71.0643305,13.7278989 72.5906481,12.8448655 74.3610633,12.3372417 C77.4850589,11.4414681 80.5705426,11.7056138 83.7412623,12.684906" id="Fill-14" fill="#1C2E5E"></path>
                                    <path d="M87.3547839,28.2947503 C89.3639163,28.598815 91.2495841,28.9156198 93.1457294,29.1500384 C93.636473,29.2106249 94.2826803,29.1724044 94.6406145,28.8989161 C95.2987151,28.3966714 96.1510743,27.7353165 96.2473541,27.0467826 C96.3252274,26.4913124 95.5422463,25.5301395 94.9082156,25.2195632 C93.3598103,24.4616663 91.6304556,24.0771972 90.0576971,23.3600688 C87.2573714,22.0835066 86.1317475,19.6272073 86.8277937,16.657905 C87.2972992,14.6548716 88.6452161,13.3972781 90.4850094,12.6849626 C93.8695267,11.3744267 97.2840607,11.6187543 100.799122,12.6470253 C100.699444,13.9436886 100.604864,15.1766512 100.515663,16.3394014 C98.7752646,16.0973387 97.1775866,15.7576016 95.5677321,15.681727 C93.7460621,15.5959434 92.396163,16.4115956 92.2064352,17.4319393 C92.0067962,18.5069242 92.9058794,19.3254075 94.9376659,19.9488251 C96.1046335,20.3072477 97.2883084,20.6305642 98.4204453,21.0793003 C100.416268,21.8708878 101.620898,23.3133549 101.797034,25.5057917 C102.000354,28.0376825 101.473647,30.268906 99.1298007,31.7034459 C96.4903189,33.319179 93.5656791,33.2806754 90.6427383,32.9836886 C86.831475,32.595822 86.6595873,32.318087 87.2641676,28.5849424 C87.285689,28.4513124 87.3454391,28.3236279 87.3547839,28.2947503" id="Fill-16" fill="#1C2E5E"></path>
                                    <path d="M66.6464479,16.992178 C62.9796043,15.6066168 59.3518389,14.7935126 56.3430958,18.1376582 C54.5236912,20.1602265 54.3178224,23.9638665 55.9030406,26.1815005 C58.7724612,30.1960607 62.740887,29.4874257 66.8964922,28.2836239 C66.9536937,29.5805703 67.0584687,30.7781436 67.0182578,31.9711871 C67.0097625,32.2274055 66.5147712,32.6087604 66.1831723,32.6911466 C62.7338077,33.5484166 59.2841599,33.6446754 55.8951117,32.4134115 C51.4416056,30.7951304 48.8768822,26.6206107 49.3010796,21.7640688 C49.776815,16.3206309 52.7920711,12.9759191 58.0189303,12.0348473 C60.6725709,11.5569505 63.2542848,11.8310051 65.8416622,12.4988716 C66.8293795,12.7536744 67.1388907,13.2225116 66.9817281,14.1740586 C66.8299458,15.091632 66.7585855,16.0219454 66.6464479,16.992178" id="Fill-18" fill="#1C2E5E"></path>
                                    <mask id="mask-2" fill="white">
                                        <use xlink:href="#path-1"></use>
                                    </mask>
                                    <g id="Clip-21"></g>
                                    <polygon id="Fill-20" fill="#1C2E5E" mask="url(#mask-2)" points="40.9837528 32.8738119 46.3060423 32.8738119 46.3060423 12.4105966 40.9837528 12.4105966"></polygon>
                                </g>
                            </g>
                        </g>
                    </g>
                </g>
            </g>
        </g>
    </g>
</svg>