<?xml version="1.0" encoding="UTF-8"?>
<svg width="405px" height="125px" viewBox="0 0 405 125" version="1.1" xmlns="http://www.w3.org/2000/svg" xmlns:xlink="http://www.w3.org/1999/xlink">
    <!-- Generator: sketchtool 57.1 (101010) - https://sketch.com -->
    <title>60085208-2626-4EBB-9A65-C2B7D1DC588A</title>
    <desc>Created with sketchtool.</desc>
    <defs>
        <polygon id="path-1" points="-1.15107923e-13 124.938044 404.932516 124.938044 404.932516 0.000202702693 -1.15107923e-13 0.000202702693"></polygon>
    </defs>
    <g id="Asset-Artboard-Page" stroke="none" stroke-width="1" fill="none" fill-rule="evenodd">
        <g id="Infobip-logo">
            <path d="M53.864999,50.4054044 L70.9424994,50.4054044 C72.8999995,50.4054044 74.4524995,51.9594585 74.4524995,53.918918 L74.4524995,71.0135129 C74.4524995,72.9722967 72.8999995,74.5270265 70.9424994,74.5270265 L53.864999,74.5270265 C51.907499,74.5270265 50.354999,72.9722967 50.354999,71.0135129 L50.354999,53.918918 C50.354999,51.9594585 51.907499,50.4054044 53.864999,50.4054044 M7.67386155e-14,62.5 C7.67386155e-14,27.9729741 27.9449997,2.68854008e-13 62.4374993,2.68854008e-13 C96.592499,2.68854008e-13 124.402499,27.5 124.874999,61.621624 C125.347499,96.5540578 96.524999,125.40541 61.6274993,124.932437 C27.4724997,124.459464 7.67386155e-14,96.6891929 7.67386155e-14,62.5 M26.7299995,98.4459446 C33.5474994,105.270269 46.9124991,109.39189 62.4374987,109.39189 C77.9624984,109.39189 91.3274981,105.337836 98.1449979,98.4459446 C104.962498,91.6216205 109.079998,78.2432424 109.079998,62.7027022 C109.079998,47.162162 105.029998,33.7837839 98.1449979,26.9594597 C91.3274981,20.1351356 77.9624984,16.013514 62.4374987,16.013514 C46.9124991,16.013514 33.5474994,20.067568 26.7299995,26.9594597 C19.9124997,33.8513515 15.7949997,47.162162 15.7949997,62.7027022 C15.8624997,78.2432424 19.9124997,91.6216205 26.7299995,98.4459446 M33.1424996,33.1756753 C38.0024997,28.3108103 49.4774998,25.2027022 62.4375,25.2027022 C75.3975002,25.2027022 86.8725003,28.3108103 91.7325004,33.1756753 C96.5925005,38.0405402 99.6975005,49.5270268 99.6975005,62.5 C99.6975005,75.4729732 96.5925005,86.9594598 91.7325004,91.8243247 C86.8725003,96.6891897 75.3975002,99.7972978 62.4375,99.7972978 C49.4774998,99.7972978 38.0024997,96.6209464 33.1424996,91.8243247 C28.2824995,87.0270274 25.1774995,75.4729732 25.1774995,62.5 C25.1774995,49.5270268 28.2824995,38.0405402 33.1424996,33.1756753 M44.2799991,80.3378388 L44.2799991,80.3378388 C45.2924991,81.3513523 48.3299992,84.3918929 62.3024995,84.3918929 C76.2749998,84.3918929 79.3124999,81.3513523 80.3249999,80.3378388 C81.3374999,79.3243252 84.375,76.2837846 84.375,62.2972978 C84.375,48.310811 81.3374999,45.2702704 80.3249999,44.2567569 C79.3124999,43.2432433 76.2749998,40.2027027 62.3024995,40.2027027 C48.3299992,40.2027027 45.2924991,43.2432433 44.2799991,44.2567569 C43.267499,45.2702704 40.229999,48.310811 40.229999,62.2972978 C40.229999,76.2837846 43.267499,79.3243252 44.2799991,80.3378388" id="Fill-1" fill="#E9530E"></path>
            <mask id="mask-2" fill="white">
                <use xlink:href="#path-1"></use>
            </mask>
            <g id="Clip-5"></g>
            <polygon id="Fill-4" fill="#263746" mask="url(#mask-2)" points="153.967504 82.3643942 167.602505 82.3643942 167.602505 44.0535829 153.967504 44.0535829"></polygon>
            <path d="M174.89236,82.3647293 L174.89236,44.0539195 L185.69236,44.0539195 L187.37986,48.2431086 C190.55236,44.8647303 194.73736,43.1079736 199.93486,43.1079736 C204.52486,43.1079736 208.10236,44.5268924 211.004859,47.3647302 C213.839859,50.1350004 215.257359,53.7160814 215.257359,58.1079736 L215.257359,82.3647293 L201.62236,82.3647293 L201.62236,60.4052704 C201.62236,56.891757 199.05736,54.2566219 195.61486,54.2566219 C191.36236,54.2566219 188.52736,57.2971624 188.52736,61.8241893 L188.52736,82.2971617 L174.89236,82.3647293 Z" id="Fill-6" fill="#263746" mask="url(#mask-2)"></path>
            <path d="M218.362644,54.3241893 L218.362644,44.0539192 L224.775144,44.0539192 L224.775144,40.4728382 C224.775144,36.3512166 226.125144,33.1079734 228.690144,30.6079735 C231.390144,28.1079735 234.900144,26.8917573 239.152643,26.8917573 C242.392643,26.8917573 245.565143,27.2971627 248.669468,28.1079735 L246.981968,38.1755409 C245.497643,37.9052707 244.012643,37.7701355 242.527643,37.702568 C240.030143,37.702568 238.410143,39.256622 238.410143,41.8241895 L238.410143,43.9863516 L246.306968,43.9863516 L246.306968,54.3241893 L238.410143,54.3241893 L238.410143,82.3647293 L224.775144,82.3647293 L224.775144,54.3241893 L218.362644,54.3241893 Z" id="Fill-7" fill="#263746" mask="url(#mask-2)"></path>
            <path d="M254.204856,48.7162167 C258.323031,44.9324329 263.519857,43.0405411 269.932357,43.0405411 C276.344857,43.0405411 281.610532,44.9324329 285.660533,48.7162167 C289.777358,52.4324329 291.802358,57.2297302 291.802358,63.1756762 C291.802358,69.0540546 289.777358,73.8513519 285.660533,77.6351357 C281.610532,81.3513519 276.344857,83.2432438 269.932357,83.2432438 C263.519857,83.2432438 258.323031,81.3513519 254.204856,77.6351357 C250.087356,73.8513519 248.062356,69.0540546 248.062356,63.1756762 C248.062356,57.3648654 250.087356,52.5675681 254.204856,48.7162167 M269.864856,72.7702701 C274.523031,72.7702701 277.829856,68.8513513 277.829856,63.2432434 C277.829856,57.5675678 274.523031,53.648649 269.864856,53.648649 C265.207356,53.648649 261.967356,57.5675678 261.967356,63.2432434 C262.035531,68.7837838 265.274856,72.7702701 269.864856,72.7702701" id="Fill-8" fill="#263746" mask="url(#mask-2)"></path>
            <path d="M295.71736,82.3647278 L295.71736,27.8377017 L309.35236,27.8377017 L309.35236,46.7566203 C312.25486,44.3917555 315.89986,43.0404042 319.61236,43.1079717 C324.810535,43.1079717 329.06236,44.9998636 332.36986,48.7836473 C335.67736,52.4998634 337.36486,57.2971607 337.36486,63.2431065 C337.36486,69.1214848 335.67736,73.918782 332.36986,77.7025657 C329.06236,81.4187818 324.810535,83.3106737 319.61236,83.3106737 C314.95486,83.3106737 311.17486,81.8241872 308.273035,78.8512143 L306.585535,82.4322953 L295.71736,82.3647278 Z M309.082359,65.2701351 C309.082359,69.5268918 311.849859,72.6349998 315.967359,72.6349998 C320.354859,72.6349998 323.527359,68.7836487 323.527359,63.2431081 C323.527359,57.7025676 320.354859,53.7836487 315.967359,53.7836487 C311.849859,53.7836487 309.082359,56.8917568 309.082359,61.2160811 L309.082359,65.2701351 Z" id="Fill-9" fill="#263746" mask="url(#mask-2)"></path>
            <path d="M349.177492,26.1483785 C353.834992,26.1483785 357.007492,29.3916218 357.007492,33.9862165 C357.007492,38.3781085 353.834992,41.7564869 349.177492,41.7564869 C344.789992,41.7564869 341.414992,38.445676 341.414992,33.9862165 C341.414992,29.3916218 344.789992,26.1483785 349.177492,26.1483785 L349.177492,26.1483785 Z M342.359992,82.3645953 L355.994316,82.3645953 L355.994316,44.0537839 L342.359992,44.0537839 L342.359992,82.3645953 Z" id="Fill-10" fill="#263746" mask="url(#mask-2)"></path>
            <path d="M363.352492,98.4456758 L363.352492,43.9862154 L374.152491,43.9862154 L375.839991,47.5672965 C378.809991,44.5267559 382.589991,43.107837 387.179991,43.107837 C392.377491,43.107837 396.629991,44.9997289 399.937491,48.7835127 C403.244991,52.499729 404.932491,57.2970264 404.932491,63.2429725 C404.932491,69.1220266 403.244991,73.9186483 399.937491,77.7024322 C396.629991,81.4186485 392.377491,83.3112161 387.179991,83.3112161 C383.399991,83.3112161 379.822491,82.0267566 376.919991,79.6618917 L376.919991,98.4456758 L363.352492,98.4456758 Z M376.717491,65.2699991 C376.717491,69.5267558 379.484991,72.6348639 383.602491,72.6348639 C387.989991,72.6348639 391.162491,68.7841882 391.162491,63.2429721 C391.162491,57.7024316 387.989991,53.7835128 383.602491,53.7835128 C379.484991,53.7835128 376.717491,56.8916208 376.717491,61.2159451 L376.717491,65.2699991 Z" id="Fill-11" fill="#263746" mask="url(#mask-2)"></path>
            <polygon id="Fill-12" fill="#263746" mask="url(#mask-2)" points="153.967504 40.0002041 167.602505 40.0002041 167.602505 26.351555 153.967504 26.351555"></polygon>
        </g>
    </g>
</svg>