<?xml version="1.0" encoding="UTF-8"?>
<svg width="130px" height="40px" viewBox="0 0 130 40" version="1.1" xmlns="http://www.w3.org/2000/svg" xmlns:xlink="http://www.w3.org/1999/xlink">
    <!-- Generator: sketchtool 63.1 (101010) - https://sketch.com -->
    <title>CB602168-209F-4F52-B081-C731C54A1D6C</title>
    <desc>Created with sketchtool.</desc>
    <defs>
        <polygon id="path-1" points="-3.69482223e-14 39.980173 129.978333 39.980173 129.978333 6.48648647e-05 -3.69482223e-14 6.48648647e-05"></polygon>
    </defs>
    <g id="Desktop" stroke="none" stroke-width="1" fill="none" fill-rule="evenodd">
        <g id="Web_desktop" transform="translate(-1279.000000, -8271.000000)">
            <g id="Sponzori-sekcija" transform="translate(220.000000, 5234.000000)">
                <g id="Zlatni-sekcija" transform="translate(0.000000, 1635.000000)">
                    <g id="2.-zlatni-sponzor" transform="translate(0.000000, 1071.000000)">
                        <g id="Group-27" transform="translate(393.000000, 281.000000)">
                            <g id="Infobip-logo" transform="translate(666.000000, 50.000000)">
                                <path d="M17.29,16.1297297 L22.7716667,16.1297297 C23.4,16.1297297 23.8983333,16.627027 23.8983333,17.2540541 L23.8983333,22.7243243 C23.8983333,23.3511351 23.4,23.8486486 22.7716667,23.8486486 L17.29,23.8486486 C16.6616667,23.8486486 16.1633333,23.3511351 16.1633333,22.7243243 L16.1633333,17.2540541 C16.1633333,16.627027 16.6616667,16.1297297 17.29,16.1297297 M2.46321482e-14,20 C2.46321482e-14,8.95135135 8.97,8.60332826e-14 20.0416667,8.60332826e-14 C31.005,8.60332826e-14 39.9316667,8.8 40.0833333,19.7189189 C40.235,30.8972973 30.9833333,40.1297297 19.7816667,39.9783784 C8.81833333,39.827027 2.46321482e-14,30.9405405 2.46321482e-14,20 M8.58,31.5027027 C10.7683333,33.6864865 15.0583333,35.0054054 20.0416667,35.0054054 C25.025,35.0054054 29.315,33.7081081 31.5033333,31.5027027 C33.6916667,29.3189189 35.0133333,25.0378378 35.0133333,20.0648649 C35.0133333,15.0918919 33.7133333,10.8108108 31.5033333,8.62702703 C29.315,6.44324324 25.025,5.12432432 20.0416667,5.12432432 C15.0583333,5.12432432 10.7683333,6.42162162 8.58,8.62702703 C6.39166667,10.8324324 5.07,15.0918919 5.07,20.0648649 C5.09166667,25.0378378 6.39166667,29.3189189 8.58,31.5027027 M10.6383333,10.6162162 C12.1983333,9.05945946 15.8816667,8.06486486 20.0416667,8.06486486 C24.2016667,8.06486486 27.885,9.05945946 29.445,10.6162162 C31.005,12.172973 32.0016667,15.8486486 32.0016667,20 C32.0016667,24.1513514 31.005,27.827027 29.445,29.3837838 C27.885,30.9405405 24.2016667,31.9351351 20.0416667,31.9351351 C15.8816667,31.9351351 12.1983333,30.9187027 10.6383333,29.3837838 C9.07833333,27.8486486 8.08166667,24.1513514 8.08166667,20 C8.08166667,15.8486486 9.07833333,12.172973 10.6383333,10.6162162 M14.2133333,25.7081081 L14.2133333,25.7081081 C14.5383333,26.0324324 15.5133333,27.0054054 19.9983333,27.0054054 C24.4833333,27.0054054 25.4583333,26.0324324 25.7833333,25.7081081 C26.1083333,25.3837838 27.0833333,24.4108108 27.0833333,19.9351351 C27.0833333,15.4594595 26.1083333,14.4864865 25.7833333,14.1621622 C25.4583333,13.8378378 24.4833333,12.8648649 19.9983333,12.8648649 C15.5133333,12.8648649 14.5383333,13.8378378 14.2133333,14.1621622 C13.8883333,14.4864865 12.9133333,15.4594595 12.9133333,19.9351351 C12.9133333,24.4108108 13.8883333,25.3837838 14.2133333,25.7081081" id="Fill-1" fill="#E9530E"></path>
                                <mask id="mask-2" fill="white">
                                    <use xlink:href="#path-1"></use>
                                </mask>
                                <g id="Clip-5"></g>
                                <polygon id="Fill-4" fill="#263746" mask="url(#mask-2)" points="49.4216667 26.3566054 53.7983333 26.3566054 53.7983333 14.0971459 49.4216667 14.0971459"></polygon>
                                <path d="M56.13829,26.3567135 L56.13829,14.0972541 L59.6049567,14.0972541 L60.1466233,15.4377946 C61.1649567,14.3567135 62.50829,13.7945514 64.1766233,13.7945514 C65.6499567,13.7945514 66.79829,14.2486054 67.7299567,15.1567135 C68.6399567,16.0432 69.0949567,17.1891459 69.0949567,18.5945514 L69.0949567,26.3567135 L64.71829,26.3567135 L64.71829,19.3296865 C64.71829,18.2053622 63.8949567,17.3621189 62.7899567,17.3621189 C61.4249567,17.3621189 60.5149567,18.3350919 60.5149567,19.7837405 L60.5149567,26.3350919 L56.13829,26.3567135 Z" id="Fill-6" fill="#263746" mask="url(#mask-2)"></path>
                                <path d="M70.09171,17.3837405 L70.09171,14.0972541 L72.1500433,14.0972541 L72.1500433,12.9513081 C72.1500433,11.6323892 72.5833767,10.5945514 73.40671,9.79455135 C74.2733767,8.99455135 75.4000433,8.60536216 76.7650433,8.60536216 C77.8050433,8.60536216 78.8233767,8.73509189 79.8198267,8.99455135 L79.27816,12.216173 C78.80171,12.1296865 78.3250433,12.0864432 77.8483767,12.0648216 C77.04671,12.0648216 76.52671,12.5621189 76.52671,13.3837405 L76.52671,14.0756324 L79.0614933,14.0756324 L79.0614933,17.3837405 L76.52671,17.3837405 L76.52671,26.3567135 L72.1500433,26.3567135 L72.1500433,17.3837405 L70.09171,17.3837405 Z" id="Fill-7" fill="#263746" mask="url(#mask-2)"></path>
                                <path d="M81.5966233,15.5891892 C82.9185067,14.3783784 84.5866233,13.772973 86.6449567,13.772973 C88.70329,13.772973 90.3935067,14.3783784 91.6935067,15.5891892 C93.0149567,16.7783784 93.6649567,18.3135135 93.6649567,20.2162162 C93.6649567,22.0972973 93.0149567,23.6324324 91.6935067,24.8432432 C90.3935067,26.0324324 88.70329,26.6378378 86.6449567,26.6378378 C84.5866233,26.6378378 82.9185067,26.0324324 81.5966233,24.8432432 C80.2749567,23.6324324 79.6249567,22.0972973 79.6249567,20.2162162 C79.6249567,18.3567568 80.2749567,16.8216216 81.5966233,15.5891892 M86.62329,23.2864865 C88.1185067,23.2864865 89.1799567,22.0324324 89.1799567,20.2378378 C89.1799567,18.4216216 88.1185067,17.1675676 86.62329,17.1675676 C85.12829,17.1675676 84.08829,18.4216216 84.08829,20.2378378 C84.1101733,22.0108108 85.1499567,23.2864865 86.62329,23.2864865" id="Fill-8" fill="#263746" mask="url(#mask-2)"></path>
                                <path d="M94.9216233,26.3567135 L94.9216233,8.90806486 L99.29829,8.90806486 L99.29829,14.9621189 C100.229957,14.2053622 101.399957,13.7729297 102.591623,13.7945514 C104.260173,13.7945514 105.624957,14.3999568 106.686623,15.6107676 C107.74829,16.7999568 108.289957,18.3350919 108.289957,20.2377946 C108.289957,22.1188757 107.74829,23.6540108 106.686623,24.8648216 C105.624957,26.0540108 104.260173,26.6594162 102.591623,26.6594162 C101.096623,26.6594162 99.88329,26.1837405 98.95184,25.2323892 L98.4101733,26.3783351 L94.9216233,26.3567135 Z M99.2116233,20.8864432 C99.2116233,22.2486054 100.099957,23.2432 101.421623,23.2432 C102.829957,23.2432 103.84829,22.0107676 103.84829,20.2377946 C103.84829,18.4648216 102.829957,17.2107676 101.421623,17.2107676 C100.099957,17.2107676 99.2116233,18.2053622 99.2116233,19.5891459 L99.2116233,20.8864432 Z" id="Fill-9" fill="#263746" mask="url(#mask-2)"></path>
                                <path d="M112.081667,8.36748108 C113.576667,8.36748108 114.595,9.40531892 114.595,10.8755892 C114.595,12.2809946 113.576667,13.3620757 112.081667,13.3620757 C110.673333,13.3620757 109.59,12.3026162 109.59,10.8755892 C109.59,9.40531892 110.673333,8.36748108 112.081667,8.36748108 L112.081667,8.36748108 Z M109.893333,26.3566703 L114.269783,26.3566703 L114.269783,14.0972108 L109.893333,14.0972108 L109.893333,26.3566703 Z" id="Fill-10" fill="#263746" mask="url(#mask-2)"></path>
                                <path d="M116.631667,31.5026162 L116.631667,14.0755892 L120.098333,14.0755892 L120.64,15.2215351 C121.593333,14.2485622 122.806667,13.7945081 124.28,13.7945081 C125.948333,13.7945081 127.313333,14.3999135 128.375,15.6107243 C129.436667,16.7999135 129.978333,18.3350486 129.978333,20.2377514 C129.978333,22.1190486 129.436667,23.6539676 128.375,24.8647784 C127.313333,26.0539676 125.948333,26.6595892 124.28,26.6595892 C123.066667,26.6595892 121.918333,26.2485622 120.986667,25.4918054 L120.986667,31.5026162 L116.631667,31.5026162 Z M120.921667,20.8864 C120.921667,22.2485622 121.81,23.2431568 123.131667,23.2431568 C124.54,23.2431568 125.558333,22.0109405 125.558333,20.2377514 C125.558333,18.4647784 124.54,17.2107243 123.131667,17.2107243 C121.81,17.2107243 120.921667,18.2053189 120.921667,19.5891027 L120.921667,20.8864 Z" id="Fill-11" fill="#263746" mask="url(#mask-2)"></path>
                                <polygon id="Fill-12" fill="#263746" mask="url(#mask-2)" points="49.4216667 12.8000649 53.7983333 12.8000649 53.7983333 8.4324973 49.4216667 8.4324973"></polygon>
                            </g>
                        </g>
                    </g>
                </g>
            </g>
        </g>
    </g>
</svg>